<?xml version="1.0" encoding="utf-8"?><svg xmlns="http://www.w3.org/2000/svg" xmlns:xlink="http://www.w3.org/1999/xlink"><symbol viewBox="-53 176.9 489 489" id="address"><path d="M26.5 180.1l165 80.9 165-80.9c25.3-12.4 52.4 13.1 41.6 39.1L219.6 647.1c-10.4 25-45.8 25-56.3 0L-15.1 219.2c-10.8-25.9 16.3-51.5 41.6-39.1z"/></symbol><symbol viewBox="0 0 496 496" id="admin"><path d="M496 286.216c0-28.064-15.984-52.624-40-64.48V96c0-52.936-43.064-96-96-96s-96 43.064-96 96v9.456c-10.12-1.728-20.64-1.912-31.216-.272-.568.088-1.128.24-1.696.336.552-3.136.912-6.304.912-9.52V64c0-12.656-9.84-23.056-22.28-23.936C193.544 15.232 165.712 0 136 0 87.48 0 48 39.48 48 88v8c0 18.28 9.128 35.352 24 45.768v.456c0 20.16 9.392 38.144 24 49.88v17.128L60.168 215.2C25.304 221 0 250.872 0 286.216V352h141.504C114.264 362.696 96 388.848 96 418.912V496h304v-77.088c0-30.064-18.264-56.216-45.504-66.912H496v-65.784zM280 96c0-44.112 35.888-80 80-80s80 35.888 80 80v120.08c-1.384-.312-2.752-.648-4.168-.888L400 209.224v-17.128c14.608-11.744 24-29.72 24-49.88l-.056-50.688-11.344 5.224c-.16.08-16.144 7.248-52.6 7.248s-52.44-7.168-52.536-7.208L296 91.296v25.656c-5.08-2.936-10.456-5.344-16-7.312V96zm51.344 56.496c-5.2-9.128-11.784-17.12-19.344-23.896v-13.64c9.512 2.392 25.2 5.04 48 5.04s38.488-2.648 48-5.04v27.256c0 26.472-21.528 48-48 48-2.68 0-5.344-.296-8-.752V177.68c0-12.44-8.888-22.832-20.656-25.184zm13.696 89.328C349.488 231.192 352 219.736 352 208v-2.36c2.656.336 5.328.584 8 .584a63.562 63.562 0 0 0 24-4.712v13.2l-24 72-14.96-44.888zm.656 52.568l-21.912-21.912c3.944-3.664 7.44-7.704 10.616-11.984l11.296 33.896zm51.736-69.384l12.64 2.104 5.24 26.256-41.008 41.016 23.128-69.376zM235.216 120.992c34.488-5.344 68.192 11.832 83.968 42.648l2.24 4.36h4.888c5.344 0 9.688 4.344 9.688 9.68V208c0 16.512-5.824 32.448-16.008 45.136l-.04-49.08-11.056 4.568c-.176.08-18.344 7.376-60.896 7.376s-60.72-7.296-60.848-7.352L176 203.872v30.696c-6.472-13.448-9.184-28.576-7.48-43.808 3.92-35.072 31.968-64.408 66.696-69.768zm-76.584 113.536c1.808 4.672 3.904 9.232 6.432 13.584l-14.112-8.472 7.68-5.112zM136.28 230.2L112 212v-10.496a63.562 63.562 0 0 0 24 4.712c5.536 0 10.96-.792 16.248-2.2.216 4.864.736 9.688 1.672 14.424l-17.64 11.76zm32.624 38.864l7.84 4.704c2.36 17.296 10.864 32.616 23.256 43.744V336h-32.936l-6.76-54.04 8.6-12.896zm37.12 83.608l27.992 22.392-23.592 14.16-21.704-32.56 17.304-3.992zm9.976-12.52V328.4c9.656 4.816 20.496 7.6 32 7.6 11.504 0 22.344-2.776 32-7.6v11.752l-32 25.6-32-25.6zm73.976 12.512l17.304 3.992-21.704 32.56-23.592-14.16 27.992-22.392zM248 320c-30.872 0-56-25.128-56-56v-37.328c10.456 2.44 28.616 5.328 56 5.328s45.544-2.888 56-5.328V264c0 30.872-25.128 56-56 56zM72 91.296v28.584c-5.088-6.808-8-15.16-8-23.88v-8c0-39.704 32.296-72 72-72 25.552 0 49.424 13.8 62.288 36.008L200.6 56h7.4c4.416 0 8 3.584 8 8v32c0 5.016-1.008 9.904-2.88 14.608a94.986 94.986 0 0 0-13.136 6.416l-.032-25.488-11.344 5.224c-.168.072-16.152 7.24-52.608 7.24s-52.44-7.168-52.536-7.208L72 91.296zm16 50.92V114.96c9.512 2.392 25.2 5.04 48 5.04s38.488-2.648 48-5.04v13.72c-16.6 14.984-28.04 35.616-31.08 58.368-5.44 2.072-11.104 3.176-16.92 3.176-26.472-.008-48-21.536-48-48.008zm13.936 82.232l19.744 14.808-22.936 13.768-15.296-25.488 18.488-3.088zm3 111.552H64v-24H48v24H16v-49.784c0-27.496 19.68-50.728 46.792-55.24l3.696-.616 26.768 44.616 9.84-5.904 8.592 12.888-6.752 54.04zm16.12 0l7.24-57.96-11.472-17.208L136 249.328l19.168 11.496-11.472 17.208 7.24 57.968h-29.88zm95.784 144H160v-40h-16v40h-32v-61.088c0-26.232 17.848-48.672 43.408-54.56l16.648-3.84 33.52 50.272 9.52-5.712 8.632 12.944L216.84 480zm46.224 0h-30.12l7.336-66.016-11.44-17.16L248 385.328l19.168 11.496-11.44 17.16L263.064 480zM384 418.912V480h-32v-40h-16v40h-56.84l-6.888-61.984 8.632-12.944 9.52 5.712 33.52-50.272 16.648 3.84C366.152 370.24 384 392.68 384 418.912zM480 336h-32v-24h-16v24H296v-18.488c9.032-8.112 16-18.448 20.04-30.168L360 331.312l72.688-72.68-5.744-28.704 6.264 1.048c27.112 4.52 46.792 27.752 46.792 55.24V336z"/></symbol><symbol viewBox="0 0 380.721 380.721" id="aid"><path d="M355.625 93.925h-89.626V55.212c0-7.14-5.787-12.908-12.897-12.908H131.918c-7.128 0-12.908 5.769-12.908 12.908v38.713H24.364C9.318 93.925 0 101.814 0 113.282v22.941h380.721v-21.14c0-11.113-8.597-21.158-25.096-21.158zm-115.444 0h-95.354V68.108h95.354v25.817zM1.441 321.222c0 10.038 4.996 17.195 17.201 17.195h343.419c12.188 0 17.207-9.853 17.207-17.195V149.857H1.429v171.364h.012zM190.36 176.923c37.134 0 67.227 30.086 67.227 67.219 0 37.122-30.093 67.227-67.227 67.227-37.133 0-67.219-30.104-67.219-67.227 0-37.132 30.086-67.219 67.219-67.219z"/><path d="M175.954 288.236h28.814v-29.674h29.686v-28.837h-29.686v-29.686h-28.814v29.686h-29.698v28.837h29.698z"/></symbol><symbol viewBox="0 0 275.836 275.836" id="appointment"><path d="M191.344 20.922l-95.155 95.155a5.99 5.99 0 0 0-1.565 2.734l-8.167 31.454a6.003 6.003 0 0 0 7.315 7.316l31.454-8.168a6.003 6.003 0 0 0 2.734-1.565l95.153-95.153.005-.004.004-.005 19.156-19.156a5.998 5.998 0 0 0 .001-8.484L218.994 1.758a5.998 5.998 0 0 0-8.485 0l-19.155 19.155-.005.004-.005.005zm-70.713 117.286l-19.993 5.192 5.191-19.993 89.762-89.762 14.801 14.802-89.761 89.761zm94.12-123.723l14.801 14.802-10.675 10.675-14.801-14.802 10.675-10.675z"/><path d="M238.037 65.022a6 6 0 0 0-6 6v192.813H43.799V34.417h111.063a6 6 0 0 0 0-12H37.799a6 6 0 0 0-6 6v241.419a6 6 0 0 0 6 6h200.238a6 6 0 0 0 6-6V71.022a6 6 0 0 0-6-6z"/></symbol><symbol viewBox="0 0 512 512" id="arrow-down"><path d="M509.121 125.966a9.821 9.821 0 0 0-13.893 0L256.005 365.194 16.771 125.966a9.821 9.821 0 0 0-13.893 0 9.821 9.821 0 0 0 0 13.893l246.18 246.175a9.819 9.819 0 0 0 13.893 0l246.17-246.175a9.821 9.821 0 0 0 0-13.893z"/></symbol><symbol viewBox="0 0 451.847 451.847" id="arrow-left-900"><path d="M97.141 225.92c0-8.095 3.091-16.192 9.259-22.366L300.689 9.27c12.359-12.359 32.397-12.359 44.751 0 12.354 12.354 12.354 32.388 0 44.748L173.525 225.92l171.903 171.909c12.354 12.354 12.354 32.391 0 44.744-12.354 12.365-32.386 12.365-44.745 0l-194.29-194.281c-6.167-6.177-9.252-14.274-9.252-22.372z"/></symbol><symbol viewBox="0 0 268.832 268.832" id="arrow-next"><path d="M265.171 125.577l-80-80c-4.881-4.881-12.797-4.881-17.678 0-4.882 4.882-4.882 12.796 0 17.678l58.661 58.661H12.5c-6.903 0-12.5 5.597-12.5 12.5 0 6.902 5.597 12.5 12.5 12.5h213.654l-58.659 58.661c-4.882 4.882-4.882 12.796 0 17.678 2.44 2.439 5.64 3.661 8.839 3.661s6.398-1.222 8.839-3.661l79.998-80c4.882-4.882 4.882-12.796 0-17.678z"/></symbol><symbol viewBox="0 0 476.213 476.213" id="arrow-next-flat"><path d="M345.606 107.5l-21.212 21.213 94.393 94.394H0v30h418.787L324.394 347.5l21.212 21.213 130.607-130.607z"/></symbol><symbol viewBox="0 0 512 512" id="arrow-right"><path d="M386.035 249.056L139.858 2.878c-3.838-3.838-10.055-3.838-13.893 0s-3.838 10.055 0 13.893l239.231 239.231-239.231 239.227a9.821 9.821 0 0 0 0 13.893c1.919 1.919 4.433 2.878 6.946 2.878s5.028-.96 6.946-2.878l246.178-246.173a9.823 9.823 0 0 0 0-13.893z"/></symbol><symbol viewBox="0 0 451.846 451.847" id="arrow-right-900"><path d="M345.441 248.292L151.154 442.573c-12.359 12.365-32.397 12.365-44.75 0-12.354-12.354-12.354-32.391 0-44.744L278.318 225.92 106.409 54.017c-12.354-12.359-12.354-32.394 0-44.748 12.354-12.359 32.391-12.359 44.75 0l194.287 194.284c6.177 6.18 9.262 14.271 9.262 22.366 0 8.099-3.091 16.196-9.267 22.373z"/></symbol><symbol viewBox="0 0 240.823 240.823" id="arrow-right-bold"><path d="M183.189 111.816L74.892 3.555c-4.752-4.74-12.451-4.74-17.215 0-4.752 4.74-4.752 12.439 0 17.179l99.707 99.671-99.695 99.671c-4.752 4.74-4.752 12.439 0 17.191 4.752 4.74 12.463 4.74 17.215 0l108.297-108.261c4.68-4.691 4.68-12.511-.012-17.19z"/></symbol><symbol viewBox="0 0 320.731 320.731" id="basket-add"><path d="M221.212 100.101h-37.687V80.994h37.687V43.307h19.113v37.687h37.687v19.107h-37.687v37.693h-19.113v-37.693zm37.603 129.925l-161.918.129 9.178 30.45c2.886-.906 5.893-1.517 9.075-1.517 6.401 0 12.327 1.986 17.237 5.347h110.13a30.425 30.425 0 0 1 17.243-5.347c16.858 0 30.527 13.67 30.527 30.527 0 16.858-13.67 30.527-30.527 30.527-16.864 0-30.527-13.67-30.527-30.527 0-4.396.964-8.548 2.635-12.327h-88.819c1.671 3.779 2.635 7.931 2.635 12.327 0 16.858-13.67 30.527-30.527 30.527-16.864 0-30.527-13.67-30.527-30.527 0-8.927 3.895-16.883 10.013-22.468l-61.537-204.2-26.653.116h-.026A6.419 6.419 0 0 1 0 56.668a6.43 6.43 0 0 1 6.401-6.459l31.466-.135h.026c3.368 0 6.061 2.616 6.324 5.926.154.315.392.572.495.925l9.672 32.115c.437-.096.855-.27 1.317-.27h85.188C141.853 39.99 181.757.587 230.762.587c49.609 0 89.969 40.354 89.969 89.963 0 30.765-15.534 57.951-39.152 74.185l-16.17 59.602c-.129.463-.366.855-.585 1.266-.842 2.553-3.175 4.423-6.009 4.423zm-16.735 59.583c0 9.743 7.924 17.674 17.674 17.674 9.749 0 17.674-7.931 17.674-17.674 0-9.756-7.924-17.674-17.674-17.674s-17.674 7.918-17.674 17.674zm-144.604 0c0 9.743 7.924 17.674 17.674 17.674s17.674-7.931 17.674-17.674c0-9.756-7.924-17.674-17.674-17.674s-17.674 7.918-17.674 17.674zm56.177-199.065c0 42.526 34.589 77.128 77.109 77.128s77.116-34.596 77.116-77.128c0-42.514-34.596-77.109-77.116-77.109s-77.109 34.596-77.109 77.109zM254.04 217.185l11.883-43.818a89.434 89.434 0 0 1-35.161 7.166c-45.855 0-83.722-34.512-89.211-78.909H58.176l34.853 115.689 161.011-.128z"/></symbol><symbol viewBox="0 0 59 59" id="basket-remove"><path d="M29.5 51a1 1 0 0 0 1-1V17a1 1 0 1 0-2 0v33a1 1 0 0 0 1 1zm-10 0a1 1 0 0 0 1-1V17a1 1 0 1 0-2 0v33a1 1 0 0 0 1 1zm20 0a1 1 0 0 0 1-1V17a1 1 0 1 0-2 0v33a1 1 0 0 0 1 1z"/><path d="M52.5 6H38.456c-.11-1.25-.495-3.358-1.813-4.711C35.809.434 34.751 0 33.499 0H23.5c-1.252 0-2.31.434-3.144 1.289C19.038 2.642 18.653 4.75 18.543 6H6.5a1 1 0 1 0 0 2h2.041l1.915 46.021C10.493 55.743 11.565 59 15.364 59h28.272c3.799 0 4.871-3.257 4.907-4.958L50.459 8H52.5a1 1 0 1 0 0-2zM21.792 2.681C22.24 2.223 22.799 2 23.5 2h9.999c.701 0 1.26.223 1.708.681.805.823 1.128 2.271 1.24 3.319H20.553c.112-1.048.435-2.496 1.239-3.319zm24.752 51.298C46.538 54.288 46.4 57 43.636 57H15.364c-2.734 0-2.898-2.717-2.909-3.042L10.542 8h37.915l-1.913 45.979z"/></symbol><symbol viewBox="0 0 342.947 342.947" id="cancel"><path d="M342.947 21.213L321.734 0 171.473 150.26 21.213 0 0 21.213l150.26 150.26L0 321.734l21.213 21.213 150.26-150.261 150.261 150.261 21.213-21.213-150.261-150.261z"/></symbol><symbol viewBox="0 0 386.588 386.588" id="children"><path d="M49.419 244.723c16.438 45.334 54.559 79.707 100.532 93.25 8.144 15.661 24.5 26.402 43.342 26.402 18.84 0 35.196-10.741 43.336-26.402 45.974-13.543 84.098-47.922 100.532-93.25 27.304-.311 49.426-22.614 49.426-49.998 0-27.379-22.116-49.687-49.426-50-10.504-28.975-29.892-53.466-54.498-70.939v19.288c0 1.37-.226 2.685-.548 3.958 18.273 15.82 32.272 36.477 39.524 60.252l2.345 7.699 7.958-1.172c1.814-.262 3.276-.387 4.641-.387 17.256 0 31.298 14.042 31.298 31.301 0 17.264-14.042 31.305-31.298 31.305-1.364 0-2.826-.128-4.616-.39l-7.977-1.193-2.351 7.715c-11.923 39.087-42.052 69.715-79.549 84.231.006-.286.043-.566.043-.853 0-9.268-2.643-17.921-7.155-25.318 4.524-4.865 7.155-10.607 7.155-16.843 0-17.963-21.452-32.029-48.841-32.029-27.392 0-48.841 14.066-48.841 32.029 0 6.235 2.631 11.978 7.152 16.843-4.509 7.397-7.152 16.051-7.152 25.318 0 .286.037.566.043.853-37.503-14.517-67.626-45.145-79.549-84.231l-2.351-7.715-7.974 1.193c-1.796.262-3.264.39-4.622.39-17.26 0-31.295-14.041-31.295-31.305 0-17.259 14.036-31.301 31.295-31.301 1.352 0 2.825.125 4.634.387l7.961 1.172 2.345-7.699c7.979-26.178 24.167-48.519 45.212-64.828V69.639c-27.554 17.628-49.359 43.711-60.733 75.073C22.116 145.038 0 167.345 0 194.725c0 27.383 22.116 49.687 49.419 49.998zm113.734 70.811c0-5.462 1.571-10.528 4.128-14.949 4.095-7.094 10.917-12.373 19.104-14.31 2.226-.535 4.521-.877 6.908-.877 2.387 0 4.683.354 6.905.877 8.185 1.931 15.004 7.216 19.103 14.31 2.551 4.421 4.128 9.487 4.128 14.949 0 2.338-.322 4.585-.834 6.771-2.362 10.182-9.877 18.299-19.649 21.635-3.051 1.048-6.26 1.736-9.658 1.736s-6.61-.688-9.658-1.736c-9.773-3.336-17.299-11.459-19.649-21.635-.497-2.186-.828-4.433-.828-6.771zm30.141-55.491c18.109 0 30.135 8.026 30.135 13.324 0 .913-.475 1.918-1.163 2.935-8.11-6.011-18.115-9.615-28.972-9.615s-20.864 3.604-28.981 9.615c-.679-1.017-1.16-2.021-1.16-2.935 0-5.298 12.023-13.324 30.141-13.324z"/><path d="M153.8 213.169c16.082 0 16.082-24.941 0-24.941s-16.082 24.941 0 24.941zm78.982-1.559c16.082 0 16.082-24.941 0-24.941-16.081 0-16.081 24.941 0 24.941zm-90.411-87.549h2.076l1.882-.88c17.156-8.017 29.094-14.273 37.518-19.284 3.879 1.589 8.114 2.5 12.559 2.5s8.677-.911 12.562-2.5c8.428 5.011 20.362 11.268 37.51 19.284l1.888.88h2.076c9.858 0 18.115-6.616 20.812-15.606.591-1.982 1.011-4.04 1.011-6.217V44.049c0-12.032-9.785-21.823-21.823-21.823h-2.076l-1.888.88c-10.498 4.908-19.047 9.158-26.05 12.875-4.433 2.35-8.202 4.469-11.46 6.409-2.898-1.185-6.028-1.845-9.268-2.168-1.099-.112-2.164-.332-3.294-.332s-2.201.225-3.297.338c-3.236.323-6.366.977-9.262 2.167-3.267-1.945-7.027-4.058-11.46-6.408-7.008-3.718-15.551-7.962-26.058-12.876l-1.882-.898h-2.076c-12.035 0-21.824 9.789-21.824 21.824v58.195c0 2.177.417 4.232 1.011 6.217 2.7 8.995 10.954 15.612 20.813 15.612zm51.34-65.203c.88-.162 1.771-.274 2.694-.274s1.82.106 2.694.274c1.599.298 3.084.904 4.46 1.684 1.863 1.06 3.478 2.488 4.713 4.229.073.098.159.191.231.298a14.44 14.44 0 0 1 1.212 13.886 14.798 14.798 0 0 1-1.212 2.244 14.86 14.86 0 0 1-3.823 3.879c-.354.243-.743.435-1.121.648-2.119 1.208-4.542 1.957-7.154 1.957s-5.033-.749-7.158-1.957c-.374-.213-.761-.405-1.117-.648a14.715 14.715 0 0 1-3.821-3.879 14.063 14.063 0 0 1-1.215-2.238 14.368 14.368 0 0 1-1.236-5.824c0-2.98.91-5.754 2.457-8.068.219-.326.487-.6.722-.898a14.522 14.522 0 0 1 4.217-3.623c1.37-.786 2.856-1.386 4.457-1.69zm58.136-17.61a3.124 3.124 0 0 1 1.718 2.789v58.194c0 .25-.146.448-.195.679-.219.904-.719 1.702-1.522 2.106-9.365-4.445-19.272-9.502-27.474-14.029.499-.785.9-1.638 1.339-2.469 2.436-4.619 3.952-9.806 3.952-15.387 0-1.486-.25-2.898-.433-4.326-.407-3.075-1.108-6.056-2.289-8.805-.719-1.659-1.607-3.218-2.569-4.722.932-.518 1.905-1.035 2.874-1.564a426.025 426.025 0 0 1 5.991-3.179 555.953 555.953 0 0 1 18.608-9.287zM139.253 55.067v-11.03a3.13 3.13 0 0 1 1.72-2.789 563 563 0 0 1 16.443 8.163 528.718 528.718 0 0 1 8.163 4.308c.971.523 1.939 1.05 2.874 1.568-.968 1.501-1.851 3.06-2.563 4.719-.986 2.274-1.671 4.688-2.125 7.188-.35 1.933-.6 3.91-.6 5.943 0 5.581 1.516 10.763 3.955 15.388.436.831.834 1.678 1.34 2.463-8.205 4.527-18.109 9.59-27.475 14.039-.81-.414-1.309-1.206-1.525-2.11-.058-.229-.195-.43-.195-.679V55.067h-.012z"/></symbol><symbol viewBox="-171 49 726 726.8" id="compass2"><style>.st0{fill:#fff}</style><circle cx="192" cy="412.8" r="363"/><path d="M49.6 232.4l140.9 69.1 140.9-69.1c21.6-10.6 44.7 11.2 35.5 33.4L214.5 631.2c-8.9 21.3-39.1 21.3-48.1 0L14.1 265.8c-9.3-22.2 13.9-44 35.5-33.4z"/></symbol><symbol viewBox="0 0 504 504" id="contacts"><path d="M112 56a8 8 0 0 0-8 8v16a8 8 0 0 0 16 0V64a8 8 0 0 0-8-8z"/><path d="M432 0H88C65.944 0 48 17.944 48 40v24h-8a8 8 0 0 0 0 16h8v24h-8a8 8 0 0 0 0 16h8v24h-8a8 8 0 0 0 0 16h8v24h-8a8 8 0 0 0 0 16h8v24h-8a8 8 0 0 0 0 16h8v24h-8a8 8 0 0 0 0 16h8v24h-8a8 8 0 0 0 0 16h8v24h-8a8 8 0 0 0 0 16h8v24h-8a8 8 0 0 0 0 16h8v24h-8a8 8 0 0 0 0 16h8v24c0 22.056 17.944 40 40 40h344c22.056 0 40-17.944 40-40V40c0-22.056-17.944-40-40-40zm24 464c0 13.234-10.766 24-24 24H120V112a8 8 0 0 0-16 0v376H88c-13.234 0-24-10.766-24-24v-24h8a8 8 0 0 0 0-16h-8v-24h8a8 8 0 0 0 0-16h-8v-24h8a8 8 0 0 0 0-16h-8v-24h8a8 8 0 0 0 0-16h-8v-24h8a8 8 0 0 0 0-16h-8v-24h8a8 8 0 0 0 0-16h-8v-24h8a8 8 0 0 0 0-16h-8v-24h8a8 8 0 0 0 0-16h-8v-24h8a8 8 0 0 0 0-16h-8V80h8a8 8 0 0 0 0-16h-8V40c0-13.234 10.766-24 24-24h16v16a8 8 0 0 0 16 0V16h312c13.234 0 24 10.766 24 24v424z"/><path d="M381.292 323.539a7.743 7.743 0 0 0-.145-.038l-37.288-9.47c-3.997-1.144-7.615-3.475-7.615-4.926l-.029-22.892c10.562-13.756 16.351-31.055 16.351-49.078v-14.423c11.97-38.772 3.612-72.336-.678-82.085-.012-.027-.027-.051-.039-.077a7.823 7.823 0 0 0-.234-.467c-.046-.085-.089-.172-.137-.255-.077-.132-.161-.259-.245-.386-.065-.099-.128-.199-.197-.294-.071-.098-.148-.19-.224-.284-.091-.114-.181-.229-.277-.337-.062-.069-.128-.133-.191-.199a7.619 7.619 0 0 0-.359-.36c-.056-.051-.115-.098-.172-.147a8.069 8.069 0 0 0-.418-.346c-.064-.048-.132-.091-.197-.138a8.31 8.31 0 0 0-.43-.291c-.086-.053-.176-.099-.264-.149-.132-.074-.263-.151-.398-.218-.112-.055-.228-.102-.342-.152-.118-.051-.234-.105-.354-.151-.129-.049-.262-.09-.395-.132-.112-.036-.222-.075-.336-.106-.131-.036-.264-.063-.397-.092-.122-.027-.243-.056-.366-.078-.117-.02-.236-.032-.354-.047-.146-.019-.291-.038-.438-.048-.096-.007-.193-.007-.29-.01a8.158 8.158 0 0 0-.519-.005c-.08.002-.16.01-.24.015a8.35 8.35 0 0 0-.567.052c-.025.003-.049.003-.074.007-9.342 1.334-20.539-1.347-32.393-4.184-20.534-4.916-43.709-10.459-63.76 4.224-19.246 1.466-32.93 17.6-32.93 39.458 0 16.345 7.699 45.81 9.331 51.872v8.05c0 18.775 6.102 36.212 16.019 49.662-.009.156-.024.31-.024.468l-.03 23.66c0 1.44-3.618 3.771-7.616 4.916l-37.288 9.47a7.743 7.743 0 0 0-.145.038c-22.786 6.243-34.708 28.186-34.708 46.634v10.561c0 10.579 9.448 19.186 21.063 19.186l213.982-.023c11.614 0 21.063-8.606 21.063-19.186v-10.561c.002-18.452-11.92-40.395-34.706-46.638zm-125.644-14.391l.011-8.332c9.569 6.775 20.647 10.715 32.34 10.715 11.497 0 22.523-3.525 32.235-10.11l.01 7.694c0 8.669 6.238 14.684 13.472 18.13-11.326 11.022-27.991 17.584-45.704 17.584-17.725 0-34.404-6.573-45.73-17.61 7.189-3.454 13.366-9.452 13.366-18.071zm-25.296-133.721c0-17.403 10.669-23.578 19.806-23.578.039 0 .076-.005.115-.006.224-.003.448-.012.671-.034.088-.009.174-.025.261-.037.172-.023.345-.045.516-.079.108-.021.212-.051.318-.076.147-.036.294-.069.44-.113.117-.035.23-.079.344-.12.131-.046.262-.09.391-.143.124-.051.244-.111.365-.169.114-.054.228-.104.34-.164.14-.075.275-.159.41-.242.087-.053.176-.102.262-.159.18-.12.352-.25.522-.385.035-.028.073-.051.108-.08 14.399-11.764 32.71-7.38 52.097-2.738 10.242 2.452 20.762 4.971 30.896 4.971.277 0 .553-.009.83-.013 2.657 9.28 5.478 26.788 2.359 47.648-14.162-5.314-50.846-16.982-99.935-16.982-.022 0-.043.003-.064.003a8.158 8.158 0 0 0-.519.026c-.098.007-.197.01-.294.021-.137.015-.272.04-.408.063-.13.021-.262.039-.39.066-.084.018-.166.043-.249.064-.174.043-.348.086-.518.14l-.09.033c-.216.072-.429.15-.636.239l-.011.005c-.231.1-.456.21-.674.33-.031.017-.06.037-.09.055a7.821 7.821 0 0 0-.554.34c-.105.071-.203.151-.304.227-.1.075-.203.146-.299.226-.142.117-.276.246-.411.373-.05.048-.104.092-.153.141-.128.128-.246.265-.366.402-.051.058-.105.113-.154.173-.094.115-.18.237-.267.357-.068.093-.139.183-.203.279-.062.093-.117.192-.176.289-.081.133-.163.266-.236.404-.04.076-.075.157-.113.235-.081.165-.159.33-.229.501-.008.019-.018.036-.025.055-.104.262-.783 1.987-1.746 4.697-1.143-6.507-1.937-12.692-1.937-17.245zm9.331 56.706c0-10.58 4.654-25.434 7.348-33.149 44.464.861 77.791 11.802 89.535 16.23v21.922c0 31.654-22.241 58.396-48.567 58.396-25.738 0-48.316-28.123-48.316-60.182v-3.217zM400 380.734c0 1.504-2.165 3.186-5.063 3.186l-213.982.023c-2.897 0-5.062-1.682-5.062-3.186v-10.561c0-12.364 7.855-27.033 22.868-31.184l26.557-6.745c14.115 17.726 37.661 28.563 62.695 28.563 25.031 0 48.571-10.833 62.687-28.554l26.432 6.713c15.014 4.15 22.869 18.82 22.869 31.185v10.56z"/></symbol><symbol viewBox="-41 164.9 512 512" id="cosmetology"><path d="M342.6 582.9c-.6 0-1.1-.1-1.7-.2-4-.9-6.6-4.9-5.6-9 .1-.4 8.6-38.7 5.4-83.5-4.2-58.8-25.6-100.5-63.6-123.9-51.6-31.8-84.2-80.1-102.5-115-19.7-37.7-27.3-67.7-27.6-68.9-1-4 1.5-8.1 5.5-9.1s8.1 1.5 9.1 5.5c.1.5 7.6 29.9 26.5 66 17.4 33.1 48.3 78.9 96.8 108.8 23.4 14.4 41.4 35.4 53.5 62.2 9.5 21.2 15.3 46 17.3 73.8 3.3 47-5.4 85.9-5.8 87.5-.8 3.5-3.9 5.8-7.3 5.8zm78.1-106.5c-3.7 0-6.9-2.7-7.4-6.5 0-.3-4.3-29.9-19.4-64.2-13.8-31.2-39.8-72.8-85.2-94-49.2-23-80.9-57.9-98.8-83.2-19.5-27.4-27.3-49.3-27.6-50.2-1.4-3.9.7-8.2 4.6-9.6 3.9-1.4 8.2.7 9.6 4.6.1.4 7.7 21.3 26 46.9 16.9 23.6 46.6 56.3 92.7 77.8 39.4 18.4 71.5 53.7 92.8 102 15.9 36.1 20.2 66.5 20.4 67.8.6 4.1-2.3 7.9-6.4 8.5-.6 0-.9.1-1.3.1z"/><path d="M196.3 559.6c-6.6 0-10.6-.4-11.3-.4-4.1-.4-7.2-4-6.8-8.2.4-4.1 4-7.2 8.2-6.8.7.1 67.2 5.6 120.9-35.2 3.3-2.5 8-1.9 10.5 1.4s1.9 8-1.4 10.5c-45.4 34.6-97.5 38.7-120.1 38.7zm10.1-229.8c-33.6-.1-51.4-6.2-55.9-19.1-5.5-15.8 13.6-31.8 15.8-33.6 3.2-2.6 8-2.1 10.5 1.2 2.6 3.2 2.1 7.9-1.1 10.5-5.4 4.4-12.5 12.9-11.1 16.9.3.9 4.2 9 41.7 9.1 4.1 0 7.5 3.4 7.5 7.5.1 4.2-3.2 7.5-7.4 7.5zM82.7 450.9c-1.3 0-2.6-.3-3.8-1.1C75 447.5 40.4 427 34.2 422c-2.1-1.7-3.3-4-3.5-6.8-.5-7 6-14.8 20-29.7 2.4-2.6 5.5-5.8 7.4-8.1-2.4-2.7-6.9-6.9-10.1-9.9-10.1-9.4-15.4-14.6-16.4-19.9-1.5-8.5 6.3-14.7 52.7-41.3 7.3-4.2 13.5-7.8 17-10 8.1-5.2 9-9.7 12.1-32.4.6-4.6 1.4-9.8 2.3-15.8 5.8-38.3 34.2-52.9 35.4-53.5 3.7-1.9 8.2-.4 10.1 3.4 1.8 3.7.4 8.2-3.3 10-1 .5-22.7 12.1-27.3 42.4-.9 5.9-1.6 11-2.2 15.6-3.2 23.3-4.7 33.9-18.9 43-3.7 2.4-10.1 6.1-17.6 10.3-12.2 7-36 20.7-43.8 27.2 2.6 2.9 7.2 7.2 10.3 10 11.3 10.5 17.5 16.3 15.9 23.1-.9 3.6-3.9 7-12.4 16.1-4.3 4.6-11.5 12.3-14.6 16.9 8.3 5.5 27.4 17 39.5 24.2 3.6 2.1 4.7 6.7 2.6 10.3-1.6 2.5-4.1 3.8-6.7 3.8z"/><path d="M189.3 674.3h-.8c-4.1-.4-7.1-4.1-6.7-8.2 5.4-53.1-6-74.7-16.5-87.7-5.7-7-45.4-17.4-71.6-24.2-27.3-7.1-50.8-13.3-61.2-19.5C24.6 530 19.8 524 18.3 517c-2.6-12.2 5.5-23.5 11.3-31.8.8-1.1 1.6-2.3 2.3-3.3 4.6-6.8-1.2-25.4-3.7-33.4-.6-1.9-1.1-3.6-1.5-5-1.1-4-.6-7.9 1.5-11.3 4.1-6.9 12.9-9.4 14.7-9.8 4-1 8.1 1.5 9.1 5.5s-1.5 8.1-5.5 9c-2 .5-4.5 1.8-5.2 2.7.3 1.1.8 2.7 1.3 4.4 3.9 12.5 10.4 33.5 1.8 46.3-.8 1.1-1.6 2.3-2.5 3.5-4.5 6.4-10.1 14.3-8.9 20.1.6 2.8 3 5.5 7.2 8 8.5 5.1 33.3 11.6 57.2 17.8 44 11.5 71.2 19.2 79.5 29.3 12.3 15.1 25.7 40 19.8 98.6-.4 3.8-3.6 6.7-7.4 6.7z"/></symbol><symbol viewBox="0 0 512 512" id="diagnostic"><path d="M384 477.867a8.509 8.509 0 0 0 6.033-2.5l51.2-51.2a8.513 8.513 0 0 0 2.5-6.033V76.8a8.53 8.53 0 0 0-8.533-8.533H384c-4.719 0-8.533 3.823-8.533 8.533s3.814 8.533 8.533 8.533h42.667V414.6l-48.7 48.7a8.525 8.525 0 0 0 0 12.066 8.511 8.511 0 0 0 6.033 2.501z"/><path d="M128 85.333c4.719 0 8.533-3.823 8.533-8.533s-3.814-8.533-8.533-8.533H76.8a8.53 8.53 0 0 0-8.533 8.533v366.933c0 18.825 15.309 34.133 34.133 34.133h247.467a8.53 8.53 0 0 0 8.533-8.533v-51.2c0-3.866 3.806-8.533 8.533-8.533h34.133c4.719 0 8.533-3.823 8.533-8.533s-3.814-8.533-8.533-8.533h-34.133c-13.636 0-25.6 11.964-25.6 25.6V460.8H102.4c-9.412 0-17.067-7.654-17.067-17.067v-358.4H128zm128-51.2c-9.412 0-17.067 7.654-17.067 17.067 0 9.412 7.654 17.067 17.067 17.067 9.412 0 17.067-7.654 17.067-17.067 0-9.412-7.655-17.067-17.067-17.067z"/><path d="M435.2 34.133H384a8.53 8.53 0 0 0-8.533 8.533A8.53 8.53 0 0 0 384 51.199h51.2c12.442 0 25.6 13.158 25.6 25.6v392.533c0 12.442-13.158 25.6-25.6 25.6H76.8c-12.442 0-25.6-13.158-25.6-25.6V76.8c0-12.442 13.158-25.6 25.6-25.6H128a8.53 8.53 0 0 0 8.533-8.533A8.53 8.53 0 0 0 128 34.134H76.8c-21.931 0-42.667 20.736-42.667 42.667v392.533C34.133 491.264 54.869 512 76.8 512h358.4c21.931 0 42.667-20.736 42.667-42.667V76.8c0-21.931-20.736-42.667-42.667-42.667z"/><path d="M102.4 281.6a8.53 8.53 0 0 0 8.533 8.533h34.133a8.508 8.508 0 0 0 8.09-5.837l26.044-78.114 60.177 180.514a8.534 8.534 0 0 0 7.885 5.837h.205a8.533 8.533 0 0 0 7.953-5.444l52.753-135.654 16.99 33.98a8.542 8.542 0 0 0 7.637 4.719h27.179C363.512 300.049 372.89 307.2 384 307.2c14.114 0 25.6-11.486 25.6-25.6S398.114 256 384 256c-11.11 0-20.489 7.151-24.021 17.067h-21.905l-23.236-46.481c-1.51-3.021-4.881-4.779-8.03-4.71a8.542 8.542 0 0 0-7.56 5.436L248.082 358.87 187.29 176.503c-1.152-3.49-4.412-5.837-8.09-5.837s-6.929 2.347-8.09 5.837l-32.196 96.563h-27.981a8.532 8.532 0 0 0-8.533 8.534zm281.6-8.533c4.71 0 8.533 3.831 8.533 8.533s-3.823 8.533-8.533 8.533-8.533-3.831-8.533-8.533 3.823-8.533 8.533-8.533zM162.133 102.4h187.733a8.53 8.53 0 0 0 8.533-8.533v-51.2a8.53 8.53 0 0 0-8.533-8.533h-45.594C297.148 13.995 277.854 0 256 0s-41.148 13.995-48.273 34.133h-45.594a8.53 8.53 0 0 0-8.533 8.533v51.2a8.53 8.53 0 0 0 8.533 8.534zm8.534-51.2h43.529a8.525 8.525 0 0 0 8.354-6.835c3.217-15.821 17.28-27.298 33.451-27.298s30.234 11.477 33.451 27.298a8.524 8.524 0 0 0 8.354 6.835h43.529v34.133H170.667V51.2z"/></symbol><symbol viewBox="0 0 487.643 487.643" id="dislike"><path d="M113.869 209.443l46-200.1s71.2-9.3 142.6-7.8c28.5-2.3 58.9-2.5 83 2.7 81.9 17.4 61.4 74.5 61.4 74.5 44.2 33.2 19 74.6 19 74.6 39.2 41 .7 75.3.7 75.3s21.2 33-6.1 58c-34.2 31.2-126.9 10.5-126.9 10.5-6.4-1.1-13.3-2.5-20.7-4.2 0 0-32.1-15 0 82.4s-21.4 112.3-43.9 112.3-15-48.1-15-48.1-48.1-132.7-94.1-168c-9.9-10.4-16.1-21.8-19.9-31.2-.9-2.3-1.7-4.5-2.4-6.5-3.1-6.3-9.7-16-23.7-24.4zm-43-2.8c9.7 0 19.2-7.7 21.2-17.2l34.8-165.6c2-9.5-4.3-17.2-14-17.2H4.169l.1 200h66.6z"/></symbol><symbol viewBox="0 0 139.4 44.7" id="dorohovdesign"><path d="M52.2 19.5V8.1H57c3.6 0 6.1 2.1 6.1 5.7 0 3.5-2.6 5.7-6.1 5.7h-4.8zm7.9-5.7c0-1.8-1.1-3.1-3.1-3.1h-1.9v6.2H57c2 0 3.1-1.4 3.1-3.1m4.1 0c0-3.4 2.6-5.9 6.1-5.9 3.5 0 6.1 2.4 6.1 5.9 0 3.5-2.6 5.9-6.1 5.9-3.5 0-6.1-2.4-6.1-5.9m9.2 0c0-1.9-1.2-3.3-3.1-3.3-1.9 0-3.1 1.4-3.1 3.3 0 1.8 1.2 3.3 3.1 3.3 1.9 0 3.1-1.4 3.1-3.3m11 5.7l-1.9-3.8H81v3.8h-2.9V8.1h5.7c2.5 0 3.9 1.7 3.9 3.8 0 2-1.2 3-2.3 3.4l2.3 4.2h-3.3zm.3-7.6c0-.8-.6-1.2-1.4-1.2H81v2.4h2.3c.8 0 1.4-.4 1.4-1.2m4.2 1.9c0-3.4 2.6-5.9 6.1-5.9 3.5 0 6.1 2.4 6.1 5.9 0 3.5-2.6 5.9-6.1 5.9-3.5 0-6.1-2.4-6.1-5.9m9.1 0c0-1.9-1.2-3.3-3.1-3.3-1.9 0-3.1 1.4-3.1 3.3 0 1.8 1.2 3.3 3.1 3.3 1.9 0 3.1-1.4 3.1-3.3m12.4 5.7v-4.6h-4.7v4.6h-3V8.1h3v4.3h4.7V8.1h2.9v11.4zm4.6-5.7c0-3.4 2.6-5.9 6.1-5.9 3.5 0 6.1 2.4 6.1 5.9 0 3.5-2.6 5.9-6.1 5.9-3.5 0-6.1-2.4-6.1-5.9m9.2 0c0-1.9-1.2-3.3-3.1-3.3-1.9 0-3.1 1.4-3.1 3.3 0 1.8 1.2 3.3 3.1 3.3 1.9 0 3.1-1.4 3.1-3.3m7.3 5.7l-4.3-11.4h3.3l2.8 8.2 2.8-8.2h3.3l-4.2 11.4zm-79.3 17V25.1H57c3.6 0 6.1 2.1 6.1 5.7 0 3.5-2.6 5.7-6.1 5.7h-4.8zm7.9-5.7c0-1.8-1.1-3.1-3.1-3.1h-1.9v6.2H57c2 0 3.1-1.4 3.1-3.1m4.7 5.7V25.1h8.3v2.6h-5.3v1.8H73V32h-5.2v1.9h5.3v2.6zm9.6-1.6l1.5-2.2c.8.8 2.1 1.5 3.6 1.5 1 0 1.6-.4 1.6-.9 0-1.5-6.4-.3-6.4-4.7 0-1.9 1.6-3.6 4.5-3.6 1.8 0 3.4.5 4.6 1.6l-1.6 2.1c-1-.8-2.2-1.2-3.3-1.2-.8 0-1.2.3-1.2.8 0 1.4 6.4.4 6.4 4.6 0 2.3-1.7 3.8-4.7 3.8-2.2 0-3.8-.7-5-1.8m11.5-9.8h2.9v11.3h-2.9zm4.7 5.7c0-3.6 2.8-5.9 6.1-5.9 2.5 0 4.1 1.3 4.8 2.8L99.1 29c-.4-.7-1.3-1.4-2.4-1.4-1.9 0-3.2 1.4-3.2 3.3s1.3 3.3 3.2 3.3c.8 0 1.7-.3 2.1-.7v-.9h-2.6V30h5.5v4.5c-1.2 1.3-2.9 2.2-5 2.2-3.4 0-6.1-2.3-6.1-5.9m20.9 5.7l-4.8-6.6v6.6h-2.9V25.1h3l4.6 6.3v-6.3h2.9v11.4zM17.7 0H0v44.7h17.8c15 0 24.6-8.8 24.6-22.4C42.4 8.7 32.7 0 17.7 0m-.4 35.7h-8V9.5h8c9.3 0 15.7 3.7 15.7 12.7.1 7.5-5.8 13.5-15.7 13.5"/><path d="M19.1 17H17v10.6h2c4 0 6.4-2.4 6.4-5.4 0-3.7-2.6-5.2-6.3-5.2"/></symbol><symbol viewBox="0 0 512 512" id="download"><path d="M373.333 234.667c-76.48 0-138.667 62.187-138.667 138.667S296.853 512 373.333 512 512 449.813 512 373.333s-62.187-138.666-138.667-138.666zm0 256C308.48 490.667 256 438.187 256 373.333S308.48 256 373.333 256s117.333 52.48 117.333 117.333c-.106 64.747-52.586 117.227-117.333 117.334z"/><path d="M412.8 377.173l-28.8 28.8v-90.56c0-5.333-3.84-10.133-9.067-10.88-6.613-.96-12.267 4.16-12.267 10.56v90.667l-28.587-28.587c-4.267-4.16-11.093-4.16-15.253 0-4.16 4.267-4.16 11.093 0 15.253l46.933 47.04c4.16 4.16 10.987 4.267 15.253 0l46.933-47.04c4.16-4.267 4.053-11.093-.213-15.253a10.689 10.689 0 0 0-14.932 0zM181.333 384H97.067c4.373-5.653 7.573-12.16 9.28-19.093.213-.853.32-1.707.32-2.56V128h320v63.68c0 5.333 3.84 10.133 9.067 10.88C442.347 203.52 448 198.4 448 192v-74.667c0-5.867-4.8-10.667-10.667-10.667h-32V64c0-5.867-4.8-10.667-10.667-10.667H168.533l-30.72-48.427C135.893 1.813 132.48 0 128.853 0H10.667C4.8 0 0 4.8 0 10.667v351.68c0 .853.107 1.707.32 2.56 5.76 23.147 25.92 38.827 50.453 39.893.853.32 1.707.427 2.56.533h127.68c5.333 0 10.133-3.84 10.88-9.067.96-6.613-4.16-12.266-10.56-12.266zm-96-266.667V360.96c-4.8 16.747-20.16 22.72-32 22.72s-27.2-5.973-32-22.72V21.333H122.88L153.6 69.76c1.92 3.093 5.333 4.907 9.067 4.907H384v32H96c-5.867 0-10.667 4.8-10.667 10.666z"/></symbol><symbol viewBox="0 0 96.124 96.123" id="fb"><path d="M72.089.02L59.624 0C45.62 0 36.57 9.285 36.57 23.656v10.907H24.037a1.96 1.96 0 0 0-1.96 1.961v15.803a1.96 1.96 0 0 0 1.96 1.96H36.57v39.876a1.96 1.96 0 0 0 1.96 1.96h16.352a1.96 1.96 0 0 0 1.96-1.96V54.287h14.654a1.96 1.96 0 0 0 1.96-1.96l.006-15.803a1.963 1.963 0 0 0-1.961-1.961H56.842v-9.246c0-4.444 1.059-6.7 6.848-6.7l8.397-.003a1.96 1.96 0 0 0 1.959-1.96V1.98A1.96 1.96 0 0 0 72.089.02z"/></symbol><symbol viewBox="0 0 512 512" id="info"><path d="M473.874 274.571a9.697 9.697 0 0 0-9.698 9.698V466.57c0 14.352-11.676 26.028-26.041 26.028-10.365 0-19.298-6.001-23.485-14.831h30.13a9.697 9.697 0 0 0 9.698-9.698V91.157a9.697 9.697 0 0 0-9.698-9.698H343.925c-5.357 0-9.698 4.342-9.698 9.698s4.341 9.698 9.698 9.698h91.157v357.518h-22.977l.004-174.104c0-21.096-17.162-38.259-38.259-38.259H203.076l-12.497-31.95c-5.392-13.786-18.441-22.694-33.242-22.694H64.123c-19.682 0-35.695 16.013-35.695 35.695v239.513c0 25.048 20.378 45.426 45.426 45.426h364.288v-.005h.006c25.047 0 45.423-20.377 45.423-45.424V284.268c.001-5.355-4.341-9.697-9.697-9.697zM73.854 492.605c-14.354 0-26.031-11.678-26.031-26.031V227.06c0-8.988 7.312-16.3 16.3-16.3h93.214c6.76 0 12.717 4.068 15.18 10.363l14.907 38.115a9.7 9.7 0 0 0 9.032 6.165h177.397c10.401 0 18.864 8.461 18.864 18.864l-.004 182.303c0 .68.018 1.36.047 1.894.367 8.998 3.314 17.272 8.105 24.139H73.854z"/><path d="M346.219 115.56l-75.24-75.227a9.696 9.696 0 0 0-6.857-2.839H74.98c-5.356 0-9.698 4.342-9.698 9.698V171.32c0 5.356 4.342 9.698 9.698 9.698s9.698-4.342 9.698-9.698V56.889h169.746v65.53a9.697 9.697 0 0 0 9.698 9.698h65.543v93.847a9.697 9.697 0 0 0 9.698 9.698 9.697 9.697 0 0 0 9.698-9.698V122.418a9.708 9.708 0 0 0-2.842-6.858zm-72.399-2.84V70.6l42.129 42.12H273.82z"/><path d="M413.748 0H149.366c-5.356 0-9.698 4.342-9.698 9.698v7.112c.001 5.356 4.343 9.698 9.699 9.698 4.46 0 8.217-3.011 9.349-7.112H404.05v45.586c0 5.356 4.341 9.698 9.698 9.698s9.698-4.342 9.698-9.698V9.698A9.697 9.697 0 0 0 413.748 0zM222.384 122.521H121.529c-5.356 0-9.698 4.342-9.698 9.698s4.342 9.698 9.698 9.698h100.855c5.356 0 9.698-4.342 9.698-9.698s-4.343-9.698-9.698-9.698zm72.408 34.422H121.529c-5.356 0-9.698 4.342-9.698 9.698s4.342 9.698 9.698 9.698h173.263c5.357 0 9.698-4.342 9.698-9.698s-4.341-9.698-9.698-9.698z"/></symbol><symbol viewBox="0 0 512 512" id="license"><path d="M352 352a8 8 0 0 0 0 16c8.822 0 16 7.178 16 16a8 8 0 0 0 16 0c0-17.645-14.355-32-32-32z"/><path d="M424 0H88C74.767 0 64 10.767 64 24v432c0 13.233 10.767 24 24 24h176.086c.105.78.313 1.551.651 2.283a8 8 0 0 0 5.839 4.517l20.76 3.755 18.333 19a8.001 8.001 0 0 0 12.702-1.586L338.355 480h27.108l15.828 27.943a8.002 8.002 0 0 0 6.961 4.057 8 8 0 0 0 5.756-2.445l18.333-19 20.76-3.755a7.996 7.996 0 0 0 5.537-11.807C444.479 470.476 448 463.45 448 456V24c0-13.233-10.767-24-24-24zM80 456V24c0-4.411 3.589-8 8-8h336c4.411 0 8 3.589 8 8v432a7.962 7.962 0 0 1-1.574 4.719l-24.429-42.43C412.319 408.369 416 396.61 416 384c0-35.29-28.71-64-64-64s-64 28.71-64 64c0 12.602 3.676 24.355 9.991 34.271L271.422 464H88c-4.411 0-8-3.589-8-8zm272-24c-26.467 0-48-21.533-48-48s21.533-48 48-48 48 21.533 48 48-21.533 48-48 48zm-38.226 58.767l-12.717-13.179a8 8 0 0 0-4.333-2.317l-12.077-2.185 24.281-41.791c8.315 7.58 18.63 13 30.049 15.37l-25.203 44.102zM347.499 464l4.47-7.823L356.4 464h-8.901zm59.456 11.271a8 8 0 0 0-4.333 2.317l-12.688 13.148-24.958-44.061c11.423-2.362 21.743-7.776 30.065-15.351l24.039 41.753-12.125 2.194z"/><path d="M320 120a8 8 0 0 0 0-16H192a8 8 0 0 0 0 16h128zm40 24H152a8 8 0 0 0 0 16h208a8 8 0 0 0 0-16zm-184 80h8a8 8 0 0 0 0-16h-8a8 8 0 0 0 0 16zm0 40h8a8 8 0 0 0 0-16h-8a8 8 0 0 0 0 16zm0 40h8a8 8 0 0 0 0-16h-8a8 8 0 0 0 0 16zm160-96H216a8 8 0 0 0 0 16h120a8 8 0 0 0 0-16zm0 40H216a8 8 0 0 0 0 16h120a8 8 0 0 0 0-16zm0 40H216a8 8 0 0 0 0 16h120a8 8 0 0 0 0-16zm-192 88a8 8 0 0 0 8 8h72a8 8 0 0 0 0-16h-72a8 8 0 0 0-8 8z"/><path d="M256 432H143.196c-3.19-15.649-15.547-28.006-31.196-31.196V79.196c15.649-3.19 28.006-15.547 31.196-31.196h225.607c3.19 15.649 15.547 28.006 31.196 31.196V320a8 8 0 0 0 16 0V72a8 8 0 0 0-8-8c-13.234 0-24-10.766-24-24a8 8 0 0 0-8-8H136a8 8 0 0 0-8 8c0 13.234-10.766 24-24 24a8 8 0 0 0-8 8v336a8 8 0 0 0 8 8c13.234 0 24 10.766 24 24a8 8 0 0 0 8 8h120a8 8 0 0 0 0-16z"/></symbol><symbol viewBox="0 0 487.57 487.57" id="like"><path d="M137.482 253.8c.7-2 1.5-4.2 2.4-6.5 3.8-9.4 10.1-20.9 19.9-31.2 46-35.3 94.2-168 94.2-168s-7.5-48.1 15-48.1 76 15 43.9 112.3c-32.1 97.4 0 82.4 0 82.4 7.4-1.7 14.2-3.1 20.7-4.2 0 0 92.7-20.8 126.9 10.5 27.4 25 6.1 58 6.1 58s38.5 34.3-.7 75.3c0 0 25.1 41.5-19 74.6 0 0 20.5 57.1-61.4 74.5-24.1 5.1-54.4 4.9-83 2.7-71.5 1.5-142.6-7.8-142.6-7.8l-46-200.1c13.9-8.4 20.5-18.1 23.6-24.4zM4.182 281l-.1 200h108.7c9.7 0 16-7.7 14-17.2l-34.8-165.6c-2-9.5-11.5-17.2-21.2-17.2h-66.6z"/></symbol><symbol viewBox="-90 362 413.5 117.9" id="logotip"><path d="M-90 453.9v-63.5h45.6c15.8 0 33.3 9.6 33.3 31.9 0 22.4-15.9 31.6-34.5 31.6H-90zm22-48v31.9h19.2c8.4 0 13.4-7.2 13.4-16.3 0-7.6-5-15.5-13.4-15.5H-68zm98.2-15.1h26.3L68.2 406l36.3-42.2h7.2L17.7 480H8.5L56 421.9zm89.8-27h8l-46 58.1 25.7 31.6H81l-12.3-16-34 42.5h-9.2zm127 90v-63.1h26.8l25.4 36.6v-36.6h24.3v63.1h-27.3l-25.5-36.7v36.7z"/><path d="M116.9 390.7h24.4v63.2h-24.4zm-119.7 0h24v63.2h-24zm227.6 9.3c7.7 6.2 12.8 13.8 12.8 23.6s-5.3 17.1-13 23.3c-7.7 6.1-17.2 9.7-30 9.7-12.9 0-22.8-3.8-30.4-9.9-7.7-6.2-12.9-13.4-12.9-23.1 0-9.6 5.3-17.4 13-23.8 8.7-6.2 17.4-9.2 30.2-9.2 12.8.2 22.8 3.1 30.3 9.4zm-48.2 23.8c0 11.3 8.8 18.4 17.8 18.4 8.7 0 18.4-6.4 18.4-18.7 0-11.3-9.2-18-17.8-18-8.6-.1-18.4 6-18.4 18.3zm-251-39.7h-3.1l-10-11.2v11.2H-90v-22h2.5v10.7l9.8-10.7h2.9l-9.6 10.7 10 11.3zm18.4 0h-2.5v-19.7h-7l-.5 3.6c-.6 4.8-1.1 8.3-1.6 10.5-.5 2.2-1.1 3.8-1.8 4.6-.8.9-1.8 1.3-3 1.3-.7 0-1.4-.1-2-.4v-2.2c.5.3 1.1.4 1.7.4.5 0 1-.2 1.4-.7.4-.4.7-1.2 1-2.3.3-1.1.7-3.1 1.1-6.1.5-3 1-6.7 1.5-11.1H-56v22.1zm6-22h2.4v12.2c0 2.3-.1 4.3-.2 6.1h.1l12.2-18.4h2.8v22h-2.4v-12.1c0-2 .1-4.1.3-6.4h-.1L-47.1 384h-2.8v-21.9h-.1zm39.6 22h-2.5v-10.4h-11.4v10.4h-2.5v-22h2.5v9.4h11.4v-9.4h2.5v22zm6-22H-2v12.2c0 2.3-.1 4.3-.2 6.1h.1L10.1 362h2.8v22h-2.4v-12.1c0-2 .1-4.1.3-6.4h-.1L-1.5 384h-2.8l-.1-21.9zm38.7 22h-3.1l-10-11.2v11.2h-2.5v-22h2.5v10.7l9.8-10.7h2.9l-9.6 10.7 10 11.3z"/><path d="M50.9 384.1l-2.7-7h-8.7l-2.7 7h-2.6l8.6-22.1h2.1l8.5 22.1h-2.5zm-3.5-9.3l-2.5-6.8c-.3-.9-.7-1.9-1-3.2-.2 1-.5 2-.9 3.2l-2.6 6.8h7z"/></symbol><symbol viewBox="0 0 511.626 511.626" id="mailto"><path d="M49.106 178.729c6.472 4.567 25.981 18.131 58.528 40.685 32.548 22.554 57.482 39.92 74.803 52.099 1.903 1.335 5.946 4.237 12.131 8.71 6.186 4.476 11.326 8.093 15.416 10.852 4.093 2.758 9.041 5.852 14.849 9.277 5.806 3.422 11.279 5.996 16.418 7.7 5.14 1.718 9.898 2.569 14.275 2.569h.575c4.377 0 9.137-.852 14.277-2.569 5.137-1.704 10.615-4.281 16.416-7.7 5.804-3.429 10.752-6.52 14.845-9.277 4.093-2.759 9.229-6.376 15.417-10.852 6.184-4.477 10.232-7.375 12.135-8.71 17.508-12.179 62.051-43.11 133.615-92.79 13.894-9.703 25.502-21.411 34.827-35.116 9.332-13.699 13.993-28.07 13.993-43.105 0-12.564-4.523-23.319-13.565-32.264-9.041-8.947-19.749-13.418-32.117-13.418H45.679c-14.655 0-25.933 4.948-33.832 14.844C3.949 79.562 0 91.934 0 106.779c0 11.991 5.236 24.985 15.703 38.974 10.466 13.99 21.604 24.983 33.403 32.976z"/><path d="M483.072 209.275c-62.424 42.251-109.824 75.087-142.177 98.501-10.849 7.991-19.65 14.229-26.409 18.699-6.759 4.473-15.748 9.041-26.98 13.702-11.228 4.668-21.692 6.995-31.401 6.995h-.578c-9.707 0-20.177-2.327-31.405-6.995-11.228-4.661-20.223-9.229-26.98-13.702-6.755-4.47-15.559-10.708-26.407-18.699-25.697-18.842-72.995-51.68-141.896-98.501C17.987 202.047 8.375 193.762 0 184.437v226.685c0 12.57 4.471 23.319 13.418 32.265 8.945 8.949 19.701 13.422 32.264 13.422h420.266c12.56 0 23.315-4.473 32.261-13.422 8.949-8.949 13.418-19.694 13.418-32.265V184.437c-8.186 9.132-17.7 17.417-28.555 24.838z"/></symbol><symbol viewBox="0 0 290.625 290.625" id="nav-about"><path d="M281.25 281.25V93.75h-75V0H84.375v93.75h-75v187.5H0v9.375h290.625v-9.375h-9.375zm-196.875 0H18.75V103.125h65.625V281.25zm56.25 0h-23.438v-70.313h23.438v70.313zm32.813 0H150v-70.313h23.438v70.313zm23.437-187.5v187.5h-14.062v-70.313h4.688v-9.375h-84.376v9.375h4.688v70.313H93.75V9.375h103.125V93.75zm75 187.5H206.25V103.125h65.625V281.25z"/><path d="M131.25 103.125h28.125V75H187.5V46.875h-28.125V18.75H131.25v28.125h-28.125V75h28.125v28.125zm-18.75-37.5V56.25h28.125V28.125H150V56.25h28.125v9.375H150V93.75h-9.375V65.625H112.5zm28.125 46.875h-37.5v28.125h37.5V112.5zm-9.375 18.75H112.5v-9.375h18.75v9.375zm18.75 9.375h37.5V112.5H150v28.125zm9.375-18.75h18.75v9.375h-18.75v-9.375zM140.625 150h-37.5v28.125h37.5V150zm-9.375 18.75H112.5v-9.375h18.75v9.375zm18.75 9.375h37.5V150H150v28.125zm9.375-18.75h18.75v9.375h-18.75v-9.375zm98.438-46.875h-37.5v28.125h37.5V112.5zm-9.375 18.75h-18.75v-9.375h18.75v9.375zm9.375 18.75h-37.5v28.125h37.5V150zm-9.375 18.75h-18.75v-9.375h18.75v9.375zm9.375 18.75h-37.5v28.125h37.5V187.5zm-9.375 18.75h-18.75v-9.375h18.75v9.375zm9.375 18.75h-37.5v28.125h37.5V225zm-9.375 18.75h-18.75v-9.375h18.75v9.375zM70.313 112.5h-37.5v28.125h37.5V112.5zm-9.375 18.75h-18.75v-9.375h18.75v9.375zM70.313 150h-37.5v28.125h37.5V150zm-9.375 18.75h-18.75v-9.375h18.75v9.375zm9.375 18.75h-37.5v28.125h37.5V187.5zm-9.375 18.75h-18.75v-9.375h18.75v9.375zM70.313 225h-37.5v28.125h37.5V225zm-9.375 18.75h-18.75v-9.375h18.75v9.375z"/></symbol><symbol viewBox="0 0 44.863 44.864" id="nav-abroad"><path d="M19.024 20.959c.251-.392.087-1.673.087-1.673C9.67 16.034 2.607 11.957 3.007 10.3c.197-.819.47-1.178.659-1.241.423-.138 1.378.363 2.548 1.134l1.945-2.284c-.92-.565-3.188-2.431-5.416-1.705C1.833 6.498.636 7.326.09 9.598c-1.28 5.32 11.41 10.122 18.217 12.484l.717-1.123z"/><path d="M41.112 10.647a21.89 21.89 0 0 0-.98-1.281c-3.752-4.501-9.396-7.372-15.701-7.372l-.03.001-.019-.001c-.023 0-.046.003-.07.003-6.256.036-11.852 2.898-15.58 7.37-.344.413-.67.841-.98 1.28a21.39 21.39 0 0 0-.673 1.029c.427.27.91.557 1.449.859.186-.297.372-.595.574-.881 1.271.849 2.739 1.59 4.364 2.202-.09.325-.158.667-.238 1 .497.217 1.02.435 1.553.652.084-.375.16-.754.256-1.117 2.581.791 5.481 1.266 8.557 1.34v2.131l.104.066.146.876.226 1.342 1.2.311v-4.726a34.477 34.477 0 0 0 1.756-.099l.439-1.244.169-.48c-.774.074-1.56.128-2.364.147V3.745c3.404.526 6.335 4.051 8.001 9.097-.806.239-1.658.433-2.529.605a3.888 3.888 0 0 1 1.537 1.356c.491-.122.985-.242 1.459-.385.626 2.384.989 5.035 1.005 7.841h-2.599l-.083.508 2.49 1.024c.777.321 1.357.804 1.745 1.392.033-.414.069-.826.088-1.248h4.024c-.071.52-.138 1.043-.23 1.543.255-.131.478-.387.594-.869.063-.26.07-.477.057-.674h2.299a18.62 18.62 0 0 1-3.364 9.273c-1.293-.863-2.791-1.619-4.453-2.236.091-.332.166-.677.246-1.018-.532.417-1.199.65-1.953.65-.33 0-.608-.043-.795-.069l-.057-.011c-.2-.014-.481-.037-2.181-.619.2-.27.438-.623.699-1.035v-.838c.79.271 1.463.49 1.621.501.437.03 1.559.414 1.881-.921.323-1.336-.516-1.777-.982-1.971-.265-.107-1.495-.613-2.52-1.035v-1.697l-.584 1.457-.873-.359s1.266-6.982.92-7.866-1.383-1.085-1.383-1.085l-2.758 7.812-2.998-.775-1.283-.333-.439-2.623-1.399-.895c-.001 0 .082 2.162-.124 3.328-.039.22-.089.405-.151.532-.023.049-.065.108-.099.162a6.497 6.497 0 0 1-.629.824l-.004.004a14.432 14.432 0 0 1-.412.455c-.119.125-.236.247-.349.361-.381.389-.686.676-.686.676l1.223.904 2.036-1.553h.001l.461-.353.731.353 1.853.891.943.455.211.102-3.074 7.664s1.008.905 1.766.321c.759-.584 3.992-6.446 3.992-6.446s.565.207 1.306.475l-.172.429c.1-.003.195-.015.296-.017v1.758l-.221-.078c-.108-.016-.222-.025-.329-.041-.33.583-.632 1.105-.904 1.568 1.816.203 3.548.537 5.136 1.006-1.667 5.048-4.602 8.57-8.006 9.097v-6.086a2.915 2.915 0 0 1-1.676.532v5.566c-3.439-.472-6.41-4.002-8.094-9.082 1.715-.517 3.599-.879 5.584-1.076l.696-1.737c-2.403.185-4.683.604-6.751 1.239a31.288 31.288 0 0 1-.971-6.539h1.73l.44-.412a98.172 98.172 0 0 1-3.875-1.414c-.001.05-.005.099-.005.148H5.674c.009-1.039.109-2.056.283-3.048-.539-.29-1.052-.58-1.536-.872a20.368 20.368 0 0 0-.429 4.093c0 4.387 1.395 8.451 3.756 11.783.311.439.637.868.98 1.28 3.729 4.472 9.324 7.334 15.58 7.37.024 0 .047.003.07.003l.019-.001.03.001c6.305 0 11.949-2.871 15.701-7.371.344-.413.67-.842.979-1.28a20.323 20.323 0 0 0 3.756-11.785 20.292 20.292 0 0 0-3.751-11.784zm-27.171 1.645c-1.441-.538-2.738-1.186-3.856-1.919a18.814 18.814 0 0 1 8.372-5.72c-1.878 1.812-3.439 4.461-4.516 7.639zm9.651 1.764c-2.918-.071-5.665-.511-8.09-1.239 1.684-5.08 4.65-8.613 8.09-9.085v10.324zm-17.855 9.88h6.643a32.16 32.16 0 0 0 1.085 7.072c-1.625.61-3.094 1.354-4.363 2.201a18.625 18.625 0 0 1-3.365-9.273zm4.353 10.552c1.117-.731 2.412-1.378 3.85-1.916 1.076 3.18 2.639 5.827 4.518 7.638a18.811 18.811 0 0 1-8.368-5.722zm20.164 5.774c1.908-1.82 3.494-4.498 4.58-7.721 1.473.544 2.797 1.201 3.937 1.947a18.813 18.813 0 0 1-8.517 5.774zm0-35.66a18.82 18.82 0 0 1 8.52 5.772c-.979.641-2.102 1.211-3.329 1.706-.057-.016-.097-.025-.097-.025l-.025.074c-.163.065-.322.133-.49.195-1.087-3.222-2.671-5.902-4.579-7.722zm6.162 17.658c-.014-2.987-.413-5.818-1.108-8.37 1.659-.617 3.158-1.371 4.451-2.234a18.645 18.645 0 0 1 3.426 10.604h-6.769z"/></symbol><symbol viewBox="0 0 64 64" id="nav-action"><path d="M59 10h-5V4c0-2.206-1.794-4-4-4s-4 1.794-4 4v6H18V4c0-2.206-1.794-4-4-4s-4 1.794-4 4v6H5c-2.757 0-5 2.243-5 5v44c0 2.757 2.243 5 5 5h54c2.757 0 5-2.243 5-5V15c0-2.757-2.243-5-5-5zM48 4c0-1.103.897-2 2-2 1.102 0 2 .897 2 2v6h-4V4zM12 4c0-1.103.897-2 2-2 1.102 0 2 .897 2 2v6h-4V4zm50 55c0 1.654-1.346 3-3 3H5c-1.654 0-3-1.346-3-3V24h60v35zm0-37H2v-7c0-1.654 1.346-3 3-3h54c1.654 0 3 1.346 3 3v7z"/><path d="M13 28H7a1 1 0 0 0-1 1v6a1 1 0 0 0 1 1h6a1 1 0 0 0 1-1v-6a1 1 0 0 0-1-1zm-1 6H8v-4h4v4zm23-6h-6a1 1 0 0 0-1 1v6a1 1 0 0 0 1 1h6a1 1 0 0 0 1-1v-6a1 1 0 0 0-1-1zm-1 6h-4v-4h4v4zm12-6h-6a1 1 0 0 0-1 1v6a1 1 0 0 0 1 1h6a1 1 0 0 0 1-1v-6a1 1 0 0 0-1-1zm-1 6h-4v-4h4v4zm12-6h-6a1 1 0 0 0-1 1v6a1 1 0 0 0 1 1h6a1 1 0 0 0 1-1v-6a1 1 0 0 0-1-1zm-1 6h-4v-4h4v4zm-43 5H7a1 1 0 0 0-1 1v6a1 1 0 0 0 1 1h6a1 1 0 0 0 1-1v-6a1 1 0 0 0-1-1zm-1 6H8v-4h4v4zm12-6h-6a1 1 0 0 0-1 1v6a1 1 0 0 0 1 1h6a1 1 0 0 0 1-1v-6a1 1 0 0 0-1-1zm-1 6h-4v-4h4v4zm12-6h-6a1 1 0 0 0-1 1v6a1 1 0 0 0 1 1h6a1 1 0 0 0 1-1v-6a1 1 0 0 0-1-1zm-1 6h-4v-4h4v4zm23-6h-6a1 1 0 0 0-1 1v6a1 1 0 0 0 1 1h6a1 1 0 0 0 1-1v-6a1 1 0 0 0-1-1zm-1 6h-4v-4h4v4zm-32 5h-6a1 1 0 0 0-1 1v6a1 1 0 0 0 1 1h6a1 1 0 0 0 1-1v-6a1 1 0 0 0-1-1zm-1 6h-4v-4h4v4zm12-6h-6a1 1 0 0 0-1 1v6a1 1 0 0 0 1 1h6a1 1 0 0 0 1-1v-6a1 1 0 0 0-1-1zm-1 6h-4v-4h4v4zm12-6h-6a1 1 0 0 0-1 1v6a1 1 0 0 0 1 1h6a1 1 0 0 0 1-1v-6a1 1 0 0 0-1-1zm-1 6h-4v-4h4v4zm12-6h-6a1 1 0 0 0-1 1v6a1 1 0 0 0 1 1h6a1 1 0 0 0 1-1v-6a1 1 0 0 0-1-1zm-1 6h-4v-4h4v4zM24.707 29.707l-1.414-1.414L21 30.586l-2.293-2.293-1.414 1.414L19.586 32l-2.293 2.293 1.414 1.414L21 33.414l2.293 2.293 1.414-1.414L22.414 32zm-11 22l-1.414-1.414L10 52.586l-2.293-2.293-1.414 1.414L8.586 54l-2.293 2.293 1.414 1.414L10 55.414l2.293 2.293 1.414-1.414L11.414 54zm33-11l-1.414-1.414L43 41.586l-2.293-2.293-1.414 1.414L41.586 43l-2.293 2.293 1.414 1.414L43 44.414l2.293 2.293 1.414-1.414L44.414 43zM54 18h2v2h-2zm4 0h2v2h-2zm-8 0h2v2h-2z"/></symbol><symbol viewBox="0 0 184.653 184.653" id="nav-license"><path d="M125.401 184.653H23.134a3 3 0 0 1-3-3V3a3 3 0 0 1 3-3h138.385a3 3 0 0 1 3 3v141.55c.001.123-.006.245-.02.366v.002l-.001.006v.003l-.001.007v.006a3.136 3.136 0 0 1-.067.363l-.001.004-.001.003-.001.006v.001a3 3 0 0 1-.725 1.314l-.006.006-.006.006-.005.005-.002.002-.004.004-.002.002-.006.006-36.117 37.082a.179.179 0 0 0-.013.014l-.007.007-.006.006-.001.001-.005.005-.002.001-.004.005-.003.002-.003.003-.004.004-.001.001a2.993 2.993 0 0 1-1.385.77c-.004.002-.006.001-.009.002l-.008.002-.008.002c-.002.001-.006 0-.008.002l-.008.002a.078.078 0 0 0-.009.001l-.082.017-.009.002c.001.003-.005.001-.009.001-.002-.001-.005 0-.008.001l-.009.002-.008.001-.009.001c-.003.001-.005.002-.008.001a2.5 2.5 0 0 1-.527.053zm-99.267-6h96.268v-34.082a3 3 0 0 1 3-3h33.117V6H26.134v172.653zm102.268-31.082v26.702l26.007-26.702h-26.007zm4.67-16.381H40.698a3 3 0 1 1 0-6h92.375a3 3 0 1 1-.001 6zm10.388-13.542H40.698a3 3 0 1 1 0-6H143.46a3 3 0 1 1 0 6zM60.967 98.792a2.97 2.97 0 0 1-.409-.028l-22.902-3.151a3 3 0 0 1-2.526-3.593l7.134-33.734c-5.066-5.037-7.969-12.185-7.349-19.846 1.118-13.805 13.252-24.13 27.063-23.009 13.805 1.118 24.127 13.258 23.009 27.063a25.018 25.018 0 0 1-7.525 15.965l6.874 26.847a3 3 0 0 1-2.443 3.708L64.06 91.796l-.093 4.064a3 3 0 0 1-3 2.932zm-19.3-8.685l16.378 2.254.613-26.81a24.97 24.97 0 0 1-11.111-3.246l-5.88 27.802zm22.558-5.553l.256 1.104 13.223-2.063-5.439-21.245a25.044 25.044 0 0 1-7.596 2.791l-.444 19.413zm-4.306-63.207a18.977 18.977 0 0 0-12.352 4.554 18.992 18.992 0 0 0-6.672 13.023c-.851 10.507 7.006 19.748 17.514 20.599 10.505.855 19.747-7.006 20.598-17.513.851-10.507-7.005-19.748-17.513-20.599a19.358 19.358 0 0 0-1.575-.064zm83.541 41.86h-42.39a3 3 0 1 1 0-6h42.39a3 3 0 1 1 0 6zm-6.054-15.968H101.07a3 3 0 1 1 0-6h36.335a3 3 0 0 1 .001 6zm6.054-16.938h-42.39a3 3 0 1 1 0-6h42.39a3 3 0 1 1 0 6z"/></symbol><symbol viewBox="0 0 344.444 344.444" id="nav-personnel"><path d="M254.557 221.867l-43.444-9.656v-13.728c16.789-12.117 27.778-31.794 27.778-54.039v-2.394c13.75-8.25 22.222-22.872 22.222-39.111V51.967C261.112 23.311 237.801 0 209.145 0h-70.072c-12.528 0-23.622 7.517-28.267 19.133l-1.339 3.35a19.292 19.292 0 0 1-9.306 10.111c-10.378 5.194-16.828 15.628-16.828 27.233v43.111c0 16.239 8.472 30.867 22.222 39.111v2.394c0 22.244 10.989 41.922 27.778 54.039v13.728l-43.444 9.65c-33.3 7.406-56.556 36.389-56.556 70.506v52.078h277.778v-52.078c.001-34.116-23.254-63.099-56.554-70.499zm-149-133.284v39.789c-7.006-6.444-11.111-15.567-11.111-25.439V59.822c0-7.367 4.094-14 10.689-17.289a30.46 30.46 0 0 0 14.656-15.917l1.339-3.356c2.95-7.383 9.994-12.15 17.944-12.15h70.072c22.528 0 40.856 18.328 40.856 40.856v50.972c0 9.872-4.106 18.994-11.111 25.439V88.589c0-18.217-14.817-33.033-33.028-33.033-15.694 0-29.311 11.167-32.389 26.55l-.244 1.228h-2.006l-.244-1.228c-3.078-15.383-16.694-26.55-32.394-26.55-18.213 0-33.029 14.816-33.029 33.027zm11.111 55.861V88.583c0-12.083 9.833-21.917 21.917-21.917 10.417 0 19.456 7.411 21.494 17.622l2.039 10.156h20.217l2.033-10.156c2.039-10.211 11.078-17.622 21.494-17.622 12.083 0 21.917 9.833 21.917 21.917v55.861c0 30.633-24.922 55.556-55.556 55.556-30.634 0-55.555-24.922-55.555-55.556zm27.777 70.684v-10.156c8.467 3.9 17.856 6.139 27.778 6.139s19.311-2.239 27.778-6.139v10.156l-27.778 46.3-27.778-46.3zm21.789 57.911l-32.444-20.272 3.9-27.3 28.544 47.572zm40.523-47.572l3.9 27.294-32.444 20.272 28.544-47.566zm37.688 107.867H100.001v-22.222H88.89v22.222H44.445v-40.967c0-28.861 19.678-53.394 47.85-59.65l13.261-2.95v42.456H88.89c-12.256 0-22.222 9.967-22.222 22.222v27.778h16.667v-11.111h-5.556v-16.667c0-6.128 4.983-11.111 11.111-11.111h44.444c6.128 0 11.111 4.983 11.111 11.111v16.667h-5.556v11.111h16.667v-27.778c0-12.256-9.967-22.222-22.222-22.222h-16.667v-44.928l9.85-2.189-4.75 33.244 50.456 31.539 50.456-31.539-4.75-33.244 9.85 2.189v45.717c-9.561 2.483-16.667 11.106-16.667 21.433 0 12.256 9.967 22.222 22.222 22.222 4.067 0 7.828-1.178 11.111-3.089v19.756zm-11.111-50c6.128 0 11.111 4.983 11.111 11.111 0 6.127-4.983 11.111-11.111 11.111s-11.111-4.983-11.111-11.111 4.983-11.111 11.111-11.111zm66.667 49.999h-44.444v-22.222h-7.678c4.667-4.078 7.678-9.994 7.678-16.667 0-10.328-7.106-18.95-16.667-21.433v-43.244l13.261 2.95c28.172 6.256 47.85 30.789 47.85 59.65v40.966z"/></symbol><symbol viewBox="0 0 512.001 512.001" id="nav-pharmacy"><path d="M511.938 315.26c-1.161-40.846-17.864-79.083-47.031-107.668-26.725-26.191-61.316-41.757-98.226-44.444 2.349-43.822-19.269-86.008-56.901-109.512-56.748-35.447-131.757-18.11-167.209 38.645a9.182 9.182 0 0 0 15.575 9.729c30.088-48.168 93.744-62.884 141.906-32.799 32.139 20.073 50.526 56.201 48.265 93.642-17.339.738-34.266 4.27-50.349 10.527a157.005 157.005 0 0 0-36.788 20.416c-23.091 17.237-41.227 40.9-51.931 67.477l-108.327-67.634 32.054-51.328a9.18 9.18 0 0 0-2.925-12.651c-4.298-2.686-9.964-1.377-12.651 2.923L18.399 291.116c-35.451 56.741-18.121 131.75 38.635 167.21 19.318 12.06 41.509 18.434 64.176 18.434 32.857 0 64.719-13.51 87.417-37.065a9.182 9.182 0 0 0-13.222-12.742c-19.256 19.983-46.299 31.444-74.195 31.444-19.224 0-38.052-5.411-54.449-15.645C18.596 412.658 3.887 349 33.974 300.845l57.22-91.629 112.084 69.98a156.494 156.494 0 0 0-5.234 44.982c.766 26.996 8.496 53.432 22.358 76.448 28.454 47.24 79.722 76.107 134.617 76.107 1.476 0 2.96-.021 4.441-.062 18.11-.52 35.789-4.09 52.557-10.613a156.617 156.617 0 0 0 36.786-20.427c40.982-30.58 64.585-79.317 63.135-130.371zM358.935 458.315c-49.95 1.411-96.997-24.32-122.803-67.163-12.232-20.313-19.055-43.653-19.732-67.499-.449-15.619 1.698-31.025 6.384-45.804 7.602-24.063 22.052-45.979 41.153-62.681l46.433 83.822 84.974 153.393a138.98 138.98 0 0 1-36.409 5.932zm87.107-34.061l-11.173-20.17a9.183 9.183 0 0 0-16.063 8.899l12.471 22.511a138.18 138.18 0 0 1-18.576 10.32l-86.265-155.722-47.727-86.155a138.604 138.604 0 0 1 18.574-10.313L400.485 379.91a9.179 9.179 0 0 0 12.48 3.582 9.182 9.182 0 0 0 3.582-12.481l-101.91-183.956a139.067 139.067 0 0 1 36.435-5.934c1.817-.056 3.636-.067 5.483-.033 35.895.373 69.81 14.442 95.498 39.618 25.755 25.241 40.504 59.006 41.529 95.075 1.18 41.545-16.44 81.344-47.54 108.473z"/></symbol><symbol viewBox="0 0 496 496" id="nav-research"><path d="M464 280h-80v-16h-16v16h-12.464c-7.52-27.12-24.28-50.384-46.744-66.176l23.856-38.168c1.104.16 2.2.344 3.352.344 6.456 0 12.296-2.592 16.616-6.752l39.68 19.84c-.12.968-.296 1.92-.296 2.912 0 13.232 10.768 24 24 24s24-10.768 24-24c0-6.52-2.632-12.432-6.872-16.76l36.144-79.52c.912.112 1.792.28 2.728.28 13.232 0 24-10.768 24-24s-10.768-24-24-24-24 10.768-24 24c0 6.52 2.632 12.432 6.872 16.76l-36.144 79.52c-.912-.112-1.792-.28-2.728-.28-6.456 0-12.296 2.592-16.616 6.752l-39.68-19.84c.12-.968.296-1.92.296-2.912 0-13.232-10.768-24-24-24s-24 10.768-24 24c0 6.272 2.472 11.944 6.424 16.224L295.12 205.52C278.592 196.936 259.872 192 240 192c-5.44 0-10.752.488-16 1.192V16h32V0H80v16h32v205.76L10.272 388.864A70.513 70.513 0 0 0 0 425.52C0 464.384 31.616 496 70.48 496h195.04c38.856 0 70.48-31.616 70.48-70.48 0-11.264-2.848-22.264-7.984-32.232 12.792-13.832 22.344-30.64 27.52-49.296H368v16h16v-16h80c17.648 0 32-14.352 32-32S481.648 280 464 280zm8-216c4.416 0 8 3.584 8 8s-3.584 8-8 8-8-3.584-8-8 3.584-8 8-8zm-56 120c4.416 0 8 3.584 8 8s-3.584 8-8 8-8-3.584-8-8 3.584-8 8-8zm-80-40c4.416 0 8 3.584 8 8s-3.584 8-8 8-8-3.584-8-8 3.584-8 8-8zm-92.648 144.336c-1.104-.152-2.2-.336-3.352-.336-13.232 0-24 10.768-24 24s10.768 24 24 24 24-10.768 24-24c0-6.272-2.472-11.944-6.424-16.224l25.728-41.168C300.696 267.768 312 288.56 312 312c0 39.704-32.296 72-72 72s-72-32.296-72-72 32.296-72 72-72c10.536 0 20.528 2.328 29.56 6.416l-26.208 41.92zM248 312c0 4.416-3.584 8-8 8s-8-3.584-8-8 3.584-8 8-8 8 3.584 8 8zm-120-85.76V16h80v180.464c-40.456 11.224-72.312 43.08-83.536 83.536H95.28L128 226.24zM265.52 480H70.48C40.44 480 16 455.56 16 425.52c0-10 2.752-19.8 7.944-28.336L85.536 296h35.656c-.704 5.248-1.192 10.56-1.192 16 0 66.168 53.832 120 120 120 28.76 0 55.176-10.184 75.864-27.12 2.68 6.528 4.136 13.528 4.136 20.64 0 30.04-24.44 54.48-54.48 54.48zM240 416c-57.344 0-104-46.656-104-104s46.656-104 104-104c16.76 0 32.56 4.08 46.592 11.152l-8.52 13.632C266.536 227.216 253.648 224 240 224c-48.52 0-88 39.48-88 88s39.48 88 88 88 88-39.48 88-88c0-29.152-14.304-54.96-36.2-70.984l8.496-13.592C326.696 246.304 344 277.136 344 312c0 57.344-46.656 104-104 104zm128-88h-9.192c.704-5.248 1.192-10.56 1.192-16s-.488-10.752-1.192-16H368v32zm96 0h-80v-32h80c8.824 0 16 7.176 16 16s-7.176 16-16 16z"/><path d="M376 24h16v16h-16zm-20.257 8.36l11.314 11.314-11.314 11.314-11.313-11.314zM336 64h16v16h-16zm19.74 47.547l-11.313-11.314 11.314-11.314 11.313 11.314zM376 104h16v16h-16zm36.243-15.024l11.313 11.314-11.313 11.314-11.314-11.314zM416 64h16v16h-16zm-3.751-31.577l11.314 11.313-11.314 11.314-11.314-11.314zM304 64h16v16h-16zm-32 0h16v16h-16zm-32 0h16v16h-16z"/></symbol><symbol viewBox="0 0 60 60" id="nav-reviews"><path d="M19.5 27h14a1 1 0 1 0 0-2h-14a1 1 0 1 0 0 2zM39 32H14a1 1 0 1 0 0 2h25a1 1 0 1 0 0-2zm0 7H14a1 1 0 1 0 0 2h25a1 1 0 1 0 0-2z"/><path d="M55.894 37.041C58.582 33.271 60 28.913 60 24.414 60 11.504 48.337 1 34 1c-9.871 0-18.998 5.142-23.344 13.114C4.201 18.379 0 25.255 0 33c0 4.499 1.418 8.856 4.106 12.627-.51 5.578-1.86 9.713-3.813 11.666a1 1 0 0 0 .846 1.697c.35-.049 8.433-1.213 14.317-4.586 3.33 1.334 6.875 2.01 10.544 2.01 8.525 0 16.104-3.714 20.848-9.44 5.512 2.486 11.738 3.392 12.012 3.43a1 1 0 0 0 .847-1.697c-1.953-1.953-3.303-6.088-3.813-11.666zM26 54.414c-2.891 0-5.694-.458-8.364-1.349 3.334-2.09 3.338-2.255 3.335-2.82a1.002 1.002 0 0 0-1.816-.589c-.492.385-2.502 1.673-4.294 2.778-3.701 2.236-8.645 3.518-11.559 4.128 1.797-3.174 2.535-7.623 2.83-11.136a1.004 1.004 0 0 0-.192-.678C3.362 41.255 2 37.192 2 33c0-7.219 4.028-13.61 10.18-17.491.388-.245.781-.48 1.182-.702.09-.05.179-.102.271-.151.42-.227.849-.437 1.282-.639a24.627 24.627 0 0 1 1.811-.766c.157-.059.317-.112.476-.168.357-.126.717-.244 1.08-.354.166-.05.33-.103.498-.151.471-.133.946-.251 1.426-.357.166-.037.334-.07.502-.104.432-.087.866-.165 1.304-.23.1-.015.199-.034.3-.048a26.373 26.373 0 0 1 1.596-.167c.139-.011.279-.02.419-.029a27.362 27.362 0 0 1 1.674-.058c10.752 0 19.876 6.342 22.919 15.053A19.256 19.256 0 0 1 50 33a19.226 19.226 0 0 1-.093 1.815c-.042.446-.096.89-.169 1.33l-.015.102c-.078.459-.18.914-.292 1.367-.033.133-.068.266-.103.399-.109.406-.23.81-.366 1.21l-.087.252a19.233 19.233 0 0 1-.651 1.596 20.39 20.39 0 0 1-.595 1.205c-.05.092-.105.181-.156.272-.185.33-.381.656-.586.979-.085.133-.169.267-.257.398a21.44 21.44 0 0 1-.78 1.096c-4.322 5.665-11.607 9.393-19.85 9.393zm22.094-9.071c.042-.06.076-.123.117-.184.233-.343.456-.693.669-1.047.119-.199.23-.4.343-.601a24.042 24.042 0 0 0 .67-1.283 22.595 22.595 0 0 0 1.016-2.521 20.456 20.456 0 0 0 .442-1.522c.035-.14.075-.278.108-.419.104-.45.191-.905.265-1.364.023-.141.04-.283.06-.424.051-.356.092-.715.125-1.076.013-.145.027-.289.037-.434.031-.487.054-.975.054-1.468C52 20.09 40.337 9.586 26 9.586c-.479 0-.955.014-1.428.037-.171.008-.341.024-.512.035-.298.02-.595.04-.89.069-.212.021-.423.047-.634.073a25.33 25.33 0 0 0-2.078.327c-.254.05-.508.102-.76.158-.178.04-.354.084-.53.127-.275.068-.551.135-.823.211-.122.034-.242.072-.363.108a27.383 27.383 0 0 0-3.055 1.091c-.076.032-.152.062-.228.095-.09.039-.182.073-.272.113C18.882 6.45 26.186 3 34 3c13.234 0 24 9.606 24 21.414 0 4.191-1.362 8.255-3.939 11.749a1.002 1.002 0 0 0-.192.678c.295 3.513 1.032 7.96 2.829 11.134-2.188-.459-5.516-1.297-8.604-2.632z"/></symbol><symbol viewBox="0 0 512 512" id="nav-schedule"><path d="M127.733 161.127H59.324a8.016 8.016 0 0 0-8.017 8.017v68.409a8.016 8.016 0 0 0 8.017 8.017h68.409a8.016 8.016 0 0 0 8.017-8.017v-68.409a8.017 8.017 0 0 0-8.017-8.017zm-8.017 68.409H67.34V177.16h52.376v52.376zm110.631-68.409h-68.409a8.016 8.016 0 0 0-8.017 8.017v68.409a8.016 8.016 0 0 0 8.017 8.017h68.409a8.016 8.016 0 0 0 8.017-8.017v-68.409a8.017 8.017 0 0 0-8.017-8.017zm-8.017 68.409h-52.376V177.16h52.376v52.376zm-94.597 34.204H59.324a8.016 8.016 0 0 0-8.017 8.017v68.409a8.016 8.016 0 0 0 8.017 8.017h68.409a8.016 8.016 0 0 0 8.017-8.017v-68.409a8.018 8.018 0 0 0-8.017-8.017zm-8.017 68.41H67.34v-52.376h52.376v52.376z"/><path d="M392.284 217.303V66.53a8.016 8.016 0 0 0-8.017-8.017h-34.739v-43.29a8.016 8.016 0 0 0-8.017-8.017h-34.205a8.016 8.016 0 0 0-8.017 8.017v43.29H221.26v-43.29a8.016 8.016 0 0 0-8.017-8.017H179.04a8.016 8.016 0 0 0-8.017 8.017v43.29H92.994v-43.29a8.016 8.016 0 0 0-8.017-8.017H50.772a8.016 8.016 0 0 0-8.017 8.017v43.29H8.017A8.015 8.015 0 0 0 0 66.53v307.841a8.016 8.016 0 0 0 8.017 8.017h216.051c5.078 32.621 21.191 62.556 45.872 84.923 26.672 24.172 61.201 37.484 97.225 37.484C447.027 504.795 512 439.822 512 359.96c0-70.535-50.984-130.648-119.716-142.657zM315.324 66.53V23.24h18.171v86.58h-18.171V66.53zm-128.268 0V23.24h18.171v86.58h-18.171V66.53zm-128.267 0V23.24H76.96v86.58H58.789V66.53zm171.558 197.211h-68.409a8.016 8.016 0 0 0-8.017 8.017v68.409a8.016 8.016 0 0 0 8.017 8.017h60.886a145.996 145.996 0 0 0-.494 11.777c0 2.122.058 4.257.152 6.394H16.033V74.546h26.722v43.29a8.016 8.016 0 0 0 8.017 8.017h34.205a8.016 8.016 0 0 0 8.017-8.017v-43.29h78.029v43.29a8.016 8.016 0 0 0 8.017 8.017h34.205a8.016 8.016 0 0 0 8.017-8.017v-43.29h78.029v43.29a8.016 8.016 0 0 0 8.017 8.017h34.205a8.016 8.016 0 0 0 8.017-8.017v-43.29h26.722v140.862a146.817 146.817 0 0 0-9.086-.283c-8.812 0-17.581.807-26.188 2.378v-48.359a8.016 8.016 0 0 0-8.017-8.017h-68.409a8.016 8.016 0 0 0-8.017 8.017v68.409a8.016 8.016 0 0 0 8.017 8.017h13.797a145.387 145.387 0 0 0-33.776 37.241 144.466 144.466 0 0 0-6.209 10.909v-21.963a8.017 8.017 0 0 0-8.017-8.016zm-8.017 16.033v52.376h-52.376v-52.376h52.376zM324.944 177.16v44.232a144.645 144.645 0 0 0-20.783 8.144h-31.593V177.16h52.376zm42.221 311.602c-66.138 0-121.2-49.524-128.088-115.2l-.003-.028a131.111 131.111 0 0 1-.711-13.574c0-49.081 27.287-93.234 71.213-115.233a128.121 128.121 0 0 1 25.379-9.509l.003-.001a129.203 129.203 0 0 1 32.206-4.059c5.368 0 10.788.337 16.109 1h.002c64.246 8.012 112.691 62.955 112.691 127.801.001 71.023-57.779 128.803-128.801 128.803z"/><path d="M478.452 320.366a8.018 8.018 0 0 0-10.244-4.858 8.018 8.018 0 0 0-4.858 10.244c3.911 10.965 5.895 22.473 5.895 34.208a8.016 8.016 0 0 0 8.017 8.017 8.016 8.016 0 0 0 8.017-8.017c-.001-13.575-2.297-26.896-6.827-39.594zm-14.141-27.524c-15.655-22.592-38.754-39.127-65.043-46.561a8.013 8.013 0 0 0-9.896 5.533 8.016 8.016 0 0 0 5.533 9.896c22.718 6.424 42.687 20.724 56.227 40.264a8.008 8.008 0 0 0 6.597 3.451 8.018 8.018 0 0 0 6.582-12.583zm-97.146-23.719c-50.087 0-90.836 40.748-90.836 90.836s40.748 90.837 90.836 90.837 90.836-40.749 90.836-90.837-40.749-90.836-90.836-90.836zm0 165.64c-41.246 0-74.802-33.557-74.802-74.803s33.557-74.802 74.802-74.802c41.245 0 74.802 33.557 74.802 74.802 0 41.248-33.556 74.803-74.802 74.803z"/><path d="M414.196 357.803h-39.015v-39.015a8.016 8.016 0 0 0-8.017-8.017 8.016 8.016 0 0 0-8.017 8.017v47.031a8.016 8.016 0 0 0 8.017 8.017h47.031a8.016 8.016 0 0 0 8.017-8.017 8.014 8.014 0 0 0-8.016-8.016z"/></symbol><symbol viewBox="0 0 389.476 389.476" id="nav-serv-med"><path d="M134.79 195.819v45.103c0 5.523 4.478 10 10 10h37.229v37.229c0 5.523 4.478 10 10 10h45.101c5.522 0 10-4.477 10-10v-37.229h37.23c5.522 0 10-4.477 10-10v-45.103c0-5.523-4.478-10-10-10h-37.23V148.59c0-5.523-4.478-10-10-10h-45.101c-5.522 0-10 4.477-10 10v37.229H144.79c-5.523 0-10 4.477-10 10zm20 10h37.229c5.522 0 10-4.477 10-10V158.59h25.101v37.229c0 5.523 4.478 10 10 10h37.23v25.103h-37.23c-5.522 0-10 4.477-10 10v37.229h-25.101v-37.229c0-5.523-4.478-10-10-10H154.79v-25.103zM343.477 0H45.999c-5.522 0-10 4.477-10 10v369.476c0 5.523 4.478 10 10 10h297.479c5.522 0 10-4.477 10-10V10C353.477 4.477 349 0 343.477 0zM134.856 20h26.163v43.871l-7.317-5.163c-1.728-1.219-3.746-1.829-5.765-1.829s-4.037.61-5.766 1.829l-7.315 5.162V20zM75.664 369.476H55.999V20h19.665v349.476zm257.813 0H95.664V20h19.192v63.165a10 10 0 0 0 15.765 8.17l17.315-12.218 17.317 12.218a9.998 9.998 0 0 0 15.764-8.17V20h152.458v349.476z"/></symbol><symbol viewBox="0 0 442 442" id="nav-serv-programs"><path d="M441.655 289.454a10.002 10.002 0 0 0-9.72-7.647h-27.01l31.583-16.242a10 10 0 0 0-4.574-18.892h-51.2l19.811-22.188c.013-.014.022-.031.035-.045a9.963 9.963 0 0 0 1.519-2.294l.068-.142a9.951 9.951 0 0 0 .772-2.515c.015-.088.028-.177.041-.265.058-.417.099-.836.105-1.256l.002-.027a10.072 10.072 0 0 0-.12-1.593 10.108 10.108 0 0 0-.236-1.15c-.009-.034-.014-.069-.024-.103a9.922 9.922 0 0 0-.434-1.198c-.022-.052-.034-.106-.057-.158-.026-.057-.062-.107-.088-.164a9.912 9.912 0 0 0-.52-.967c-.039-.063-.072-.131-.112-.194a10.06 10.06 0 0 0-.704-.948c-.112-.135-.23-.264-.348-.393-.073-.079-.137-.163-.213-.241l-90.57-92.379L400.545 16.66A10 10 0 0 0 393.086 0H107.184a9.998 9.998 0 0 0-7.459 3.34L2.604 112.112c-.029.032-.05.069-.078.102-.29.333-.56.677-.798 1.037-.02.03-.035.061-.055.091a9.909 9.909 0 0 0-.592 1.057c-.039.081-.078.161-.116.243a9.905 9.905 0 0 0-.796 2.755c-.055.4-.093.801-.1 1.204 0 .021-.003.042-.004.063-.005.42.026.84.075 1.258.012.105.027.21.042.315.061.414.14.826.253 1.232l.004.019c.12.427.278.845.456 1.257.016.037.025.077.041.114.018.041.045.077.063.118a9.9 9.9 0 0 0 .617 1.146l.016.028c.229.359.49.703.77 1.036.075.09.154.175.232.262.097.107.185.22.287.324l90.566 92.375L2.604 319.937c-.031.034-.053.074-.083.108a9.996 9.996 0 0 0-.786 1.021c-.028.042-.05.085-.077.127-.211.328-.4.669-.572 1.021-.04.082-.08.162-.118.245-.18.394-.34.797-.468 1.217-.002.007-.003.015-.006.022a10.141 10.141 0 0 0-.326 1.53c-.049.354-.079.713-.09 1.078-.002.074-.011.147-.011.221l-.003.069c0 .407.031.806.079 1.2.011.095.029.188.043.283.055.366.128.726.221 1.078.02.075.036.15.058.225.124.429.275.846.453 1.25l.018.051c.017.038.04.07.058.107.167.36.354.707.561 1.042.043.069.082.14.126.208.231.355.483.695.756 1.017.058.069.121.132.181.2.234.262.481.51.741.746.072.065.142.132.215.195.318.271.651.524 1.002.755.058.038.118.071.176.107.315.198.642.377.98.54.076.037.15.075.226.109.394.178.798.334 1.217.46.036.011.073.018.108.028.375.108.761.191 1.153.256.104.017.208.034.313.048.43.057.866.096 1.312.096h285.902c.38 0 .756-.025 1.129-.067.117-.013.232-.038.349-.056.256-.039.51-.08.761-.137.136-.031.269-.072.403-.109.229-.063.455-.129.678-.208.138-.049.273-.104.409-.158.215-.086.427-.179.635-.28.069-.033.141-.057.209-.092l65.496-33.683h24.589l-97.079 49.925H10.064c-5.523 0-10 4.478-10 10s4.477 10 10 10h285.902c1.591 0 3.158-.38 4.573-1.107l65.496-33.683h24.588l-97.078 49.924H10.064c-5.523 0-10 4.478-10 10s4.477 10 10 10h285.902c1.591 0 3.158-.38 4.573-1.107l65.495-33.682h24.589L293.545 422H10.064c-5.523 0-10 4.478-10 10s4.477 10 10 10h285.902c1.591 0 3.158-.38 4.573-1.107l135.969-69.924a10 10 0 0 0-4.574-18.892h-27.01l31.583-16.242a10 10 0 0 0-4.574-18.892h-27.01l31.583-16.242a10.002 10.002 0 0 0 5.149-11.247zm-51.031-22.782l-51.306 26.385 23.558-26.385h27.748zM32.399 316.597l79.263-88.772h135.897c5.522 0 10-4.478 10-10s-4.478-10-10-10H111.376l-77.504-79.052h36.692c5.523 0 10-4.478 10-10s-4.477-10-10-10H32.399L111.661 20h259.09l-79.263 88.772H110.553c-5.523 0-10 4.478-10 10s4.477 10 10 10h181.213l77.503 79.052h-81.723c-5.522 0-10 4.478-10 10s4.478 10 10 10h83.205l-79.263 88.772H32.399z"/></symbol><symbol viewBox="0 0 612 612" id="nav-tour"><path d="M597.656 4.781H14.344C6.417 4.781 0 11.207 0 19.125v459c0 7.918 6.417 14.344 14.344 14.344H344.25c7.928 0 14.344-6.426 14.344-14.344s-6.416-14.344-14.344-14.344H229.5v-38.25c0-7.918-6.417-14.344-14.344-14.344s-14.344 6.426-14.344 14.344v38.25H28.688v-229.5h172.125v76.5c0 7.918 6.417 14.344 14.344 14.344s14.344-6.426 14.344-14.344v-19.125h181.688c7.928 0 14.344-6.426 14.344-14.344s-6.416-14.344-14.344-14.344H229.5V90.844c0-7.918-6.417-14.344-14.344-14.344s-14.344 6.426-14.344 14.344v114.75H28.688V33.469h554.625v229.5h-76.5v-38.25c0-7.918-6.416-14.344-14.344-14.344s-14.344 6.426-14.344 14.344v52.594c0 7.918 6.416 14.344 14.344 14.344h90.844v286.875H459v-95.625c0-7.918-6.416-14.344-14.344-14.344s-14.344 6.426-14.344 14.344v109.969c0 7.918 6.416 14.344 14.344 14.344h153c7.928 0 14.344-6.426 14.344-14.344V19.125c0-7.918-6.416-14.344-14.344-14.344z"/></symbol><symbol viewBox="0 0 201.917 201.917" id="nav-vacancy"><path d="M104.809 175.836a3.698 3.698 0 0 1 3.702-3.708h12.732a46.981 46.981 0 0 0 17.823 7.246c-.269.062-.512.158-.792.158H108.51a3.69 3.69 0 0 1-3.701-3.696zM95.76 146.2h6.597a46.068 46.068 0 0 1-1.504-7.41H95.76c-2.046 0-3.706 1.662-3.706 3.708s1.66 3.702 3.706 3.702zM68.499 52.632c-4.545-3.054-7.675-9.104-7.675-14.541 0-7.676 6.217-13.905 13.898-13.905S88.62 30.415 88.62 38.091c0 5.438-3.136 11.487-7.688 14.541 10.894 2.761 18.961 12.227 18.961 19.229 0 8.281-50.339 8.281-50.339 0-.004-7.003 8.07-16.462 18.945-19.229zm-.84 18.395l7.057 7.045 7.063-7.045-5.94-14.355h.055l2.308-2.637c-1.124.393-2.265.636-3.486.636-1.208 0-2.362-.244-3.486-.648l2.302 2.649h.061l-5.934 14.355zm93.029 122.809l.013-.012-.177-.311c-.092 0-.171.023-.256.023H31.249c-6.67 0-12.096-5.425-12.096-12.093V20.152c0-6.665 5.426-12.09 12.096-12.09h129.02c6.668 0 12.093 5.425 12.093 12.09v73.822c2.893 1.827 5.627 3.903 8.068 6.333V20.152C180.43 9.036 171.388 0 160.269 0H31.249C20.127 0 11.084 9.036 11.084 20.152v161.292c0 11.112 9.042 20.149 20.164 20.149h129.02c1.571 0 3.094-.226 4.573-.572l-4.153-7.185zM53.249 129.315h47.511c.225-2.479.636-4.95 1.26-7.411H53.255a3.698 3.698 0 0 0-3.699 3.703 3.686 3.686 0 0 0 3.693 3.708zm0-33.764h66.576a47.403 47.403 0 0 1 4.116-2.688 46.93 46.93 0 0 1 11.552-4.728H53.249c-2.046 0-3.699 1.66-3.699 3.711s1.653 3.705 3.699 3.705zm0 16.879h52.266a46.783 46.783 0 0 1 4.592-7.41H53.249c-2.046 0-3.699 1.662-3.699 3.708s1.653 3.702 3.699 3.702zm126.554 2.254c10.327 17.89 4.177 40.857-13.725 51.173-17.884 10.321-40.847 4.201-51.174-13.713-10.333-17.884-4.177-40.847 13.701-51.176 17.902-10.331 40.871-4.184 51.198 13.716zm-5.365 3.105c-8.629-14.931-27.791-20.064-42.716-11.461-14.937 8.635-20.082 27.773-11.436 42.723 8.61 14.93 27.767 20.075 42.703 11.453 14.932-8.641 20.059-27.785 11.449-42.715zm1.066 45.766l-16.106 9.305 12.404 21.47 16.1-9.292-12.398-21.483zm14.078 24.405l-16.118 9.298a9.315 9.315 0 0 0 12.714 3.416c4.451-2.57 5.979-8.269 3.404-12.714z"/></symbol><symbol viewBox="0 0 95.481 95.481" id="ok"><path d="M43.041 67.254c-7.402-.772-14.076-2.595-19.79-7.064-.709-.556-1.441-1.092-2.088-1.713-2.501-2.402-2.753-5.153-.774-7.988 1.693-2.426 4.535-3.075 7.489-1.682.572.27 1.117.607 1.639.969 10.649 7.317 25.278 7.519 35.967.329 1.059-.812 2.191-1.474 3.503-1.812 2.551-.655 4.93.282 6.299 2.514 1.564 2.549 1.544 5.037-.383 7.016-2.956 3.034-6.511 5.229-10.461 6.761-3.735 1.448-7.826 2.177-11.875 2.661.611.665.899.992 1.281 1.376 5.498 5.524 11.02 11.025 16.5 16.566 1.867 1.888 2.257 4.229 1.229 6.425-1.124 2.4-3.64 3.979-6.107 3.81-1.563-.108-2.782-.886-3.865-1.977-4.149-4.175-8.376-8.273-12.441-12.527-1.183-1.237-1.752-1.003-2.796.071-4.174 4.297-8.416 8.528-12.683 12.735-1.916 1.889-4.196 2.229-6.418 1.15-2.362-1.145-3.865-3.556-3.749-5.979.08-1.639.886-2.891 2.011-4.014 5.441-5.433 10.867-10.88 16.295-16.322.359-.362.694-.746 1.217-1.305z"/><path d="M47.55 48.329c-13.205-.045-24.033-10.992-23.956-24.218C23.67 10.739 34.505-.037 47.84 0c13.362.036 24.087 10.967 24.02 24.478-.068 13.199-10.971 23.897-24.31 23.851zm12.001-24.186c-.023-6.567-5.253-11.795-11.807-11.801-6.609-.007-11.886 5.316-11.835 11.943.049 6.542 5.324 11.733 11.896 11.709 6.552-.023 11.768-5.285 11.746-11.851z"/></symbol><symbol viewBox="0 0 42 42" id="plus"><path d="M42 19H23V0h-4v19H0v4h19v19h4V23h19z"/></symbol><symbol viewBox="0 0 14.573 14.573" id="power"><path d="M7.286 14.573A6.46 6.46 0 0 1 2.69 12.67C1.463 11.442.786 9.81.786 8.073s.677-3.369 1.904-4.597A.999.999 0 1 1 4.104 4.89c-.85.851-1.318 1.981-1.318 3.183s.468 2.333 1.318 3.183 1.979 1.317 3.182 1.317 2.332-.468 3.182-1.317c.851-.85 1.318-1.98 1.318-3.183s-.468-2.333-1.317-3.183a.999.999 0 1 1 1.414-1.414c1.227 1.229 1.904 2.861 1.904 4.597s-.677 3.369-1.904 4.597a6.46 6.46 0 0 1-4.597 1.903z"/><path d="M7.286 7a1 1 0 0 1-1-1V1a1 1 0 1 1 2 0v5a1 1 0 0 1-1 1z"/></symbol><symbol viewBox="0 0 31.357 31.357" id="question"><path d="M15.255 0c5.424 0 10.764 2.498 10.764 8.473 0 5.51-6.314 7.629-7.67 9.62-1.018 1.481-.678 3.562-3.475 3.562-1.822 0-2.712-1.482-2.712-2.838 0-5.046 7.414-6.188 7.414-10.343 0-2.287-1.522-3.643-4.066-3.643-5.424 0-3.306 5.592-7.414 5.592-1.483 0-2.756-.89-2.756-2.584C5.339 3.683 10.084 0 15.255 0zm-.211 24.406a3.492 3.492 0 0 1 3.475 3.476 3.49 3.49 0 0 1-3.475 3.476 3.49 3.49 0 0 1-3.476-3.476 3.491 3.491 0 0 1 3.476-3.476z"/></symbol><symbol viewBox="0 0 485.213 485.213" id="search"><path d="M471.882 407.567L360.567 296.243a214.267 214.267 0 0 1-64.331 64.321L407.56 471.888c17.772 17.768 46.587 17.768 64.321 0 17.773-17.739 17.773-46.554.001-64.321zM363.909 181.955C363.909 81.473 282.44 0 181.956 0 81.474 0 .001 81.473.001 181.955s81.473 181.951 181.955 181.951c100.484 0 181.953-81.469 181.953-181.951zM181.956 318.416c-75.252 0-136.465-61.208-136.465-136.46 0-75.252 61.213-136.465 136.465-136.465 75.25 0 136.468 61.213 136.468 136.465 0 75.252-61.218 136.46-136.468 136.46z"/><path d="M75.817 181.955h30.322c0-41.803 34.014-75.814 75.816-75.814V75.816c-58.517 0-106.138 47.621-106.138 106.139z"/></symbol><symbol viewBox="0 0 64.2 64.2" id="servises-mrt"><path d="M44.8 42.9v-.1c0-.1 0-.1-.1-.1v-.1l-6.9-9.7c-.2-.3-.7-.4-1.1-.2-.3.2-.4.7-.2 1.1l6.1 8.5h-21l6.1-8.5c.2-.3.2-.8-.2-1.1-.3-.2-.8-.2-1.1.2l-6.9 9.7v.1s0 .1-.1.1V49c0 .4.3.8.8.8h23.9c.4 0 .8-.3.8-.8l-.1-6.1zm-1.5 5.4H20.9v-4.5h22.4v4.5z"/><path d="M24.5 33.4c-.8-1.3-1.2-2.8-1.2-4.4 0-4.8 3.9-8.8 8.8-8.8 4.8 0 8.8 3.9 8.8 8.8 0 1.6-.4 3.1-1.2 4.4l1.8 2.5c1.4-1.9 2.3-4.3 2.3-6.9 0-6.4-5.2-11.6-11.6-11.6-6.4 0-11.6 5.2-11.6 11.6 0 2.6.8 4.9 2.3 6.9l1.6-2.5zm14.4 19.9H25.3c-.4 0-.8-.3-.8-.8v-1.7H26v.9h12v-.9h1.5v1.7c.2.5-.2.8-.6.8z"/><path d="M35.6 34.6h-7c-.2 0-.4-.2-.4-.4v-3c0-.2.2-.4.4-.4h7c.2 0 .4.2.4.4v3c0 .2-.2.4-.4.4zm-6.6-.8h6.3v-2.2H29v2.2z"/><path d="M49.4 47.1h-3.6v-1.5h2.9V29c0-9.1-7.4-16.6-16.6-16.6-9.1 0-16.6 7.4-16.6 16.6v16.6h2.9v1.5h-3.6c-.4 0-.8-.3-.8-.8V29c0-10 8.1-18.1 18.1-18.1 10 0 18.1 8.1 18.1 18.1v17.3c0 .4-.3.8-.8.8z"/></symbol><symbol viewBox="0 0 512 512" id="skype"><path d="M487.654 288.97c1.406-10.4 2.215-20.973 2.215-31.736 0-129.153-105.27-233.872-235.102-233.872-12.904 0-25.555 1.06-37.866 3.08-22.072-14.384-48.342-22.767-76.612-22.767C62.766 3.675 0 66.483 0 143.981c0 28.198 8.299 54.394 22.59 76.389a232.862 232.862 0 0 0-2.909 36.859c0 129.176 105.217 233.882 235.085 233.882 14.657 0 28.927-1.429 42.796-3.935 21.549 13.369 46.934 21.148 74.145 21.148C449.211 508.327 512 445.503 512 368.013c-.004-29.293-8.961-56.528-24.346-79.043zM276.74 429.597c-74.705 3.894-109.664-12.637-141.689-42.691-35.765-33.565-21.398-71.854 7.74-73.801 29.122-1.942 46.607 33.015 62.15 42.736 15.524 9.688 74.594 31.76 105.793-3.908 33.977-38.828-22.594-58.92-64.06-65.002-59.203-8.766-133.95-40.792-128.135-103.907 5.816-63.074 53.582-95.414 103.85-99.976 64.077-5.817 105.792 9.707 138.786 37.86 38.148 32.529 17.508 68.894-6.799 71.82-24.213 2.909-51.404-53.504-104.792-54.352-55.027-.864-92.217 57.261-24.286 73.784 67.967 16.505 140.75 23.286 166.961 85.417 26.231 62.137-40.751 128.125-115.519 132.02z"/></symbol><symbol viewBox="0 0 193.58 193.58" id="stomatology"><path d="M185.107 77.098c-2.91-12.568-11.411-21.784-24.601-26.667-8.786-3.249-30.178-6.223-39.604 4.856-30.37-17.987-46.381-8.205-57.149 3.374-23.77 25.529-12.897 51.25-2.731 62.417 7.344 8.087 9.472 12.764 10.656 18.109.268 1.176.877 4.641.91 5.395 1.875 44.464 17.041 48.287 20.67 48.556 1.047.304 2.095.444 3.105.444 1.839 0 3.59-.499 5.188-1.468 7.526-4.628 9.841-18.985 11.887-31.651.742-4.579 1.431-8.89 2.234-11.411 1.406-4.359 2.569-5.346 2.558-5.492 1.011.45 2.722 3.702 2.898 4.981.286 1.924.487 4.408.706 7.197 1.163 14.285 2.898 35.828 18.091 37.387 1.084.226 3.642.469 6.796-1.437 7.16-4.348 12.458-16.806 15.746-37.01l.487-3.233c1.193-8.117 2.825-19.218 9.523-26.257 7.735-8.082 17.063-28.956 12.63-48.09zm-17.123 43.796c-8.062 8.47-9.925 21.209-11.167 29.654l-.475 3.13c-3.782 23.248-9.402 30.27-12.416 32.389-1.583 1.126-2.582.962-2.467 1.011a2.239 2.239 0 0 0-.706-.141c-10.181-.895-11.679-19.424-12.671-31.7-.244-2.953-.451-5.571-.743-7.605-.305-2.039-3.19-9.846-8.519-10.297-5.779-.45-8.221 7.259-9.037 9.805-.949 2.971-1.662 7.307-2.472 12.336-1.559 9.633-3.909 24.198-8.997 27.328-.693.426-1.714.877-3.568.268a3.093 3.093 0 0 0-.935-.134h-.088c-.155 0-13.149-1.571-14.882-42.624-.064-1.431-.816-5.468-1.042-6.479-1.641-7.332-4.926-12.994-12.136-20.929-2.411-2.648-22.77-26.631 2.682-53.974 11.704-12.568 28.964-21.068 68.156 11.119a3.116 3.116 0 0 0 4.384-.436 3.112 3.112 0 0 0-.426-4.384c-5.029-4.116-9.743-7.614-14.163-10.543 7.233-7.258 24.271-5.276 32.065-2.39 11.295 4.177 18.261 11.655 20.703 22.238 3.717 16.138-4.041 34.978-11.08 42.358zM45.781 77.941c0 1.726-1.4 3.118-3.117 3.118H10.452a3.14 3.14 0 0 1-2.968-2.134 3.149 3.149 0 0 1 1.093-3.483l26.619-19.96-25.167-33.884a3.104 3.104 0 0 1 .058-3.784 3.097 3.097 0 0 1 3.672-.935l38.547 16.38L63.653 2.058A3.1 3.1 0 0 1 66.576 0c.058 0 .106 0 .152.012a3.12 3.12 0 0 1 2.868 2.326l9.353 36.377a3.126 3.126 0 0 1-2.241 3.796 3.108 3.108 0 0 1-3.791-2.238l-6.854-26.625-9.021 24.829a3.142 3.142 0 0 1-1.69 1.791 3.118 3.118 0 0 1-2.463.012L21.882 27.105 42.049 54.26a3.101 3.101 0 0 1-.636 4.338l-21.62 16.219h22.859a3.125 3.125 0 0 1 3.129 3.124z"/></symbol><symbol viewBox="-41 164.9 512 512" id="surgical"><style>.st0{fill:#fff}</style><path d="M461.8 249.1c-5.1 0-9.2 4.1-9.2 9.2 0 12.2-4.8 23.7-13.4 32.4l-219 218.9-11-11-53.8-53.8L374.3 226c17.9-17.9 46.9-17.9 64.8 0 2.2 2.2 4.2 4.6 5.9 7.2 2.8 4.3 8.6 5.4 12.8 2.6 4.3-2.8 5.4-8.5 2.6-12.8-2.4-3.6-5.2-7-8.2-10.1-12.1-12.1-28.3-18.8-45.5-18.8s-33.3 6.7-45.5 18.8L80.4 493.8c-3.6 3.6-3.6 9.5 0 13.1 3.6 3.6 9.5 3.6 13.1 0l48.9-48.9 47.2 47.2-10 10c-11 11-12.9 27.7-5.6 40.7l-32.3 32.3c-41.7 41.7-105 52.6-157.9 28.4l88.7-88.7c3.6-3.6 3.6-9.5 0-13.1-3.6-3.6-9.5-3.6-13.1 0l-97.7 97.7c-2 2-3 4.9-2.6 7.8s2.1 5.4 4.6 6.8c24.5 13.9 51.5 20.7 78.4 20.7 41.2 0 82.1-15.9 112.6-46.5l38-38c3.6-3.6 3.6-9.5 0-13.1-6.1-6.1-6.1-15.9 0-22l10-10 11 11c1.8 1.8 4.2 2.7 6.5 2.7s4.7-.9 6.5-2.7l225.4-225.4c12.1-12.1 18.8-28.3 18.8-45.5.1-5.1-4-9.2-9.1-9.2z"/><path d="M101 531.2c-3.6-3.6-9.5-3.6-13.1 0l-30.5 30.5c-3.6 3.6-3.6 9.5 0 13.1 1.8 1.8 4.2 2.7 6.5 2.7 2.4 0 4.7-.9 6.5-2.7l30.5-30.5c3.8-3.6 3.8-9.5.1-13.1zM-33 669.3h140.1M107.1 676.8H-33c-4.1 0-7.5-3.4-7.5-7.5s3.4-7.5 7.5-7.5h140.1c4.1 0 7.5 3.4 7.5 7.5s-3.3 7.5-7.5 7.5zM146.4 669.3h140.1M286.5 676.8H146.4c-4.1 0-7.5-3.4-7.5-7.5s3.4-7.5 7.5-7.5h140.1c4.1 0 7.5 3.4 7.5 7.5s-3.4 7.5-7.5 7.5zM323.4 669.3h140.1M463.5 676.8H323.4c-4.1 0-7.5-3.4-7.5-7.5s3.4-7.5 7.5-7.5h140.1c4.1 0 7.5 3.4 7.5 7.5s-3.4 7.5-7.5 7.5z"/></symbol><symbol viewBox="0 0 16.877 16.877" id="tel"><path d="M5.301 5.587L1.404 1.688 2.913.177A.598.598 0 0 1 3.756.17l3.036 3.039a.6.6 0 0 1-.003.848l-.665.664-.619.619a1.705 1.705 0 0 0-.204.247zm3.206 6.351a34.186 34.186 0 0 1-1.844-1.725 34.655 34.655 0 0 1-1.724-1.848c-.45-.52-.538-1.273-.303-1.907l-4-4.001c-.931.957-.812 3.33.208 5.415.438.902 1.006 1.716 1.593 2.49a22.316 22.316 0 0 0 1.906 2.176 21.258 21.258 0 0 0 2.171 1.913c.774.589 1.59 1.153 2.486 1.59 2.088 1.019 4.462 1.131 5.418.199l-4.001-4.001c-.634.235-1.388.148-1.91-.301zm8.195 1.181l-3.036-3.037a.605.605 0 0 0-.848.003h-.002l-.667.666-.615.618a1.866 1.866 0 0 1-.247.205l3.896 3.898c.504-.505 1.007-1.007 1.512-1.51a.594.594 0 0 0 .007-.843z"/></symbol><symbol viewBox="0 0 50 50" id="therapeutic"><path d="M46.966 23.345c0-3.814-3.115-6.92-6.931-6.92s-6.933 3.105-6.933 6.92a6.905 6.905 0 0 0 5.769 6.813v7.267c0 5.664-4.597 10.261-10.261 10.261-5.664 0-10.262-4.598-10.262-10.261l-.025-8.325c2.686-.358 5.311-1.929 7.646-4.612.343-.394.447-.902.388-1.387 3.052-4.035 4.945-9.53 4.945-13.754 0-6.521-2.922-7.198-7.754-8.304l-.007-.012C23.244.433 22.644 0 21.917 0a1.846 1.846 0 0 0-1.849 1.836c0 1.021.827 1.848 1.849 1.848.404 0 .783-.168 1.084-.407l.043.016c4.691 1.077 5.957 1.369 5.957 6.054 0 3.715-1.758 8.69-4.445 12.282a1.767 1.767 0 0 0-1.214.588c-1.373 1.589-3.567 3.491-6.159 3.491-2.59 0-4.782-1.884-6.155-3.469a1.763 1.763 0 0 0-1.211-.587c-2.694-3.605-4.456-8.586-4.456-12.306 0-4.688 1.245-4.979 5.965-6.056l.016-.015c.324.239.677.408 1.107.408a1.848 1.848 0 0 0 1.848-1.848A1.846 1.846 0 0 0 12.448 0c-.729 0-1.328.433-1.646 1.029l-.004.001C5.961 2.146 3.034 2.811 3.034 9.347c0 4.228 1.9 9.743 4.979 13.777-.059.485.046.994.389 1.387 2.333 2.665 4.933 4.23 7.616 4.589l.003 8.324C16.022 44.359 21.676 50 28.61 50s12.564-5.641 12.564-12.576v-7.267c3.272-.546 5.792-3.378 5.792-6.812zm-6.931 4.63a4.64 4.64 0 0 1-4.63-4.628c0-2.544 2.087-4.617 4.63-4.617s4.606 2.073 4.606 4.617c.001 2.553-2.063 4.628-4.606 4.628z"/><path d="M40.035 19.891a3.462 3.462 0 0 0-3.466 3.455 3.463 3.463 0 0 0 3.466 3.464 3.463 3.463 0 0 0 3.466-3.464 3.463 3.463 0 0 0-3.466-3.455z"/></symbol><symbol viewBox="0 0 612.035 612.035" id="time"><path d="M430.9 275.39h-76.697c-10.148-15.943-27.885-26.583-48.216-26.583-31.596 0-57.203 25.598-57.203 57.203 0 1.724.361 3.351.501 5.03l-93.432 72.011c-13.375 10.314-15.864 29.537-5.558 42.931 6.042 7.826 15.107 11.933 24.271 11.933a30.557 30.557 0 0 0 18.678-6.367l93.335-71.923c6.077 2.199 12.558 3.605 19.417 3.605 20.331 0 38.067-10.648 48.233-26.609H430.9c16.901 0 30.61-13.7 30.61-30.61.009-16.921-13.709-30.621-30.61-30.621zM305.996 107.73c11.282 0 20.41-9.137 20.41-20.41V20.41c0-11.273-9.128-20.41-20.41-20.41s-20.41 9.137-20.41 20.41v66.91c-.001 11.274 9.127 20.41 20.41 20.41zm285.616 177.86h-66.91c-11.282 0-20.41 9.137-20.41 20.41s9.128 20.41 20.41 20.41h66.91c11.282 0 20.41-9.137 20.41-20.41-.009-11.265-9.137-20.41-20.41-20.41zM305.996 504.305c-11.282 0-20.41 9.137-20.41 20.41v66.91c0 11.273 9.128 20.41 20.41 20.41s20.41-9.137 20.41-20.41v-66.91c0-11.265-9.128-20.41-20.41-20.41zM107.744 306c0-11.273-9.128-20.41-20.41-20.41h-66.91C9.142 285.59.014 294.736.014 306c0 11.273 9.128 20.41 20.41 20.41h66.91c11.273 0 20.41-9.137 20.41-20.41zm370.378-161.873c2.612 0 5.224-.994 7.211-2.99l29.837-29.88c3.983-3.992 3.983-10.456 0-14.439-3.983-3.966-10.447-3.975-14.431.009l-29.837 29.881c-3.983 3.992-3.983 10.456 0 14.439a10.202 10.202 0 0 0 7.22 2.98zm7.211 326.744c-3.983-3.983-10.447-3.983-14.431 0-3.983 3.975-3.983 10.447 0 14.431l29.837 29.863c1.996 1.987 4.6 2.989 7.211 2.989s5.224-.993 7.211-2.989c3.983-3.975 3.983-10.447 0-14.431l-29.828-29.863zm-358.622-.026l-29.88 29.898c-3.984 3.983-3.984 10.456 0 14.431a10.204 10.204 0 0 0 14.43 0l29.88-29.898c3.984-3.983 3.984-10.456 0-14.431-3.983-3.984-10.437-3.984-14.43 0zm0-329.699a10.154 10.154 0 0 0 7.211 2.99c2.612 0 5.223-.994 7.21-2.99 3.984-3.984 3.984-10.447 0-14.431l-29.854-29.863c-3.983-3.983-10.447-3.983-14.43 0-3.984 3.984-3.984 10.447 0 14.431l29.863 29.863z"/></symbol><symbol viewBox="0 0 548.358 548.358" id="vk"><path d="M545.451 400.298c-.664-1.431-1.283-2.618-1.858-3.569-9.514-17.135-27.695-38.167-54.532-63.102l-.567-.571-.284-.28-.287-.287h-.288c-12.18-11.611-19.893-19.418-23.123-23.415-5.91-7.614-7.234-15.321-4.004-23.13 2.282-5.9 10.854-18.36 25.696-37.397 7.807-10.089 13.99-18.175 18.556-24.267 32.931-43.78 47.208-71.756 42.828-83.939l-1.701-2.847c-1.143-1.714-4.093-3.282-8.846-4.712-4.764-1.427-10.853-1.663-18.278-.712l-82.224.568c-1.332-.472-3.234-.428-5.712.144l-3.713.859-1.431.715-1.136.859c-.952.568-1.999 1.567-3.142 2.995-1.137 1.423-2.088 3.093-2.848 4.996-8.952 23.031-19.13 44.444-30.553 64.238-7.043 11.803-13.511 22.032-19.418 30.693-5.899 8.658-10.848 15.037-14.842 19.126-4 4.093-7.61 7.372-10.852 9.849-3.237 2.478-5.708 3.525-7.419 3.142-1.715-.383-3.33-.763-4.859-1.143-2.663-1.714-4.805-4.045-6.42-6.995-1.622-2.95-2.714-6.663-3.285-11.136-.568-4.476-.904-8.326-1-11.563-.089-3.233-.048-7.806.145-13.706.198-5.903.287-9.897.287-11.991 0-7.234.141-15.085.424-23.555.288-8.47.521-15.181.716-20.125.194-4.949.284-10.185.284-15.705s-.336-9.849-1-12.991a44.442 44.442 0 0 0-2.99-9.137c-1.335-2.95-3.289-5.232-5.853-6.852-2.569-1.618-5.763-2.902-9.564-3.856-10.089-2.283-22.936-3.518-38.547-3.71-35.401-.38-58.148 1.906-68.236 6.855-3.997 2.091-7.614 4.948-10.848 8.562-3.427 4.189-3.905 6.475-1.431 6.851 11.422 1.711 19.508 5.804 24.267 12.275l1.715 3.429c1.334 2.474 2.666 6.854 3.999 13.134 1.331 6.28 2.19 13.227 2.568 20.837.95 13.897.95 25.793 0 35.689-.953 9.9-1.853 17.607-2.712 23.127-.859 5.52-2.143 9.993-3.855 13.418-1.715 3.426-2.856 5.52-3.428 6.28-.571.76-1.047 1.239-1.425 1.427a21.387 21.387 0 0 1-7.71 1.431c-2.667 0-5.901-1.334-9.707-4-3.805-2.666-7.754-6.328-11.847-10.992-4.093-4.665-8.709-11.184-13.85-19.558-5.137-8.374-10.467-18.271-15.987-29.691l-4.567-8.282c-2.855-5.328-6.755-13.086-11.704-23.267-4.952-10.185-9.329-20.037-13.134-29.554-1.521-3.997-3.806-7.04-6.851-9.134l-1.429-.859c-.95-.76-2.475-1.567-4.567-2.427a30.301 30.301 0 0 0-6.567-1.854l-78.229.568c-7.994 0-13.418 1.811-16.274 5.428l-1.143 1.711c-.571.953-.859 2.475-.859 4.57 0 2.094.571 4.664 1.714 7.707 11.42 26.84 23.839 52.725 37.257 77.659 13.418 24.934 25.078 45.019 34.973 60.237 9.897 15.229 19.985 29.602 30.264 43.112 10.279 13.515 17.083 22.176 20.412 25.981 3.333 3.812 5.951 6.662 7.854 8.565l7.139 6.851c4.568 4.569 11.276 10.041 20.127 16.416 8.853 6.379 18.654 12.659 29.408 18.85 10.756 6.181 23.269 11.225 37.546 15.126 14.275 3.905 28.169 5.472 41.684 4.716h32.834c6.659-.575 11.704-2.669 15.133-6.283l1.136-1.431c.764-1.136 1.479-2.901 2.139-5.276.668-2.379 1-5 1-7.851-.195-8.183.428-15.558 1.852-22.124 1.423-6.564 3.045-11.513 4.859-14.846 1.813-3.33 3.859-6.14 6.136-8.418 2.282-2.283 3.908-3.666 4.862-4.142.948-.479 1.705-.804 2.276-.999 4.568-1.522 9.944-.048 16.136 4.429 6.187 4.473 11.99 9.996 17.418 16.56 5.425 6.57 11.943 13.941 19.555 22.124 7.617 8.186 14.277 14.271 19.985 18.274l5.708 3.426c3.812 2.286 8.761 4.38 14.853 6.283 6.081 1.902 11.409 2.378 15.984 1.427l73.087-1.14c7.229 0 12.854-1.197 16.844-3.572 3.998-2.379 6.373-5 7.139-7.851.764-2.854.805-6.092.145-9.712-.677-3.611-1.344-6.136-2.008-7.563z"/></symbol></svg>