<?xml version="1.0" encoding="utf-8"?><svg xmlns="http://www.w3.org/2000/svg" xmlns:xlink="http://www.w3.org/1999/xlink"><symbol viewBox="-53 176.9 489 489" id="address"><path d="M26.5 180.1l165 80.9 165-80.9c25.3-12.4 52.4 13.1 41.6 39.1L219.6 647.1c-10.4 25-45.8 25-56.3 0L-15.1 219.2c-10.8-25.9 16.3-51.5 41.6-39.1z"/></symbol><symbol viewBox="0 0 496 496" id="admin"><path d="M496 286.216c0-28.064-15.984-52.624-40-64.48V96c0-52.936-43.064-96-96-96s-96 43.064-96 96v9.456c-10.12-1.728-20.64-1.912-31.216-.272-.568.088-1.128.24-1.696.336.552-3.136.912-6.304.912-9.52V64c0-12.656-9.84-23.056-22.28-23.936C193.544 15.232 165.712 0 136 0 87.48 0 48 39.48 48 88v8c0 18.28 9.128 35.352 24 45.768v.456c0 20.16 9.392 38.144 24 49.88v17.128L60.168 215.2C25.304 221 0 250.872 0 286.216V352h141.504C114.264 362.696 96 388.848 96 418.912V496h304v-77.088c0-30.064-18.264-56.216-45.504-66.912H496v-65.784zM280 96c0-44.112 35.888-80 80-80s80 35.888 80 80v120.08c-1.384-.312-2.752-.648-4.168-.888L400 209.224v-17.128c14.608-11.744 24-29.72 24-49.88l-.056-50.688-11.344 5.224c-.16.08-16.144 7.248-52.6 7.248s-52.44-7.168-52.536-7.208L296 91.296v25.656c-5.08-2.936-10.456-5.344-16-7.312V96zm51.344 56.496c-5.2-9.128-11.784-17.12-19.344-23.896v-13.64c9.512 2.392 25.2 5.04 48 5.04s38.488-2.648 48-5.04v27.256c0 26.472-21.528 48-48 48-2.68 0-5.344-.296-8-.752V177.68c0-12.44-8.888-22.832-20.656-25.184zm13.696 89.328C349.488 231.192 352 219.736 352 208v-2.36c2.656.336 5.328.584 8 .584a63.562 63.562 0 0 0 24-4.712v13.2l-24 72-14.96-44.888zm.656 52.568l-21.912-21.912c3.944-3.664 7.44-7.704 10.616-11.984l11.296 33.896zm51.736-69.384l12.64 2.104 5.24 26.256-41.008 41.016 23.128-69.376zM235.216 120.992c34.488-5.344 68.192 11.832 83.968 42.648l2.24 4.36h4.888c5.344 0 9.688 4.344 9.688 9.68V208c0 16.512-5.824 32.448-16.008 45.136l-.04-49.08-11.056 4.568c-.176.08-18.344 7.376-60.896 7.376s-60.72-7.296-60.848-7.352L176 203.872v30.696c-6.472-13.448-9.184-28.576-7.48-43.808 3.92-35.072 31.968-64.408 66.696-69.768zm-76.584 113.536c1.808 4.672 3.904 9.232 6.432 13.584l-14.112-8.472 7.68-5.112zM136.28 230.2L112 212v-10.496a63.562 63.562 0 0 0 24 4.712c5.536 0 10.96-.792 16.248-2.2.216 4.864.736 9.688 1.672 14.424l-17.64 11.76zm32.624 38.864l7.84 4.704c2.36 17.296 10.864 32.616 23.256 43.744V336h-32.936l-6.76-54.04 8.6-12.896zm37.12 83.608l27.992 22.392-23.592 14.16-21.704-32.56 17.304-3.992zm9.976-12.52V328.4c9.656 4.816 20.496 7.6 32 7.6 11.504 0 22.344-2.776 32-7.6v11.752l-32 25.6-32-25.6zm73.976 12.512l17.304 3.992-21.704 32.56-23.592-14.16 27.992-22.392zM248 320c-30.872 0-56-25.128-56-56v-37.328c10.456 2.44 28.616 5.328 56 5.328s45.544-2.888 56-5.328V264c0 30.872-25.128 56-56 56zM72 91.296v28.584c-5.088-6.808-8-15.16-8-23.88v-8c0-39.704 32.296-72 72-72 25.552 0 49.424 13.8 62.288 36.008L200.6 56h7.4c4.416 0 8 3.584 8 8v32c0 5.016-1.008 9.904-2.88 14.608a94.986 94.986 0 0 0-13.136 6.416l-.032-25.488-11.344 5.224c-.168.072-16.152 7.24-52.608 7.24s-52.44-7.168-52.536-7.208L72 91.296zm16 50.92V114.96c9.512 2.392 25.2 5.04 48 5.04s38.488-2.648 48-5.04v13.72c-16.6 14.984-28.04 35.616-31.08 58.368-5.44 2.072-11.104 3.176-16.92 3.176-26.472-.008-48-21.536-48-48.008zm13.936 82.232l19.744 14.808-22.936 13.768-15.296-25.488 18.488-3.088zm3 111.552H64v-24H48v24H16v-49.784c0-27.496 19.68-50.728 46.792-55.24l3.696-.616 26.768 44.616 9.84-5.904 8.592 12.888-6.752 54.04zm16.12 0l7.24-57.96-11.472-17.208L136 249.328l19.168 11.496-11.472 17.208 7.24 57.968h-29.88zm95.784 144H160v-40h-16v40h-32v-61.088c0-26.232 17.848-48.672 43.408-54.56l16.648-3.84 33.52 50.272 9.52-5.712 8.632 12.944L216.84 480zm46.224 0h-30.12l7.336-66.016-11.44-17.16L248 385.328l19.168 11.496-11.44 17.16L263.064 480zM384 418.912V480h-32v-40h-16v40h-56.84l-6.888-61.984 8.632-12.944 9.52 5.712 33.52-50.272 16.648 3.84C366.152 370.24 384 392.68 384 418.912zM480 336h-32v-24h-16v24H296v-18.488c9.032-8.112 16-18.448 20.04-30.168L360 331.312l72.688-72.68-5.744-28.704 6.264 1.048c27.112 4.52 46.792 27.752 46.792 55.24V336z"/></symbol><symbol viewBox="0 0 380.721 380.721" id="aid"><path d="M355.625 93.925h-89.626V55.212c0-7.14-5.787-12.908-12.897-12.908H131.918c-7.128 0-12.908 5.769-12.908 12.908v38.713H24.364C9.318 93.925 0 101.814 0 113.282v22.941h380.721v-21.14c0-11.113-8.597-21.158-25.096-21.158zm-115.444 0h-95.354V68.108h95.354v25.817zM1.441 321.222c0 10.038 4.996 17.195 17.201 17.195h343.419c12.188 0 17.207-9.853 17.207-17.195V149.857H1.429v171.364h.012zM190.36 176.923c37.134 0 67.227 30.086 67.227 67.219 0 37.122-30.093 67.227-67.227 67.227-37.133 0-67.219-30.104-67.219-67.227 0-37.132 30.086-67.219 67.219-67.219z"/><path d="M175.954 288.236h28.814v-29.674h29.686v-28.837h-29.686v-29.686h-28.814v29.686h-29.698v28.837h29.698z"/></symbol><symbol viewBox="0 0 275.836 275.836" id="appointment"><path d="M191.344 20.922l-95.155 95.155a5.99 5.99 0 0 0-1.565 2.734l-8.167 31.454a6.003 6.003 0 0 0 7.315 7.316l31.454-8.168a6.003 6.003 0 0 0 2.734-1.565l95.153-95.153.005-.004.004-.005 19.156-19.156a5.998 5.998 0 0 0 .001-8.484L218.994 1.758a5.998 5.998 0 0 0-8.485 0l-19.155 19.155-.005.004-.005.005zm-70.713 117.286l-19.993 5.192 5.191-19.993 89.762-89.762 14.801 14.802-89.761 89.761zm94.12-123.723l14.801 14.802-10.675 10.675-14.801-14.802 10.675-10.675z"/><path d="M238.037 65.022a6 6 0 0 0-6 6v192.813H43.799V34.417h111.063a6 6 0 0 0 0-12H37.799a6 6 0 0 0-6 6v241.419a6 6 0 0 0 6 6h200.238a6 6 0 0 0 6-6V71.022a6 6 0 0 0-6-6z"/></symbol><symbol viewBox="0 0 512 512" id="arrow-down"><path d="M509.121 125.966a9.821 9.821 0 0 0-13.893 0L256.005 365.194 16.771 125.966a9.821 9.821 0 0 0-13.893 0 9.821 9.821 0 0 0 0 13.893l246.18 246.175a9.819 9.819 0 0 0 13.893 0l246.17-246.175a9.821 9.821 0 0 0 0-13.893z"/></symbol><symbol viewBox="0 0 451.847 451.847" id="arrow-left-900"><path d="M97.141 225.92c0-8.095 3.091-16.192 9.259-22.366L300.689 9.27c12.359-12.359 32.397-12.359 44.751 0 12.354 12.354 12.354 32.388 0 44.748L173.525 225.92l171.903 171.909c12.354 12.354 12.354 32.391 0 44.744-12.354 12.365-32.386 12.365-44.745 0l-194.29-194.281c-6.167-6.177-9.252-14.274-9.252-22.372z"/></symbol><symbol viewBox="0 0 268.832 268.832" id="arrow-next"><path d="M265.171 125.577l-80-80c-4.881-4.881-12.797-4.881-17.678 0-4.882 4.882-4.882 12.796 0 17.678l58.661 58.661H12.5c-6.903 0-12.5 5.597-12.5 12.5 0 6.902 5.597 12.5 12.5 12.5h213.654l-58.659 58.661c-4.882 4.882-4.882 12.796 0 17.678 2.44 2.439 5.64 3.661 8.839 3.661s6.398-1.222 8.839-3.661l79.998-80c4.882-4.882 4.882-12.796 0-17.678z"/></symbol><symbol viewBox="0 0 476.213 476.213" id="arrow-next-flat"><path d="M345.606 107.5l-21.212 21.213 94.393 94.394H0v30h418.787L324.394 347.5l21.212 21.213 130.607-130.607z"/></symbol><symbol viewBox="0 0 512 512" id="arrow-right"><path d="M386.035 249.056L139.858 2.878c-3.838-3.838-10.055-3.838-13.893 0s-3.838 10.055 0 13.893l239.231 239.231-239.231 239.227a9.821 9.821 0 0 0 0 13.893c1.919 1.919 4.433 2.878 6.946 2.878s5.028-.96 6.946-2.878l246.178-246.173a9.823 9.823 0 0 0 0-13.893z"/></symbol><symbol viewBox="0 0 451.846 451.847" id="arrow-right-900"><path d="M345.441 248.292L151.154 442.573c-12.359 12.365-32.397 12.365-44.75 0-12.354-12.354-12.354-32.391 0-44.744L278.318 225.92 106.409 54.017c-12.354-12.359-12.354-32.394 0-44.748 12.354-12.359 32.391-12.359 44.75 0l194.287 194.284c6.177 6.18 9.262 14.271 9.262 22.366 0 8.099-3.091 16.196-9.267 22.373z"/></symbol><symbol viewBox="0 0 240.823 240.823" id="arrow-right-bold"><path d="M183.189 111.816L74.892 3.555c-4.752-4.74-12.451-4.74-17.215 0-4.752 4.74-4.752 12.439 0 17.179l99.707 99.671-99.695 99.671c-4.752 4.74-4.752 12.439 0 17.191 4.752 4.74 12.463 4.74 17.215 0l108.297-108.261c4.68-4.691 4.68-12.511-.012-17.19z"/></symbol><symbol viewBox="0 0 342.947 342.947" id="cancel"><path d="M342.947 21.213L321.734 0 171.473 150.26 21.213 0 0 21.213l150.26 150.26L0 321.734l21.213 21.213 150.26-150.261 150.261 150.261 21.213-21.213-150.261-150.261z"/></symbol><symbol viewBox="0 0 386.588 386.588" id="children"><path d="M49.419 244.723c16.438 45.334 54.559 79.707 100.532 93.25 8.144 15.661 24.5 26.402 43.342 26.402 18.84 0 35.196-10.741 43.336-26.402 45.974-13.543 84.098-47.922 100.532-93.25 27.304-.311 49.426-22.614 49.426-49.998 0-27.379-22.116-49.687-49.426-50-10.504-28.975-29.892-53.466-54.498-70.939v19.288c0 1.37-.226 2.685-.548 3.958 18.273 15.82 32.272 36.477 39.524 60.252l2.345 7.699 7.958-1.172c1.814-.262 3.276-.387 4.641-.387 17.256 0 31.298 14.042 31.298 31.301 0 17.264-14.042 31.305-31.298 31.305-1.364 0-2.826-.128-4.616-.39l-7.977-1.193-2.351 7.715c-11.923 39.087-42.052 69.715-79.549 84.231.006-.286.043-.566.043-.853 0-9.268-2.643-17.921-7.155-25.318 4.524-4.865 7.155-10.607 7.155-16.843 0-17.963-21.452-32.029-48.841-32.029-27.392 0-48.841 14.066-48.841 32.029 0 6.235 2.631 11.978 7.152 16.843-4.509 7.397-7.152 16.051-7.152 25.318 0 .286.037.566.043.853-37.503-14.517-67.626-45.145-79.549-84.231l-2.351-7.715-7.974 1.193c-1.796.262-3.264.39-4.622.39-17.26 0-31.295-14.041-31.295-31.305 0-17.259 14.036-31.301 31.295-31.301 1.352 0 2.825.125 4.634.387l7.961 1.172 2.345-7.699c7.979-26.178 24.167-48.519 45.212-64.828V69.639c-27.554 17.628-49.359 43.711-60.733 75.073C22.116 145.038 0 167.345 0 194.725c0 27.383 22.116 49.687 49.419 49.998zm113.734 70.811c0-5.462 1.571-10.528 4.128-14.949 4.095-7.094 10.917-12.373 19.104-14.31 2.226-.535 4.521-.877 6.908-.877 2.387 0 4.683.354 6.905.877 8.185 1.931 15.004 7.216 19.103 14.31 2.551 4.421 4.128 9.487 4.128 14.949 0 2.338-.322 4.585-.834 6.771-2.362 10.182-9.877 18.299-19.649 21.635-3.051 1.048-6.26 1.736-9.658 1.736s-6.61-.688-9.658-1.736c-9.773-3.336-17.299-11.459-19.649-21.635-.497-2.186-.828-4.433-.828-6.771zm30.141-55.491c18.109 0 30.135 8.026 30.135 13.324 0 .913-.475 1.918-1.163 2.935-8.11-6.011-18.115-9.615-28.972-9.615s-20.864 3.604-28.981 9.615c-.679-1.017-1.16-2.021-1.16-2.935 0-5.298 12.023-13.324 30.141-13.324z"/><path d="M153.8 213.169c16.082 0 16.082-24.941 0-24.941s-16.082 24.941 0 24.941zm78.982-1.559c16.082 0 16.082-24.941 0-24.941-16.081 0-16.081 24.941 0 24.941zm-90.411-87.549h2.076l1.882-.88c17.156-8.017 29.094-14.273 37.518-19.284 3.879 1.589 8.114 2.5 12.559 2.5s8.677-.911 12.562-2.5c8.428 5.011 20.362 11.268 37.51 19.284l1.888.88h2.076c9.858 0 18.115-6.616 20.812-15.606.591-1.982 1.011-4.04 1.011-6.217V44.049c0-12.032-9.785-21.823-21.823-21.823h-2.076l-1.888.88c-10.498 4.908-19.047 9.158-26.05 12.875-4.433 2.35-8.202 4.469-11.46 6.409-2.898-1.185-6.028-1.845-9.268-2.168-1.099-.112-2.164-.332-3.294-.332s-2.201.225-3.297.338c-3.236.323-6.366.977-9.262 2.167-3.267-1.945-7.027-4.058-11.46-6.408-7.008-3.718-15.551-7.962-26.058-12.876l-1.882-.898h-2.076c-12.035 0-21.824 9.789-21.824 21.824v58.195c0 2.177.417 4.232 1.011 6.217 2.7 8.995 10.954 15.612 20.813 15.612zm51.34-65.203c.88-.162 1.771-.274 2.694-.274s1.82.106 2.694.274c1.599.298 3.084.904 4.46 1.684 1.863 1.06 3.478 2.488 4.713 4.229.073.098.159.191.231.298a14.44 14.44 0 0 1 1.212 13.886 14.798 14.798 0 0 1-1.212 2.244 14.86 14.86 0 0 1-3.823 3.879c-.354.243-.743.435-1.121.648-2.119 1.208-4.542 1.957-7.154 1.957s-5.033-.749-7.158-1.957c-.374-.213-.761-.405-1.117-.648a14.715 14.715 0 0 1-3.821-3.879 14.063 14.063 0 0 1-1.215-2.238 14.368 14.368 0 0 1-1.236-5.824c0-2.98.91-5.754 2.457-8.068.219-.326.487-.6.722-.898a14.522 14.522 0 0 1 4.217-3.623c1.37-.786 2.856-1.386 4.457-1.69zm58.136-17.61a3.124 3.124 0 0 1 1.718 2.789v58.194c0 .25-.146.448-.195.679-.219.904-.719 1.702-1.522 2.106-9.365-4.445-19.272-9.502-27.474-14.029.499-.785.9-1.638 1.339-2.469 2.436-4.619 3.952-9.806 3.952-15.387 0-1.486-.25-2.898-.433-4.326-.407-3.075-1.108-6.056-2.289-8.805-.719-1.659-1.607-3.218-2.569-4.722.932-.518 1.905-1.035 2.874-1.564a426.025 426.025 0 0 1 5.991-3.179 555.953 555.953 0 0 1 18.608-9.287zM139.253 55.067v-11.03a3.13 3.13 0 0 1 1.72-2.789 563 563 0 0 1 16.443 8.163 528.718 528.718 0 0 1 8.163 4.308c.971.523 1.939 1.05 2.874 1.568-.968 1.501-1.851 3.06-2.563 4.719-.986 2.274-1.671 4.688-2.125 7.188-.35 1.933-.6 3.91-.6 5.943 0 5.581 1.516 10.763 3.955 15.388.436.831.834 1.678 1.34 2.463-8.205 4.527-18.109 9.59-27.475 14.039-.81-.414-1.309-1.206-1.525-2.11-.058-.229-.195-.43-.195-.679V55.067h-.012z"/></symbol><symbol viewBox="-171 49 726 726.8" id="compass2"><style>.st0{fill:#fff}</style><circle cx="192" cy="412.8" r="363"/><path d="M49.6 232.4l140.9 69.1 140.9-69.1c21.6-10.6 44.7 11.2 35.5 33.4L214.5 631.2c-8.9 21.3-39.1 21.3-48.1 0L14.1 265.8c-9.3-22.2 13.9-44 35.5-33.4z"/></symbol><symbol viewBox="0 0 504 504" id="contacts"><path d="M112 56a8 8 0 0 0-8 8v16a8 8 0 0 0 16 0V64a8 8 0 0 0-8-8z"/><path d="M432 0H88C65.944 0 48 17.944 48 40v24h-8a8 8 0 0 0 0 16h8v24h-8a8 8 0 0 0 0 16h8v24h-8a8 8 0 0 0 0 16h8v24h-8a8 8 0 0 0 0 16h8v24h-8a8 8 0 0 0 0 16h8v24h-8a8 8 0 0 0 0 16h8v24h-8a8 8 0 0 0 0 16h8v24h-8a8 8 0 0 0 0 16h8v24h-8a8 8 0 0 0 0 16h8v24h-8a8 8 0 0 0 0 16h8v24c0 22.056 17.944 40 40 40h344c22.056 0 40-17.944 40-40V40c0-22.056-17.944-40-40-40zm24 464c0 13.234-10.766 24-24 24H120V112a8 8 0 0 0-16 0v376H88c-13.234 0-24-10.766-24-24v-24h8a8 8 0 0 0 0-16h-8v-24h8a8 8 0 0 0 0-16h-8v-24h8a8 8 0 0 0 0-16h-8v-24h8a8 8 0 0 0 0-16h-8v-24h8a8 8 0 0 0 0-16h-8v-24h8a8 8 0 0 0 0-16h-8v-24h8a8 8 0 0 0 0-16h-8v-24h8a8 8 0 0 0 0-16h-8v-24h8a8 8 0 0 0 0-16h-8V80h8a8 8 0 0 0 0-16h-8V40c0-13.234 10.766-24 24-24h16v16a8 8 0 0 0 16 0V16h312c13.234 0 24 10.766 24 24v424z"/><path d="M381.292 323.539a7.743 7.743 0 0 0-.145-.038l-37.288-9.47c-3.997-1.144-7.615-3.475-7.615-4.926l-.029-22.892c10.562-13.756 16.351-31.055 16.351-49.078v-14.423c11.97-38.772 3.612-72.336-.678-82.085-.012-.027-.027-.051-.039-.077a7.823 7.823 0 0 0-.234-.467c-.046-.085-.089-.172-.137-.255-.077-.132-.161-.259-.245-.386-.065-.099-.128-.199-.197-.294-.071-.098-.148-.19-.224-.284-.091-.114-.181-.229-.277-.337-.062-.069-.128-.133-.191-.199a7.619 7.619 0 0 0-.359-.36c-.056-.051-.115-.098-.172-.147a8.069 8.069 0 0 0-.418-.346c-.064-.048-.132-.091-.197-.138a8.31 8.31 0 0 0-.43-.291c-.086-.053-.176-.099-.264-.149-.132-.074-.263-.151-.398-.218-.112-.055-.228-.102-.342-.152-.118-.051-.234-.105-.354-.151-.129-.049-.262-.09-.395-.132-.112-.036-.222-.075-.336-.106-.131-.036-.264-.063-.397-.092-.122-.027-.243-.056-.366-.078-.117-.02-.236-.032-.354-.047-.146-.019-.291-.038-.438-.048-.096-.007-.193-.007-.29-.01a8.158 8.158 0 0 0-.519-.005c-.08.002-.16.01-.24.015a8.35 8.35 0 0 0-.567.052c-.025.003-.049.003-.074.007-9.342 1.334-20.539-1.347-32.393-4.184-20.534-4.916-43.709-10.459-63.76 4.224-19.246 1.466-32.93 17.6-32.93 39.458 0 16.345 7.699 45.81 9.331 51.872v8.05c0 18.775 6.102 36.212 16.019 49.662-.009.156-.024.31-.024.468l-.03 23.66c0 1.44-3.618 3.771-7.616 4.916l-37.288 9.47a7.743 7.743 0 0 0-.145.038c-22.786 6.243-34.708 28.186-34.708 46.634v10.561c0 10.579 9.448 19.186 21.063 19.186l213.982-.023c11.614 0 21.063-8.606 21.063-19.186v-10.561c.002-18.452-11.92-40.395-34.706-46.638zm-125.644-14.391l.011-8.332c9.569 6.775 20.647 10.715 32.34 10.715 11.497 0 22.523-3.525 32.235-10.11l.01 7.694c0 8.669 6.238 14.684 13.472 18.13-11.326 11.022-27.991 17.584-45.704 17.584-17.725 0-34.404-6.573-45.73-17.61 7.189-3.454 13.366-9.452 13.366-18.071zm-25.296-133.721c0-17.403 10.669-23.578 19.806-23.578.039 0 .076-.005.115-.006.224-.003.448-.012.671-.034.088-.009.174-.025.261-.037.172-.023.345-.045.516-.079.108-.021.212-.051.318-.076.147-.036.294-.069.44-.113.117-.035.23-.079.344-.12.131-.046.262-.09.391-.143.124-.051.244-.111.365-.169.114-.054.228-.104.34-.164.14-.075.275-.159.41-.242.087-.053.176-.102.262-.159.18-.12.352-.25.522-.385.035-.028.073-.051.108-.08 14.399-11.764 32.71-7.38 52.097-2.738 10.242 2.452 20.762 4.971 30.896 4.971.277 0 .553-.009.83-.013 2.657 9.28 5.478 26.788 2.359 47.648-14.162-5.314-50.846-16.982-99.935-16.982-.022 0-.043.003-.064.003a8.158 8.158 0 0 0-.519.026c-.098.007-.197.01-.294.021-.137.015-.272.04-.408.063-.13.021-.262.039-.39.066-.084.018-.166.043-.249.064-.174.043-.348.086-.518.14l-.09.033c-.216.072-.429.15-.636.239l-.011.005c-.231.1-.456.21-.674.33-.031.017-.06.037-.09.055a7.821 7.821 0 0 0-.554.34c-.105.071-.203.151-.304.227-.1.075-.203.146-.299.226-.142.117-.276.246-.411.373-.05.048-.104.092-.153.141-.128.128-.246.265-.366.402-.051.058-.105.113-.154.173-.094.115-.18.237-.267.357-.068.093-.139.183-.203.279-.062.093-.117.192-.176.289-.081.133-.163.266-.236.404-.04.076-.075.157-.113.235-.081.165-.159.33-.229.501-.008.019-.018.036-.025.055-.104.262-.783 1.987-1.746 4.697-1.143-6.507-1.937-12.692-1.937-17.245zm9.331 56.706c0-10.58 4.654-25.434 7.348-33.149 44.464.861 77.791 11.802 89.535 16.23v21.922c0 31.654-22.241 58.396-48.567 58.396-25.738 0-48.316-28.123-48.316-60.182v-3.217zM400 380.734c0 1.504-2.165 3.186-5.063 3.186l-213.982.023c-2.897 0-5.062-1.682-5.062-3.186v-10.561c0-12.364 7.855-27.033 22.868-31.184l26.557-6.745c14.115 17.726 37.661 28.563 62.695 28.563 25.031 0 48.571-10.833 62.687-28.554l26.432 6.713c15.014 4.15 22.869 18.82 22.869 31.185v10.56z"/></symbol><symbol viewBox="-41 164.9 512 512" id="cosmetology"><path d="M342.6 582.9c-.6 0-1.1-.1-1.7-.2-4-.9-6.6-4.9-5.6-9 .1-.4 8.6-38.7 5.4-83.5-4.2-58.8-25.6-100.5-63.6-123.9-51.6-31.8-84.2-80.1-102.5-115-19.7-37.7-27.3-67.7-27.6-68.9-1-4 1.5-8.1 5.5-9.1s8.1 1.5 9.1 5.5c.1.5 7.6 29.9 26.5 66 17.4 33.1 48.3 78.9 96.8 108.8 23.4 14.4 41.4 35.4 53.5 62.2 9.5 21.2 15.3 46 17.3 73.8 3.3 47-5.4 85.9-5.8 87.5-.8 3.5-3.9 5.8-7.3 5.8zm78.1-106.5c-3.7 0-6.9-2.7-7.4-6.5 0-.3-4.3-29.9-19.4-64.2-13.8-31.2-39.8-72.8-85.2-94-49.2-23-80.9-57.9-98.8-83.2-19.5-27.4-27.3-49.3-27.6-50.2-1.4-3.9.7-8.2 4.6-9.6 3.9-1.4 8.2.7 9.6 4.6.1.4 7.7 21.3 26 46.9 16.9 23.6 46.6 56.3 92.7 77.8 39.4 18.4 71.5 53.7 92.8 102 15.9 36.1 20.2 66.5 20.4 67.8.6 4.1-2.3 7.9-6.4 8.5-.6 0-.9.1-1.3.1z"/><path d="M196.3 559.6c-6.6 0-10.6-.4-11.3-.4-4.1-.4-7.2-4-6.8-8.2.4-4.1 4-7.2 8.2-6.8.7.1 67.2 5.6 120.9-35.2 3.3-2.5 8-1.9 10.5 1.4s1.9 8-1.4 10.5c-45.4 34.6-97.5 38.7-120.1 38.7zm10.1-229.8c-33.6-.1-51.4-6.2-55.9-19.1-5.5-15.8 13.6-31.8 15.8-33.6 3.2-2.6 8-2.1 10.5 1.2 2.6 3.2 2.1 7.9-1.1 10.5-5.4 4.4-12.5 12.9-11.1 16.9.3.9 4.2 9 41.7 9.1 4.1 0 7.5 3.4 7.5 7.5.1 4.2-3.2 7.5-7.4 7.5zM82.7 450.9c-1.3 0-2.6-.3-3.8-1.1C75 447.5 40.4 427 34.2 422c-2.1-1.7-3.3-4-3.5-6.8-.5-7 6-14.8 20-29.7 2.4-2.6 5.5-5.8 7.4-8.1-2.4-2.7-6.9-6.9-10.1-9.9-10.1-9.4-15.4-14.6-16.4-19.9-1.5-8.5 6.3-14.7 52.7-41.3 7.3-4.2 13.5-7.8 17-10 8.1-5.2 9-9.7 12.1-32.4.6-4.6 1.4-9.8 2.3-15.8 5.8-38.3 34.2-52.9 35.4-53.5 3.7-1.9 8.2-.4 10.1 3.4 1.8 3.7.4 8.2-3.3 10-1 .5-22.7 12.1-27.3 42.4-.9 5.9-1.6 11-2.2 15.6-3.2 23.3-4.7 33.9-18.9 43-3.7 2.4-10.1 6.1-17.6 10.3-12.2 7-36 20.7-43.8 27.2 2.6 2.9 7.2 7.2 10.3 10 11.3 10.5 17.5 16.3 15.9 23.1-.9 3.6-3.9 7-12.4 16.1-4.3 4.6-11.5 12.3-14.6 16.9 8.3 5.5 27.4 17 39.5 24.2 3.6 2.1 4.7 6.7 2.6 10.3-1.6 2.5-4.1 3.8-6.7 3.8z"/><path d="M189.3 674.3h-.8c-4.1-.4-7.1-4.1-6.7-8.2 5.4-53.1-6-74.7-16.5-87.7-5.7-7-45.4-17.4-71.6-24.2-27.3-7.1-50.8-13.3-61.2-19.5C24.6 530 19.8 524 18.3 517c-2.6-12.2 5.5-23.5 11.3-31.8.8-1.1 1.6-2.3 2.3-3.3 4.6-6.8-1.2-25.4-3.7-33.4-.6-1.9-1.1-3.6-1.5-5-1.1-4-.6-7.9 1.5-11.3 4.1-6.9 12.9-9.4 14.7-9.8 4-1 8.1 1.5 9.1 5.5s-1.5 8.1-5.5 9c-2 .5-4.5 1.8-5.2 2.7.3 1.1.8 2.7 1.3 4.4 3.9 12.5 10.4 33.5 1.8 46.3-.8 1.1-1.6 2.3-2.5 3.5-4.5 6.4-10.1 14.3-8.9 20.1.6 2.8 3 5.5 7.2 8 8.5 5.1 33.3 11.6 57.2 17.8 44 11.5 71.2 19.2 79.5 29.3 12.3 15.1 25.7 40 19.8 98.6-.4 3.8-3.6 6.7-7.4 6.7z"/></symbol><symbol viewBox="0 0 512 512" id="diagnostic"><path d="M384 477.867a8.509 8.509 0 0 0 6.033-2.5l51.2-51.2a8.513 8.513 0 0 0 2.5-6.033V76.8a8.53 8.53 0 0 0-8.533-8.533H384c-4.719 0-8.533 3.823-8.533 8.533s3.814 8.533 8.533 8.533h42.667V414.6l-48.7 48.7a8.525 8.525 0 0 0 0 12.066 8.511 8.511 0 0 0 6.033 2.501z"/><path d="M128 85.333c4.719 0 8.533-3.823 8.533-8.533s-3.814-8.533-8.533-8.533H76.8a8.53 8.53 0 0 0-8.533 8.533v366.933c0 18.825 15.309 34.133 34.133 34.133h247.467a8.53 8.53 0 0 0 8.533-8.533v-51.2c0-3.866 3.806-8.533 8.533-8.533h34.133c4.719 0 8.533-3.823 8.533-8.533s-3.814-8.533-8.533-8.533h-34.133c-13.636 0-25.6 11.964-25.6 25.6V460.8H102.4c-9.412 0-17.067-7.654-17.067-17.067v-358.4H128zm128-51.2c-9.412 0-17.067 7.654-17.067 17.067 0 9.412 7.654 17.067 17.067 17.067 9.412 0 17.067-7.654 17.067-17.067 0-9.412-7.655-17.067-17.067-17.067z"/><path d="M435.2 34.133H384a8.53 8.53 0 0 0-8.533 8.533A8.53 8.53 0 0 0 384 51.199h51.2c12.442 0 25.6 13.158 25.6 25.6v392.533c0 12.442-13.158 25.6-25.6 25.6H76.8c-12.442 0-25.6-13.158-25.6-25.6V76.8c0-12.442 13.158-25.6 25.6-25.6H128a8.53 8.53 0 0 0 8.533-8.533A8.53 8.53 0 0 0 128 34.134H76.8c-21.931 0-42.667 20.736-42.667 42.667v392.533C34.133 491.264 54.869 512 76.8 512h358.4c21.931 0 42.667-20.736 42.667-42.667V76.8c0-21.931-20.736-42.667-42.667-42.667z"/><path d="M102.4 281.6a8.53 8.53 0 0 0 8.533 8.533h34.133a8.508 8.508 0 0 0 8.09-5.837l26.044-78.114 60.177 180.514a8.534 8.534 0 0 0 7.885 5.837h.205a8.533 8.533 0 0 0 7.953-5.444l52.753-135.654 16.99 33.98a8.542 8.542 0 0 0 7.637 4.719h27.179C363.512 300.049 372.89 307.2 384 307.2c14.114 0 25.6-11.486 25.6-25.6S398.114 256 384 256c-11.11 0-20.489 7.151-24.021 17.067h-21.905l-23.236-46.481c-1.51-3.021-4.881-4.779-8.03-4.71a8.542 8.542 0 0 0-7.56 5.436L248.082 358.87 187.29 176.503c-1.152-3.49-4.412-5.837-8.09-5.837s-6.929 2.347-8.09 5.837l-32.196 96.563h-27.981a8.532 8.532 0 0 0-8.533 8.534zm281.6-8.533c4.71 0 8.533 3.831 8.533 8.533s-3.823 8.533-8.533 8.533-8.533-3.831-8.533-8.533 3.823-8.533 8.533-8.533zM162.133 102.4h187.733a8.53 8.53 0 0 0 8.533-8.533v-51.2a8.53 8.53 0 0 0-8.533-8.533h-45.594C297.148 13.995 277.854 0 256 0s-41.148 13.995-48.273 34.133h-45.594a8.53 8.53 0 0 0-8.533 8.533v51.2a8.53 8.53 0 0 0 8.533 8.534zm8.534-51.2h43.529a8.525 8.525 0 0 0 8.354-6.835c3.217-15.821 17.28-27.298 33.451-27.298s30.234 11.477 33.451 27.298a8.524 8.524 0 0 0 8.354 6.835h43.529v34.133H170.667V51.2z"/></symbol><symbol viewBox="0 0 487.643 487.643" id="dislike"><path d="M113.869 209.443l46-200.1s71.2-9.3 142.6-7.8c28.5-2.3 58.9-2.5 83 2.7 81.9 17.4 61.4 74.5 61.4 74.5 44.2 33.2 19 74.6 19 74.6 39.2 41 .7 75.3.7 75.3s21.2 33-6.1 58c-34.2 31.2-126.9 10.5-126.9 10.5-6.4-1.1-13.3-2.5-20.7-4.2 0 0-32.1-15 0 82.4s-21.4 112.3-43.9 112.3-15-48.1-15-48.1-48.1-132.7-94.1-168c-9.9-10.4-16.1-21.8-19.9-31.2-.9-2.3-1.7-4.5-2.4-6.5-3.1-6.3-9.7-16-23.7-24.4zm-43-2.8c9.7 0 19.2-7.7 21.2-17.2l34.8-165.6c2-9.5-4.3-17.2-14-17.2H4.169l.1 200h66.6z"/></symbol><symbol viewBox="0 0 139.4 44.7" id="dorohovdesign"><path d="M52.2 19.5V8.1H57c3.6 0 6.1 2.1 6.1 5.7 0 3.5-2.6 5.7-6.1 5.7h-4.8zm7.9-5.7c0-1.8-1.1-3.1-3.1-3.1h-1.9v6.2H57c2 0 3.1-1.4 3.1-3.1m4.1 0c0-3.4 2.6-5.9 6.1-5.9 3.5 0 6.1 2.4 6.1 5.9 0 3.5-2.6 5.9-6.1 5.9-3.5 0-6.1-2.4-6.1-5.9m9.2 0c0-1.9-1.2-3.3-3.1-3.3-1.9 0-3.1 1.4-3.1 3.3 0 1.8 1.2 3.3 3.1 3.3 1.9 0 3.1-1.4 3.1-3.3m11 5.7l-1.9-3.8H81v3.8h-2.9V8.1h5.7c2.5 0 3.9 1.7 3.9 3.8 0 2-1.2 3-2.3 3.4l2.3 4.2h-3.3zm.3-7.6c0-.8-.6-1.2-1.4-1.2H81v2.4h2.3c.8 0 1.4-.4 1.4-1.2m4.2 1.9c0-3.4 2.6-5.9 6.1-5.9 3.5 0 6.1 2.4 6.1 5.9 0 3.5-2.6 5.9-6.1 5.9-3.5 0-6.1-2.4-6.1-5.9m9.1 0c0-1.9-1.2-3.3-3.1-3.3-1.9 0-3.1 1.4-3.1 3.3 0 1.8 1.2 3.3 3.1 3.3 1.9 0 3.1-1.4 3.1-3.3m12.4 5.7v-4.6h-4.7v4.6h-3V8.1h3v4.3h4.7V8.1h2.9v11.4zm4.6-5.7c0-3.4 2.6-5.9 6.1-5.9 3.5 0 6.1 2.4 6.1 5.9 0 3.5-2.6 5.9-6.1 5.9-3.5 0-6.1-2.4-6.1-5.9m9.2 0c0-1.9-1.2-3.3-3.1-3.3-1.9 0-3.1 1.4-3.1 3.3 0 1.8 1.2 3.3 3.1 3.3 1.9 0 3.1-1.4 3.1-3.3m7.3 5.7l-4.3-11.4h3.3l2.8 8.2 2.8-8.2h3.3l-4.2 11.4zm-79.3 17V25.1H57c3.6 0 6.1 2.1 6.1 5.7 0 3.5-2.6 5.7-6.1 5.7h-4.8zm7.9-5.7c0-1.8-1.1-3.1-3.1-3.1h-1.9v6.2H57c2 0 3.1-1.4 3.1-3.1m4.7 5.7V25.1h8.3v2.6h-5.3v1.8H73V32h-5.2v1.9h5.3v2.6zm9.6-1.6l1.5-2.2c.8.8 2.1 1.5 3.6 1.5 1 0 1.6-.4 1.6-.9 0-1.5-6.4-.3-6.4-4.7 0-1.9 1.6-3.6 4.5-3.6 1.8 0 3.4.5 4.6 1.6l-1.6 2.1c-1-.8-2.2-1.2-3.3-1.2-.8 0-1.2.3-1.2.8 0 1.4 6.4.4 6.4 4.6 0 2.3-1.7 3.8-4.7 3.8-2.2 0-3.8-.7-5-1.8m11.5-9.8h2.9v11.3h-2.9zm4.7 5.7c0-3.6 2.8-5.9 6.1-5.9 2.5 0 4.1 1.3 4.8 2.8L99.1 29c-.4-.7-1.3-1.4-2.4-1.4-1.9 0-3.2 1.4-3.2 3.3s1.3 3.3 3.2 3.3c.8 0 1.7-.3 2.1-.7v-.9h-2.6V30h5.5v4.5c-1.2 1.3-2.9 2.2-5 2.2-3.4 0-6.1-2.3-6.1-5.9m20.9 5.7l-4.8-6.6v6.6h-2.9V25.1h3l4.6 6.3v-6.3h2.9v11.4zM17.7 0H0v44.7h17.8c15 0 24.6-8.8 24.6-22.4C42.4 8.7 32.7 0 17.7 0m-.4 35.7h-8V9.5h8c9.3 0 15.7 3.7 15.7 12.7.1 7.5-5.8 13.5-15.7 13.5"/><path d="M19.1 17H17v10.6h2c4 0 6.4-2.4 6.4-5.4 0-3.7-2.6-5.2-6.3-5.2"/></symbol><symbol viewBox="0 0 512 512" id="download"><path d="M373.333 234.667c-76.48 0-138.667 62.187-138.667 138.667S296.853 512 373.333 512 512 449.813 512 373.333s-62.187-138.666-138.667-138.666zm0 256C308.48 490.667 256 438.187 256 373.333S308.48 256 373.333 256s117.333 52.48 117.333 117.333c-.106 64.747-52.586 117.227-117.333 117.334z"/><path d="M412.8 377.173l-28.8 28.8v-90.56c0-5.333-3.84-10.133-9.067-10.88-6.613-.96-12.267 4.16-12.267 10.56v90.667l-28.587-28.587c-4.267-4.16-11.093-4.16-15.253 0-4.16 4.267-4.16 11.093 0 15.253l46.933 47.04c4.16 4.16 10.987 4.267 15.253 0l46.933-47.04c4.16-4.267 4.053-11.093-.213-15.253a10.689 10.689 0 0 0-14.932 0zM181.333 384H97.067c4.373-5.653 7.573-12.16 9.28-19.093.213-.853.32-1.707.32-2.56V128h320v63.68c0 5.333 3.84 10.133 9.067 10.88C442.347 203.52 448 198.4 448 192v-74.667c0-5.867-4.8-10.667-10.667-10.667h-32V64c0-5.867-4.8-10.667-10.667-10.667H168.533l-30.72-48.427C135.893 1.813 132.48 0 128.853 0H10.667C4.8 0 0 4.8 0 10.667v351.68c0 .853.107 1.707.32 2.56 5.76 23.147 25.92 38.827 50.453 39.893.853.32 1.707.427 2.56.533h127.68c5.333 0 10.133-3.84 10.88-9.067.96-6.613-4.16-12.266-10.56-12.266zm-96-266.667V360.96c-4.8 16.747-20.16 22.72-32 22.72s-27.2-5.973-32-22.72V21.333H122.88L153.6 69.76c1.92 3.093 5.333 4.907 9.067 4.907H384v32H96c-5.867 0-10.667 4.8-10.667 10.666z"/></symbol><symbol viewBox="0 0 96.124 96.123" id="fb"><path d="M72.089.02L59.624 0C45.62 0 36.57 9.285 36.57 23.656v10.907H24.037a1.96 1.96 0 0 0-1.96 1.961v15.803a1.96 1.96 0 0 0 1.96 1.96H36.57v39.876a1.96 1.96 0 0 0 1.96 1.96h16.352a1.96 1.96 0 0 0 1.96-1.96V54.287h14.654a1.96 1.96 0 0 0 1.96-1.96l.006-15.803a1.963 1.963 0 0 0-1.961-1.961H56.842v-9.246c0-4.444 1.059-6.7 6.848-6.7l8.397-.003a1.96 1.96 0 0 0 1.959-1.96V1.98A1.96 1.96 0 0 0 72.089.02z"/></symbol><symbol viewBox="0 0 512 512" id="info"><path d="M473.874 274.571a9.697 9.697 0 0 0-9.698 9.698V466.57c0 14.352-11.676 26.028-26.041 26.028-10.365 0-19.298-6.001-23.485-14.831h30.13a9.697 9.697 0 0 0 9.698-9.698V91.157a9.697 9.697 0 0 0-9.698-9.698H343.925c-5.357 0-9.698 4.342-9.698 9.698s4.341 9.698 9.698 9.698h91.157v357.518h-22.977l.004-174.104c0-21.096-17.162-38.259-38.259-38.259H203.076l-12.497-31.95c-5.392-13.786-18.441-22.694-33.242-22.694H64.123c-19.682 0-35.695 16.013-35.695 35.695v239.513c0 25.048 20.378 45.426 45.426 45.426h364.288v-.005h.006c25.047 0 45.423-20.377 45.423-45.424V284.268c.001-5.355-4.341-9.697-9.697-9.697zM73.854 492.605c-14.354 0-26.031-11.678-26.031-26.031V227.06c0-8.988 7.312-16.3 16.3-16.3h93.214c6.76 0 12.717 4.068 15.18 10.363l14.907 38.115a9.7 9.7 0 0 0 9.032 6.165h177.397c10.401 0 18.864 8.461 18.864 18.864l-.004 182.303c0 .68.018 1.36.047 1.894.367 8.998 3.314 17.272 8.105 24.139H73.854z"/><path d="M346.219 115.56l-75.24-75.227a9.696 9.696 0 0 0-6.857-2.839H74.98c-5.356 0-9.698 4.342-9.698 9.698V171.32c0 5.356 4.342 9.698 9.698 9.698s9.698-4.342 9.698-9.698V56.889h169.746v65.53a9.697 9.697 0 0 0 9.698 9.698h65.543v93.847a9.697 9.697 0 0 0 9.698 9.698 9.697 9.697 0 0 0 9.698-9.698V122.418a9.708 9.708 0 0 0-2.842-6.858zm-72.399-2.84V70.6l42.129 42.12H273.82z"/><path d="M413.748 0H149.366c-5.356 0-9.698 4.342-9.698 9.698v7.112c.001 5.356 4.343 9.698 9.699 9.698 4.46 0 8.217-3.011 9.349-7.112H404.05v45.586c0 5.356 4.341 9.698 9.698 9.698s9.698-4.342 9.698-9.698V9.698A9.697 9.697 0 0 0 413.748 0zM222.384 122.521H121.529c-5.356 0-9.698 4.342-9.698 9.698s4.342 9.698 9.698 9.698h100.855c5.356 0 9.698-4.342 9.698-9.698s-4.343-9.698-9.698-9.698zm72.408 34.422H121.529c-5.356 0-9.698 4.342-9.698 9.698s4.342 9.698 9.698 9.698h173.263c5.357 0 9.698-4.342 9.698-9.698s-4.341-9.698-9.698-9.698z"/></symbol><symbol viewBox="0 0 512 512" id="license"><path d="M352 352a8 8 0 0 0 0 16c8.822 0 16 7.178 16 16a8 8 0 0 0 16 0c0-17.645-14.355-32-32-32z"/><path d="M424 0H88C74.767 0 64 10.767 64 24v432c0 13.233 10.767 24 24 24h176.086c.105.78.313 1.551.651 2.283a8 8 0 0 0 5.839 4.517l20.76 3.755 18.333 19a8.001 8.001 0 0 0 12.702-1.586L338.355 480h27.108l15.828 27.943a8.002 8.002 0 0 0 6.961 4.057 8 8 0 0 0 5.756-2.445l18.333-19 20.76-3.755a7.996 7.996 0 0 0 5.537-11.807C444.479 470.476 448 463.45 448 456V24c0-13.233-10.767-24-24-24zM80 456V24c0-4.411 3.589-8 8-8h336c4.411 0 8 3.589 8 8v432a7.962 7.962 0 0 1-1.574 4.719l-24.429-42.43C412.319 408.369 416 396.61 416 384c0-35.29-28.71-64-64-64s-64 28.71-64 64c0 12.602 3.676 24.355 9.991 34.271L271.422 464H88c-4.411 0-8-3.589-8-8zm272-24c-26.467 0-48-21.533-48-48s21.533-48 48-48 48 21.533 48 48-21.533 48-48 48zm-38.226 58.767l-12.717-13.179a8 8 0 0 0-4.333-2.317l-12.077-2.185 24.281-41.791c8.315 7.58 18.63 13 30.049 15.37l-25.203 44.102zM347.499 464l4.47-7.823L356.4 464h-8.901zm59.456 11.271a8 8 0 0 0-4.333 2.317l-12.688 13.148-24.958-44.061c11.423-2.362 21.743-7.776 30.065-15.351l24.039 41.753-12.125 2.194z"/><path d="M320 120a8 8 0 0 0 0-16H192a8 8 0 0 0 0 16h128zm40 24H152a8 8 0 0 0 0 16h208a8 8 0 0 0 0-16zm-184 80h8a8 8 0 0 0 0-16h-8a8 8 0 0 0 0 16zm0 40h8a8 8 0 0 0 0-16h-8a8 8 0 0 0 0 16zm0 40h8a8 8 0 0 0 0-16h-8a8 8 0 0 0 0 16zm160-96H216a8 8 0 0 0 0 16h120a8 8 0 0 0 0-16zm0 40H216a8 8 0 0 0 0 16h120a8 8 0 0 0 0-16zm0 40H216a8 8 0 0 0 0 16h120a8 8 0 0 0 0-16zm-192 88a8 8 0 0 0 8 8h72a8 8 0 0 0 0-16h-72a8 8 0 0 0-8 8z"/><path d="M256 432H143.196c-3.19-15.649-15.547-28.006-31.196-31.196V79.196c15.649-3.19 28.006-15.547 31.196-31.196h225.607c3.19 15.649 15.547 28.006 31.196 31.196V320a8 8 0 0 0 16 0V72a8 8 0 0 0-8-8c-13.234 0-24-10.766-24-24a8 8 0 0 0-8-8H136a8 8 0 0 0-8 8c0 13.234-10.766 24-24 24a8 8 0 0 0-8 8v336a8 8 0 0 0 8 8c13.234 0 24 10.766 24 24a8 8 0 0 0 8 8h120a8 8 0 0 0 0-16z"/></symbol><symbol viewBox="0 0 487.57 487.57" id="like"><path d="M137.482 253.8c.7-2 1.5-4.2 2.4-6.5 3.8-9.4 10.1-20.9 19.9-31.2 46-35.3 94.2-168 94.2-168s-7.5-48.1 15-48.1 76 15 43.9 112.3c-32.1 97.4 0 82.4 0 82.4 7.4-1.7 14.2-3.1 20.7-4.2 0 0 92.7-20.8 126.9 10.5 27.4 25 6.1 58 6.1 58s38.5 34.3-.7 75.3c0 0 25.1 41.5-19 74.6 0 0 20.5 57.1-61.4 74.5-24.1 5.1-54.4 4.9-83 2.7-71.5 1.5-142.6-7.8-142.6-7.8l-46-200.1c13.9-8.4 20.5-18.1 23.6-24.4zM4.182 281l-.1 200h108.7c9.7 0 16-7.7 14-17.2l-34.8-165.6c-2-9.5-11.5-17.2-21.2-17.2h-66.6z"/></symbol><symbol viewBox="-150 310.9 413.5 117.9" id="logotip"><path d="M-150 402.7v-63.5h45l.6.1c10.2 1.2 29.4 9.4 29.4 31.7 0 22.4-20 30.5-30.6 31.6l-.5.1H-150zm20-43.5v23.4h22.7c2.8-.4 12.4-2.6 12.4-11.7 0-4.4-1.7-7.3-5.4-9.5-2.5-1.5-5.1-2.1-6-2.3H-130zm100.2-19.6h26.3l11.7 15.2 36.3-42.2h7.2l-94 116.2h-9.2L-4 370.7zm89.8-27h8l-46 58.1 25.7 31.6H21l-12.3-16-34 42.5h-9.2zm127 90v-63.1h26.8l25.4 36.6v-36.6h24.3v63.1h-27.3l-25.5-36.7v36.7z"/><path d="M56.9 339.5h24.4v63.2H56.9zm-119.7 0h24v63.2h-24zm228.1 8.9c7.7 6.2 11.4 14.1 11.4 23.9s-3.9 17.8-11.6 24c-7.7 6.1-17.8 9.2-30.6 9.2-12.9 0-23.4-3.1-31-9.2-7.7-6.2-11.4-14.3-11.4-24 0-9.6 3.9-17.5 11.6-23.9 7.8-6.4 18.1-9.5 30.9-9.5 12.9.1 23.2 3.2 30.7 9.5zM120.8 372c0 8.6 5.1 14 14.1 14 8.7 0 14.2-5.6 14.2-14 0-7.8-5.6-13.4-14.2-13.4-8.5 0-14.1 5.9-14.1 13.4zm-255.2-39.1h-3.1l-10-11.2v11.2h-2.5v-22h2.5v10.7l9.8-10.7h2.9l-9.6 10.7 10 11.3zm18.4 0h-2.5v-19.7h-7l-.5 3.6c-.6 4.8-1.1 8.3-1.6 10.5-.5 2.2-1.1 3.8-1.8 4.6-.8.9-1.8 1.3-3 1.3-.7 0-1.4-.1-2-.4v-2.2c.5.3 1.1.4 1.7.4.5 0 1-.2 1.4-.7.4-.4.7-1.2 1-2.3.3-1.1.7-3.1 1.1-6.1.5-3 1-6.7 1.5-11.1h11.7v22.1zm6-22h2.4v12.2c0 2.3-.1 4.3-.2 6.1h.1l12.2-18.4h2.8v22h-2.4v-12.1c0-2 .1-4.1.3-6.4h-.1l-12.2 18.5h-2.8v-21.9zm39.6 22h-2.5v-10.4h-11.4v10.4h-2.5v-22h2.5v9.4h11.4v-9.4h2.5v22zm6-22h2.4v12.2c0 2.3-.1 4.3-.2 6.1h.1l12.2-18.4h2.8v22h-2.4v-12.1c0-2 .1-4.1.3-6.4h-.1l-12.2 18.5h-2.8v-21.9zm38.7 22h-3.1l-10-11.2v11.2h-2.5v-22h2.5v10.7l9.8-10.7h2.9l-9.6 10.7 10 11.3z"/><path d="M-9.1 332.9l-2.7-7h-8.7l-2.7 7h-2.6l8.6-22.1h2.1l8.5 22.1h-2.5zm-3.5-9.3l-2.5-6.8c-.3-.9-.7-1.9-1-3.2-.2 1-.5 2-.9 3.2l-2.6 6.8h7z"/></symbol><symbol viewBox="-150 310.9 413.5 117.9" id="logotip-sm"><path d="M-150 402.7v-63.5h45l.6.1c10.2 1.2 29.4 9.4 29.4 31.7 0 22.4-20 30.5-30.6 31.6l-.5.1H-150zm20-43.5v23.4h22.7c2.8-.4 12.4-2.6 12.4-11.7 0-4.4-1.7-7.3-5.4-9.5-2.5-1.5-5.1-2.1-6-2.3H-130zm100.2-19.6h26.3l11.7 15.2 36.3-42.2h7.2l-94 116.2h-9.2L-4 370.7zm89.8-27h8l-46 58.1 25.7 31.6H21l-12.3-16-34 42.5h-9.2zm127 90v-63.1h26.8l25.4 36.6v-36.6h24.3v63.1h-27.3l-25.5-36.7v36.7z"/><path d="M56.9 339.5h24.4v63.2H56.9zm-119.7 0h24v63.2h-24zm228.1 8.9c7.7 6.2 11.4 14.1 11.4 23.9s-3.9 17.8-11.6 24c-7.7 6.1-17.8 9.2-30.6 9.2-12.9 0-23.4-3.1-31-9.2-7.7-6.2-11.4-14.3-11.4-24 0-9.6 3.9-17.5 11.6-23.9 7.8-6.4 18.1-9.5 30.9-9.5 12.9.1 23.2 3.2 30.7 9.5zM120.8 372c0 8.6 5.1 14 14.1 14 8.7 0 14.2-5.6 14.2-14 0-7.8-5.6-13.4-14.2-13.4-8.5 0-14.1 5.9-14.1 13.4z"/></symbol><symbol viewBox="0 0 511.626 511.626" id="mailto"><path d="M49.106 178.729c6.472 4.567 25.981 18.131 58.528 40.685 32.548 22.554 57.482 39.92 74.803 52.099 1.903 1.335 5.946 4.237 12.131 8.71 6.186 4.476 11.326 8.093 15.416 10.852 4.093 2.758 9.041 5.852 14.849 9.277 5.806 3.422 11.279 5.996 16.418 7.7 5.14 1.718 9.898 2.569 14.275 2.569h.575c4.377 0 9.137-.852 14.277-2.569 5.137-1.704 10.615-4.281 16.416-7.7 5.804-3.429 10.752-6.52 14.845-9.277 4.093-2.759 9.229-6.376 15.417-10.852 6.184-4.477 10.232-7.375 12.135-8.71 17.508-12.179 62.051-43.11 133.615-92.79 13.894-9.703 25.502-21.411 34.827-35.116 9.332-13.699 13.993-28.07 13.993-43.105 0-12.564-4.523-23.319-13.565-32.264-9.041-8.947-19.749-13.418-32.117-13.418H45.679c-14.655 0-25.933 4.948-33.832 14.844C3.949 79.562 0 91.934 0 106.779c0 11.991 5.236 24.985 15.703 38.974 10.466 13.99 21.604 24.983 33.403 32.976z"/><path d="M483.072 209.275c-62.424 42.251-109.824 75.087-142.177 98.501-10.849 7.991-19.65 14.229-26.409 18.699-6.759 4.473-15.748 9.041-26.98 13.702-11.228 4.668-21.692 6.995-31.401 6.995h-.578c-9.707 0-20.177-2.327-31.405-6.995-11.228-4.661-20.223-9.229-26.98-13.702-6.755-4.47-15.559-10.708-26.407-18.699-25.697-18.842-72.995-51.68-141.896-98.501C17.987 202.047 8.375 193.762 0 184.437v226.685c0 12.57 4.471 23.319 13.418 32.265 8.945 8.949 19.701 13.422 32.264 13.422h420.266c12.56 0 23.315-4.473 32.261-13.422 8.949-8.949 13.418-19.694 13.418-32.265V184.437c-8.186 9.132-17.7 17.417-28.555 24.838z"/></symbol><symbol viewBox="0 0 95.481 95.481" id="ok"><path d="M43.041 67.254c-7.402-.772-14.076-2.595-19.79-7.064-.709-.556-1.441-1.092-2.088-1.713-2.501-2.402-2.753-5.153-.774-7.988 1.693-2.426 4.535-3.075 7.489-1.682.572.27 1.117.607 1.639.969 10.649 7.317 25.278 7.519 35.967.329 1.059-.812 2.191-1.474 3.503-1.812 2.551-.655 4.93.282 6.299 2.514 1.564 2.549 1.544 5.037-.383 7.016-2.956 3.034-6.511 5.229-10.461 6.761-3.735 1.448-7.826 2.177-11.875 2.661.611.665.899.992 1.281 1.376 5.498 5.524 11.02 11.025 16.5 16.566 1.867 1.888 2.257 4.229 1.229 6.425-1.124 2.4-3.64 3.979-6.107 3.81-1.563-.108-2.782-.886-3.865-1.977-4.149-4.175-8.376-8.273-12.441-12.527-1.183-1.237-1.752-1.003-2.796.071-4.174 4.297-8.416 8.528-12.683 12.735-1.916 1.889-4.196 2.229-6.418 1.15-2.362-1.145-3.865-3.556-3.749-5.979.08-1.639.886-2.891 2.011-4.014 5.441-5.433 10.867-10.88 16.295-16.322.359-.362.694-.746 1.217-1.305z"/><path d="M47.55 48.329c-13.205-.045-24.033-10.992-23.956-24.218C23.67 10.739 34.505-.037 47.84 0c13.362.036 24.087 10.967 24.02 24.478-.068 13.199-10.971 23.897-24.31 23.851zm12.001-24.186c-.023-6.567-5.253-11.795-11.807-11.801-6.609-.007-11.886 5.316-11.835 11.943.049 6.542 5.324 11.733 11.896 11.709 6.552-.023 11.768-5.285 11.746-11.851z"/></symbol><symbol viewBox="0 0 42 42" id="plus"><path d="M42 19H23V0h-4v19H0v4h19v19h4V23h19z"/></symbol><symbol viewBox="0 0 14.573 14.573" id="power"><path d="M7.286 14.573A6.46 6.46 0 0 1 2.69 12.67C1.463 11.442.786 9.81.786 8.073s.677-3.369 1.904-4.597A.999.999 0 1 1 4.104 4.89c-.85.851-1.318 1.981-1.318 3.183s.468 2.333 1.318 3.183 1.979 1.317 3.182 1.317 2.332-.468 3.182-1.317c.851-.85 1.318-1.98 1.318-3.183s-.468-2.333-1.317-3.183a.999.999 0 1 1 1.414-1.414c1.227 1.229 1.904 2.861 1.904 4.597s-.677 3.369-1.904 4.597a6.46 6.46 0 0 1-4.597 1.903z"/><path d="M7.286 7a1 1 0 0 1-1-1V1a1 1 0 1 1 2 0v5a1 1 0 0 1-1 1z"/></symbol><symbol viewBox="0 0 31.357 31.357" id="question"><path d="M15.255 0c5.424 0 10.764 2.498 10.764 8.473 0 5.51-6.314 7.629-7.67 9.62-1.018 1.481-.678 3.562-3.475 3.562-1.822 0-2.712-1.482-2.712-2.838 0-5.046 7.414-6.188 7.414-10.343 0-2.287-1.522-3.643-4.066-3.643-5.424 0-3.306 5.592-7.414 5.592-1.483 0-2.756-.89-2.756-2.584C5.339 3.683 10.084 0 15.255 0zm-.211 24.406a3.492 3.492 0 0 1 3.475 3.476 3.49 3.49 0 0 1-3.475 3.476 3.49 3.49 0 0 1-3.476-3.476 3.491 3.491 0 0 1 3.476-3.476z"/></symbol><symbol viewBox="0 0 1792 1792" id="ruble"><path d="M1299 565q0-100-65-162t-171-62H743v448h320q106 0 171-62t65-162zm237 0q0 193-126.5 315T1083 1002H743v118h505q14 0 23 9t9 23v128q0 14-9 23t-23 9H743v192q0 14-9.5 23t-22.5 9H544q-14 0-23-9t-9-23v-192H288q-14 0-23-9t-9-23v-128q0-14 9-23t23-9h224v-118H288q-14 0-23-9t-9-23V821q0-13 9-22.5t23-9.5h224V160q0-14 9-23t23-9h539q200 0 326.5 122T1536 565z"/></symbol><symbol viewBox="0 0 485.213 485.213" id="search"><path d="M471.882 407.567L360.567 296.243a214.267 214.267 0 0 1-64.331 64.321L407.56 471.888c17.772 17.768 46.587 17.768 64.321 0 17.773-17.739 17.773-46.554.001-64.321zM363.909 181.955C363.909 81.473 282.44 0 181.956 0 81.474 0 .001 81.473.001 181.955s81.473 181.951 181.955 181.951c100.484 0 181.953-81.469 181.953-181.951zM181.956 318.416c-75.252 0-136.465-61.208-136.465-136.46 0-75.252 61.213-136.465 136.465-136.465 75.25 0 136.468 61.213 136.468 136.465 0 75.252-61.218 136.46-136.468 136.46z"/><path d="M75.817 181.955h30.322c0-41.803 34.014-75.814 75.816-75.814V75.816c-58.517 0-106.138 47.621-106.138 106.139z"/></symbol><symbol viewBox="0 0 512 512" id="skype"><path d="M487.654 288.97c1.406-10.4 2.215-20.973 2.215-31.736 0-129.153-105.27-233.872-235.102-233.872-12.904 0-25.555 1.06-37.866 3.08-22.072-14.384-48.342-22.767-76.612-22.767C62.766 3.675 0 66.483 0 143.981c0 28.198 8.299 54.394 22.59 76.389a232.862 232.862 0 0 0-2.909 36.859c0 129.176 105.217 233.882 235.085 233.882 14.657 0 28.927-1.429 42.796-3.935 21.549 13.369 46.934 21.148 74.145 21.148C449.211 508.327 512 445.503 512 368.013c-.004-29.293-8.961-56.528-24.346-79.043zM276.74 429.597c-74.705 3.894-109.664-12.637-141.689-42.691-35.765-33.565-21.398-71.854 7.74-73.801 29.122-1.942 46.607 33.015 62.15 42.736 15.524 9.688 74.594 31.76 105.793-3.908 33.977-38.828-22.594-58.92-64.06-65.002-59.203-8.766-133.95-40.792-128.135-103.907 5.816-63.074 53.582-95.414 103.85-99.976 64.077-5.817 105.792 9.707 138.786 37.86 38.148 32.529 17.508 68.894-6.799 71.82-24.213 2.909-51.404-53.504-104.792-54.352-55.027-.864-92.217 57.261-24.286 73.784 67.967 16.505 140.75 23.286 166.961 85.417 26.231 62.137-40.751 128.125-115.519 132.02z"/></symbol><symbol viewBox="0 0 193.58 193.58" id="stomatology"><path d="M185.107 77.098c-2.91-12.568-11.411-21.784-24.601-26.667-8.786-3.249-30.178-6.223-39.604 4.856-30.37-17.987-46.381-8.205-57.149 3.374-23.77 25.529-12.897 51.25-2.731 62.417 7.344 8.087 9.472 12.764 10.656 18.109.268 1.176.877 4.641.91 5.395 1.875 44.464 17.041 48.287 20.67 48.556 1.047.304 2.095.444 3.105.444 1.839 0 3.59-.499 5.188-1.468 7.526-4.628 9.841-18.985 11.887-31.651.742-4.579 1.431-8.89 2.234-11.411 1.406-4.359 2.569-5.346 2.558-5.492 1.011.45 2.722 3.702 2.898 4.981.286 1.924.487 4.408.706 7.197 1.163 14.285 2.898 35.828 18.091 37.387 1.084.226 3.642.469 6.796-1.437 7.16-4.348 12.458-16.806 15.746-37.01l.487-3.233c1.193-8.117 2.825-19.218 9.523-26.257 7.735-8.082 17.063-28.956 12.63-48.09zm-17.123 43.796c-8.062 8.47-9.925 21.209-11.167 29.654l-.475 3.13c-3.782 23.248-9.402 30.27-12.416 32.389-1.583 1.126-2.582.962-2.467 1.011a2.239 2.239 0 0 0-.706-.141c-10.181-.895-11.679-19.424-12.671-31.7-.244-2.953-.451-5.571-.743-7.605-.305-2.039-3.19-9.846-8.519-10.297-5.779-.45-8.221 7.259-9.037 9.805-.949 2.971-1.662 7.307-2.472 12.336-1.559 9.633-3.909 24.198-8.997 27.328-.693.426-1.714.877-3.568.268a3.093 3.093 0 0 0-.935-.134h-.088c-.155 0-13.149-1.571-14.882-42.624-.064-1.431-.816-5.468-1.042-6.479-1.641-7.332-4.926-12.994-12.136-20.929-2.411-2.648-22.77-26.631 2.682-53.974 11.704-12.568 28.964-21.068 68.156 11.119a3.116 3.116 0 0 0 4.384-.436 3.112 3.112 0 0 0-.426-4.384c-5.029-4.116-9.743-7.614-14.163-10.543 7.233-7.258 24.271-5.276 32.065-2.39 11.295 4.177 18.261 11.655 20.703 22.238 3.717 16.138-4.041 34.978-11.08 42.358zM45.781 77.941c0 1.726-1.4 3.118-3.117 3.118H10.452a3.14 3.14 0 0 1-2.968-2.134 3.149 3.149 0 0 1 1.093-3.483l26.619-19.96-25.167-33.884a3.104 3.104 0 0 1 .058-3.784 3.097 3.097 0 0 1 3.672-.935l38.547 16.38L63.653 2.058A3.1 3.1 0 0 1 66.576 0c.058 0 .106 0 .152.012a3.12 3.12 0 0 1 2.868 2.326l9.353 36.377a3.126 3.126 0 0 1-2.241 3.796 3.108 3.108 0 0 1-3.791-2.238l-6.854-26.625-9.021 24.829a3.142 3.142 0 0 1-1.69 1.791 3.118 3.118 0 0 1-2.463.012L21.882 27.105 42.049 54.26a3.101 3.101 0 0 1-.636 4.338l-21.62 16.219h22.859a3.125 3.125 0 0 1 3.129 3.124z"/></symbol><symbol viewBox="-41 164.9 512 512" id="surgical"><style>.st0{fill:#fff}</style><path d="M461.8 249.1c-5.1 0-9.2 4.1-9.2 9.2 0 12.2-4.8 23.7-13.4 32.4l-219 218.9-11-11-53.8-53.8L374.3 226c17.9-17.9 46.9-17.9 64.8 0 2.2 2.2 4.2 4.6 5.9 7.2 2.8 4.3 8.6 5.4 12.8 2.6 4.3-2.8 5.4-8.5 2.6-12.8-2.4-3.6-5.2-7-8.2-10.1-12.1-12.1-28.3-18.8-45.5-18.8s-33.3 6.7-45.5 18.8L80.4 493.8c-3.6 3.6-3.6 9.5 0 13.1 3.6 3.6 9.5 3.6 13.1 0l48.9-48.9 47.2 47.2-10 10c-11 11-12.9 27.7-5.6 40.7l-32.3 32.3c-41.7 41.7-105 52.6-157.9 28.4l88.7-88.7c3.6-3.6 3.6-9.5 0-13.1-3.6-3.6-9.5-3.6-13.1 0l-97.7 97.7c-2 2-3 4.9-2.6 7.8s2.1 5.4 4.6 6.8c24.5 13.9 51.5 20.7 78.4 20.7 41.2 0 82.1-15.9 112.6-46.5l38-38c3.6-3.6 3.6-9.5 0-13.1-6.1-6.1-6.1-15.9 0-22l10-10 11 11c1.8 1.8 4.2 2.7 6.5 2.7s4.7-.9 6.5-2.7l225.4-225.4c12.1-12.1 18.8-28.3 18.8-45.5.1-5.1-4-9.2-9.1-9.2z"/><path d="M101 531.2c-3.6-3.6-9.5-3.6-13.1 0l-30.5 30.5c-3.6 3.6-3.6 9.5 0 13.1 1.8 1.8 4.2 2.7 6.5 2.7 2.4 0 4.7-.9 6.5-2.7l30.5-30.5c3.8-3.6 3.8-9.5.1-13.1zM-33 669.3h140.1M107.1 676.8H-33c-4.1 0-7.5-3.4-7.5-7.5s3.4-7.5 7.5-7.5h140.1c4.1 0 7.5 3.4 7.5 7.5s-3.3 7.5-7.5 7.5zM146.4 669.3h140.1M286.5 676.8H146.4c-4.1 0-7.5-3.4-7.5-7.5s3.4-7.5 7.5-7.5h140.1c4.1 0 7.5 3.4 7.5 7.5s-3.4 7.5-7.5 7.5zM323.4 669.3h140.1M463.5 676.8H323.4c-4.1 0-7.5-3.4-7.5-7.5s3.4-7.5 7.5-7.5h140.1c4.1 0 7.5 3.4 7.5 7.5s-3.4 7.5-7.5 7.5z"/></symbol><symbol viewBox="0 0 16.877 16.877" id="tel"><path d="M5.301 5.587L1.404 1.688 2.913.177A.598.598 0 0 1 3.756.17l3.036 3.039a.6.6 0 0 1-.003.848l-.665.664-.619.619a1.705 1.705 0 0 0-.204.247zm3.206 6.351a34.186 34.186 0 0 1-1.844-1.725 34.655 34.655 0 0 1-1.724-1.848c-.45-.52-.538-1.273-.303-1.907l-4-4.001c-.931.957-.812 3.33.208 5.415.438.902 1.006 1.716 1.593 2.49a22.316 22.316 0 0 0 1.906 2.176 21.258 21.258 0 0 0 2.171 1.913c.774.589 1.59 1.153 2.486 1.59 2.088 1.019 4.462 1.131 5.418.199l-4.001-4.001c-.634.235-1.388.148-1.91-.301zm8.195 1.181l-3.036-3.037a.605.605 0 0 0-.848.003h-.002l-.667.666-.615.618a1.866 1.866 0 0 1-.247.205l3.896 3.898c.504-.505 1.007-1.007 1.512-1.51a.594.594 0 0 0 .007-.843z"/></symbol><symbol viewBox="0 0 50 50" id="therapeutic"><path d="M46.966 23.345c0-3.814-3.115-6.92-6.931-6.92s-6.933 3.105-6.933 6.92a6.905 6.905 0 0 0 5.769 6.813v7.267c0 5.664-4.597 10.261-10.261 10.261-5.664 0-10.262-4.598-10.262-10.261l-.025-8.325c2.686-.358 5.311-1.929 7.646-4.612.343-.394.447-.902.388-1.387 3.052-4.035 4.945-9.53 4.945-13.754 0-6.521-2.922-7.198-7.754-8.304l-.007-.012C23.244.433 22.644 0 21.917 0a1.846 1.846 0 0 0-1.849 1.836c0 1.021.827 1.848 1.849 1.848.404 0 .783-.168 1.084-.407l.043.016c4.691 1.077 5.957 1.369 5.957 6.054 0 3.715-1.758 8.69-4.445 12.282a1.767 1.767 0 0 0-1.214.588c-1.373 1.589-3.567 3.491-6.159 3.491-2.59 0-4.782-1.884-6.155-3.469a1.763 1.763 0 0 0-1.211-.587c-2.694-3.605-4.456-8.586-4.456-12.306 0-4.688 1.245-4.979 5.965-6.056l.016-.015c.324.239.677.408 1.107.408a1.848 1.848 0 0 0 1.848-1.848A1.846 1.846 0 0 0 12.448 0c-.729 0-1.328.433-1.646 1.029l-.004.001C5.961 2.146 3.034 2.811 3.034 9.347c0 4.228 1.9 9.743 4.979 13.777-.059.485.046.994.389 1.387 2.333 2.665 4.933 4.23 7.616 4.589l.003 8.324C16.022 44.359 21.676 50 28.61 50s12.564-5.641 12.564-12.576v-7.267c3.272-.546 5.792-3.378 5.792-6.812zm-6.931 4.63a4.64 4.64 0 0 1-4.63-4.628c0-2.544 2.087-4.617 4.63-4.617s4.606 2.073 4.606 4.617c.001 2.553-2.063 4.628-4.606 4.628z"/><path d="M40.035 19.891a3.462 3.462 0 0 0-3.466 3.455 3.463 3.463 0 0 0 3.466 3.464 3.463 3.463 0 0 0 3.466-3.464 3.463 3.463 0 0 0-3.466-3.455z"/></symbol><symbol viewBox="0 0 612.035 612.035" id="time"><path d="M430.9 275.39h-76.697c-10.148-15.943-27.885-26.583-48.216-26.583-31.596 0-57.203 25.598-57.203 57.203 0 1.724.361 3.351.501 5.03l-93.432 72.011c-13.375 10.314-15.864 29.537-5.558 42.931 6.042 7.826 15.107 11.933 24.271 11.933a30.557 30.557 0 0 0 18.678-6.367l93.335-71.923c6.077 2.199 12.558 3.605 19.417 3.605 20.331 0 38.067-10.648 48.233-26.609H430.9c16.901 0 30.61-13.7 30.61-30.61.009-16.921-13.709-30.621-30.61-30.621zM305.996 107.73c11.282 0 20.41-9.137 20.41-20.41V20.41c0-11.273-9.128-20.41-20.41-20.41s-20.41 9.137-20.41 20.41v66.91c-.001 11.274 9.127 20.41 20.41 20.41zm285.616 177.86h-66.91c-11.282 0-20.41 9.137-20.41 20.41s9.128 20.41 20.41 20.41h66.91c11.282 0 20.41-9.137 20.41-20.41-.009-11.265-9.137-20.41-20.41-20.41zM305.996 504.305c-11.282 0-20.41 9.137-20.41 20.41v66.91c0 11.273 9.128 20.41 20.41 20.41s20.41-9.137 20.41-20.41v-66.91c0-11.265-9.128-20.41-20.41-20.41zM107.744 306c0-11.273-9.128-20.41-20.41-20.41h-66.91C9.142 285.59.014 294.736.014 306c0 11.273 9.128 20.41 20.41 20.41h66.91c11.273 0 20.41-9.137 20.41-20.41zm370.378-161.873c2.612 0 5.224-.994 7.211-2.99l29.837-29.88c3.983-3.992 3.983-10.456 0-14.439-3.983-3.966-10.447-3.975-14.431.009l-29.837 29.881c-3.983 3.992-3.983 10.456 0 14.439a10.202 10.202 0 0 0 7.22 2.98zm7.211 326.744c-3.983-3.983-10.447-3.983-14.431 0-3.983 3.975-3.983 10.447 0 14.431l29.837 29.863c1.996 1.987 4.6 2.989 7.211 2.989s5.224-.993 7.211-2.989c3.983-3.975 3.983-10.447 0-14.431l-29.828-29.863zm-358.622-.026l-29.88 29.898c-3.984 3.983-3.984 10.456 0 14.431a10.204 10.204 0 0 0 14.43 0l29.88-29.898c3.984-3.983 3.984-10.456 0-14.431-3.983-3.984-10.437-3.984-14.43 0zm0-329.699a10.154 10.154 0 0 0 7.211 2.99c2.612 0 5.223-.994 7.21-2.99 3.984-3.984 3.984-10.447 0-14.431l-29.854-29.863c-3.983-3.983-10.447-3.983-14.43 0-3.984 3.984-3.984 10.447 0 14.431l29.863 29.863z"/></symbol><symbol viewBox="0 0 548.358 548.358" id="vk"><path d="M545.451 400.298c-.664-1.431-1.283-2.618-1.858-3.569-9.514-17.135-27.695-38.167-54.532-63.102l-.567-.571-.284-.28-.287-.287h-.288c-12.18-11.611-19.893-19.418-23.123-23.415-5.91-7.614-7.234-15.321-4.004-23.13 2.282-5.9 10.854-18.36 25.696-37.397 7.807-10.089 13.99-18.175 18.556-24.267 32.931-43.78 47.208-71.756 42.828-83.939l-1.701-2.847c-1.143-1.714-4.093-3.282-8.846-4.712-4.764-1.427-10.853-1.663-18.278-.712l-82.224.568c-1.332-.472-3.234-.428-5.712.144l-3.713.859-1.431.715-1.136.859c-.952.568-1.999 1.567-3.142 2.995-1.137 1.423-2.088 3.093-2.848 4.996-8.952 23.031-19.13 44.444-30.553 64.238-7.043 11.803-13.511 22.032-19.418 30.693-5.899 8.658-10.848 15.037-14.842 19.126-4 4.093-7.61 7.372-10.852 9.849-3.237 2.478-5.708 3.525-7.419 3.142-1.715-.383-3.33-.763-4.859-1.143-2.663-1.714-4.805-4.045-6.42-6.995-1.622-2.95-2.714-6.663-3.285-11.136-.568-4.476-.904-8.326-1-11.563-.089-3.233-.048-7.806.145-13.706.198-5.903.287-9.897.287-11.991 0-7.234.141-15.085.424-23.555.288-8.47.521-15.181.716-20.125.194-4.949.284-10.185.284-15.705s-.336-9.849-1-12.991a44.442 44.442 0 0 0-2.99-9.137c-1.335-2.95-3.289-5.232-5.853-6.852-2.569-1.618-5.763-2.902-9.564-3.856-10.089-2.283-22.936-3.518-38.547-3.71-35.401-.38-58.148 1.906-68.236 6.855-3.997 2.091-7.614 4.948-10.848 8.562-3.427 4.189-3.905 6.475-1.431 6.851 11.422 1.711 19.508 5.804 24.267 12.275l1.715 3.429c1.334 2.474 2.666 6.854 3.999 13.134 1.331 6.28 2.19 13.227 2.568 20.837.95 13.897.95 25.793 0 35.689-.953 9.9-1.853 17.607-2.712 23.127-.859 5.52-2.143 9.993-3.855 13.418-1.715 3.426-2.856 5.52-3.428 6.28-.571.76-1.047 1.239-1.425 1.427a21.387 21.387 0 0 1-7.71 1.431c-2.667 0-5.901-1.334-9.707-4-3.805-2.666-7.754-6.328-11.847-10.992-4.093-4.665-8.709-11.184-13.85-19.558-5.137-8.374-10.467-18.271-15.987-29.691l-4.567-8.282c-2.855-5.328-6.755-13.086-11.704-23.267-4.952-10.185-9.329-20.037-13.134-29.554-1.521-3.997-3.806-7.04-6.851-9.134l-1.429-.859c-.95-.76-2.475-1.567-4.567-2.427a30.301 30.301 0 0 0-6.567-1.854l-78.229.568c-7.994 0-13.418 1.811-16.274 5.428l-1.143 1.711c-.571.953-.859 2.475-.859 4.57 0 2.094.571 4.664 1.714 7.707 11.42 26.84 23.839 52.725 37.257 77.659 13.418 24.934 25.078 45.019 34.973 60.237 9.897 15.229 19.985 29.602 30.264 43.112 10.279 13.515 17.083 22.176 20.412 25.981 3.333 3.812 5.951 6.662 7.854 8.565l7.139 6.851c4.568 4.569 11.276 10.041 20.127 16.416 8.853 6.379 18.654 12.659 29.408 18.85 10.756 6.181 23.269 11.225 37.546 15.126 14.275 3.905 28.169 5.472 41.684 4.716h32.834c6.659-.575 11.704-2.669 15.133-6.283l1.136-1.431c.764-1.136 1.479-2.901 2.139-5.276.668-2.379 1-5 1-7.851-.195-8.183.428-15.558 1.852-22.124 1.423-6.564 3.045-11.513 4.859-14.846 1.813-3.33 3.859-6.14 6.136-8.418 2.282-2.283 3.908-3.666 4.862-4.142.948-.479 1.705-.804 2.276-.999 4.568-1.522 9.944-.048 16.136 4.429 6.187 4.473 11.99 9.996 17.418 16.56 5.425 6.57 11.943 13.941 19.555 22.124 7.617 8.186 14.277 14.271 19.985 18.274l5.708 3.426c3.812 2.286 8.761 4.38 14.853 6.283 6.081 1.902 11.409 2.378 15.984 1.427l73.087-1.14c7.229 0 12.854-1.197 16.844-3.572 3.998-2.379 6.373-5 7.139-7.851.764-2.854.805-6.092.145-9.712-.677-3.611-1.344-6.136-2.008-7.563z"/></symbol></svg>