<svg version="1" xmlns="http://www.w3.org/2000/svg" width="346.667" height="346.667" viewBox="0 0 260.000000 260.000000"><path d="M171 50.6c-20.6 24-37.8 44.1-38.3 44.8-.5.8-1.1.7-2-.4-.6-.9-6.3-8.2-12.5-16.3L106.9 64H79.4c-21.8 0-27.4.3-26.8 1.2.5.7 12.6 15.6 27.1 33l26.3 31.7-49.3 60.3c-27.1 33.2-49.6 60.9-50 61.5-.6 1 1.3 1.3 8.6 1.3h9.3l98.5-121.6c54.1-66.9 98.8-122.3 99.2-123 .6-1.1-.6-1.4-6.5-1.4h-7.3L171 50.6zM203.9 53.2c-20.7 25.5-65.3 80.3-99.1 121.8-33.8 41.6-61.7 76.1-62.2 76.8-.5.9 1.5 1.2 8.7 1.2h9.4l34.9-43.7c19.2-24 35.4-44.3 36-45.1.9-1.2 3.7 1.9 14.3 15.7l13.2 17.1h28.1c22.3 0 27.8-.3 27.1-1.3-.5-.6-12.8-15.7-27.2-33.5-23.7-29.1-26.1-32.5-24.8-34 .8-.9 22-27.8 47.2-59.7C234.7 36.6 256 9.7 256.8 8.7c1.4-1.6 1-1.7-6.9-1.7h-8.4l-37.6 46.2z"/></svg>