<?xml version="1.0" encoding="utf-8"?>
<!-- Generator: Adobe Illustrator 19.0.0, SVG Export Plug-In . SVG Version: 6.00 Build 0)  -->
<svg version="1.1" id="Layer_1" xmlns="http://www.w3.org/2000/svg" xmlns:xlink="http://www.w3.org/1999/xlink" x="0px" y="0px"
	 viewBox="-51 174.9 492 492" enable-background="new -51 174.9 492 492" xml:space="preserve">
<g>
	<g>
		<path d="M214.1,659l177.7-177.7c5.1-5.1,7.9-11.8,7.9-19c0-7.2-2.8-14-7.9-19l-16.1-16.1c-5.1-5.1-11.8-7.9-19-7.9
			c-7.2,0-14.2,2.8-19.3,7.9L233.5,530.8V201.5c0-14.8-11.6-26.6-26.5-26.6h-22.8c-14.9,0-27.6,11.7-27.6,26.6V532L52.1,427.1
			c-5.1-5.1-11.7-7.9-18.9-7.9c-7.2,0-13.9,2.8-18.9,7.9l-16.1,16.1c-5.1,5.1-7.8,11.8-7.8,19c0,7.2,2.8,14,7.9,19L175.9,659
			c5.1,5.1,11.9,7.9,19.1,7.9C202.2,666.9,209,664.1,214.1,659z"/>
	</g>
</g>
</svg>
