<?xml version="1.0" encoding="utf-8"?>
<!-- Generator: Adobe Illustrator 19.0.0, SVG Export Plug-In . SVG Version: 6.00 Build 0)  -->
<svg version="1.1" id="Capa_1" xmlns="http://www.w3.org/2000/svg" xmlns:xlink="http://www.w3.org/1999/xlink" x="0px" y="0px"
	 viewBox="-137 260.2 320.7 320.7" style="enable-background:new -137 260.2 320.7 320.7;" xml:space="preserve">
<g>
	<path d="M121.8,490.2l-161.9,0.1l9.2,30.5c2.9-0.9,5.9-1.5,9.1-1.5c6.4,0,12.3,2,17.2,5.3h110.1c4.9-3.4,10.8-5.3,17.2-5.3
		c16.9,0,30.5,13.7,30.5,30.5c0,16.9-13.7,30.5-30.5,30.5c-16.9,0-30.5-13.7-30.5-30.5c0-4.4,1-8.5,2.6-12.3H6
		c1.7,3.8,2.6,7.9,2.6,12.3c0,16.9-13.7,30.5-30.5,30.5c-16.9,0-30.5-13.7-30.5-30.5c0-8.9,3.9-16.9,10-22.5l-61.5-204.2l-26.7,0.1
		c0,0,0,0,0,0c-3.5,0-6.4-2.9-6.4-6.4c0-3.6,2.8-6.4,6.4-6.5l31.5-0.1c0,0,0,0,0,0c3.4,0,6.1,2.6,6.3,5.9c0.2,0.3,0.4,0.6,0.5,0.9
		l9.7,32.1c0.4-0.1,0.9-0.3,1.3-0.3H3.9c1-48.8,40.9-88.2,89.9-88.2c49.6,0,90,40.4,90,90c0,30.8-15.5,58-39.2,74.2l-16.2,59.6
		c-0.1,0.5-0.4,0.9-0.6,1.3C127,488.3,124.6,490.2,121.8,490.2z M105.1,549.8c0,9.7,7.9,17.7,17.7,17.7c9.7,0,17.7-7.9,17.7-17.7
		c0-9.8-7.9-17.7-17.7-17.7S105.1,540,105.1,549.8z M-39.5,549.8c0,9.7,7.9,17.7,17.7,17.7s17.7-7.9,17.7-17.7
		c0-9.8-7.9-17.7-17.7-17.7S-39.5,540-39.5,549.8z M16.7,350.7c0,42.5,34.6,77.1,77.1,77.1s77.1-34.6,77.1-77.1
		c0-42.5-34.6-77.1-77.1-77.1S16.7,308.2,16.7,350.7z M117,477.3l11.9-43.8c-10.8,4.6-22.7,7.2-35.2,7.2
		c-45.9,0-83.7-34.5-89.2-78.9h-83.4L-44,477.5L117,477.3z"/>
</g>
<path d="M87.1,381.9c-1.7,0-3.3-0.6-4.6-1.9l-27.3-27.3c-2.5-2.5-2.5-6.7,0-9.2c2.5-2.5,6.7-2.5,9.2,0l22.7,22.7l42.7-42.7
	c2.5-2.5,6.7-2.5,9.2,0c2.5,2.5,2.5,6.7,0,9.2L91.7,380C90.5,381.3,88.8,381.9,87.1,381.9z"/>
</svg>
