<svg width="455" height="400" viewBox="0 0 455 400"  xmlns="http://www.w3.org/2000/svg">
<path d="M402.826 94.2299C402.735 94.2299 402.826 94.2299 402.826 94.2299C399.918 94.2299 397.011 93.5029 393.83 92.6851C391.377 92.0491 388.742 91.413 385.834 90.9586C372.658 89.1413 357.665 88.1418 355.393 88.0509C353.212 88.2326 338.128 89.2322 324.952 90.9586C321.954 91.413 319.409 92.0491 316.956 92.6851C313.867 93.5029 310.959 94.2299 307.96 94.2299C300.872 94.2299 295.602 89.8682 290.332 79.6002C281.063 61.5175 275.157 45.1613 274.612 43.6165C273.703 41.4357 270.704 31.0768 286.697 22.5352C288.696 21.4448 290.877 20.1726 293.149 18.9005C306.325 11.2676 324.316 0.908678 355.302 0H355.393H355.484C386.379 0.908678 404.462 11.2676 417.638 18.9005C419.909 20.1726 422.09 21.4448 424.089 22.5352C440.082 31.0768 437.083 41.4357 436.175 43.6165C435.629 45.1613 429.723 61.5175 420.454 79.6002C415.184 89.8682 409.914 94.2299 402.826 94.2299ZM355.393 79.055H355.666C356.302 79.055 372.476 80.0545 387.015 82.0536C390.468 82.5079 393.467 83.3258 396.011 83.9618C398.646 84.5979 400.918 85.234 402.735 85.234C404.462 85.234 407.37 85.234 412.367 75.5111C421.636 57.5193 427.542 40.7088 427.633 40.527L427.815 40.0727C428.36 38.3462 427.179 34.5298 419.728 30.5316C417.547 29.3503 415.366 28.0781 413.003 26.7151C400.009 19.1731 383.835 9.81372 355.302 8.99591C326.77 9.81372 310.595 19.1731 297.601 26.7151C295.239 28.0781 293.058 29.3503 290.877 30.5316C283.335 34.5298 282.245 38.4371 282.79 40.1636L282.972 40.527V40.6179C283.062 40.7996 288.969 57.6102 298.237 75.602C303.235 85.3248 306.143 85.3249 307.869 85.3249C309.687 85.3249 311.958 84.7796 314.594 84.0527C317.229 83.4166 320.136 82.5988 323.589 82.1445C338.128 80.1454 354.303 79.1458 354.939 79.1458L355.393 79.055ZM377.656 40.7996H361.936V24.9886H349.396V40.7088H333.676V53.2485H349.396V68.9687H361.936V53.2485H377.656V40.7996ZM454.348 178.919C454.712 202.181 441.627 223.171 417.547 225.17C399.373 226.715 391.286 219.809 388.378 216.356C378.837 222.081 368.296 225.17 357.301 225.17C346.034 225.17 335.221 221.99 325.498 215.902C321.499 219.355 309.596 227.715 292.058 225.352C270.25 222.353 259.437 196.82 260.891 180.009C262.435 163.108 273.612 143.571 276.247 127.488C278.701 112.585 283.698 100.863 290.695 93.8664C294.784 98.3189 300.327 101.772 307.869 101.772C311.777 101.772 315.23 100.863 318.683 100.045C321.045 99.4094 323.317 98.8642 325.861 98.5007C332.222 97.592 339.037 96.9559 344.58 96.5016C341.581 100.591 335.493 107.224 323.953 115.129C310.323 124.489 299.964 128.851 295.148 130.668C294.875 133.667 294.693 136.756 294.693 139.936C294.693 182.917 322.681 217.81 357.211 217.81C391.195 217.81 418.91 184.007 419.728 141.935C413.276 134.939 409.55 127.215 409.55 127.215C409.55 127.215 395.284 129.85 374.294 118.31C360.845 110.95 354.394 101.681 351.486 96.0473C353.212 95.9564 354.575 95.8655 355.302 95.7746C358.392 95.9564 372.476 96.9559 384.653 98.6824C387.197 99.0459 389.469 99.5911 391.831 100.227C395.284 101.136 398.737 101.954 402.644 101.954C410.732 101.954 416.456 97.9555 420.727 92.9577C424.362 98.955 434.266 115.493 438.81 127.306C444.625 141.754 453.985 155.657 454.348 178.919ZM284.062 324.125H258.619V349.568H238.446V324.125H213.003V303.953H238.446V278.51H258.619V303.953H284.062V324.125ZM239.173 150.75C226.088 197.274 194.557 238.528 157.756 238.528C121.409 238.528 90.1501 198.183 76.7925 152.294C73.9756 142.753 71.9765 132.849 70.8861 123.126C70.7044 121.308 70.5227 119.491 70.3409 117.674C70.3409 117.492 70.3409 117.401 70.3409 117.219C70.2501 115.675 70.1592 114.039 70.0683 112.494C70.0683 112.131 69.9775 111.767 69.9775 111.404C69.8866 109.496 69.8866 107.587 69.8866 105.679C69.8866 44.7978 109.232 18.0827 157.847 18.0827C206.461 18.0827 245.807 44.7978 245.807 105.679C245.807 107.678 245.716 109.677 245.716 111.767C245.716 112.403 245.625 112.949 245.625 113.585C245.534 115.039 245.443 116.493 245.352 117.946C245.261 118.673 245.261 119.309 245.171 120.036C245.08 121.399 244.898 122.762 244.716 124.216C244.625 124.943 244.534 125.579 244.444 126.306C244.262 127.76 244.08 129.123 243.807 130.577C243.717 131.213 243.626 131.849 243.444 132.485C243.171 133.939 242.899 135.484 242.626 136.938C242.535 137.483 242.445 138.028 242.263 138.573C241.899 140.209 241.536 141.754 241.172 143.389C241.081 143.844 240.991 144.207 240.9 144.662C240.445 146.479 239.991 148.205 239.537 150.023C239.264 150.295 239.173 150.477 239.173 150.75ZM213.549 191.004C224.453 173.467 232.176 152.476 235.811 131.577C234.266 120.491 231.631 110.223 227.815 102.862C221.181 89.9591 200.464 88.3235 182.472 81.6901C164.571 75.0568 157.029 66.3335 157.029 66.3335C157.029 66.3335 149.487 75.0568 131.586 81.6901C113.685 88.3235 92.8761 89.9591 86.2428 102.862C82.8807 109.314 80.5181 117.946 78.8825 127.397C82.1537 149.659 90.241 172.376 101.872 191.095C117.683 216.538 138.037 231.168 157.756 231.168C177.383 231.077 197.738 216.447 213.549 191.004ZM294.512 257.974C275.066 241.799 231.722 227.533 212.095 221.627C207.37 226.715 202.281 231.168 197.011 234.984C197.738 248.614 197.465 274.693 188.56 309.132C186.561 316.765 184.198 323.853 181.563 330.304C180.927 324.943 179.927 317.674 178.383 309.314C174.93 290.868 167.479 268.605 167.479 268.605C167.479 268.605 173.658 262.971 177.474 254.248C179.201 250.25 179.746 246.797 179.927 244.162C172.84 246.888 165.479 248.433 157.847 248.433C150.305 248.433 142.944 246.979 135.947 244.253C136.129 245.707 136.311 247.07 136.493 248.342C138.037 258.61 144.58 266.424 144.58 266.424C144.58 266.424 141.49 275.42 139.582 284.598C138.401 290.323 134.675 302.135 132.858 312.313C132.585 311.222 132.222 310.223 131.949 309.132C123.771 277.328 122.863 252.431 123.408 238.164C120.136 236.165 116.865 233.803 113.776 231.259C112.685 244.616 112.413 273.058 122.317 311.677C132.858 352.567 155.575 379.282 156.574 380.373L160.3 384.734L164.026 380.373C165.025 379.282 187.742 352.567 198.283 311.677C208.369 272.422 207.915 243.617 206.733 230.532C224.271 235.711 269.432 250.159 288.242 265.697C301.69 276.874 310.777 298.137 310.414 317.401C310.232 328.396 306.961 343.844 292.513 355.02C259.8 380.282 217.002 385.552 160.209 390.095C103.417 385.552 60.7089 380.282 27.9057 355.02C13.4577 343.844 10.1865 328.396 10.0047 317.401C9.64125 298.046 18.8189 276.783 32.1765 265.697C50.6226 250.341 94.9661 236.074 112.958 230.713C110.05 228.26 107.233 225.625 104.507 222.808C83.5168 229.259 44.171 242.799 25.8157 257.974C10.0047 271.059 -0.354205 295.048 0.00926661 317.492C0.28187 330.668 4.18919 349.205 21.8175 362.835C56.8016 389.823 101.054 395.275 159.755 400H160.118H160.482C219.182 395.275 263.435 389.914 298.419 362.835C315.957 349.296 319.955 330.668 320.227 317.492C320.682 295.048 310.323 271.059 294.512 257.974Z"/>
</svg>
