<svg width="350" height="400" viewBox="0 0 350 400"  xmlns="http://www.w3.org/2000/svg">
<path d="M132.987 119.944H309.182V125.465H132.987V119.944ZM132.987 101.3H309.182V95.7792H132.987V101.3ZM314.463 34.3269H127.786V71.6143H314.463V34.3269ZM349.19 0V351.99H179.316V383.517C179.316 392.559 171.874 400 162.833 400H16.4833C7.44149 400 0 392.559 0 383.517V157.552C0 148.51 7.44149 141.068 16.4833 141.068H93.0586V0H349.19ZM47.8496 366.793C47.8496 362.473 44.3289 358.872 39.928 358.872H27.1254C22.8046 358.872 19.2038 362.473 19.2038 366.793V379.676C19.2038 383.997 22.7245 387.598 27.1254 387.598H40.008C44.3289 387.598 47.9296 384.077 47.9296 379.676V366.793H47.8496ZM47.8496 330.466C47.8496 326.145 44.3289 322.625 39.928 322.625H27.1254C22.8046 322.625 19.2038 326.145 19.2038 330.466V343.189C19.2038 347.509 22.7245 351.03 27.1254 351.03H40.008C44.3289 351.03 47.9296 347.509 47.9296 343.189V330.466H47.8496ZM47.8496 293.979C47.8496 289.658 44.3289 286.137 39.928 286.137H27.1254C22.8046 286.137 19.2038 289.658 19.2038 293.979V306.701C19.2038 311.022 22.7245 314.543 27.1254 314.543H40.008C44.3289 314.543 47.9296 311.022 47.9296 306.701V293.979H47.8496ZM47.8496 257.572C47.8496 253.251 44.3289 249.65 39.928 249.65H27.1254C22.8046 249.65 19.2038 253.251 19.2038 257.572V270.454C19.2038 274.775 22.7245 278.376 27.1254 278.376H40.008C44.3289 278.376 47.9296 274.855 47.9296 270.454V257.572H47.8496ZM85.217 366.793C85.217 362.473 81.6963 358.872 77.2955 358.872H64.4129C60.092 358.872 56.4913 362.473 56.4913 366.793V379.676C56.4913 383.997 60.012 387.598 64.4129 387.598H77.2955C81.6163 387.598 85.217 384.077 85.217 379.676V366.793ZM85.217 330.066C85.217 325.745 81.6963 322.224 77.2955 322.224H64.4129C60.092 322.224 56.4913 325.745 56.4913 330.066V342.789C56.4913 347.109 60.012 350.63 64.4129 350.63H77.2955C81.6163 350.63 85.217 347.109 85.217 342.789V330.066ZM85.217 293.739C85.217 289.418 81.6963 285.897 77.2955 285.897H64.4129C60.092 285.897 56.4913 289.418 56.4913 293.739V306.461C56.4913 310.782 60.012 314.303 64.4129 314.303H77.2955C81.6163 314.303 85.217 310.782 85.217 306.461V293.739ZM85.217 257.572C85.217 253.251 81.6963 249.65 77.2955 249.65H64.4129C60.092 249.65 56.4913 253.251 56.4913 257.572V270.454C56.4913 274.775 60.012 278.376 64.4129 278.376H77.2955C81.6163 278.376 85.217 274.855 85.217 270.454V257.572ZM121.544 366.793C121.544 362.473 118.024 358.872 113.623 358.872H100.74C96.4193 358.872 92.8186 362.473 92.8186 366.793V379.676C92.8186 383.997 96.4193 387.598 100.74 387.598H113.623C117.944 387.598 121.544 384.077 121.544 379.676V366.793ZM121.544 330.066C121.544 325.745 118.024 322.224 113.623 322.224H100.74C96.4193 322.224 92.8186 325.745 92.8186 330.066V342.789C92.8186 347.109 96.4193 350.63 100.74 350.63H113.623C117.944 350.63 121.544 347.109 121.544 342.789V330.066ZM121.544 293.739C121.544 289.418 118.024 285.897 113.623 285.897H100.74C96.4193 285.897 92.8186 289.418 92.8186 293.739V306.461C92.8186 310.782 96.4193 314.303 100.74 314.303H113.623C117.944 314.303 121.544 310.782 121.544 306.461V293.739ZM121.544 257.572C121.544 253.251 118.024 249.65 113.623 249.65H100.74C96.4193 249.65 92.8186 253.251 92.8186 257.572V270.454C92.8186 274.775 96.4193 278.376 100.74 278.376H113.623C117.944 278.376 121.544 274.855 121.544 270.454V257.572ZM121.544 226.765C121.544 224.525 119.944 222.765 117.944 222.765H96.4993C94.4989 222.765 92.8986 224.605 92.8986 226.765V231.406C92.8986 233.647 94.4989 235.407 96.4993 235.407H117.944C119.944 235.407 121.544 233.567 121.544 231.406V226.765ZM158.592 330.626C158.592 325.985 155.071 322.304 150.67 322.304H137.788C133.467 322.304 129.866 326.065 129.866 330.626V379.196C129.866 383.757 133.467 387.517 137.788 387.517H150.67C154.991 387.517 158.592 383.757 158.592 379.196V330.626ZM158.592 293.739C158.592 289.418 155.071 285.897 150.67 285.897H137.788C133.467 285.897 129.866 289.418 129.866 293.739V306.461C129.866 310.782 133.467 314.303 137.788 314.303H150.67C154.991 314.303 158.592 310.782 158.592 306.461V293.739ZM158.592 257.572C158.592 253.251 155.071 249.65 150.67 249.65H137.788C133.467 249.65 129.866 253.251 129.866 257.572V270.454C129.866 274.775 133.467 278.376 137.788 278.376H150.67C154.991 278.376 158.592 274.855 158.592 270.454V257.572ZM158.592 226.765C158.592 224.525 156.991 222.765 154.991 222.765H133.547C131.546 222.765 129.946 224.605 129.946 226.765V231.406C129.946 233.647 131.546 235.407 133.547 235.407H154.991C156.991 235.407 158.592 233.567 158.592 231.406V226.765ZM160.192 164.993H20.164V204.601H160.192V164.993ZM342.629 6.56131H99.6199V141.068H162.833C166.353 141.068 169.634 142.188 172.354 144.109H309.262V149.63H177.235C178.516 152.03 179.396 154.671 179.396 157.552V168.274H309.262V173.795H179.316V192.519H309.182V198.04H179.316V216.763H309.182V222.284H179.316V241.008H309.182V246.529H179.316V265.253H309.182V270.774H179.316V345.589H342.629V6.56131ZM130.346 171.874H126.425C125.865 173.395 124.825 174.755 123.385 175.875C121.944 176.995 120.504 177.796 119.304 178.196V182.597C121.704 181.796 123.785 180.596 125.545 178.916V197.159H130.346V171.874ZM140.028 174.515C138.348 176.595 137.548 180.036 137.548 184.757C137.548 189.638 138.268 192.999 139.788 194.839C141.308 196.759 143.309 197.64 145.709 197.64C148.19 197.64 150.03 196.759 151.47 195.079C153.151 192.999 153.951 189.558 153.951 184.757C153.951 179.956 153.151 176.515 151.47 174.515C150.11 172.755 148.19 171.874 145.709 171.874C143.309 171.874 141.388 172.755 140.028 174.515ZM147.309 176.515C147.79 176.915 148.11 177.636 148.43 178.756C148.75 179.876 148.91 181.876 148.91 184.837C148.91 187.798 148.75 189.878 148.43 191.158C148.19 192.118 147.79 192.759 147.389 193.159C146.909 193.559 146.429 193.719 145.789 193.719C145.229 193.719 144.669 193.559 144.269 193.159C143.789 192.759 143.469 192.038 143.149 190.918C142.829 189.798 142.669 187.798 142.669 184.837C142.669 181.876 142.829 179.796 143.149 178.516C143.389 177.556 143.789 176.915 144.189 176.515C144.669 176.115 145.149 175.955 145.789 175.955C146.349 175.955 146.829 176.115 147.309 176.515Z"/>
</svg>
