<?xml version="1.0" encoding="utf-8"?>
<!-- Generator: Adobe Illustrator 19.0.0, SVG Export Plug-In . SVG Version: 6.00 Build 0)  -->
<svg version="1.1" id="Layer_1" xmlns="http://www.w3.org/2000/svg" xmlns:xlink="http://www.w3.org/1999/xlink" x="0px" y="0px"
	 viewBox="-145.4 78.9 703.5 743.8" enable-background="new -145.4 78.9 703.5 743.8" xml:space="preserve">
<path fill="#AED15E" d="M-118,537.8c-13.6-36.5-32.9-88.1-26-156c2.4-24,13.8-105.9,79-172c21.4-21.6,39.6-32.4,76-54
	c43-25.4,108.5-63.4,200-74c48.6-5.6,88.2-1.7,108,1c39.8,5.4,68,14.9,74,17c29.7,10.2,59.5,24.9,78,38c89.5,63.3,87.2,211.7,87,219
	c-1.2,41.7-14.8,87.8-42,180c-9.5,32.3-16.9,53.4-21,65c-23,64.4-39.4,109.1-77,152c-23.1,26.4-42.3,38.5-52,44
	c-1.2,0.7-26,14.6-57,21c-66.4,13.8-140.7-10.8-174-24c-94.4-37.4-154.3-99.5-185-138C-91.7,604.5-111.2,555.9-118,537.8z"/>
<path fill="#84A42E" d="M516,536.8c20.2-68.5,32.9-111.6,38.6-146.3l-103.7-97.6l-30.9-6.1h-68L287,215l-122.3-6.5L146,235.8v28
	l-7,27l-136,1l-28,28.6l5.3,271.4l5.7,26.4l-6.6,5.6l176,178.5c38,13,98.5,27.9,153.6,16.5c31-6.4,55.8-20.3,57-21
	c9.7-5.5,28.9-17.6,52-44c37.6-42.9,54-87.6,77-152C499.1,590.2,506.5,569.1,516,536.8z"/>
<g>
	<g>
		<g>
			<g>
				<path fill="#FFFFFF" d="M321.7,404.9h-53.3v-53.3c0-5.9-4.8-10.7-10.7-10.7h-85.3c-5.9,0-10.7,4.8-10.7,10.7v53.3h-53.3
					c-5.9,0-10.7,4.8-10.7,10.7v85.3c0,5.9,4.8,10.7,10.7,10.7h53.3v53.3c0,5.9,4.8,10.7,10.7,10.7h85.3c5.9,0,10.7-4.8,10.7-10.7
					v-53.3h53.3c5.9,0,10.7-4.8,10.7-10.7v-85.3C332.3,409.7,327.6,404.9,321.7,404.9z M311,490.2h-53.3c-5.9,0-10.7,4.8-10.7,10.7
					v53.3h-64v-53.3c0-5.9-4.8-10.7-10.7-10.7H119v-64h53.3c5.9,0,10.7-4.8,10.7-10.7v-53.3h64v53.3c0,5.9,4.8,10.7,10.7,10.7H311
					V490.2z"/>
				<path fill="#FFFFFF" d="M409.6,276.9H300.3v-30.5c0-24.3-20.2-44.1-44.9-44.1h-84.6c-23.8,0-41.1,18.6-41.1,44.1v30.5H20.4
					c-33.9,0-61.4,27.5-61.4,61.4v239.8c0,33.9,27.5,61.4,61.4,61.4h389.1c33.9,0,61.4-27.5,61.4-61.4V338.3
					C471,304.4,443.5,276.9,409.6,276.9z M151,246.4c0-11.3,6.1-22.8,19.8-22.8h84.6c13,0,23.6,10.2,23.6,22.8v30.5H151V246.4z
					 M449.7,578.1c0,22.1-17.9,40.1-40.1,40.1H20.4c-22.1,0-40.1-18-40.1-40.1V338.3c0-22.1,18-40.1,40.1-40.1h389.1
					c22.1,0,40.1,18,40.1,40.1L449.7,578.1L449.7,578.1z"/>
			</g>
		</g>
	</g>
</g>
</svg>
