<svg width="448" height="401" viewBox="0 0 448 401"  xmlns="http://www.w3.org/2000/svg">
<path d="M20.949 2.7753C20.949 1.25336 19.6956 0 18.1737 0H2.77529C1.25336 0 0 1.25336 0 2.7753C0 4.29723 1.25336 5.55059 2.77529 5.55059H18.1737C19.7851 5.55059 20.949 4.29723 20.949 2.7753Z" transform="translate(7.10938 249.141)"/>
<path d="M14.7254 0.341806L1.38605 8.04101C0.0431706 8.75721 -0.404457 10.4582 0.401272 11.8011C0.938425 12.6963 1.83368 13.144 2.81846 13.144C3.26609 13.144 3.71372 13.0544 4.16134 12.7859L17.5006 5.08667C18.8435 4.37047 19.2912 2.66947 18.4854 1.32659C17.6797 0.0732347 16.0682 -0.374398 14.7254 0.341806Z" transform="translate(25.625 310.508)"/>
<path d="M1.38605 5.08666L14.7254 12.7858C15.173 13.0544 15.6206 13.144 16.0682 13.144C17.053 13.144 17.9483 12.6963 18.4854 11.8011C19.2016 10.4582 18.754 8.84672 17.5006 8.04099L4.16134 0.341809C2.81846 -0.374395 1.207 0.0732245 0.401272 1.32658C-0.404457 2.66946 0.0431706 4.37046 1.38605 5.08666Z" transform="translate(25.625 180.234)"/>
<path d="M2.81847 13.2034C3.2661 13.2034 3.71373 13.1139 4.16135 12.8453L17.5006 5.14613C18.8435 4.42992 19.2912 2.72893 18.4854 1.38605C17.7692 0.0431643 16.0682 -0.404455 14.7254 0.401275L1.38606 8.10046C0.0431744 8.81666 -0.404459 10.5177 0.401271 11.8605C0.938424 12.7558 1.83369 13.2034 2.81847 13.2034Z" transform="translate(251.172 180.156)"/>
<path d="M1.38606 18.426C1.83368 18.6945 2.28131 18.7841 2.72894 18.7841C3.71372 18.7841 4.60897 18.3364 5.14613 17.4412L12.8453 4.10189C13.5615 2.75901 13.1139 1.14754 11.8605 0.341806C10.5177 -0.374398 8.9062 0.0732347 8.10047 1.32659L0.401271 14.6659C-0.404459 16.0088 0.0431744 17.7098 1.38606 18.426Z" transform="translate(206.406 129.727)"/>
<path d="M2.77528 0C1.25335 0 0 1.25336 0 2.7753V18.1737C0 19.6956 1.25335 20.949 2.77528 20.949C4.29722 20.949 5.55058 19.6956 5.55058 18.1737V2.7753C5.46105 1.25336 4.20769 0 2.77528 0Z" transform="translate(145.156 371.719)"/>
<path d="M2.77528 20.949C4.29722 20.949 5.55058 19.6956 5.55058 18.1737V2.77528C5.55058 1.25335 4.29722 0 2.77528 0C1.25335 0 0 1.25335 0 2.77528V18.1737C0 19.6956 1.25335 20.949 2.77528 20.949Z" transform="translate(145.156 111.172)"/>
<path d="M8.18999 17.5007C8.72714 18.3959 9.6224 18.8435 10.6072 18.8435C11.0548 18.8435 11.5024 18.754 11.9501 18.4854C13.2929 17.7692 13.7406 16.0682 12.9348 14.7254L5.14612 1.38606C4.42992 0.0431744 2.72893 -0.404459 1.38605 0.401271C0.0431693 1.11748 -0.404457 2.81847 0.401273 4.16135L8.18999 17.5007Z" transform="translate(76.0156 129.688)"/>
<path d="M11.8011 0.341806C10.4582 -0.374398 8.84673 0.0732347 8.041 1.32659L0.341807 14.6659C-0.374397 16.0088 0.0732296 17.6202 1.32659 18.426C1.77421 18.6945 2.22184 18.7841 2.66947 18.7841C3.65425 18.7841 4.54951 18.3364 5.08666 17.4412L12.7859 4.10189C13.5021 2.75901 13.0544 1.05801 11.8011 0.341806Z" transform="translate(76.1719 355.352)"/>
<path d="M0 0V34.1092H340.645V0H0ZM99.0152 24.6195C94.8075 24.6195 91.4055 21.2175 91.4055 17.0098C91.4055 12.8021 94.8075 9.40018 99.0152 9.40018C103.223 9.40018 106.625 12.8021 106.625 17.0098C106.625 21.2175 103.223 24.6195 99.0152 24.6195ZM241.629 24.6195C237.422 24.6195 234.02 21.2175 234.02 17.0098C234.02 12.8021 237.422 9.40018 241.629 9.40018C245.837 9.40018 249.239 12.8021 249.239 17.0098C249.239 21.2175 245.837 24.6195 241.629 24.6195Z" transform="translate(106.953)"/>
<path d="M5.14613 1.38606C4.42992 0.0431744 2.72894 -0.404459 1.38606 0.401271C0.0431744 1.11748 -0.404459 2.81847 0.401271 4.16135L8.10047 17.5007C8.63762 18.3959 9.53288 18.8435 10.5177 18.8435C10.9653 18.8435 11.4129 18.754 11.8605 18.4854C13.2034 17.7692 13.6511 16.0682 12.8453 14.7254L5.14613 1.38606Z" transform="translate(206.328 355.273)"/>
<path d="M18.2632 0H2.7753C1.25336 0 0 1.25336 0 2.7753C0 4.29723 1.25336 5.55059 2.7753 5.55059H18.1737C19.6956 5.55059 20.949 4.29723 20.949 2.7753C20.949 1.25336 19.7851 0 18.2632 0Z" transform="translate(267.578 249.141)"/>
<path d="M17.4412 8.08077L4.10189 0.381572C2.75901 -0.424157 1.14754 0.113001 0.341806 1.36636C-0.374398 2.70924 0.0732347 4.32071 1.32659 5.12644L14.6659 12.8256C15.1135 13.0942 15.5611 13.1837 16.0088 13.1837C16.9936 13.1837 17.8888 12.7361 18.426 11.8409C19.2317 10.498 18.7841 8.8865 17.4412 8.08077Z" transform="translate(251.25 310.469)"/>
<path d="M112.713 69.1137C48.0752 84.8702 0 143.151 0 212.713C0 294.36 66.1593 360.519 147.896 360.519C198.299 360.519 242.704 335.273 269.472 296.867H441.898V0H112.713V69.1137ZM147.896 355.058C70.3671 355.058 7.34109 293.107 5.64011 216.025C5.64011 214.951 5.55058 213.787 5.55058 212.713C5.55058 211.638 5.64011 210.474 5.64011 209.4C7.43062 132.319 70.3671 70.3671 147.896 70.3671C226.5 70.3671 290.242 134.109 290.242 212.713C290.242 291.316 226.5 355.058 147.896 355.058ZM167.323 66.1594H180.842V68.5765C176.365 67.5918 171.889 66.786 167.323 66.1594ZM184.423 69.3823V66.1594H217.995V82.5425C207.52 76.8129 196.24 72.4261 184.423 69.3823ZM252.372 108.147H255.148V111.012C254.252 110.027 253.357 109.042 252.372 108.147ZM258.818 115.04V108.147H292.39V145.837H279.767C274.038 134.646 266.965 124.351 258.818 115.04ZM292.301 244.136V270.546H283.885C287.556 262.131 290.331 253.268 292.301 244.136ZM118.263 5.46106H436.437V291.406H272.963C276.455 285.944 279.499 280.215 282.274 274.217H407.341V62.4888H143.778V64.906C135.094 65.1746 126.5 66.0698 118.263 67.7708V5.46106ZM329.543 108.147V145.837H295.971V108.147H329.543ZM295.971 104.476V66.1594H329.543V104.476H295.971ZM329.543 149.508V187.198H295.971V149.508H329.543ZM329.543 190.868V228.559H295.971V190.868H329.543ZM329.543 232.229V270.546H295.971V232.229H329.543ZM366.697 108.147V145.837H333.124V108.147H366.697ZM333.124 104.476V66.1594H366.697V104.476H333.124ZM366.697 149.508V187.198H333.124V149.508H366.697ZM366.697 190.868V228.559H333.124V190.868H366.697ZM366.697 232.229V270.546H333.124V232.229H366.697ZM403.671 108.147V145.837H370.277V108.147H403.671ZM370.367 104.476V66.1594H403.76V104.476H370.367ZM403.671 149.508V187.198H370.277V149.508H403.671ZM403.671 190.868V228.559H370.277V190.868H403.671ZM403.671 232.229V270.546H370.277V232.229H403.671Z" transform="translate(0 39.4922)"/>
<path d="M118.353 0C53.0886 0 0 52.9991 0 118.263C0 183.438 53.0886 236.526 118.263 236.526C183.438 236.526 236.526 183.438 236.526 118.263C236.616 52.9991 183.527 0 118.353 0ZM199.284 168.845C198.657 168.845 198.03 168.666 197.493 168.397L130.976 129.812C127.842 133.214 123.366 135.452 118.353 135.452C108.863 135.452 101.164 127.753 101.164 118.353C101.164 110.116 106.983 103.312 114.682 101.611V46.6428C114.682 44.5837 116.294 42.9722 118.353 42.9722C120.412 42.9722 122.023 44.5837 122.023 46.6428V101.611C129.722 103.312 135.542 110.116 135.542 118.353C135.542 120.143 135.184 121.934 134.646 123.545L201.164 162.131C202.865 163.115 203.492 165.354 202.507 167.144C201.791 168.218 200.537 168.845 199.284 168.845Z" transform="translate(29.5312 133.945)"/>
</svg>
