<svg width="235" height="400" viewBox="0 0 235 400"  xmlns="http://www.w3.org/2000/svg">
<path d="M184.32 266.16L172.8 253.52L184.32 266.16ZM184.32 280.56L184.48 368.48C184.48 385.68 170.48 399.76 153.28 399.84L44.08 400C26.88 400 12.8 386 12.72 368.8L12.24 119.2C12.24 104.56 22.48 92.16 36.16 88.8L36.08 66.48H53.2L53.28 87.92L152.64 87.76C169.84 87.76 183.92 101.76 184 118.96L184.16 204.48L168.72 197.12L168.56 118.32L27.76 118.56L28.16 346.72L168.96 346.48L168.88 289.44L169.52 287.76L176 271.52L184.32 280.56ZM112.56 370.24C112.56 362.56 106.32 356.32 98.64 356.32C90.96 356.32 84.72 362.56 84.72 370.24C84.72 377.92 90.96 384.16 98.64 384.16C106.32 384.16 112.56 377.92 112.56 370.24ZM79.36 27.68L89.2 13.12C76.4 4.8 61.2 0 44.8 0C28.24 0 12.8 5.04 0 13.6L9.76 28.24C19.84 21.52 31.84 17.6 44.8 17.6C57.52 17.6 69.36 21.28 79.36 27.68ZM73.84 35.76C65.44 30.4 55.52 27.36 44.88 27.36C33.92 27.36 23.76 30.72 15.2 36.32L21.68 46.08C28.32 41.68 36.32 39.12 44.88 39.12C53.12 39.12 60.72 41.44 67.28 45.52L73.84 35.76ZM31.52 60.72C35.36 58.16 40 56.72 44.96 56.72C49.52 56.72 53.76 57.92 57.36 60.08L61.76 53.6C56.8 50.64 51.12 48.88 44.96 48.88C38.4 48.88 32.32 50.88 27.2 54.24L31.52 60.72ZM218.32 231.36L124.48 186.64L160.56 284.08L172.72 253.44L220.4 305.6L234.4 292.8L186.72 240.64L218.32 231.36Z"/>
</svg>
