<?xml version="1.0" encoding="iso-8859-1"?>
<!-- Generator: Adobe Illustrator 17.1.0, SVG Export Plug-In . SVG Version: 6.00 Build 0)  -->
<!DOCTYPE svg PUBLIC "-//W3C//DTD SVG 1.1//EN" "http://www.w3.org/Graphics/SVG/1.1/DTD/svg11.dtd">
<svg version="1.1" id="Capa_1" xmlns="http://www.w3.org/2000/svg" xmlns:xlink="http://www.w3.org/1999/xlink" x="0px" y="0px"
	 viewBox="0 0 510.903 510.903" style="enable-background:new 0 0 510.903 510.903;" xml:space="preserve">
<g>
	<path d="M470.085,486.716c0.018-0.074,0.034-0.148,0.052-0.223c0.088-0.38,0.171-0.761,0.244-1.146
		c0.027-0.139,0.05-0.28,0.075-0.42c0.059-0.333,0.117-0.667,0.166-1.003c0.03-0.205,0.053-0.412,0.079-0.619
		c0.035-0.282,0.072-0.564,0.1-0.849c0.028-0.287,0.046-0.577,0.066-0.866c0.015-0.215,0.035-0.428,0.045-0.644
		c0.025-0.512,0.039-1.027,0.039-1.545v-53.155c0-13.169-3.508-26.617-9.593-39.069c-1.106-2.264-2.298-4.496-3.569-6.686
		c-1.271-2.19-2.623-4.341-4.048-6.442c-1.425-2.102-2.924-4.156-4.492-6.154c-0.784-0.999-1.585-1.984-2.402-2.954
		c-11.443-13.581-26.103-24.237-42.066-29.345l-15.804-5.057l-23.387-7.484l-0.36-0.435c-0.001-0.002-0.003-0.003-0.005-0.005
		c-0.148-0.178-0.305-0.352-0.471-0.518l-18.633-18.633c-2.959-2.959-6.83-4.473-10.727-4.532c-0.211-2.206-0.366-4.517-0.449-6.932
		c-0.022-0.665-0.039-1.348-0.052-2.038c20.311-23.178,32.982-54.56,37.834-86.098c1.228-1.22,2.021-2.837,2.19-4.603l3.93-41.181
		c2.433-1.24,4.103-3.763,4.103-6.681V36.212c0-2.82-1.582-5.402-4.095-6.683c-77.271-39.372-169.536-39.372-246.81,0
		c-2.513,1.28-4.095,3.862-4.095,6.683v115.19c0,2.918,1.67,5.441,4.103,6.681l3.93,41.181c0.169,1.766,0.962,3.383,2.19,4.603
		c4.849,31.519,17.507,62.882,37.797,86.056c-0.077,3.211-0.253,6.198-0.538,9.01c-3.871,0.077-7.712,1.593-10.653,4.533
		l-18.633,18.633c-0.167,0.167-0.323,0.34-0.471,0.518c-0.001,0.001-0.003,0.003-0.005,0.005l-0.36,0.435l-39.192,12.541
		c-36.486,11.674-66.169,52.339-66.169,90.649v53.155c0,0.518,0.014,1.033,0.039,1.545c0.011,0.216,0.031,0.429,0.045,0.644
		c0.02,0.29,0.038,0.579,0.066,0.866c0.028,0.285,0.065,0.566,0.1,0.849c0.026,0.207,0.049,0.414,0.079,0.619
		c0.049,0.336,0.106,0.67,0.166,1.003c0.025,0.14,0.048,0.281,0.075,0.42c0.074,0.385,0.157,0.766,0.244,1.146
		c0.017,0.074,0.034,0.148,0.052,0.223c0.104,0.437,0.218,0.869,0.34,1.298c0,0.002,0.001,0.004,0.002,0.006
		c3.759,13.191,15.911,22.882,30.292,22.882h95.992c0.005,0,0.01,0.001,0.016,0.001c0.005,0,0.01-0.001,0.014-0.001h71.976
		c0.003,0,0.006,0,0.009,0c0.002,0,0.003,0,0.005,0h31.978c0.001,0,0.003,0,0.005,0c0.003,0,0.006,0,0.009,0h71.976
		c0.005,0,0.009,0.001,0.014,0.001c0.005,0,0.01-0.001,0.016-0.001h95.992c14.381,0,26.533-9.69,30.292-22.882
		c0.001-0.002,0.001-0.004,0.002-0.006C469.867,487.585,469.981,487.152,470.085,486.716z M278.57,495.902l-4.45-85.285
		c1.023-0.974,1.908-2.085,2.636-3.304l6.772,6.772c2.921,2.921,6.858,4.541,10.954,4.541c0.405,0,0.811-0.016,1.218-0.048
		c4.525-0.355,8.653-2.664,11.323-6.336l27.03-37.167l-43.958,120.827H278.57z M220.807,495.902l-43.958-120.827l27.03,37.167
		c2.67,3.672,6.798,5.98,11.323,6.336c0.407,0.032,0.813,0.048,1.218,0.048c4.096,0,8.033-1.619,10.954-4.541l6.772-6.772
		c0.728,1.219,1.613,2.331,2.636,3.304l-4.45,85.285H220.807z M142.915,390.663c-0.221-2.236-1.434-4.255-3.303-5.501
		l-16.431-10.954c-0.051-0.034-0.188-0.125-0.218-0.349c-0.03-0.224,0.078-0.348,0.119-0.395c0.042-0.047,0.082-0.095,0.122-0.144
		l25.682-31.049l55.853,153.347h-33.314l-49.281-78.624c-0.134-0.215-0.279-0.422-0.435-0.622c-0.155-0.199-0.137-0.483,0.041-0.661
		l19.006-19.006C142.344,395.116,143.137,392.899,142.915,390.663z M150.542,193.902l-3.34-35h10.894
		c-1.886,10.619-3.734,25.959-4.905,36.465L150.542,193.902z M155.821,213.965c1.128,0.625,2.379,0.938,3.63,0.938
		c1.195,0,2.39-0.285,3.481-0.856c2.233-1.17,3.729-3.385,3.981-5.893c1.475-14.666,4.243-38.132,6.407-49.25h164.261
		c2.165,11.118,4.932,34.585,6.407,49.25c0.252,2.508,1.748,4.723,3.981,5.893c1.091,0.571,2.286,0.856,3.481,0.856
		c1.251,0,2.502-0.313,3.63-0.938l0.544-0.301c-11.421,51.056-45.18,98.238-100.174,98.238s-88.753-47.182-100.174-98.238
		L155.821,213.965z M360.361,193.902l-2.649,1.465c-1.17-10.506-3.019-25.846-4.905-36.465h10.894L360.361,193.902z
		 M189.993,303.558c17.599,14.441,39.443,23.344,65.459,23.344c25.974,0,47.789-8.875,65.373-23.275
		c0.032,0.257,0.059,0.523,0.094,0.777c0.076,0.565,0.22,1.104,0.411,1.618l-65.878,59.291l-65.953-59.358
		c0.174-0.482,0.306-0.987,0.38-1.515C189.919,304.148,189.954,303.851,189.993,303.558z M247.452,399.902
		c-0.257,0-0.5-0.243-0.5-0.5v-4.894l8.5-8.5l8.5,8.5v4.894c0,0.257-0.243,0.5-0.5,0.5H247.452z M251.579,414.902h7.744l4.227,81
		h-16.197L251.579,414.902z M370.148,396.705l19.006,19.006c0.178,0.178,0.196,0.462,0.041,0.661c-0.155,0.2-0.3,0.407-0.435,0.622
		l-49.281,78.624h-33.314l55.853-153.347L387.7,373.32c0.04,0.048,0.081,0.097,0.122,0.144c0.041,0.047,0.148,0.171,0.119,0.395
		c-0.03,0.224-0.167,0.315-0.218,0.349l-16.431,10.954c-1.87,1.246-3.082,3.265-3.303,5.501
		C367.766,392.899,368.559,395.116,370.148,396.705z M455.952,426.247v53.155c0,0.536-0.03,1.065-0.081,1.588
		c-0.024,0.247-0.067,0.489-0.102,0.733c-0.037,0.262-0.071,0.524-0.12,0.782c-0.064,0.332-0.146,0.658-0.23,0.983
		c-0.038,0.149-0.073,0.3-0.115,0.447c-0.116,0.398-0.246,0.79-0.391,1.175c-0.019,0.052-0.038,0.104-0.058,0.157
		c-2.096,5.41-7.011,9.487-13.069,10.351h-84.604l44.119-70.389c4.5-6.137,3.871-14.712-1.541-20.124l-12.537-12.537l8.818-5.879
		c3.707-2.472,6.173-6.421,6.765-10.837c0.587-4.379-0.724-8.802-3.599-12.153l-15.901-19.224l16.904,5.409
		C430.426,359.552,455.952,394.521,455.952,426.247z M349.617,328.174l-54.724,75.245c-0.037,0.051-0.136,0.187-0.366,0.205
		c-0.219,0.021-0.348-0.101-0.393-0.145l-27.79-27.791l68.482-61.634c0.198-0.179,0.5-0.17,0.688,0.018L349.617,328.174z
		 M142.952,40.853c70.789-34.481,154.212-34.48,225,0v103.049h-225V40.853z M175.388,314.073c0.188-0.188,0.491-0.196,0.688-0.018
		l68.482,61.634l-27.79,27.791c-0.044,0.044-0.168,0.166-0.393,0.145c-0.23-0.019-0.329-0.154-0.366-0.205l-54.724-75.246
		L175.388,314.073z M54.952,426.247c0-31.726,25.526-66.695,55.741-76.363l16.904-5.409l-15.902,19.225
		c-2.875,3.351-4.186,7.773-3.599,12.153c0.592,4.416,3.058,8.365,6.765,10.837l8.818,5.879l-12.538,12.537
		c-5.411,5.412-6.04,13.987-1.54,20.124l44.119,70.389H69.117c-6.058-0.864-10.973-4.941-13.069-10.351
		c-0.02-0.052-0.038-0.104-0.058-0.157c-0.145-0.386-0.275-0.777-0.391-1.175c-0.042-0.147-0.077-0.298-0.115-0.447
		c-0.084-0.325-0.166-0.651-0.23-0.983c-0.049-0.257-0.083-0.52-0.12-0.782c-0.035-0.244-0.078-0.486-0.102-0.733
		c-0.05-0.523-0.081-1.052-0.081-1.588V426.247z"/>
	<path d="M287.452,71.902h-24.5v-24.5c0-4.142-3.358-7.5-7.5-7.5s-7.5,3.358-7.5,7.5v24.5h-24.5c-4.142,0-7.5,3.358-7.5,7.5
		s3.358,7.5,7.5,7.5h24.5v24.5c0,4.142,3.358,7.5,7.5,7.5s7.5-3.358,7.5-7.5v-24.5h24.5c4.142,0,7.5-3.358,7.5-7.5
		S291.594,71.902,287.452,71.902z"/>
</g>
<g>
</g>
<g>
</g>
<g>
</g>
<g>
</g>
<g>
</g>
<g>
</g>
<g>
</g>
<g>
</g>
<g>
</g>
<g>
</g>
<g>
</g>
<g>
</g>
<g>
</g>
<g>
</g>
<g>
</g>
</svg>
