<?xml version="1.0" encoding="utf-8"?>
<!-- Generator: Adobe Illustrator 19.0.0, SVG Export Plug-In . SVG Version: 6.00 Build 0)  -->
<svg version="1.1" id="Capa_1" xmlns="http://www.w3.org/2000/svg" xmlns:xlink="http://www.w3.org/1999/xlink" x="0px" y="0px"
	 viewBox="-139 90.2 736.9 756" enable-background="new -139 90.2 736.9 756" xml:space="preserve">
<path fill="#FFD679" d="M-138.4,426.4c-0.5-39.9-1.1-96.1,29-159c10.7-22.3,49.9-97.1,135.5-138.1c28-13.4,49.3-17.5,91.8-25.7
	c50.1-9.6,126.3-23.4,218-2c48.7,11.4,85.4,28.9,103.5,38.3c36.4,18.9,60.2,37.9,65.3,41.9c25,20.1,48.6,44.5,61.9,63.5
	c64.1,91.8,10.7,233.8,7.9,240.7c-15.5,39.7-44.6,79.3-102.7,158.6c-20.4,27.8-34.7,45.6-42.7,55.3c-44.4,54-75.7,91.3-126.6,119.6
	c-31.3,17.4-54,22.4-65.2,24.3c-1.4,0.2-30,5-62.1,0.5c-68.7-9.7-131.6-59.1-159.1-83.3c-77.9-68.6-114-149.1-130.2-196.7
	C-136.1,499.6-138.1,446.1-138.4,426.4z"/>
<path fill="#9FCB5C" d="M-108.2,549.3c-14.4-35-34.6-84.4-30.1-150.5c1.6-23.4,10.1-103.2,71.3-169.3c20.1-21.7,37.4-32.7,72-54.7
	c40.9-26,103.3-64.9,191.7-78c47-7,85.5-4.4,104.8-2.4c38.7,4,66.4,12.4,72.3,14.2c29.1,9,58.5,22.3,76.8,34.4
	c88.7,58.6,91.2,202.6,91.2,209.7c0.2,40.4-11.6,85.6-35.1,175.9c-8.2,31.6-14.7,52.4-18.3,63.7c-20.3,63.2-34.8,107.1-70,149.8
	c-21.6,26.3-39.9,38.6-49.1,44.3c-1.1,0.7-24.7,14.9-54.6,22.1c-64,15.4-136.8-6.1-169.5-17.9C52.4,757.5-7.6,699-38.6,662.7
	C-80.6,613.2-101.1,566.7-108.2,549.3z"/>
<path fill="#7DB95D" d="M541.8,352.1L377.3,207.8l-60.9,3.4h-34.6l-40-40.9l-82.5-2.5L137,211.2l-117.5,2.1l-1.8,72.3L19,633.8
	l-3.4,7.5l26.7,25.4l2,5.5l136.2,129.5c37,9.8,87.9,18,134.1,6.8c29.9-7.2,53.5-21.5,54.6-22.1c2-1.2,4.5-2.8,7.3-4.7
	c0.8-0.6,1.6-1.1,2.5-1.8c3.5-2.5,7.4-5.5,11.7-9.2c1.1-0.9,2.2-1.9,3.3-2.9c0.6-0.5,1.1-1,1.7-1.5c1.1-1.1,2.3-2.2,3.5-3.3
	c2.4-2.3,4.8-4.8,7.3-7.4c3.8-4,7.7-8.4,11.8-13.4c1.1-1.3,2.2-2.7,3.2-4c13.8-17.4,24.2-35.1,33.3-54.3c1.4-3,2.7-5.9,4.1-9
	c5.3-12.1,10.1-24.9,14.9-38.5c1.8-5.1,3.6-10.4,5.4-15.8c0.6-1.8,1.2-3.6,1.8-5.4c1.2-3.7,2.4-7.4,3.6-11.2
	c1.2-3.8,2.5-7.7,3.7-11.6c3.6-11.3,10.1-32.1,18.3-63.7c23.5-90.3,35.3-135.5,35.1-175.9C541.9,352.6,541.9,352.3,541.8,352.1z"/>
<path fill="#FFFFFF" d="M388.5,536.7h-8v-8.1c0-4.1-3.4-7.5-7.5-7.5s-7.5,3.4-7.5,7.5v8.1h-8c-4.1,0-7.5,3.4-7.5,7.5
	s3.4,7.5,7.5,7.5h8v8.1c0,4.1,3.4,7.5,7.5,7.5s7.5-3.4,7.5-7.5v-8.1h8c4.1,0,7.5-3.4,7.5-7.5S392.6,536.7,388.5,536.7z M380.5,344.3
	v-8.1h8c4.1,0,7.5-3.4,7.5-7.5s-3.4-7.5-7.5-7.5h-8v-8.1c0-4.1-3.4-7.5-7.5-7.5s-7.5,3.4-7.5,7.5v8.1h-8c-4.1,0-7.5,3.4-7.5,7.5
	s3.4,7.5,7.5,7.5h8v8.1c0,4.1,3.4,7.5,7.5,7.5S380.5,348.4,380.5,344.3z M383.4,498v-15.5c20.9-4.8,36.6-23.6,36.6-46.1
	s-15.7-41.3-36.6-46.1v-15.5c20.9-4.8,36.6-23.6,36.6-46.1s-15.7-41.3-36.6-46.1v-61.6c0-9.5-7.7-17.2-17.1-17.2H259.2l-14.5-29.3
	c-2.9-5.9-8.8-9.5-15.3-9.5h-65.2c-6.5,0-12.4,3.7-15.3,9.5l-14.5,29.3H27.1c-9.4,0-17.1,7.7-17.1,17.2v68.4c0,4.1,3.4,7.5,7.5,7.5
	s7.5-3.4,7.5-7.5v-68.4c0-1.2,1-2.2,2.1-2.2h73.3c-1.8,3.6-2.8,7.6-2.8,11.9c0,14.8,12,26.9,26.8,26.9H269
	c14.8,0,26.8-12.1,26.8-26.9c0-4.3-1-8.3-2.8-11.9h73.3c1.2,0,2.1,1,2.1,2.2v60.7c-23.8,2.3-42.4,22.6-42.4,47.1
	c0,24.5,18.6,44.7,42.4,47.1v13.6c-23.8,2.3-42.4,22.6-42.4,47.1s18.6,44.7,42.4,47.1v13.6c-23.8,2.3-42.4,22.6-42.4,47.1
	s18.6,44.7,42.4,47.1v37.4c0,1.2-1,2.2-2.1,2.2h-71c-4.1,0-7.5,3.4-7.5,7.5s3.4,7.5,7.5,7.5h44.2v13.9c0,1.2-1,2.2-2.1,2.2H56
	c-1.2,0-2.1-1-2.1-2.2v-13.9h213.4c4.1,0,7.5-3.4,7.5-7.5s-3.4-7.5-7.5-7.5H27.1c-1.2,0-2.1-1-2.1-2.2V317.8c0-4.1-3.4-7.5-7.5-7.5
	s-7.5,3.4-7.5,7.5v310.9c0,9.5,7.7,17.2,17.1,17.2h11.8v13.9c0,9.5,7.7,17.2,17.1,17.2h281.3c9.4,0,17.1-7.7,17.1-17.2v-13.9h11.8
	c9.4,0,17.1-7.7,17.1-17.2v-38.3c20.9-4.8,36.6-23.6,36.6-46.1C420,521.7,404.3,502.8,383.4,498z M269,242.5H124.4
	c-6.5,0-11.8-5.3-11.8-11.9s5.3-11.9,11.8-11.9h56.7c4.1,0,7.5-3.4,7.5-7.5c0-4.1-3.4-7.5-7.5-7.5H151l11.2-22.6
	c0.4-0.7,1.1-1.2,1.9-1.2h65.2c0.8,0,1.5,0.5,1.9,1.2l11.2,22.6h-34.5c-4.1,0-7.5,3.4-7.5,7.5s3.4,7.5,7.5,7.5h46.6c0,0,0,0,0,0
	c0,0,0,0,0,0H269c6.5,0,11.8,5.3,11.8,11.9C280.7,237.2,275.4,242.5,269,242.5z M341,328.7c0-17.8,14.4-32.3,32-32.3
	s32,14.5,32,32.3S390.6,361,373,361C355.4,361,341,346.5,341,328.7z M341,436.4c0-17.8,14.4-32.3,32-32.3s32,14.5,32,32.3
	s-14.4,32.3-32,32.3C355.4,468.7,341,454.2,341,436.4z M373,576.5c-17.6,0-32-14.5-32-32.3s14.4-32.3,32-32.3s32,14.5,32,32.3
	S390.6,576.5,373,576.5z M380.5,452v-8.1h8c4.1,0,7.5-3.4,7.5-7.5s-3.4-7.5-7.5-7.5h-8v-8.1c0-4.1-3.4-7.5-7.5-7.5s-7.5,3.4-7.5,7.5
	v8.1h-8c-4.1,0-7.5,3.4-7.5,7.5s3.4,7.5,7.5,7.5h8v8.1c0,4.1,3.4,7.5,7.5,7.5S380.5,456.2,380.5,452z M114.8,458.5h72.8
	c4.1,0,7.5-3.4,7.5-7.5s-3.4-7.5-7.5-7.5h-72.8c-4.1,0-7.5,3.4-7.5,7.5S110.7,458.5,114.8,458.5z M114.8,321.6h163.8
	c4.1,0,7.5-3.4,7.5-7.5s-3.4-7.5-7.5-7.5H114.8c-4.1,0-7.5,3.4-7.5,7.5C107.3,318.3,110.7,321.6,114.8,321.6z M114.8,537.1h163.8
	c4.1,0,7.5-3.4,7.5-7.5s-3.4-7.5-7.5-7.5H114.8c-4.1,0-7.5,3.4-7.5,7.5S110.7,537.1,114.8,537.1z M114.8,429.4h163.8
	c4.1,0,7.5-3.4,7.5-7.5s-3.4-7.5-7.5-7.5H114.8c-4.1,0-7.5,3.4-7.5,7.5S110.7,429.4,114.8,429.4z M114.8,566.2h133.9
	c4.1,0,7.5-3.4,7.5-7.5s-3.4-7.5-7.5-7.5H114.8c-4.1,0-7.5,3.4-7.5,7.5S110.7,566.2,114.8,566.2z M114.8,350.7h114.6
	c4.1,0,7.5-3.4,7.5-7.5s-3.4-7.5-7.5-7.5H114.8c-4.1,0-7.5,3.4-7.5,7.5S110.7,350.7,114.8,350.7z M75.3,321.6h4.8
	c4.1,0,7.5-3.4,7.5-7.5s-3.4-7.5-7.5-7.5h-4.8c-4.1,0-7.5,3.4-7.5,7.5S71.2,321.6,75.3,321.6z M75.3,429.4h4.8
	c4.1,0,7.5-3.4,7.5-7.5s-3.4-7.5-7.5-7.5h-4.8c-4.1,0-7.5,3.4-7.5,7.5S71.2,429.4,75.3,429.4z M75.3,537.1h4.8
	c4.1,0,7.5-3.4,7.5-7.5s-3.4-7.5-7.5-7.5h-4.8c-4.1,0-7.5,3.4-7.5,7.5S71.2,537.1,75.3,537.1z"/>
</svg>
