<?xml version="1.0" encoding="iso-8859-1"?>
<!-- Generator: Adobe Illustrator 17.1.0, SVG Export Plug-In . SVG Version: 6.00 Build 0)  -->
<!DOCTYPE svg PUBLIC "-//W3C//DTD SVG 1.1//EN" "http://www.w3.org/Graphics/SVG/1.1/DTD/svg11.dtd">
<svg version="1.1" id="Capa_1" xmlns="http://www.w3.org/2000/svg" xmlns:xlink="http://www.w3.org/1999/xlink" x="0px" y="0px"
	 viewBox="0 0 504 504" style="enable-background:new 0 0 504 504;" xml:space="preserve">
<g>
	<path d="M112,56c-4.418,0-8,3.582-8,8v16c0,4.418,3.582,8,8,8s8-3.582,8-8V64C120,59.582,116.418,56,112,56z"/>
	<path d="M432,0H104H88C65.944,0,48,17.944,48,40v24h-8c-4.418,0-8,3.582-8,8s3.582,8,8,8h8v24h-8c-4.418,0-8,3.582-8,8s3.582,8,8,8
		h8v24h-8c-4.418,0-8,3.582-8,8s3.582,8,8,8h8v24h-8c-4.418,0-8,3.582-8,8s3.582,8,8,8h8v24h-8c-4.418,0-8,3.582-8,8s3.582,8,8,8h8
		v24h-8c-4.418,0-8,3.582-8,8s3.582,8,8,8h8v24h-8c-4.418,0-8,3.582-8,8s3.582,8,8,8h8v24h-8c-4.418,0-8,3.582-8,8s3.582,8,8,8h8v24
		h-8c-4.418,0-8,3.582-8,8s3.582,8,8,8h8v24h-8c-4.418,0-8,3.582-8,8s3.582,8,8,8h8v24c0,22.056,17.944,40,40,40h16h328
		c22.056,0,40-17.944,40-40V40C472,17.944,454.056,0,432,0z M456,464c0,13.234-10.766,24-24,24H120V112c0-4.418-3.582-8-8-8
		s-8,3.582-8,8v376H88c-13.234,0-24-10.766-24-24v-24h8c4.418,0,8-3.582,8-8s-3.582-8-8-8h-8v-24h8c4.418,0,8-3.582,8-8
		s-3.582-8-8-8h-8v-24h8c4.418,0,8-3.582,8-8s-3.582-8-8-8h-8v-24h8c4.418,0,8-3.582,8-8s-3.582-8-8-8h-8v-24h8c4.418,0,8-3.582,8-8
		s-3.582-8-8-8h-8v-24h8c4.418,0,8-3.582,8-8s-3.582-8-8-8h-8v-24h8c4.418,0,8-3.582,8-8s-3.582-8-8-8h-8v-24h8c4.418,0,8-3.582,8-8
		s-3.582-8-8-8h-8v-24h8c4.418,0,8-3.582,8-8s-3.582-8-8-8h-8V80h8c4.418,0,8-3.582,8-8s-3.582-8-8-8h-8V40
		c0-13.234,10.766-24,24-24h16v16c0,4.418,3.582,8,8,8s8-3.582,8-8V16h312c13.234,0,24,10.766,24,24V464z"/>
	<path d="M381.292,323.539c-0.048-0.013-0.097-0.026-0.145-0.038l-37.288-9.47c-3.997-1.144-7.615-3.475-7.615-4.926l-0.029-22.892
		c10.562-13.756,16.351-31.055,16.351-49.078v-14.423c11.97-38.772,3.612-72.336-0.678-82.085c-0.012-0.027-0.027-0.051-0.039-0.077
		c-0.072-0.159-0.152-0.314-0.234-0.467c-0.046-0.085-0.089-0.172-0.137-0.255c-0.077-0.132-0.161-0.259-0.245-0.386
		c-0.065-0.099-0.128-0.199-0.197-0.294c-0.071-0.098-0.148-0.19-0.224-0.284c-0.091-0.114-0.181-0.229-0.277-0.337
		c-0.062-0.069-0.128-0.133-0.191-0.199c-0.117-0.123-0.235-0.246-0.359-0.36c-0.056-0.051-0.115-0.098-0.172-0.147
		c-0.137-0.119-0.274-0.237-0.418-0.346c-0.064-0.048-0.132-0.091-0.197-0.138c-0.141-0.1-0.283-0.2-0.43-0.291
		c-0.086-0.053-0.176-0.099-0.264-0.149c-0.132-0.074-0.263-0.151-0.398-0.218c-0.112-0.055-0.228-0.102-0.342-0.152
		c-0.118-0.051-0.234-0.105-0.354-0.151c-0.129-0.049-0.262-0.09-0.395-0.132c-0.112-0.036-0.222-0.075-0.336-0.106
		c-0.131-0.036-0.264-0.063-0.397-0.092c-0.122-0.027-0.243-0.056-0.366-0.078c-0.117-0.02-0.236-0.032-0.354-0.047
		c-0.146-0.019-0.291-0.038-0.438-0.048c-0.096-0.007-0.193-0.007-0.29-0.01c-0.173-0.006-0.345-0.01-0.519-0.005
		c-0.08,0.002-0.16,0.01-0.24,0.015c-0.189,0.012-0.378,0.027-0.567,0.052c-0.025,0.003-0.049,0.003-0.074,0.007
		c-9.342,1.334-20.539-1.347-32.393-4.184c-20.534-4.916-43.709-10.459-63.76,4.224c-19.246,1.466-32.93,17.6-32.93,39.458
		c0,16.345,7.699,45.81,9.331,51.872v8.05c0,18.775,6.102,36.212,16.019,49.662c-0.009,0.156-0.024,0.31-0.024,0.468l-0.03,23.66
		c0,1.44-3.618,3.771-7.616,4.916l-37.288,9.47c-0.048,0.012-0.097,0.025-0.145,0.038c-22.786,6.243-34.708,28.186-34.708,46.634
		v10.561c0,10.579,9.448,19.186,21.063,19.186l213.982-0.023c11.614,0,21.063-8.606,21.063-19.186v-10.561
		C416,351.725,404.078,329.782,381.292,323.539z M255.648,309.148l0.011-8.332c9.569,6.775,20.647,10.715,32.34,10.715
		c11.497,0,22.523-3.525,32.235-10.11l0.01,7.694c0,8.669,6.238,14.684,13.472,18.13c-11.326,11.022-27.991,17.584-45.704,17.584
		c-17.725,0-34.404-6.573-45.73-17.61C249.471,323.765,255.648,317.767,255.648,309.148z M230.352,175.427
		c0-17.403,10.669-23.578,19.806-23.578c0.039,0,0.076-0.005,0.115-0.006c0.224-0.003,0.448-0.012,0.671-0.034
		c0.088-0.009,0.174-0.025,0.261-0.037c0.172-0.023,0.345-0.045,0.516-0.079c0.108-0.021,0.212-0.051,0.318-0.076
		c0.147-0.036,0.294-0.069,0.44-0.113c0.117-0.035,0.23-0.079,0.344-0.12c0.131-0.046,0.262-0.09,0.391-0.143
		c0.124-0.051,0.244-0.111,0.365-0.169c0.114-0.054,0.228-0.104,0.34-0.164c0.14-0.075,0.275-0.159,0.41-0.242
		c0.087-0.053,0.176-0.102,0.262-0.159c0.18-0.12,0.352-0.25,0.522-0.385c0.035-0.028,0.073-0.051,0.108-0.08
		c14.399-11.764,32.71-7.38,52.097-2.738c10.242,2.452,20.762,4.971,30.896,4.971c0.277,0,0.553-0.009,0.83-0.013
		c2.657,9.28,5.478,26.788,2.359,47.648c-14.162-5.314-50.846-16.982-99.935-16.982c-0.022,0-0.043,0.003-0.064,0.003
		c-0.174,0.002-0.346,0.013-0.519,0.026c-0.098,0.007-0.197,0.01-0.294,0.021c-0.137,0.015-0.272,0.04-0.408,0.063
		c-0.13,0.021-0.262,0.039-0.39,0.066c-0.084,0.018-0.166,0.043-0.249,0.064c-0.174,0.043-0.348,0.086-0.518,0.14
		c-0.03,0.01-0.06,0.023-0.09,0.033c-0.216,0.072-0.429,0.15-0.636,0.239c-0.004,0.002-0.007,0.004-0.011,0.005
		c-0.231,0.1-0.456,0.21-0.674,0.33c-0.031,0.017-0.06,0.037-0.09,0.055c-0.189,0.107-0.375,0.218-0.554,0.34
		c-0.105,0.071-0.203,0.151-0.304,0.227c-0.1,0.075-0.203,0.146-0.299,0.226c-0.142,0.117-0.276,0.246-0.411,0.373
		c-0.05,0.048-0.104,0.092-0.153,0.141c-0.128,0.128-0.246,0.265-0.366,0.402c-0.051,0.058-0.105,0.113-0.154,0.173
		c-0.094,0.115-0.18,0.237-0.267,0.357c-0.068,0.093-0.139,0.183-0.203,0.279c-0.062,0.093-0.117,0.192-0.176,0.289
		c-0.081,0.133-0.163,0.266-0.236,0.404c-0.04,0.076-0.075,0.157-0.113,0.235c-0.081,0.165-0.159,0.33-0.229,0.501
		c-0.008,0.019-0.018,0.036-0.025,0.055c-0.104,0.262-0.783,1.987-1.746,4.697C231.146,186.165,230.352,179.98,230.352,175.427z
		 M239.683,232.133c0-10.58,4.654-25.434,7.348-33.149c44.464,0.861,77.791,11.802,89.535,16.23v6.222c0,0.027,0,0.054,0,0.081
		v15.619c0,31.654-22.241,58.396-48.567,58.396c-25.738,0-48.316-28.123-48.316-60.182V232.133z M400,380.734
		c0,1.504-2.165,3.186-5.063,3.186l-213.982,0.023c-2.897,0-5.062-1.682-5.062-3.186v-10.561c0-12.364,7.855-27.033,22.868-31.184
		l26.557-6.745c14.115,17.726,37.661,28.563,62.695,28.563c25.031,0,48.571-10.833,62.687-28.554l26.432,6.713
		c15.014,4.15,22.869,18.82,22.869,31.185V380.734z"/>
</g>
<g>
</g>
<g>
</g>
<g>
</g>
<g>
</g>
<g>
</g>
<g>
</g>
<g>
</g>
<g>
</g>
<g>
</g>
<g>
</g>
<g>
</g>
<g>
</g>
<g>
</g>
<g>
</g>
<g>
</g>
</svg>
