<?xml version="1.0" encoding="utf-8"?>
<!-- Generator: Adobe Illustrator 19.0.0, SVG Export Plug-In . SVG Version: 6.00 Build 0)  -->
<svg version="1.1" id="Layer_1" xmlns="http://www.w3.org/2000/svg" xmlns:xlink="http://www.w3.org/1999/xlink" x="0px" y="0px"
	 viewBox="-41 164.9 512 512" style="enable-background:new -41 164.9 512 512;" xml:space="preserve">
<path d="M342.6,582.9c-0.6,0-1.1-0.1-1.7-0.2c-4-0.9-6.6-4.9-5.6-9c0.1-0.4,8.6-38.7,5.4-83.5c-4.2-58.8-25.6-100.5-63.6-123.9
	c-51.6-31.8-84.2-80.1-102.5-115c-19.7-37.7-27.3-67.7-27.6-68.9c-1-4,1.5-8.1,5.5-9.1c4-1,8.1,1.5,9.1,5.5
	c0.1,0.5,7.6,29.9,26.5,66c17.4,33.1,48.3,78.9,96.8,108.8c23.4,14.4,41.4,35.4,53.5,62.2c9.5,21.2,15.3,46,17.3,73.8
	c3.3,47-5.4,85.9-5.8,87.5C349.1,580.6,346,582.9,342.6,582.9z"/>
<path d="M420.7,476.4c-3.7,0-6.9-2.7-7.4-6.5c0-0.3-4.3-29.9-19.4-64.2c-13.8-31.2-39.8-72.8-85.2-94c-49.2-23-80.9-57.9-98.8-83.2
	c-19.5-27.4-27.3-49.3-27.6-50.2c-1.4-3.9,0.7-8.2,4.6-9.6c3.9-1.4,8.2,0.7,9.6,4.6c0.1,0.4,7.7,21.3,26,46.9
	c16.9,23.6,46.6,56.3,92.7,77.8c39.4,18.4,71.5,53.7,92.8,102c15.9,36.1,20.2,66.5,20.4,67.8c0.6,4.1-2.3,7.9-6.4,8.5
	C421.4,476.3,421.1,476.4,420.7,476.4z"/>
<path d="M196.3,559.6c-6.6,0-10.6-0.4-11.3-0.4c-4.1-0.4-7.2-4-6.8-8.2c0.4-4.1,4-7.2,8.2-6.8l0,0c0.7,0.1,67.2,5.6,120.9-35.2
	c3.3-2.5,8-1.9,10.5,1.4c2.5,3.3,1.9,8-1.4,10.5C271,555.5,218.9,559.6,196.3,559.6z"/>
<path d="M206.4,329.8C206.4,329.8,206.4,329.8,206.4,329.8c-33.6-0.1-51.4-6.2-55.9-19.1c-5.5-15.8,13.6-31.8,15.8-33.6
	c3.2-2.6,8-2.1,10.5,1.2c2.6,3.2,2.1,7.9-1.1,10.5l0,0c-5.4,4.4-12.5,12.9-11.1,16.9c0.3,0.9,4.2,9,41.7,9.1c4.1,0,7.5,3.4,7.5,7.5
	C213.9,326.5,210.6,329.8,206.4,329.8z"/>
<path d="M82.7,450.9c-1.3,0-2.6-0.3-3.8-1.1C75,447.5,40.4,427,34.2,422c-2.1-1.7-3.3-4-3.5-6.8c-0.5-7,6-14.8,20-29.7
	c2.4-2.6,5.5-5.8,7.4-8.1c-2.4-2.7-6.9-6.9-10.1-9.9c-10.1-9.4-15.4-14.6-16.4-19.9c-1.5-8.5,6.3-14.7,52.7-41.3
	c7.3-4.2,13.5-7.8,17-10c8.1-5.2,9-9.7,12.1-32.4c0.6-4.6,1.4-9.8,2.3-15.8c5.8-38.3,34.2-52.9,35.4-53.5c3.7-1.9,8.2-0.4,10.1,3.4
	c1.8,3.7,0.4,8.2-3.3,10c-1,0.5-22.7,12.1-27.3,42.4c-0.9,5.9-1.6,11-2.2,15.6c-3.2,23.3-4.7,33.9-18.9,43
	c-3.7,2.4-10.1,6.1-17.6,10.3c-12.2,7-36,20.7-43.8,27.2c2.6,2.9,7.2,7.2,10.3,10c11.3,10.5,17.5,16.3,15.9,23.1
	c-0.9,3.6-3.9,7-12.4,16.1c-4.3,4.6-11.5,12.3-14.6,16.9c8.3,5.5,27.4,17,39.5,24.2c3.6,2.1,4.7,6.7,2.6,10.3
	C87.8,449.6,85.3,450.9,82.7,450.9z"/>
<path d="M189.3,674.3c-0.3,0-0.5,0-0.8,0c-4.1-0.4-7.1-4.1-6.7-8.2c5.4-53.1-6-74.7-16.5-87.7c-5.7-7-45.4-17.4-71.6-24.2
	c-27.3-7.1-50.8-13.3-61.2-19.5c-7.9-4.7-12.7-10.7-14.2-17.7c-2.6-12.2,5.5-23.5,11.3-31.8c0.8-1.1,1.6-2.3,2.3-3.3
	c4.6-6.8-1.2-25.4-3.7-33.4c-0.6-1.9-1.1-3.6-1.5-5c-1.1-4-0.6-7.9,1.5-11.3c4.1-6.9,12.9-9.4,14.7-9.8c4-1,8.1,1.5,9.1,5.5
	c1,4-1.5,8.1-5.5,9c-2,0.5-4.5,1.8-5.2,2.7c0.3,1.1,0.8,2.7,1.3,4.4c3.9,12.5,10.4,33.5,1.8,46.3c-0.8,1.1-1.6,2.3-2.5,3.5
	c-4.5,6.4-10.1,14.3-8.9,20.1c0.6,2.8,3,5.5,7.2,8c8.5,5.1,33.3,11.6,57.2,17.8c44,11.5,71.2,19.2,79.5,29.3
	c12.3,15.1,25.7,40,19.8,98.6C196.3,671.4,193.1,674.3,189.3,674.3z"/>
</svg>
