<?xml version="1.0" encoding="utf-8"?>
<!-- Generator: Adobe Illustrator 19.0.0, SVG Export Plug-In . SVG Version: 6.00 Build 0)  -->
<svg version="1.1" id="Capa_1" xmlns="http://www.w3.org/2000/svg" xmlns:xlink="http://www.w3.org/1999/xlink" x="0px" y="0px"
	 viewBox="-90 362 413.5 117.9" style="enable-background:new -90 362 413.5 117.9;" xml:space="preserve">
<path d="M-90,453.9v-63.5h45h0.6c15.8,0,33.3,9.6,33.3,31.9c0,22.4-15.9,31.6-34.5,31.6h-0.5L-90,453.9z M-68,405.9v31.9l19.2,0
	c8.4,0,13.4-7.2,13.4-16.3c0-7.6-5-15.5-13.4-15.5H-60H-68z"/>
<polygon points="30.2,390.8 56.5,390.8 68.2,406 104.5,363.8 111.7,363.8 17.7,480 8.5,480 56,421.9 "/>
<polygon points="120,363.8 128,363.8 82,421.9 107.7,453.5 81,453.5 68.7,437.5 34.7,480 25.5,480 "/>
<polygon points="247,453.8 247,390.7 273.8,390.7 299.2,427.3 299.2,390.7 323.5,390.7 323.5,453.8 296.2,453.8 270.7,417.1 
	270.7,453.8 "/>
<rect x="116.9" y="390.7" width="24.4" height="63.2"/>
<rect x="-2.8" y="390.7" width="24" height="63.2"/>
<g>
	<path d="M224.8,400c7.7,6.2,12.8,13.8,12.8,23.6s-5.3,17.1-13,23.3c-7.7,6.1-17.2,9.7-30,9.7c-12.9,0-22.8-3.8-30.4-9.9
		c-7.7-6.2-12.9-13.4-12.9-23.1c0-9.6,5.3-17.4,13-23.8c8.7-6.2,17.4-9.2,30.2-9.2C207.3,390.8,217.3,393.7,224.8,400z M176.6,423.8
		c0,11.3,8.8,18.4,17.8,18.4c8.7,0,18.4-6.4,18.4-18.7c0-11.3-9.2-18-17.8-18C186.4,405.4,176.6,411.5,176.6,423.8z"/>
</g>
<g>
	<path d="M-74.4,384.1h-3.1l-10-11.2v11.2H-90v-22h2.5v10.7l9.8-10.7h2.9l-9.6,10.7L-74.4,384.1z"/>
	<path d="M-56,384.1h-2.5v-19.7h-7L-66,368c-0.6,4.8-1.1,8.3-1.6,10.5c-0.5,2.2-1.1,3.8-1.8,4.6c-0.8,0.9-1.8,1.3-3,1.3
		c-0.7,0-1.4-0.1-2-0.4v-2.2c0.5,0.3,1.1,0.4,1.7,0.4c0.5,0,1-0.2,1.4-0.7c0.4-0.4,0.7-1.2,1-2.3c0.3-1.1,0.7-3.1,1.1-6.1
		c0.5-3,1-6.7,1.5-11.1H-56V384.1z"/>
	<path d="M-50,362.1h2.4v12.2c0,2.3-0.1,4.3-0.2,6.1h0.1l12.2-18.4h2.8v22h-2.4v-12.1c0-2,0.1-4.1,0.3-6.4h-0.1L-47.1,384h-2.8
		v-21.9H-50z"/>
	<path d="M-10.4,384.1h-2.5v-10.4h-11.4v10.4h-2.5v-22h2.5v9.4h11.4v-9.4h2.5V384.1z"/>
	<path d="M-4.4,362.1H-2v12.2c0,2.3-0.1,4.3-0.2,6.1h0.1L10.1,362h2.8v22h-2.4v-12.1c0-2,0.1-4.1,0.3-6.4h-0.1L-1.5,384h-2.8
		L-4.4,362.1L-4.4,362.1z"/>
	<path d="M34.3,384.1h-3.1l-10-11.2v11.2h-2.5v-22h2.5v10.7l9.8-10.7h2.9l-9.6,10.7L34.3,384.1z"/>
	<path d="M50.9,384.1l-2.7-7h-8.7l-2.7,7h-2.6l8.6-22.1h2.1l8.5,22.1H50.9z M47.4,374.8l-2.5-6.8c-0.3-0.9-0.7-1.9-1-3.2
		c-0.2,1-0.5,2-0.9,3.2l-2.6,6.8H47.4z"/>
</g>
</svg>
