<?xml version="1.0" encoding="utf-8"?>
<!-- Generator: Adobe Illustrator 19.0.0, SVG Export Plug-In . SVG Version: 6.00 Build 0)  -->
<svg version="1.1" id="Capa_1" xmlns="http://www.w3.org/2000/svg" xmlns:xlink="http://www.w3.org/1999/xlink" x="0px" y="0px"
	 viewBox="-150 310.9 413.5 117.9" style="enable-background:new -150 310.9 413.5 117.9;" xml:space="preserve">
<path d="M-150,402.7v-63.5h45l0.6,0.1c10.2,1.2,29.4,9.4,29.4,31.7c0,22.4-20,30.5-30.6,31.6l-0.5,0.1L-150,402.7z M-130,359.2v23.4
	l22.7,0c2.8-0.4,12.4-2.6,12.4-11.7c0-4.4-1.7-7.3-5.4-9.5c-2.5-1.5-5.1-2.1-6-2.3H-130z"/>
<polygon points="-29.8,339.6 -3.5,339.6 8.2,354.8 44.5,312.6 51.7,312.6 -42.3,428.8 -51.5,428.8 -4,370.7 "/>
<polygon points="60,312.6 68,312.6 22,370.7 47.7,402.3 21,402.3 8.7,386.3 -25.3,428.8 -34.5,428.8 "/>
<polygon points="187,402.6 187,339.5 213.8,339.5 239.2,376.1 239.2,339.5 263.5,339.5 263.5,402.6 236.2,402.6 210.7,365.9 
	210.7,402.6 "/>
<rect x="56.9" y="339.5" width="24.4" height="63.2"/>
<rect x="-62.8" y="339.5" width="24" height="63.2"/>
<g>
	<path d="M165.3,348.4c7.7,6.2,11.4,14.1,11.4,23.9s-3.9,17.8-11.6,24c-7.7,6.1-17.8,9.2-30.6,9.2c-12.9,0-23.4-3.1-31-9.2
		c-7.7-6.2-11.4-14.3-11.4-24c0-9.6,3.9-17.5,11.6-23.9c7.8-6.4,18.1-9.5,30.9-9.5C147.5,339,157.8,342.1,165.3,348.4z M120.8,372
		c0,8.6,5.1,14,14.1,14c8.7,0,14.2-5.6,14.2-14c0-7.8-5.6-13.4-14.2-13.4C126.4,358.6,120.8,364.5,120.8,372z"/>
</g>
</svg>
