<?xml version="1.0" encoding="utf-8"?>
<!-- Generator: Adobe Illustrator 19.0.0, SVG Export Plug-In . SVG Version: 6.00 Build 0)  -->
<svg version="1.1" id="Layer_1" xmlns="http://www.w3.org/2000/svg" xmlns:xlink="http://www.w3.org/1999/xlink" x="0px" y="0px"
	 viewBox="136.3 259.9 322.7 322.7" style="enable-background:new 136.3 259.9 322.7 322.7;" xml:space="preserve">

<g>
	<g>
		<path class="st0" d="M418,533c5.4,0,10.1,0,14.7,0c3.5,0,6.2,1.7,5.5,5.1c-0.4,2-3.2,4.8-5.1,4.9c-6.6,0.6-13.3,0.3-20,0.2
			c-3.8-0.1-5.7-2.4-5.7-6.1c-0.1-4.1,0-8.2,0-12.3c0-56.6,0-113.2,0-169.9c0-2.3,0-4.6,0-7.7c-12.2,0-23.9,0-35.6,0
			c-4.5,0-9,0.1-13.5,0c-6.9-0.1-8.5-1.6-8.5-8.8c0-13.9,0-27.8,0-41.8c0-2.1,0-4.2,0-6.8c-67.5,0-134.5,0-202.5,0
			c0,2.4,0,4.9,0,7.3c0,79.2,0,158.4,0,237.6c0,13.2,5.5,18.5,19.2,18.4c65.5,0,131-0.1,196.4-0.1c22.3,0,44.7,0,67,0.1
			c12.7,0,18.4-5.5,18.5-18c0-70.6,0-141.2,0-211.7c0-1.9,0-3.9,0-6.7c-10.7,0-21,0.1-31.3,0c-4.3,0-10.3,1.6-10.5-5
			c-0.2-6.7,6-5.4,10.2-5.5c11.4-0.2,22.7-0.1,34.1-0.1c6.6,0,8.1,1.6,8.1,8.5c0,74.1,0,148.2,0,222.3c0,15.9-11.1,26.8-27.2,26.8
			c-67.2,0-134.5,0-201.7,0c-21.8,0-43.5,0-65.3,0c-17.9,0-28.4-10.5-28.4-28.5c0-82.1,0-164.3,0-246.4c0-9.3,0.6-9.9,10.1-9.9
			c68,0,136.1,0.1,204.1-0.1c4.7,0,8,1.4,11.3,4.7c17.1,17.3,34.2,34.5,51.5,51.6c3.2,3.2,4.4,6.4,4.4,10.9c-0.1,60-0.1,120-0.1,180
			C418,528.1,418,530.1,418,533z M397.3,336.6c-12.1-12.4-24.4-25-36.6-37.5c0,12.3,0,24.7,0,37.5
			C373.5,336.6,385.8,336.6,397.3,336.6z"/>
		<path class="st0" d="M188.4,428.5c0,16.7,0,33.3,0,50.4c20.9,0,41.5,0,63.1,0c0-6.3,0-12.7,0-19.1c0-3.7,0.1-7.6,5.1-7.6
			c4.9,0,5.1,3.9,5.1,7.6c0,7.6-0.1,15.3,0,22.9c0.1,4.8-1.8,7.2-6.9,7.2c-23.3-0.1-46.6-0.1-70,0c-5.3,0-7.3-2.3-7.2-7.5
			c0.1-19.2,0.2-38.4,0-57.6c0-5.6,2.9-7.3,7.6-7.3c23.2,0.1,46.4,0.3,69.6,0.3c4.9,0,7.3,2.1,7.3,7c0,3.5,0.7,7.3-0.2,10.5
			c-0.7,2.4-3.4,5.4-5.7,5.9c-3.5,0.8-5-2.5-4.6-5.8c0.9-7-2.5-7.4-8.4-7.2C225.2,428.8,207,428.5,188.4,428.5z"/>
		<path class="st0" d="M277.3,397.2c-30,0-60,0-90,0c-1.6,0-3.5,0.5-4.6-0.2c-1.9-1.2-4.5-3.2-4.5-4.9c0-1.7,2.5-3.8,4.4-5
			c1.3-0.8,3.4-0.3,5.2-0.3c59.8,0,119.6,0,179.4,0c0.6,0,1.2,0,1.8,0c3.8,0,7.6,0.4,7.6,5.2c0,4.8-3.8,5.1-7.6,5.1
			C338.5,397.1,307.8,397.2,277.3,397.2z"/>
		<path class="st0" d="M277.3,354.6c4.5-3.4,8.8-6.4,12.9-9.8c3.4-2.9,6.5-3,10-0.2c4.9,3.9,9.9,7.6,15,11.4c3,2.3,4.7,5,2.1,8.4
			c-2.5,3.2-5.4,2.2-8.2,0c-4.3-3.3-8.7-6.6-13.6-10.2c-4.3,3.2-8.8,6.3-13,9.8c-3.7,3.1-6.8,2.9-10.4-0.1c-4-3.4-8.4-6.4-12.7-9.7
			c-4.6,3.5-9,6.8-13.3,10.1c-2.9,2.2-6.2,3.5-8.7,0c-2.3-3.3-0.5-6.2,2.5-8.5c4.9-3.6,9.7-7.3,14.5-11c3.4-2.7,6.5-2.9,10,0
			C268.3,348.1,272.6,351.1,277.3,354.6z"/>
		<path class="st0" d="M334.6,448.6c11.5,0,23.1,0,34.6,0c3.9,0,7.4,0.7,7.3,5.4c-0.1,4.3-3.4,5.2-7.1,5.2c-23.3,0-46.6,0-69.9,0
			c-3.7,0-6.9-1-6.7-5.4s3.3-5.1,7.1-5.1C311.5,448.7,323.1,448.6,334.6,448.6L334.6,448.6z"/>
		<path class="st0" d="M335,489.9c-11.4,0-22.7,0-34.1,0c-3.9,0-8-0.1-7.9-5.4c0.1-4.8,3.8-5.2,7.6-5.2c22.9,0,45.8,0,68.7,0
			c3.9,0,7.4,0.8,7.4,5.5c-0.1,4.8-3.8,5.1-7.6,5.1C357.6,489.8,346.3,489.9,335,489.9z"/>
		<path class="st0" d="M334.3,520.6c-11.5,0-23.1,0-34.6,0c-3.8,0-6.8-0.8-6.8-5.3c0-4.1,3-5.1,6.5-5.1c23.5,0,47-0.1,70.5,0
			c3.6,0,6.9,1,6.8,5.4c-0.1,4.4-3.4,5-7.1,5C357.8,520.6,346,520.6,334.3,520.6z"/>
		<path class="st0" d="M220.2,520.6c-11.7,0-23.5,0-35.2,0c-3.7,0-7-0.6-7.1-5c-0.1-4.3,3.2-5.5,6.8-5.5c23.5,0,47,0,70.5,0
			c3.4,0,6.5,1,6.5,5.1c0,4.4-3,5.3-6.8,5.3C243.3,520.6,231.8,520.6,220.2,520.6L220.2,520.6z"/>
		<path class="st0" d="M363.3,428.2c-16.5,0-33.1,0-49.6,0c-4.8,0-9.7-0.4-14.4,0c-4.2,0.3-5.8-1.6-5.9-5.3c-0.1-3.6,1.6-5,5.4-4.9
			c20.7,0.2,41.4,0.1,62.1,0.1c2.9,0,5.9-0.2,8.8-0.4c3.9-0.3,6.8,1.3,7.1,5.2c0.3,4.2-3.2,4.9-6.4,5.3
			C367.8,428.3,365.5,428.2,363.3,428.2z"/>
	</g>
</g>
</svg>
