<svg width="92" height="92" viewBox="0 0 92 92" xmlns="http://www.w3.org/2000/svg">
<path d="M33.1512 44.9C33.1512 44.1 33.8512 43.4 34.6512 43.4H50.6512C51.4512 43.4 52.1512 44.1 52.1512 44.9C52.1512 45.7 51.4512 46.4 50.6512 46.4H34.6512C33.8512 46.4 33.1512 45.7 33.1512 44.9ZM28.1512 28.9C28.1512 28.1 28.8512 27.4 29.6512 27.4H30.6512C31.4512 27.4 32.1512 28.1 32.1512 28.9C32.1512 29.7 31.4512 30.4 30.6512 30.4H29.6512C28.8512 30.4 28.1512 29.7 28.1512 28.9ZM28.1512 59.9C28.1512 59.1 28.8512 58.4 29.6512 58.4H50.6512C51.4512 58.4 52.1512 59.1 52.1512 59.9C52.1512 60.7 51.4512 61.4 50.6512 61.4H29.6512C28.8512 61.4 28.1512 60.7 28.1512 59.9ZM68.1512 10.3H63.1512V6.50001C63.1512 5.10001 62.2512 3.4 60.3512 3.4H39.6512C38.8512 3.4 38.1512 4.1 38.1512 4.9C38.1512 5.7 38.8512 6.4 39.6512 6.4H60.1512V6.50001V11.3V11.4H43.2512C42.4512 11.4 41.7512 12.1 41.7512 12.9C41.7512 13.7 42.4512 14.4 43.2512 14.4H60.4512C61.3512 14.4 62.0512 13.9 62.5512 13.3H68.2512C68.6512 13.3 68.9512 13.6 68.9512 14V79.5C68.9512 79.9 68.6512 80.2 68.2512 80.2H44.2512C43.4512 80.2 42.7512 80.9 42.7512 81.7C42.7512 82.5 43.4512 83.2 44.2512 83.2H68.2512C70.3512 83.2 71.9512 81.5 71.9512 79.5V14C71.9512 12 70.2512 10.3 68.1512 10.3ZM18.0512 58.4C17.2512 58.4 16.5512 59.1 16.5512 59.9V79.6C16.5512 80.4 17.2512 81.1 18.0512 81.1C18.8512 81.1 19.5512 80.4 19.5512 79.6V59.9C19.5512 59.1 18.9512 58.4 18.0512 58.4ZM52.1512 28.9C52.1512 28.1 51.4512 27.4 50.6512 27.4H41.6512C40.8512 27.4 40.1512 28.1 40.1512 28.9C40.1512 29.7 40.8512 30.4 41.6512 30.4H50.6512C51.4512 30.4 52.1512 29.7 52.1512 28.9ZM32.6512 11.4H28.1512V8.9C28.1512 8.1 27.4512 7.4 26.6512 7.4C25.8512 7.4 25.1512 8.1 25.1512 8.9V10.3H20.3512C18.2512 10.3 16.6512 12 16.6512 14V43.1C16.6512 43.9 17.3512 44.6 18.1512 44.6C18.9512 44.6 19.6512 43.9 19.6512 43.1V14C19.6512 13.6 19.9512 13.3 20.3512 13.3H25.6512C26.0512 14 26.8512 14.4 27.7512 14.4H32.7512C33.5512 14.4 34.2512 13.7 34.2512 12.9C34.2512 12.1 33.4512 11.4 32.6512 11.4ZM63.4512 25.6C64.0512 26.2 64.0512 27.1 63.4512 27.7L58.9512 32.2C58.3512 32.8 57.4512 32.8 56.8512 32.2L54.6512 30C54.0512 29.4 54.0512 28.5 54.6512 27.9C55.2512 27.3 56.1512 27.3 56.7512 27.9L57.9512 29.1L61.3512 25.7C61.9512 25.1 62.9512 25.1 63.4512 25.6ZM63.4512 41.3C64.0512 41.9 64.0512 42.8 63.4512 43.4L58.9512 47.9C58.3512 48.5 57.4512 48.5 56.8512 47.9L54.6512 45.7C54.0512 45.1 54.0512 44.2 54.6512 43.6C55.2512 43 56.1512 43 56.7512 43.6L57.9512 44.8L61.3512 41.4C61.9512 40.7 62.9512 40.7 63.4512 41.3ZM63.4512 56.2C64.0512 56.8 64.0512 57.7 63.4512 58.3L58.9512 62.8C58.3512 63.4 57.4512 63.4 56.8512 62.8L54.6512 60.6C54.0512 60 54.0512 59.1 54.6512 58.5C55.2512 57.9 56.1512 57.9 56.7512 58.5L57.9512 59.7L61.3512 56.3C61.9512 55.6 62.9512 55.6 63.4512 56.2ZM38.8512 12.9C38.1512 9.5 36.7512 6.90001 34.5512 5.00001C33.1512 3.80001 31.3512 2.90001 29.4512 2.50001C29.0512 1.80001 28.1512 1.3 27.3512 1.1C25.3512 0.599997 24.8512 1.99999 24.6512 2.79999C24.3512 4.19999 24.8512 5.10001 26.3512 5.50001C27.1512 5.70001 27.9512 5.7 28.5512 5.4C30.0512 5.7 31.4512 6.29999 32.5512 7.29999C34.2512 8.69999 35.3512 10.8 35.8512 13.5C36.6512 17.6 35.7512 23.5 33.2512 30.3C31.2512 35.6 28.9512 39.9 27.5512 41.9C27.4512 42 27.4512 42.1 27.4512 42.1C21.4512 48 16.9512 48.5 13.8512 47.2C10.5512 45.9 8.05124 42.4 6.75124 39.5C6.75124 39.4 6.65123 39.3 6.55123 39.2C5.65123 36.9 4.35123 32.2 3.55123 26.6C2.65123 19.5 3.05124 13.5 4.75124 9.7C5.85124 7.2 7.45125 5.4 9.35125 4.4C10.5512 3.8 11.8512 3.50001 13.2512 3.50001C13.8512 4.10001 14.7512 4.4 15.7512 4.4C17.2512 4.4 17.9512 3.7 17.9512 2.2C17.9512 1.5 17.7512 6.10352e-06 15.7512 6.10352e-06C15.0512 6.10352e-06 14.3512 0.200006 13.7512 0.500006C11.7512 0.400006 9.75123 0.799994 7.95123 1.79999C5.45123 3.09999 3.45123 5.4 1.95123 8.6C-0.548775 14.1 -0.148775 21.7 0.451225 27.1C1.25123 33 2.55124 37.9 3.65124 40.4C3.75124 40.6 3.75125 40.7 3.85125 40.8C5.25125 44 8.15123 48.3 12.5512 50.1C13.0512 50.3 13.5512 50.4 14.0512 50.6V50.9V51C13.4512 54.5 12.5512 58.8 8.45123 66.4C7.55123 68 6.95123 70.6 7.05123 72.8C7.15123 73.9 7.35123 75.1 8.05123 76C8.75123 77 9.95125 77.6 11.3512 77.5C12.1512 77.4 12.7512 76.7 12.7512 75.9C12.6512 75.1 11.9512 74.5 11.1512 74.5C10.7512 74.5 10.5512 74.4 10.4512 74.2C10.2512 73.9 10.0512 73.4 10.0512 72.5C9.95123 70.8 10.4512 68.8 11.0512 67.7C15.3512 59.7 16.2512 55 16.9512 51.5L17.0512 50.9C20.7512 50.8 24.9512 48.8 29.4512 44.3C29.5512 44.2 29.6512 44 29.7512 43.9L29.8512 43.8C31.4512 41.5 33.8512 37.1 35.9512 31.5C38.0512 26.2 40.0512 18.8 38.8512 12.9ZM30.6512 76.9C28.4512 76.9 26.6512 78.7 26.6512 80.9C26.6512 83.1 28.4512 84.9 30.6512 84.9C32.8512 84.9 34.6512 83.1 34.6512 80.9C34.6512 78.7 32.8512 76.9 30.6512 76.9ZM30.6512 81.9C30.0512 81.9 29.6512 81.5 29.6512 80.9C29.6512 80.3 30.0512 79.9 30.6512 79.9C31.2512 79.9 31.6512 80.3 31.6512 80.9C31.6512 81.5 31.2512 81.9 30.6512 81.9ZM83.9512 79.7C82.7512 78.5 79.2512 76.8 76.8512 75.9C76.0512 75.6 75.2512 76 74.9512 76.8C74.6512 77.6 75.0512 78.4 75.8512 78.7C78.0512 79.5 81.1512 81.1 81.9512 81.9C82.7512 82.6 82.8512 83.2 82.7512 83.5C82.6512 83.9 82.3512 84.6 81.3512 85.3C80.3512 86 78.8512 86.7 76.9512 87.3C69.1512 89.7 55.1512 89.9 39.7512 84.1C39.6512 84.1 39.5512 84 39.4512 84C39.7512 83.2 39.7512 82.4 39.8512 81.5C39.8512 81.3 39.8512 81.1 39.8512 80.9C39.8512 75.9 35.8512 71.9 30.8512 71.9C25.8512 71.9 21.8512 75.9 21.8512 80.9C21.8512 85.9 25.8512 89.9 30.8512 89.9C33.7512 89.9 36.2512 88.6 37.9512 86.5C38.1512 86.7 38.5512 86.8 38.7512 86.9C54.7512 93 69.4512 92.8 77.9512 90.2C80.0512 89.5 81.8512 88.7 83.2512 87.7C84.5512 86.7 85.6512 85.5 85.8512 84C85.8512 82.4 85.1512 80.9 83.9512 79.7ZM30.6512 86.9C27.3512 86.9 24.6512 84.2 24.6512 80.9C24.6512 77.6 27.3512 74.9 30.6512 74.9C33.9512 74.9 36.6512 77.6 36.6512 80.9C36.6512 84.2 33.9512 86.9 30.6512 86.9Z" transform="translate(2)" />
</svg>
