<?xml version="1.0" encoding="utf-8"?>
<!-- Generator: Adobe Illustrator 19.0.0, SVG Export Plug-In . SVG Version: 6.00 Build 0)  -->
<svg version="1.1" id="Layer_1" xmlns="http://www.w3.org/2000/svg" xmlns:xlink="http://www.w3.org/1999/xlink" x="0px" y="0px"
	 viewBox="116.3 239.9 362.7 362.7" style="enable-background:new 116.3 239.9 362.7 362.7;" xml:space="preserve">
<g>
	<path class="st0" d="M132,418.6c-11.4-5-16.1-13.8-15.8-25.9c0.4-14,0.1-28.1,0.1-42.1c0-15.6,9.8-25.4,25.4-25.4
		c33.6,0,67.3,0,100.9,0c1.3,0,2.6,0,4.9,0c-1.7-1.4-2.8-2.3-3.9-3.2c-13.8-11.1-23.5-25.1-28.8-42c-2.9-9.1-1-17.2,5.7-23.8
		c6.6-6.6,14.7-8.8,23.8-5.9c22.8,7.2,39.7,21.6,51.2,42.5c0.6,1.2,1.3,2.3,2.2,3.9c0.8-1.5,1.5-2.6,2.1-3.7
		c11.4-21,28.3-35.4,51.1-42.7c9.2-2.9,17.4-0.8,24.1,5.9c6.6,6.7,8.5,14.8,5.6,23.8c-5.3,16.8-14.9,30.6-28.6,41.7
		c-1.1,0.9-2.2,1.8-3.9,3.2c1.9,0.1,3.2,0.2,4.5,0.2c33.6,0,67.3,0,100.9,0c16,0,25.7,9.9,25.6,25.9c0,14.3-0.1,28.6,0,42.9
		c0.1,10.9-4.2,18.9-14,24c-1,0.5-1.7,2.5-1.7,3.8c-0.1,29.2-0.1,58.4-0.1,87.6c0,14.8,0,29.6,0,44.3c-0.1,22.1-17.5,39.7-39.6,39.7
		c-83.8,0.1-167.5,0.1-251.3,0c-23.2,0-40.2-17.3-40.2-40.6c0-43.2,0-86.5,0-129.7C132,421.5,132,420,132,418.6z M289.4,577.5
		c0-52.7,0-105,0-157.3c-47.3,0-94.4,0-141.7,0c0,1.4,0,2.5,0,3.6c0,42.7,0,85.4,0,128.2c0,15.7,9.9,25.5,25.7,25.5
		c37.2,0,74.4,0,111.6,0C286.4,577.5,287.9,577.5,289.4,577.5z M305.8,577.3c0.9,0.1,1.4,0.2,1.8,0.2c38.4,0,76.8,0,115.3,0
		c2.3,0,4.7-0.3,6.9-0.9c11-2.9,17.6-12.1,17.6-24.3c0-43,0-85.9,0-128.9c0-1.1-0.1-2.1-0.2-3.4c-47.2,0-94.2,0-141.4,0
		C305.8,472.5,305.8,524.7,305.8,577.3z M305.7,403.8c1.4,0.1,2.4,0.2,3.4,0.2c48.4,0,96.8,0,145.2,0c5.9,0,8.8-3,8.9-8.9
		c0-14.4,0-28.8,0-43.2c0-8.6-2.3-10.9-11-10.9c-43.6,0-87.2,0-130.8,0c-1.2,0-2.3,0.1-4.2,0.2c1.2,1.3,2,2.2,2.8,3.1
		c9.9,9.9,19.9,19.8,29.8,29.8c4.5,4.5,3.8,10.7-1.3,13.3c-3.3,1.6-6.8,0.9-10-2.3c-9.9-9.9-19.9-19.9-29.8-29.8
		c-0.8-0.8-1.7-1.5-2.9-2.6C305.7,370,305.7,386.7,305.7,403.8z M278,341.2c-1.3-0.2-1.7-0.3-2.2-0.3c-45.1,0-90.1,0-135.2,0
		c-5.7,0-8.5,3.1-8.6,8.8c0,14.9,0,29.8,0,44.7c0,6.6,2.9,9.5,9.4,9.5c47.9,0,95.8,0,143.7,0c1.4,0,2.8,0,4.2,0
		c0-17.3,0-34.1,0-51.4c-1.3,1.2-2.2,2-3.1,2.9c-9.8,9.7-19.5,19.5-29.3,29.2c-1.3,1.3-2.8,2.5-4.5,3.1c-3.4,1.2-7.1-0.3-8.9-3.4
		c-2-3.3-1.6-6.9,1.6-10.1c9.9-10,19.8-19.9,29.7-29.8C275.8,343.6,276.7,342.6,278,341.2z M305.2,324.4c2.4-0.1,3.2-0.1,4.1-0.3
		c27.5-5.7,46.3-21.6,55.8-48.1c1.2-3.3,1.1-6.3-1.5-8.9c-2.7-2.8-5.7-2.8-9.2-1.6c-19.7,6.7-33.9,19.6-42.5,38.4
		C309.1,310.2,307.5,317.1,305.2,324.4z M288.9,324.4c-0.1-1.5,0-2.5-0.2-3.4c-5.8-27.7-22-46.4-48.8-55.7c-3.1-1.1-5.8-0.5-8.2,1.8
		c-2.5,2.5-2.8,5.3-1.7,8.5c5.5,16.7,15.7,29.7,30.6,38.9C269.1,319.8,278.3,323.3,288.9,324.4z"/>
</g>
</svg>
