<?xml version="1.0" encoding="iso-8859-1"?>
<!-- Generator: Adobe Illustrator 19.0.0, SVG Export Plug-In . SVG Version: 6.00 Build 0)  -->
<svg version="1.1" id="Layer_1" xmlns="http://www.w3.org/2000/svg" xmlns:xlink="http://www.w3.org/1999/xlink" x="0px" y="0px"
	 viewBox="0 0 512.001 512.001" style="enable-background:new 0 0 512.001 512.001;" xml:space="preserve">
<g>
	<g>
		<path d="M511.938,315.26c-1.161-40.846-17.864-79.083-47.031-107.668c-26.725-26.191-61.316-41.757-98.226-44.444
			c2.349-43.822-19.269-86.008-56.901-109.512c-56.748-35.447-131.757-18.11-167.209,38.645c-2.686,4.301-1.377,9.965,2.923,12.651
			c4.302,2.685,9.965,1.378,12.652-2.922c30.088-48.168,93.744-62.884,141.906-32.799c32.139,20.073,50.526,56.201,48.265,93.642
			c-17.339,0.738-34.266,4.27-50.349,10.527c-13.089,5.105-25.466,11.974-36.788,20.416c-23.091,17.237-41.227,40.9-51.931,67.477
			l-108.327-67.634l32.054-51.328c2.686-4.302,1.377-9.965-2.925-12.651c-4.298-2.686-9.964-1.377-12.651,2.923L18.399,291.116
			c-35.451,56.741-18.121,131.75,38.635,167.21c19.318,12.06,41.509,18.434,64.176,18.434c32.857,0,64.719-13.51,87.417-37.065
			c3.518-3.651,3.411-9.463-0.24-12.982c-3.649-3.518-9.462-3.411-12.982,0.24c-19.256,19.983-46.299,31.444-74.195,31.444
			c-19.224,0-38.052-5.411-54.449-15.645C18.596,412.658,3.887,349,33.974,300.845l57.22-91.629l112.084,69.98
			c-3.906,14.616-5.673,29.714-5.234,44.982c0.766,26.996,8.496,53.432,22.358,76.448c28.454,47.24,79.722,76.107,134.617,76.107
			c1.476,0,2.96-0.021,4.441-0.062c18.11-0.52,35.789-4.09,52.557-10.613c13.102-5.11,25.479-11.984,36.786-20.427
			C489.785,415.051,513.388,366.314,511.938,315.26z M358.935,458.315c-49.95,1.411-96.997-24.32-122.803-67.163
			c-12.232-20.313-19.055-43.653-19.732-67.499c-0.449-15.619,1.698-31.025,6.384-45.804c7.602-24.063,22.052-45.979,41.153-62.681
			l46.433,83.822l84.974,153.393C383.576,455.952,371.375,457.958,358.935,458.315z M446.042,424.254l-11.173-20.17
			c-2.458-4.437-8.042-6.04-12.481-3.582c-4.435,2.457-6.039,8.046-3.582,12.481l12.471,22.511
			c-5.926,3.916-12.137,7.367-18.576,10.32l-86.265-155.722l-47.727-86.155c5.93-3.914,12.139-7.362,18.574-10.313L400.485,379.91
			c1.676,3.026,4.81,4.734,8.039,4.734c1.505,0,3.032-0.371,4.441-1.152c4.435-2.457,6.039-8.045,3.582-12.481L314.637,187.055
			c11.771-3.57,23.976-5.576,36.435-5.934c1.817-0.056,3.636-0.067,5.483-0.033c35.895,0.373,69.81,14.442,95.498,39.618
			c25.755,25.241,40.504,59.006,41.529,95.075C494.762,357.326,477.142,397.125,446.042,424.254z"/>
	</g>
</g>
<g>
</g>
<g>
</g>
<g>
</g>
<g>
</g>
<g>
</g>
<g>
</g>
<g>
</g>
<g>
</g>
<g>
</g>
<g>
</g>
<g>
</g>
<g>
</g>
<g>
</g>
<g>
</g>
<g>
</g>
</svg>
