<?xml version="1.0" encoding="iso-8859-1"?>
<!-- Generator: Adobe Illustrator 17.1.0, SVG Export Plug-In . SVG Version: 6.00 Build 0)  -->
<!DOCTYPE svg PUBLIC "-//W3C//DTD SVG 1.1//EN" "http://www.w3.org/Graphics/SVG/1.1/DTD/svg11.dtd">
<svg version="1.1" id="Capa_1" xmlns="http://www.w3.org/2000/svg" xmlns:xlink="http://www.w3.org/1999/xlink" x="0px" y="0px"
	 viewBox="0 0 389.476 389.476" style="enable-background:new 0 0 389.476 389.476;" xml:space="preserve">
<path d="M134.79,195.819v45.103c0,5.523,4.478,10,10,10h37.229v37.229c0,5.523,4.478,10,10,10h45.101c5.522,0,10-4.477,10-10
	v-37.229h37.23c5.522,0,10-4.477,10-10v-45.103c0-5.523-4.478-10-10-10h-37.23V148.59c0-5.523-4.478-10-10-10h-45.101
	c-5.522,0-10,4.477-10,10v37.229H144.79C139.267,185.819,134.79,190.296,134.79,195.819z M154.79,205.819h37.229
	c5.522,0,10-4.477,10-10V158.59h25.101v37.229c0,5.523,4.478,10,10,10h37.23v25.103h-37.23c-5.522,0-10,4.477-10,10v37.229h-25.101
	v-37.229c0-5.523-4.478-10-10-10H154.79V205.819z M343.477,0H45.999c-5.522,0-10,4.477-10,10v369.476c0,5.523,4.478,10,10,10
	h297.479c5.522,0,10-4.477,10-10V10C353.477,4.477,349,0,343.477,0z M134.856,20h26.163v43.871l-7.317-5.163
	c-1.728-1.219-3.746-1.829-5.765-1.829s-4.037,0.61-5.766,1.829l-7.315,5.162V20z M75.664,369.476H55.999V20h19.665V369.476z
	 M333.477,369.476H95.664V20h19.192v63.165c0,3.735,2.082,7.16,5.398,8.878c3.317,1.719,7.313,1.446,10.367-0.708l17.315-12.218
	l17.317,12.218c3.052,2.154,7.051,2.427,10.366,0.708c3.316-1.719,5.398-5.143,5.398-8.878V20h152.458V369.476z"/>
<g>
</g>
<g>
</g>
<g>
</g>
<g>
</g>
<g>
</g>
<g>
</g>
<g>
</g>
<g>
</g>
<g>
</g>
<g>
</g>
<g>
</g>
<g>
</g>
<g>
</g>
<g>
</g>
<g>
</g>
</svg>
