<?xml version="1.0" encoding="utf-8"?>
<!-- Generator: Adobe Illustrator 18.1.0, SVG Export Plug-In . SVG Version: 6.00 Build 0)  -->
<svg version="1.1" id="Layer_1" xmlns="http://www.w3.org/2000/svg" xmlns:xlink="http://www.w3.org/1999/xlink" x="0px" y="0px"
	 viewBox="0 0 64.2 64.2" enable-background="new 0 0 64.2 64.2" xml:space="preserve">
<g>
	<path d="M44.8,42.9c0,0,0-0.1,0-0.1c0-0.1,0-0.1-0.1-0.1c0,0,0,0,0-0.1l-6.9-9.7c-0.2-0.3-0.7-0.4-1.1-0.2
		c-0.3,0.2-0.4,0.7-0.2,1.1l6.1,8.5H21.6l6.1-8.5c0.2-0.3,0.2-0.8-0.2-1.1c-0.3-0.2-0.8-0.2-1.1,0.2l-6.9,9.7c0,0,0,0.1,0,0.1
		c0,0,0,0.1-0.1,0.1c0,0.1,0,0.1,0,0.2c0,0,0,0.1,0,0.1V49c0,0.4,0.3,0.8,0.8,0.8h23.9c0.4,0,0.8-0.3,0.8-0.8L44.8,42.9
		C44.8,42.9,44.8,42.9,44.8,42.9z M43.3,48.3H20.9v-4.5h22.4V48.3z"/>
	<path d="M24.5,33.4c-0.8-1.3-1.2-2.8-1.2-4.4c0-4.8,3.9-8.8,8.8-8.8c4.8,0,8.8,3.9,8.8,8.8c0,1.6-0.4,3.1-1.2,4.4
		l1.8,2.5c1.4-1.9,2.3-4.3,2.3-6.9c0-6.4-5.2-11.6-11.6-11.6c-6.4,0-11.6,5.2-11.6,11.6c0,2.6,0.8,4.9,2.3,6.9L24.5,33.4z"/>
	<g>
		<path d="M38.9,53.3H25.3c-0.4,0-0.8-0.3-0.8-0.8v-1.7h1.5v0.9h12v-0.9h1.5v1.7C39.7,53,39.3,53.3,38.9,53.3z"/>
	</g>
	<g>
		<path  d="M35.6,34.6h-7c-0.2,0-0.4-0.2-0.4-0.4v-3c0-0.2,0.2-0.4,0.4-0.4h7c0.2,0,0.4,0.2,0.4,0.4v3
			C36,34.4,35.8,34.6,35.6,34.6z M29,33.8h6.3v-2.2H29V33.8z"/>
	</g>
	<g>
		<path  d="M49.4,47.1h-3.6v-1.5h2.9V29c0-9.1-7.4-16.6-16.6-16.6c-9.1,0-16.6,7.4-16.6,16.6v16.6h2.9v1.5h-3.6
			c-0.4,0-0.8-0.3-0.8-0.8V29c0-10,8.1-18.1,18.1-18.1c10,0,18.1,8.1,18.1,18.1v17.3C50.2,46.7,49.9,47.1,49.4,47.1z"/>
	</g>
</g>
</svg>
