<?xml version="1.0" encoding="utf-8"?>
<!-- Generator: Adobe Illustrator 18.1.0, SVG Export Plug-In . SVG Version: 6.00 Build 0)  -->
<svg version="1.1" id="Layer_1" xmlns="http://www.w3.org/2000/svg" xmlns:xlink="http://www.w3.org/1999/xlink" x="0px" y="0px"
	 viewBox="0 0 64.2 64.2" enable-background="new 0 0 64.2 64.2" xml:space="preserve">
<g>
	<rect x="28.2" y="34.9" width="1.8" height="4.2"/>
	<g>
		<polygon points="30.9,11.1 31.1,7.5 26.4,7.7 26.7,11.1 		"/>
		<polygon points="27.3,21.4 28.2,34.1 30.2,34.1 30.6,21.4 		"/>
	</g>
	<path d="M34.4,16.1L34,15.9L32.9,17H32c0-0.2,0-0.5,0-0.7c0-0.9-0.7-1.8-1.5-2.4l0.1-1.7h-3.9l0.1,1.6
		c-0.8,0.6-1.4,1.5-1.4,2.5c0,1.2,0.7,2.2,1.7,2.7l0.1,1.8h3.3l0.6-1.9c0.4-0.2,0.5-0.6,0.7-0.9l2.5,0.4V16.1z M29.2,17.1
		c-0.7,0-1.3-0.6-1.3-1.3c0-0.7,0.6-1.3,1.3-1.3c0.7,0,1.3,0.6,1.3,1.3C30.5,16.5,29.9,17.1,29.2,17.1z"/>
	<g>
		<path d="M27,49.9c-0.1,0-2.9,1-7.4-1.6c-4.5-2.6-9.6-13.6-6.9-20.1c1.9-4.8,4.6-9.3,10.4-11.6l-0.6-2.1
			c-6.7,2.6-9.7,7.8-11.8,12.9c-3.2,7.8,2.6,19.8,7.9,22.8c5.4,3.2,9.1,1.8,9.2,1.8c0.6-0.2,0.8-0.8,0.6-1.4
			C28.2,50,27.5,49.7,27,49.9z"/>
		<path d="M54.5,33c-0.2-5.9-2.4-11-6.3-14.6c-3.6-3.4-8.6-5.3-14.3-5.6V15c10.9,0.6,18.1,7.5,18.4,18.1
			c0.4,10.1-4.8,17.1-12.7,17.5c-7.9,0.3-9.2-9.7-9.3-10.2c0,0,0-0.1,0-0.1h-2.1c0,0.1,0,0.2,0,0.4c0.5,4.2,3.5,12.1,11.1,12.1
			c0.2,0,0.3,0,0.5,0c4.4-0.2,8.2-2.2,10.9-5.7C53.3,43.5,54.6,38.6,54.5,33z"/>
	</g>
</g>
</svg>
