<?xml version="1.0" encoding="utf-8"?>
<!-- Generator: Adobe Illustrator 18.1.0, SVG Export Plug-In . SVG Version: 6.00 Build 0)  -->
<svg version="1.1" id="Layer_1" xmlns="http://www.w3.org/2000/svg" xmlns:xlink="http://www.w3.org/1999/xlink" x="0px" y="0px"
	 viewBox="0 0 64.2 64.2" enable-background="new 0 0 64.2 64.2" xml:space="preserve">
<g>
	<g>
		<path d="M26.4,45.4c-7.3,0-13.3-6-13.3-13.3s6-13.3,13.3-13.3c7.3,0,13.3,6,13.3,13.3S33.8,45.4,26.4,45.4z
			 M26.4,20.6c-6.3,0-11.5,5.1-11.5,11.5s5.1,11.5,11.5,11.5s11.5-5.1,11.5-11.5S32.8,20.6,26.4,20.6z"/>
	</g>
	<g>
		<path d="M26.4,36.5c-2.4,0-4.4-2-4.4-4.4c0-2.4,2-4.4,4.4-4.4c2.5,0,4.4,2,4.4,4.4C30.9,34.5,28.9,36.5,26.4,36.5z
			 M26.4,29.5c-1.4,0-2.6,1.2-2.6,2.6c0,1.4,1.2,2.6,2.6,2.6c1.4,0,2.6-1.2,2.6-2.6C29.1,30.7,27.9,29.5,26.4,29.5z"/>
	</g>
	<g>
		<path d="M36.4,32.6c-0.3,0-0.5-0.2-0.5-0.5c0-5.2-4.3-9.5-9.5-9.5c-0.3,0-0.5-0.2-0.5-0.5s0.2-0.5,0.5-0.5
			c5.8,0,10.5,4.7,10.5,10.5C36.9,32.4,36.7,32.6,36.4,32.6z"/>
	</g>
</g>
<g>
	<path d="M33.7,21c0.8,0.5,1.6,1.2,2.3,1.9c12.5,0.4,19.2,2.8,19.2,4.1c0,0.5-0.9,1.1-2.6,1.7
		c-3.4-1.2-8.4-2.1-14.3-2.4c0.3,0.6,0.6,1.2,0.8,1.9c3.9,0.3,7.4,0.8,10.2,1.5c-0.7,0.2-1.6,0.3-2.5,0.5c-0.4,0.1-0.7,0.1-1.1,0.2
		c-0.1,0-0.2,0-0.3,0c-1.8,0.3-3.8,0.5-5.8,0.6c0,0.4,0.1,0.8,0.1,1.2c0,0.2,0,0.4,0,0.7c3-0.2,5.8-0.5,8.2-1c3-0.5,5.6-1.3,7.3-2.3
		v3c0,1.3-5.6,3.7-16.4,4.4c-0.3,0.6-0.6,1.3-0.9,1.9C47,38.2,57,36.4,57,32.5V27C57,22.5,42.6,21.2,33.7,21z"/>
	<path d="M13.5,35.1c-3-0.9-4.5-1.8-4.5-2.5v-3c1.1,0.6,2.5,1.2,4.2,1.6c0.1-1.1,0.3-2.1,0.6-3.1
		c-0.8,0.2-1.6,0.4-2.2,0.7C9.9,28.1,9,27.5,9,27c0-0.8,2.4-1.9,6.8-2.8c0.6-0.8,1.3-1.6,2.1-2.2C12,22.9,7.1,24.4,7.1,27v5.5
		c0,2.1,2.9,3.6,7,4.6C13.9,36.5,13.7,35.8,13.5,35.1z"/>
</g>
</svg>
