<?xml version="1.0" encoding="utf-8"?>
<!-- Generator: Adobe Illustrator 18.1.0, SVG Export Plug-In . SVG Version: 6.00 Build 0)  -->
<svg version="1.1" id="Layer_1" xmlns="http://www.w3.org/2000/svg" xmlns:xlink="http://www.w3.org/1999/xlink" x="0px" y="0px"
	 viewBox="0 0 64.2 64.2" enable-background="new 0 0 64.2 64.2" xml:space="preserve">
<g>
	<g>
		<path d="M49.3,21c-0.5,1.7-1.6,2.9-2.7,4c-4.3,4.3-8.6,8.6-12.9,12.9c-0.9,0.9-1.8,1.3-3.1,1
			c-0.7-0.2-2.1,0.7-2.5,1.6c-1.8,4.1-5,6.3-9.3,6.8c-1.3,0.1-2.6-0.3-3.9-0.5c0-0.4,0-0.7,0-1.1c0.7-1.6,1.3-3.3,2.2-4.8
			c1.4-2.4,3.3-4.2,5.7-5.6c0.6-0.3,1.2-0.8,1.7-1.2c0.2-0.1,0.2-0.5,0.2-0.8c-0.4-1.2-0.2-2.3,0.7-3.2c3.1-3.2,6.3-6.3,9.4-9.5
			c1.7-1.7,3.3-3.4,5-4.9c3.3-2.9,8.3-1.3,9.3,3.1c0,0.1,0.1,0.1,0.1,0.2C49.3,19.5,49.3,20.2,49.3,21z M43.7,15.6
			c-1.2,0-2.2,0.4-3,1.2c-4.8,4.7-9.5,9.5-14.3,14.3c-0.6,0.6-0.7,1.4,0,2c1.3,1.3,2.6,2.6,3.9,3.9c0.7,0.7,1.4,0.7,2.2-0.1
			c4.7-4.7,9.4-9.4,14.2-14.2c1.2-1.3,1.6-2.9,0.9-4.6C46.9,16.7,45.3,15.6,43.7,15.6z M28.8,37.8c-1-1-1.9-2-2.8-2.9
			c-4.4,2.4-8.1,5.5-9.6,10.9c1.2-0.1,2.4,0,3.5-0.2c2.8-0.7,5.1-2.3,6.4-4.9C27,39.4,27.6,38.3,28.8,37.8z"/>
		<path d="M32.7,27.1c0.3,0.2,0.5,0.2,0.7,0.4c0.8,0.8,1.6,1.6,2.4,2.4c0.4,0.4,0.7,0.8,0.2,1.3
			c-0.5,0.4-0.9,0.1-1.2-0.3c-0.8-0.8-1.6-1.6-2.4-2.5c-0.2-0.2-0.2-0.6-0.2-0.9C32.2,27.4,32.5,27.3,32.7,27.1z"/>
		<path d="M38.3,28.5c0,0.7-0.7,1.1-1.1,0.7c-1-0.9-2-1.9-2.9-2.9c-0.1-0.2-0.1-0.7,0.1-0.9c0.2-0.2,0.7-0.2,0.9,0
			c1,0.9,1.9,1.8,2.8,2.8C38.2,28.2,38.3,28.4,38.3,28.5z"/>
		<path d="M30.7,29.2c0.3,0.2,0.5,0.3,0.7,0.4c0.8,0.8,1.6,1.6,2.4,2.4c0.4,0.4,0.6,0.8,0.2,1.3
			c-0.4,0.5-0.8,0.2-1.2-0.2c-0.8-0.8-1.7-1.6-2.4-2.5c-0.2-0.2-0.2-0.7-0.2-1C30.1,29.5,30.5,29.3,30.7,29.2z"/>
	</g>
	<g>
		<g>
			<path d="M23.7,50.9h-8c-0.4,0-0.8-0.4-0.8-0.8s0.4-0.8,0.8-0.8h8c0.4,0,0.8,0.4,0.8,0.8S24.2,50.9,23.7,50.9z"/>
		</g>
		<g>
			<path d="M36.3,50.9h-8.4c-0.4,0-0.8-0.4-0.8-0.8s0.4-0.8,0.8-0.8h8.4c0.4,0,0.8,0.4,0.8,0.8S36.7,50.9,36.3,50.9z
				"/>
		</g>
		<g>
			<path d="M48.5,50.9h-8c-0.4,0-0.8-0.4-0.8-0.8s0.4-0.8,0.8-0.8h8c0.4,0,0.8,0.4,0.8,0.8S48.9,50.9,48.5,50.9z"/>
		</g>
	</g>
</g>
</svg>
