<?xml version="1.0" encoding="utf-8"?>
<!-- Generator: Adobe Illustrator 18.1.0, SVG Export Plug-In . SVG Version: 6.00 Build 0)  -->
<svg version="1.1" id="Layer_1" xmlns="http://www.w3.org/2000/svg" xmlns:xlink="http://www.w3.org/1999/xlink" x="0px" y="0px"
	 viewBox="0 0 64.2 64.2" enable-background="new 0 0 64.2 64.2" xml:space="preserve">
<g>
	<path d="M33.6,47.4c0,0.8-0.1,1.6,0,2.2c0.2,1.2,1.2,1.9,2.6,2.1c1,0.1,1.6,0.7,1.5,1.6c-0.1,0.9-0.8,1.4-1.9,1.2
		c-3-0.3-5.1-2.7-5.1-5.7c0-0.5,0-0.9,0-1.5c-0.4,0-0.7,0-1,0c-2.1,0-4.2,0-6.3,0c-2.9,0-5.2-2.2-5.2-5.2c0-7.4,0-14.9,0-22.3
		c0-2.9,2-5,4.9-5.3c0.7-0.1,1.5-0.1,2.2,0c0.5,0,0.7-0.2,0.9-0.6c1-2.7,3.3-4.3,6-4.3c2.7,0,4.9,1.6,6,4.4c0.2,0.5,0.4,0.6,0.8,0.6
		c0.9,0,1.8,0,2.6,0.1c2.6,0.3,4.5,2.4,4.5,5c0,7.6,0,15.1,0,22.7c0,2.8-2.2,5-5,5c-2.1,0-4.3,0-6.4,0
		C34.2,47.4,33.9,47.4,33.6,47.4z M21,28.8c0,0.4-0.1,0.6-0.1,0.9c0,4,0,8.1,0,12.1c0,1.9,0.9,2.8,2.8,2.8c5.6,0,11.1,0,16.7,0
		c1.9,0,2.8-0.9,2.8-2.8c0-4,0-8.1,0-12.1c0-0.3,0-0.6-0.1-0.9C35.8,28.8,28.4,28.8,21,28.8z M43.2,25.9c0-2.2,0.1-4.3,0-6.5
		c-0.1-1.2-1-2-2.3-2c-1.2,0-2.5,0-3.7,0c-1,0-1.4-0.4-1.6-1.4c-0.1-0.4-0.1-0.8-0.2-1.2c-0.6-1.6-2-2.4-3.7-2.3
		c-1.6,0.2-2.8,1.4-3.1,3.1c-0.2,1.6-0.5,1.8-2.1,1.8c-1.1,0-2.2,0-3.3,0c-1.2,0-2.2,0.8-2.2,2c-0.1,2.2,0,4.3,0,6.5
		C28.4,25.9,35.7,25.9,43.2,25.9z"/>
	<path d="M38.1,42.3c-0.6,0-1.2,0-1.8,0c-0.8-0.1-1.3-0.6-1.3-1.4c0-0.7,0.5-1.3,1.3-1.4c1.2,0,2.4,0,3.5,0
		c0.8,0,1.3,0.7,1.3,1.4c0,0.7-0.6,1.3-1.3,1.4C39.2,42.3,38.6,42.3,38.1,42.3z"/>
	<path d="M38,33.2c-0.5,0-1.1,0-1.6,0c-0.8,0-1.4-0.6-1.4-1.3c0-0.8,0.5-1.4,1.4-1.4c1.1,0,2.1,0,3.2,0
		c0.9,0,1.5,0.6,1.5,1.4c0,0.8-0.6,1.4-1.5,1.4c-0.3,0-0.5,0-0.8,0C38.6,33.2,38.3,33.2,38,33.2C38,33.2,38,33.2,38,33.2z"/>
	<path d="M38,35c0.6,0,1.1,0,1.7,0c0.8,0,1.3,0.6,1.3,1.3c0,0.8-0.5,1.4-1.4,1.4c-1.1,0-2.3,0-3.4,0
		c-0.8,0-1.3-0.6-1.3-1.3c0-0.8,0.5-1.4,1.3-1.4C36.9,35,37.5,35,38,35z"/>
	<path d="M38,24.2c-0.6,0-1.2,0-1.8,0c-0.8-0.1-1.2-0.5-1.2-1.3c0-0.7,0.5-1.4,1.2-1.4c1.2-0.1,2.4-0.1,3.6,0
		c0.7,0,1.3,0.7,1.2,1.4c-0.1,0.7-0.5,1.2-1.2,1.3C39.2,24.2,38.6,24.2,38,24.2z"/>
	<path d="M33.7,16c0,0.9-0.7,1.7-1.6,1.7c-0.9,0-1.7-0.7-1.7-1.6c0-0.9,0.7-1.7,1.6-1.7C33,14.3,33.7,15,33.7,16z"/>
</g>
</svg>
