<?xml version="1.0" encoding="utf-8"?>
<!-- Generator: Adobe Illustrator 18.1.0, SVG Export Plug-In . SVG Version: 6.00 Build 0)  -->
<svg version="1.1" id="Layer_1" xmlns="http://www.w3.org/2000/svg" xmlns:xlink="http://www.w3.org/1999/xlink" x="0px" y="0px"
	 viewBox="0 0 64.2 64.2" enable-background="new 0 0 64.2 64.2" xml:space="preserve">
<g>
	<path d="M44.6,12.7c0.3,0.1,0.7,0.2,1,0.4c1.2,0.7,1.9,1.7,1.9,3.1c0,10.6,0,21.2,0,31.8c0,1.7-1,3-2.7,3.4
		c-0.1,0-0.1,0.1-0.2,0.1c-8.3,0-16.6,0-24.9,0c-0.3-0.1-0.7-0.2-1-0.4c-1.2-0.6-1.8-1.6-1.9-2.9c0-0.3,0-0.6,0-0.8
		c0-8.1,0-16.2,0-24.3c0-0.3,0.1-0.6,0.3-0.8c3.1-3.1,6.2-6.2,9.3-9.3c0.1-0.1,0.1-0.2,0.2-0.3C32.6,12.7,38.6,12.7,44.6,12.7z
		 M18.2,24.3c0,0.2,0,0.3,0,0.4c0,7.8,0,15.5,0,23.3c0,1.3,0.9,2.1,2.2,2.1c7.8,0,15.7,0,23.5,0c1.3,0,2.2-0.8,2.2-2.2
		c0-10.5,0-21.1,0-31.6c0-1.3-0.9-2.2-2.2-2.2c-5,0-10.1,0-15.1,0c-0.1,0-0.3,0-0.4,0c0,0.2,0,0.3,0,0.5c0,2.5,0,5,0,7.5
		c0,1.3-0.9,2.2-2.2,2.2c-2.5,0-5,0-7.5,0C18.5,24.3,18.4,24.3,18.2,24.3z M18.6,22.8c0.1,0,0.2,0,0.3,0c2.4,0,4.8,0,7.1,0
		c0.6,0,0.8-0.2,0.8-0.8c0-2.4,0-4.8,0-7.1c0-0.1,0-0.2,0-0.3C24.1,17.3,21.4,20.1,18.6,22.8z"/>
	<path d="M23,39.6c0-0.5,0-0.9,0-1.4c6.1,0,12.1,0,18.2,0c0,0.4,0,0.9,0,1.4C35.1,39.6,29.1,39.6,23,39.6z"/>
	<path d="M41.2,28.4c-6.1,0-12.1,0-18.2,0c0-0.4,0-0.9,0-1.3c6.1,0,12.1,0,18.2,0C41.2,27.5,41.2,27.9,41.2,28.4z"/>
	<path d="M41.2,34.5c0,0.5,0,0.9,0,1.4c-6.1,0-12.1,0-18.2,0c0-0.5,0-0.9,0-1.4C29.1,34.5,35.1,34.5,41.2,34.5z"/>
	<path d="M23,43.3c0-0.5,0-0.9,0-1.3c6.1,0,12.1,0,18.2,0c0,0.5,0,0.9,0,1.3C35.1,43.3,29.1,43.3,23,43.3z"/>
	<path d="M41.2,30.8c0,0.4,0,0.9,0,1.3c-6.1,0-12.1,0-18.2,0c0-0.4,0-0.9,0-1.3C29.1,30.8,35.1,30.8,41.2,30.8z"/>
</g>
</svg>
