<?xml version="1.0" encoding="utf-8"?>
<!-- Generator: Adobe Illustrator 18.1.0, SVG Export Plug-In . SVG Version: 6.00 Build 0)  -->
<svg version="1.1" id="Layer_1" xmlns="http://www.w3.org/2000/svg" xmlns:xlink="http://www.w3.org/1999/xlink" x="0px" y="0px"
	 viewBox="0 0 64.2 64.2" enable-background="new 0 0 64.2 64.2" xml:space="preserve">
<g>
	<path d="M21.3,51.2c-0.8,0-1.2-0.4-1.5-1.2c-0.6-2.2-1.2-4.5-1.8-6.7c-1.5-5.8-3.1-11.6-4.6-17.4
		c-0.3-1.1,0.1-1.7,1.1-2c8-2.1,15.9-4.3,23.9-6.4c1.2-0.3,1.7,0,2.1,1.2c2.1,8,4.3,16,6.4,24c0.3,1.1-0.1,1.7-1.1,1.9
		c-8,2.2-16.1,4.3-24.1,6.4C21.6,51.1,21.4,51.2,21.3,51.2z M28.8,34.5c-0.1,0-0.2,0.1-0.2,0.1c-1.8,0.5-3.6,1-5.4,1.5
		c-0.8,0.2-1.1,0.8-1,1.5c0.2,0.7,0.8,1,1.6,0.8c0.5-0.1,1-0.3,1.5-0.4c1.3-0.4,2.7-0.7,4.1-1.1c0.2,0.6,0.3,1.2,0.5,1.7
		c-1,0.6-1.9,1-2.7,1.6c-0.6,0.4-1.1,1-1.5,1.7c-0.5,0.8-0.3,1.7,0.5,2.2c0.4,0.3,0.9,0.5,1.3,0.6c1.4,0.4,2.8,0.3,4.2,0
		c2.1-0.4,4.1-1.1,5.7-2.4c0.5-0.4,1-1,1.3-1.6c0.5-0.8,0.2-1.6-0.6-2.2c-0.4-0.2-0.8-0.4-1.3-0.6c-1.1-0.3-2.3-0.3-3.5-0.1
		c-0.2,0-0.6,0-0.6-0.2c-0.2-0.5-0.3-1.1-0.4-1.6c0.7-0.2,1.3-0.3,1.9-0.5c1.3-0.3,2.6-0.7,3.9-1c0.7-0.2,1-0.8,0.9-1.4
		c-0.2-0.6-0.7-1-1.4-0.8c-0.2,0-0.5,0.1-0.7,0.2c-1.7,0.5-3.4,0.9-5.1,1.4c-0.2-0.9-0.4-1.7-0.7-2.6c1-0.3,1.9-0.5,2.9-0.8
		c1.3-0.3,2.6-0.7,3.9-1c0.6-0.2,0.9-0.6,0.9-1.2c0-0.5-0.4-1-1-1.1c-0.2,0-0.5,0-0.7,0.1c-1.9,0.5-3.8,1-5.8,1.5
		c-0.3,0.1-0.5,0.1-0.8,0.2c-0.2-0.9-0.4-1.7-0.7-2.5c0.2-0.1,0.3-0.1,0.5-0.1c1.7-0.5,3.5-0.9,5.2-1.4c0.8-0.2,1.1-0.8,1-1.5
		c-0.2-0.6-0.8-1-1.5-0.8c-4.7,1.3-9.5,2.5-14.2,3.8c-0.7,0.2-1.1,0.8-0.9,1.4c0.2,0.7,0.8,1,1.6,0.8c0.5-0.1,1.1-0.3,1.6-0.4
		c1.3-0.4,2.7-0.7,4-1.1c0.2,0.9,0.5,1.7,0.7,2.5c-0.1,0-0.2,0.1-0.3,0.1c-2.1,0.6-4.2,1.1-6.4,1.7c-0.6,0.2-0.9,0.5-1,1
		c-0.1,0.9,0.6,1.4,1.5,1.2c1.3-0.3,2.6-0.7,4-1.1c0.9-0.2,1.8-0.5,2.7-0.7c0.1,0.5,0.3,0.9,0.4,1.3C28.6,33.7,28.7,34.1,28.8,34.5z
		"/>
	<path d="M48.3,41c-1-3.6-1.9-7.2-2.9-10.7c-1.1-4-2.2-8.1-3.2-12.1c-0.5-2-2.1-2.8-4-2.3c-4.9,1.3-9.8,2.6-14.7,3.9
		c-0.2,0-0.3,0.1-0.6,0.1c0-0.2,0-0.4,0-0.5c0-1.6,0-3.1,0-4.7c0-1.3,0.4-1.7,1.7-1.7c4.9,0,9.8,0,14.7,0c3.2,0,6.4,0,9.6,0
		c0.2,0,0.4,0,0.6,0c1,0,1.5,0.5,1.5,1.5c0,1.6,0,3.2,0,4.9c0,6.7,0,13.3,0,20c0,1.2-0.4,1.7-1.7,1.7C48.9,41,48.6,41,48.3,41z"/>
	<path d="M32,42.5c-1,0-1.7-0.7-1.7-1.6c0-1,0.8-1.8,1.8-1.8c1,0,1.8,0.7,1.8,1.6C33.9,41.6,33,42.4,32,42.5z"/>
</g>
</svg>
