<?xml version="1.0" encoding="utf-8"?>
<!-- Generator: Adobe Illustrator 18.1.0, SVG Export Plug-In . SVG Version: 6.00 Build 0)  -->
<svg version="1.1" id="Layer_1" xmlns="http://www.w3.org/2000/svg" xmlns:xlink="http://www.w3.org/1999/xlink" x="0px" y="0px"
	 viewBox="0 0 64.2 64.2" enable-background="new 0 0 64.2 64.2" xml:space="preserve">
<g>
	<path d="M6.3,41.6c0-0.6,0-1.1,0-1.7c1.8,0,3.5,0.1,5.3,0.1c1.3,0,2.5,0,3.8,0c0-5.5,0-10.9,0-16.4
		c-3.1,0-6.1,0-9.1,0c0-0.5,0-1,0-1.5c5.3,0,10.5,0,15.8,0c2,0,3.9-0.7,5.3-2.3c1.6-1.8,3.2-3.5,4.9-5.1c1-0.9,2.1-1.6,3.2-2.4
		c0.5,0,1,0,1.5,0c2.7,1.5,3.2,3,1.7,5.8c-0.6,1.2-1.2,2.4-1.9,3.7c2,0,3.7,0,5.4,0c3.7,0,7.4-0.1,11.1,0.1c3,0.2,4,2,3.1,4.8
		c0,0.1,0,0.1,0,0.2c3.5,0.7,4.1,4.1,1.8,5.8c1.3,2.6,0.1,4.7-2.8,5c-0.7,0.1-1.4,0-2.1,0c0.1,2.3-0.7,3.3-2.8,3.6
		c-0.4,0.1-0.8,0.1-1.2,0.1c-8.4,0-16.9,0-25.3,0.1c-5.4,0-10.9,0-16.3,0C7.1,41.5,6.7,41.6,6.3,41.6z M47.3,27c1.8,0,3.5,0,5.1,0
		c0.6,0,1.2-0.1,1.7-0.2c0.8-0.2,1-0.8,1.1-1.6c0-0.8-0.3-1.3-1-1.5c-0.5-0.2-1-0.3-1.5-0.3c-2.9,0-5.8,0-8.6,0
		c-0.3,0-0.7,0.3-0.9,0.6c-0.5,1.1-0.8,2.3-1.2,3.4c-0.1,0.3-0.1,0.6,0,0.9c1.4,3.7,2.8,7.4,4.2,11.1c0.1,0.3,0.5,0.6,0.7,0.6
		c1.1,0,2.3,0,3.4-0.1c0.7-0.1,1.4-0.3,1.3-1.2c-0.1-0.9-0.8-0.8-1.4-0.8c-1.1,0-2.2,0-3.3,0c0-0.6,0-1,0-1.5c2.4,0,4.7,0,7.1,0
		c0.7,0,1.4-0.1,2.1-0.2c0.8-0.2,1.2-0.8,1.1-1.6c-0.1-0.9-0.7-1.2-1.5-1.3c-1.7,0-3.5,0-5.2,0c-1.1,0-2.2,0-3.3,0c0-0.6,0-1,0-1.5
		c2.6,0,5.2,0,7.8,0c0.6,0,1.3,0.1,1.9-0.1c0.5-0.2,1.1-0.6,1.2-1c0.2-0.7-0.1-1.4-0.9-1.7c-0.5-0.2-1.1-0.3-1.6-0.3
		c-2.1,0-4.2,0-6.3,0c-0.6,0-1.3,0-2,0C47.3,28,47.3,27.6,47.3,27z M41.8,23.4c-0.9,0-1.7-0.1-2.5,0c-0.4,0.1-0.9,0.3-1.2,0.6
		c-4.2,5-8.3,10.1-12.5,15.2c-0.2,0.2-0.3,0.5-0.6,0.8c0.4,0,0.7,0.1,0.9,0.1c3.1,0,6.2,0,9.3,0c0.8,0,1.1-0.3,1.3-1
		c1.6-4.7,3.2-9.4,4.8-14.2C41.5,24.4,41.6,24,41.8,23.4z M30.2,31.2c2-2.4,4.1-5,6.4-7.7c-0.9,0-1.5-0.1-2.2-0.1
		c0.2-0.4,0.3-0.7,0.5-1c0.9-1.8,1.9-3.6,2.8-5.4c0.5-0.9,0.4-1.7-0.3-2.4c-0.7-0.7-1.6-0.7-2.4-0.2c-0.4,0.3-0.8,0.6-1.2,1
		c-1.8,1.9-3.6,3.7-5.4,5.7c-1.3,1.4-2.8,2.2-4.7,2.6c-0.4,0.1-0.8,0.2-1.5,0.3C25,26.3,27.6,28.7,30.2,31.2z M18.1,23.8
		c1.9,4.9,3.8,9.8,5.7,14.8c1.8-2.1,3.5-4,5.2-5.9c-2.6-2.6-5.1-5.1-7.5-7.7C20.5,23.8,19.6,23.4,18.1,23.8z M17.2,25.4
		c-0.1,0-0.1,0-0.2,0c0,4.7,0,9.3,0,14c1.9,0,3.7,0,5.6,0C20.8,34.7,19,30.1,17.2,25.4z M37.8,39.9c2.4,0,4.7,0,7.1,0
		c-1.2-3.2-2.4-6.3-3.7-9.6C40,33.7,38.9,36.7,37.8,39.9z"/>
</g>
</svg>
