<?xml version="1.0" encoding="utf-8"?>
<!-- Generator: Adobe Illustrator 18.1.0, SVG Export Plug-In . SVG Version: 6.00 Build 0)  -->
<svg version="1.1" id="Layer_1" xmlns="http://www.w3.org/2000/svg" xmlns:xlink="http://www.w3.org/1999/xlink" x="0px" y="0px"
	 viewBox="0 0 64.2 64.2" enable-background="new 0 0 64.2 64.2" xml:space="preserve">
<g>
	<path d="M44.4,54.5c-0.9-1.9-1.3-3.8-1.3-5.7c0.1-3,1.3-5.7,2.6-7.8l0.4-0.7c0.7-1.2,1.3-2.3,1.9-3.6
		c1.2-2.9,1.5-5.5,0.8-8c-0.9-3.5-3.9-5.8-7.4-5.8c-0.3,0-0.6,0-1,0.1L39.8,23l0.1,0.6c0,0,0,0.1,0,0.1c0,0.1,0,0.3,0.1,0.5
		c1.3,3.7,1.9,7.1,1.9,10.3c0,7.9-5.6,14.4-13,15.2c-0.5,0.1-1,0.1-1.5,0.1c-7.3,0-13.4-5.3-14.5-12.7c-0.5-3.5-0.1-7.2,1.3-11.8
		c1.5-4.9,3.6-8.8,6.4-12c0.8-0.9,1.7-1.8,2.7-2.5c1.3-0.9,2.6-1.4,4-1.4c1.3,0,2.7,0.5,4,1.4c2.4,1.7,4.1,4.1,5.3,6
		c0.6,1,1.1,2,1.7,3.1c0.2,0.4,0.5,0.8,1.2,0.8c0.1,0,0.1,0,0.2,0c0.6-0.1,1.1-0.1,1.7-0.1c2.4,0,4.5,0.7,6.2,2
		c2.8,2.2,4.1,5.3,4,9.3c-0.1,3.1-1.1,6.1-3.2,9.5c-1,1.6-2,3.4-2.5,5.5c-0.5,2-0.3,4,0.6,6.2c0.1,0.2,0.2,0.4,0.2,0.5L44.4,54.5z
		 M27.3,13.7c-0.7,0-1.5,0.3-2.3,1.1c-0.7,0.6-1.3,1.3-1.8,2c-3.2,4.1-5.2,9-6,14.5c-0.3,1.9-0.5,4.1,0.1,6.3
		c1.3,4.6,5.1,7.8,9.6,7.9c0.1,0,0.2,0,0.3,0c4.5,0,8.3-2.9,9.8-7.3c0.6-1.8,0.6-3.6,0.5-5.2c-0.2-2.6-0.7-5.2-1.8-8.2l-0.3-0.7
		l-1.3,0.8c-0.5,0.3-1,0.6-1.5,0.9c-0.9,0.5-0.7,1.3-0.6,1.5c0.3,1.5,0,3-1,4.1c-0.9,1.1-2.2,1.8-3.7,1.8c-0.2,0-0.5,0-0.7-0.1
		c-2.2-0.3-3.9-2.1-4.1-4.2c-0.2-2.4,1.1-4.4,3.3-5.2c0.5-0.2,1-0.3,1.5-0.3c0.9,0,1.7,0.3,2.6,0.7l0.3,0.2l4.4-2.6l-0.3-0.5
		c-0.2-0.3-0.4-0.6-0.5-1c-0.4-0.7-0.8-1.4-1.3-2.1c-0.8-1.1-1.8-2.3-2.9-3.5C28.8,14,28,13.7,27.3,13.7z M27.3,25.1
		c-1.8,0-3.2,1.4-3.2,3.2c0,0.8,0.3,1.6,1,2.3c0.6,0.6,1.3,0.9,2,0.9h0c0.1,0,0.2,0,0.3,0c1.8,0,3.2-1.4,3.2-3.1
		c0-0.8-0.3-1.7-0.9-2.3C28.9,25.5,28.1,25.1,27.3,25.1L27.3,25.1z"/>
</g>
</svg>
