<?xml version="1.0" encoding="utf-8"?>
<!-- Generator: Adobe Illustrator 18.1.0, SVG Export Plug-In . SVG Version: 6.00 Build 0)  -->
<svg version="1.1" id="Layer_1" xmlns="http://www.w3.org/2000/svg" xmlns:xlink="http://www.w3.org/1999/xlink" x="0px" y="0px"
	 viewBox="0 0 64.2 64.2" enable-background="new 0 0 64.2 64.2" xml:space="preserve">
<g>
	<path d="M45.7,28.5c-0.1,0-0.2,0-0.3,0l-0.2,0c-0.8,0-1.5-0.2-2-0.4c-0.2,6-5.1,10.8-11.1,10.8
		c-6.2,0-11.2-5-11.2-11.2c0-6,4.7-10.9,10.6-11.1c0.1-0.3,0.1-0.5,0.2-0.8c0.2-0.5,0.6-1.1,1.2-1.7c-0.3,0-0.6,0-0.9,0
		c-7.5,0-13.7,6.1-13.7,13.7c0,7.1,5.5,13,12.4,13.6v5.9h-6.7c-0.7,0-1.3,0.6-1.3,1.3s0.6,1.3,1.3,1.3h6.7v6.7
		c0,0.7,0.6,1.3,1.3,1.3c0.7,0,1.3-0.6,1.3-1.3v-6.7h6.7c0.7,0,1.3-0.6,1.3-1.3s-0.6-1.3-1.3-1.3h-6.7v-5.9
		C40.1,40.8,45.4,35.3,45.7,28.5z"/>
	<path d="M41.5,26c-0.4,0.2-0.7,0.5-1.1,0.7c-0.6,0.4-1.2,0.6-1.9,0.8c-1.3,0.3-2.4-0.1-3.1-1.2
		c-0.4-0.6-0.5-1.2-0.6-1.9c-0.1-1,0.1-1.9,0.4-2.8c0-0.1,0-0.1,0-0.1c-0.4-0.4-0.9-0.7-1.2-1.1c-0.5-0.5-1-1.1-1.2-1.8
		c-0.7-1.6,0-3.3,1.6-4c1-0.4,2-0.5,3.1-0.5c0.1,0,0.2,0,0.2-0.2c0.4-1,0.9-2,1.7-2.9c0.5-0.5,1-0.9,1.7-1c0.8-0.1,1.5,0.1,2.2,0.7
		c0.7,0.6,1.2,1.3,1.6,2.1c0.2,0.4,0.3,0.7,0.5,1.1c0,0.1,0.1,0.1,0.2,0.1c0.9,0,1.9,0.1,2.8,0.4c0.6,0.2,1.2,0.5,1.6,1
		c0.5,0.6,0.7,1.3,0.6,2.1c-0.1,0.9-0.6,1.6-1.2,2.3c-0.4,0.5-0.9,0.9-1.4,1.4c-0.1,0.1-0.1,0.1-0.1,0.3c0.3,1,0.5,2,0.4,3.1
		c0,0.5-0.1,1-0.4,1.5c-0.4,0.8-1.2,1.1-2,1.2c-0.6,0-1.2-0.1-1.8-0.3C43.1,26.8,42.4,26.5,41.5,26C41.6,26,41.6,26,41.5,26z
		 M41.5,24.2c0.1,0.1,0.2,0.2,0.4,0.2c0.7,0.5,1.4,0.9,2.2,1.2c0.5,0.2,1,0.3,1.6,0.3c0.7,0,1-0.3,1.1-1c0.1-0.5,0.1-1,0.1-1.5
		c0-0.9-0.3-1.7-0.6-2.5c-0.1-0.2,0-0.2,0.1-0.3c0.8-0.5,1.5-1.1,2-1.8c0.3-0.4,0.6-0.8,0.7-1.2c0.2-0.7,0-1.2-0.6-1.6
		c-0.3-0.2-0.6-0.3-0.9-0.4c-1-0.3-1.9-0.3-2.9-0.2c-0.1,0-0.2,0-0.3-0.2c-0.3-0.9-0.6-1.8-1.1-2.6c-0.3-0.4-0.5-0.7-0.9-1
		c-0.5-0.3-0.9-0.3-1.4,0c-0.4,0.3-0.7,0.6-0.9,1c-0.5,0.8-0.8,1.6-1.1,2.5c0,0.1-0.1,0.2-0.1,0.3c-0.8,0-1.5-0.1-2.2,0
		c-0.6,0-1.2,0.1-1.7,0.4c-0.3,0.2-0.6,0.4-0.7,0.8c-0.2,0.6-0.1,1.2,0.2,1.7c0.5,0.7,1.1,1.3,1.8,1.8c0.3,0.2,0.6,0.4,0.9,0.5
		c0,0.1,0,0.1-0.1,0.2c-0.3,0.7-0.5,1.4-0.6,2.2c-0.1,0.6-0.1,1.2,0.1,1.8c0.3,0.9,0.9,1.2,1.8,1c0.7-0.2,1.4-0.5,2-0.9
		C40.7,24.9,41,24.5,41.5,24.2z"/>
	<path d="M41.7,18.8c0.5-0.3,1-0.6,1.6-0.8c0.2-0.1,0.4-0.1,0.7-0.1c0.2,0,0.4,0.1,0.4,0.3c0.1,0.2,0,0.4-0.2,0.5
		c-0.3,0.2-0.7,0.3-1.1,0.4c-0.4,0.1-0.8,0.1-1.2,0.1c0,0-0.1,0-0.2,0c0.1,0.1,0.1,0.1,0.2,0.2c0.4,0.4,0.8,0.7,1.1,1.1
		c0.1,0.2,0.2,0.4,0.3,0.6c0.1,0.2,0,0.4-0.2,0.5c-0.2,0.1-0.3,0.1-0.5,0c-0.3-0.2-0.5-0.6-0.7-0.9c-0.2-0.4-0.4-0.8-0.5-1.2
		c0,0.1-0.1,0.1-0.1,0.2c-0.3,0.5-0.5,1-0.8,1.5c-0.1,0.2-0.3,0.3-0.4,0.5c-0.1,0.1-0.3,0.1-0.4,0c-0.2-0.1-0.2-0.2-0.2-0.4
		c0-0.3,0.1-0.5,0.3-0.7c0.3-0.4,0.7-0.7,1.1-1.1c0.1-0.1,0.1-0.1,0.2-0.2c-0.1,0-0.2,0-0.2,0c-0.5-0.1-1.1-0.1-1.6-0.2
		c-0.2,0-0.4-0.2-0.6-0.3c-0.2-0.1-0.2-0.3-0.2-0.5c0.1-0.2,0.2-0.3,0.4-0.3c0.2,0,0.5,0,0.7,0.1c0.5,0.2,0.9,0.5,1.4,0.7
		c0.1,0,0.1,0.1,0.2,0.2c-0.1-0.3-0.1-0.5-0.2-0.8c-0.1-0.5-0.2-1-0.1-1.4c0-0.1,0-0.2,0.1-0.3c0.1-0.2,0.2-0.3,0.4-0.3
		c0.2,0,0.4,0.1,0.4,0.3c0.1,0.2,0.1,0.4,0.1,0.6C41.9,17.6,41.8,18.2,41.7,18.8C41.7,18.8,41.7,18.8,41.7,18.8z"/>
</g>
</svg>
