<?xml version="1.0" encoding="utf-8"?>
<!-- Generator: Adobe Illustrator 18.1.0, SVG Export Plug-In . SVG Version: 6.00 Build 0)  -->
<svg version="1.1" id="Layer_1" xmlns="http://www.w3.org/2000/svg" xmlns:xlink="http://www.w3.org/1999/xlink" x="0px" y="0px"
	 viewBox="0 0 64.2 64.2" enable-background="new 0 0 64.2 64.2" xml:space="preserve">
<g>
	<g>
		<path d="M33.3,44.8c-7.2,0-13.3-2.4-18.7-7.2c-0.6-0.5-1.5-0.4-2.8-0.1c-1,0.2-2.1,0.5-3.1,0
			c-0.5-0.3-0.9-0.7-1-1.3c-0.2-1.3,0.9-2.8,3.4-5.4c0.3-0.3,0.5-0.6,0.7-0.7c2.8-3.2,10.4-10.7,21.4-10.7c14,0,24,14.1,24.5,14.7
			c0.4,0.6,0.3,1.5-0.3,1.9c-0.6,0.4-1.5,0.3-1.9-0.3c-0.1-0.1-9.6-13.6-22.2-13.6c-9.8,0-16.8,6.8-19.3,9.7
			c-0.2,0.2-0.5,0.5-0.8,0.8c-0.4,0.4-1.3,1.3-1.9,2.1c0,0,0,0,0,0c1.4-0.3,3.5-0.8,5.2,0.7c4.9,4.4,10.4,6.5,16.9,6.5
			c7.8,0,14.5-4.7,17.8-7.6c0.6-0.5,1.4-0.4,1.9,0.2c0.5,0.6,0.4,1.4-0.2,1.9C49.3,39.6,42,44.8,33.3,44.8z"/>
	</g>
	<path d="M33.3,25.4c-1.3,0-2.6,0.5-3.5,1.4l3.5,3.8l-4.7-2.1c-0.3,0.6-0.4,1.3-0.4,2.1c0,2.9,2.3,5.2,5.2,5.2
		c2.9,0,5.2-2.3,5.2-5.2C38.5,27.7,36.2,25.4,33.3,25.4z"/>
</g>
<path d="M33.3,21.4c-2.4,0-4.5,0.9-6.2,2.4l1.7,1.8c1.2-1.1,2.8-1.8,4.5-1.8c3.7,0,6.7,3,6.7,6.7s-3,6.7-6.7,6.7
	s-6.7-3-6.7-6.7c0-1,0.2-1.9,0.6-2.7l-2.3-1c-0.5,1.1-0.8,2.4-0.8,3.7c0,5.1,4.1,9.2,9.2,9.2s9.2-4.1,9.2-9.2
	C42.5,25.5,38.4,21.4,33.3,21.4z"/>
</svg>
