<?xml version="1.0" encoding="utf-8"?>
<!-- Generator: Adobe Illustrator 18.1.0, SVG Export Plug-In . SVG Version: 6.00 Build 0)  -->
<svg version="1.1" id="Layer_1" xmlns="http://www.w3.org/2000/svg" xmlns:xlink="http://www.w3.org/1999/xlink" x="0px" y="0px"
	 viewBox="0 0 64.2 64.2" enable-background="new 0 0 64.2 64.2" xml:space="preserve">
<g>
	<g>
		<path d="M37.2,16c-0.1,0-0.1,0-0.2,0c-3-0.9-6.4-1-9.4-0.1c-0.4,0.1-0.7-0.1-0.8-0.5c-0.1-0.4,0.1-0.7,0.5-0.8
			c3.3-0.9,6.9-0.9,10.2,0.1c0.4,0.1,0.6,0.5,0.4,0.8C37.7,15.8,37.5,16,37.2,16z"/>
	</g>
	<g>
		<path d="M32.1,7.6C20,7.6,9.9,16.5,8,28.1l6.7-1.2h11.7c1.9,0,3.4,1.5,3.4,3.4c0,1.9-1.5,3.4-3.4,3.4H12.9
			c-0.4-0.6-0.9-1.5-0.9-2.1c0-0.7,0.9-1,1.1-1h7.4l4.8-1.1L25,28.2l-4.6,1.1h-7.3l-0.1,0c-0.8,0.2-2.3,0.8-2.3,2.3
			c0,0.7,0.3,1.4,0.7,2.1H7.7c0.1,0.8,0.1,1.6,0.3,2.4h28.9v3H8.7c3,10.1,12.4,17.4,23.4,17.4c13.5,0,24.5-11,24.5-24.5
			S45.6,7.6,32.1,7.6z M34.2,33.7c-1.9,0-3.4-1.5-3.4-3.4c0-1.9,1.5-3.4,3.4-3.4c1.9,0,3.4,1.5,3.4,3.4
			C37.6,32.2,36.1,33.7,34.2,33.7z M28.1,40.7c1.2,0.6,2.6,0.9,4,0.9c5.3,0,9.5-4.3,9.5-9.5c0-5.3-4.3-9.5-9.5-9.5
			c-2.4,0-4.6,0.9-6.2,2.3h-5.6c2.4-4,6.8-6.7,11.9-6.7c7.7,0,13.9,6.2,13.9,13.9C46,39.8,39.8,46,32.1,46c-4.4,0-8.3-2.1-10.9-5.2
			H28.1z M32.1,53.7c-8.9,0-16.5-5.3-19.8-13h7.3c2.7,4,7.3,6.6,12.5,6.6c8.4,0,15.2-6.8,15.2-15.2s-6.8-15.2-15.2-15.2
			c-5.8,0-10.8,3.2-13.4,8h-7c3-8.4,11-14.4,20.4-14.4c11.9,0,21.6,9.7,21.6,21.6C53.7,44,44,53.7,32.1,53.7z"/>
		<polygon points="7.7,33.7 7.7,33.7 7.7,33.7 		"/>
	</g>
</g>
</svg>
