<?xml version="1.0" encoding="utf-8"?>
<!-- Generator: Adobe Illustrator 18.1.0, SVG Export Plug-In . SVG Version: 6.00 Build 0)  -->
<svg version="1.1" id="Layer_1" xmlns="http://www.w3.org/2000/svg" xmlns:xlink="http://www.w3.org/1999/xlink" x="0px" y="0px"
	 viewBox="0 0 64.2 64.2" enable-background="new 0 0 64.2 64.2" xml:space="preserve">
<g>
	<path fill-rule="evenodd" clip-rule="evenodd" d="M52.8,19.1c-1.5,0.3-2.9,0.5-4.4,0.9c-1.1,0.3-1.6,1.2-1.9,2.2
		c-0.3,1.2-0.5,2.4-0.9,3.7c-0.1-0.5-0.2-1.1-0.3-1.6c-0.6-3.7-1.4-4.4-5-4.9c-0.5-0.1-0.9-0.1-1.4-0.4c0.5-0.1,1-0.2,1.4-0.3
		c3.7-0.5,4.5-1.2,5.1-5c0.1-0.5,0.2-1,0.4-1.5c0.2,0.9,0.3,1.8,0.5,2.6c0.5,2.5,1.3,3.2,3.8,3.7c0.9,0.2,1.8,0.3,2.6,0.5
		C52.8,18.9,52.8,19,52.8,19.1z"/>
	<path fill-rule="evenodd" clip-rule="evenodd" d="M43.6,30.6c-0.1,2.8-0.7,5.5-2.1,7.8c-1.4,2.4-2.3,5-3.3,7.6
		c-0.6,1.5-1.2,3-1.8,4.4c-0.2,0.5-0.5,0.9-0.7,1.3c-1.4,2.1-3.9,2.2-5.2,0c-0.7-1.1-1-2.5-1.3-3.8c-0.3-1.4-0.4-2.9-0.5-4.4
		c-0.1-0.4-0.1-0.9-0.3-1.3c-0.1-0.3-0.5-0.7-0.8-0.6c-0.3,0-0.8,0.4-0.8,0.6c-0.3,1.1-0.4,2.3-0.6,3.5c-0.3,1.6-0.5,3.2-0.9,4.7
		c-0.3,1.3-1.2,2.3-2.5,2.8c-1.3,0.4-2.2,0.2-2.9-0.9c-0.8-1.4-1.6-2.9-2.2-4.3c-0.6-1.4-1-2.8-1.6-4.2c-0.7-1.7-1.4-3.3-2.3-4.9
		c-1.8-3.5-2.8-7.1-2-11.1c1.1-5.4,5.6-8.3,11-7c0.6,0.1,1.3,0.3,1.9,0.5c1.9,0.6,3.8,0.6,5.7,0c1.9-0.6,3.9-1,6-0.6
		c3.7,0.7,6.3,3.5,7,7.3C43.4,28.8,43.5,29.7,43.6,30.6z M13.8,30.6c0.1,2.6,0.8,4.9,2,7.1c0.9,1.7,1.7,3.5,2.5,5.3
		c1,2.4,1.9,4.9,3,7.2c0.4,0.9,1,0.8,1.3,0c0.4-0.9,0.6-1.8,0.8-2.7c0.3-1.9,0.4-3.8,0.9-5.7c0.4-1.8,1.7-2.7,3.3-2.7
		c1.5,0,2.8,1,3.2,2.7c0.3,1.1,0.4,2.3,0.5,3.4c0.3,1.5,0.5,3.1,0.9,4.6c0.1,0.4,0.6,0.7,0.8,1c0.3-0.3,0.7-0.5,0.8-0.9
		c0.8-1.8,1.5-3.6,2.2-5.4c0.9-2.5,1.9-5,3.2-7.3c1.7-2.9,2.2-6,1.5-9.3c-0.8-3.4-3.5-5.4-7-5c-1.2,0.2-2.3,0.5-3.4,0.8
		c-1.9,0.5-3.8,0.5-5.7,0c-0.9-0.3-1.8-0.5-2.8-0.7c-3.6-0.8-6.7,1.1-7.6,4.7C14,28.7,13.9,29.7,13.8,30.6z"/>
	<path fill-rule="evenodd" clip-rule="evenodd" d="M35.9,17.5c-0.6-2.8-0.6-2.9-3.3-3.4c0.8-0.3,1.8-0.4,2.4-1
		c0.6-0.6,0.7-1.6,1-2.4c0,2.1,1.1,3.3,3.4,3.3C37,14.1,35.9,15.3,35.9,17.5z"/>
</g>
</svg>
