<?xml version="1.0" encoding="utf-8"?>
<!-- Generator: Adobe Illustrator 18.1.0, SVG Export Plug-In . SVG Version: 6.00 Build 0)  -->
<svg version="1.1" id="Layer_1" xmlns="http://www.w3.org/2000/svg" xmlns:xlink="http://www.w3.org/1999/xlink" x="0px" y="0px"
	 viewBox="0 0 64.2 64.2" enable-background="new 0 0 64.2 64.2" xml:space="preserve">
<g>
	<path d="M55.1,28.9c-0.1,3.8-0.5,6.8-1.9,9.6c-2.2,4.3-6.7,6.8-10.8,6c-2.5-0.5-4.3-2.4-4.5-4.9
		c-0.2-3,1.2-5.6,3.7-6.3c0.4-0.1,1.3,0.2,1.6,0.6c0.5,0.6,0.1,1.4-0.6,1.7c-1.5,0.7-2.2,1.8-2.1,3.5c0.1,1.5,0.9,2.5,2.4,2.8
		c2.8,0.5,5-0.6,6.8-2.7c1.9-2.3,2.5-5,2.7-7.8c0.3-3.2-0.1-6.4-1.5-9.4c-1.4-2.8-3.5-4.8-6.7-5.5c-2.2-0.4-4.1,0.4-4.8,2.1
		c-0.8,1.8-0.1,3.8,1.8,5c0.8,0.5,1.5,1.1,0.8,2.1c-0.7,1-1.6,0.6-2.4,0c-2.8-1.9-3.9-5.2-2.7-8.2c1.2-2.8,4.3-4.3,7.6-3.7
		c5,0.9,8.8,5,10,10.7C54.9,26.3,55,28,55.1,28.9z"/>
	<path d="M9.1,30.3c0.1-3.9,0.5-7,2-9.9c1.9-3.5,4.6-5.8,8.6-6.5c3.3-0.6,6.5,1.1,7.5,3.9c1.1,3.1-0.1,6.4-3.1,8.2
		c-0.8,0.5-1.5,0.6-2.1-0.2c-0.5-0.8-0.2-1.5,0.6-2c1.2-0.8,2.1-1.7,2.2-3.3c0.1-2.4-1.3-4.1-3.8-4.1c-3.1,0-5.4,1.6-7,4
		c-2.2,3.2-2.7,6.8-2.4,10.6c0.2,2.1,0.7,4.3,1.5,6.3c1.1,2.7,3.3,4.4,6.3,4.8c1.9,0.2,3.4-0.5,3.9-1.9c0.6-1.7,0-3.3-1.6-4.3
		c-0.8-0.5-1.5-1-0.9-2.1c0.6-1,1.4-0.7,2.2-0.2c2.6,1.6,3.7,4.5,2.7,7.4c-0.9,2.5-3.5,4-6.5,3.6c-5-0.6-8.7-4.3-9.8-10
		C9.3,32.9,9.2,31.2,9.1,30.3z"/>
	<path d="M46.6,26.2c0.6-0.3,1.1-0.5,1.7-0.8c0.8-0.4,1.4-0.4,1.9,0.4c0.5,0.9,0,1.5-0.7,1.9
		c-0.6,0.3-1.1,0.6-1.8,0.9c0.7,0.4,1.3,0.6,1.8,1c0.7,0.5,1.3,1.2,0.6,2.1c-0.6,0.8-1.4,0.7-2.1,0.1c-0.1-0.1-0.3-0.2-0.4-0.2
		c0.1,1.2,0.3,2.4,0.3,3.6c0,0.9-0.6,1.6-1.6,1.4c-0.9-0.2-1.1-0.9-0.9-1.8c0.3-1.2-0.3-2.2-1.2-2.9c-1-0.8-2.1-1-3.3-0.4
		c-3.4,1.7-4.8,4.6-4.9,8.2c-0.1,2.7-0.1,5.4-0.1,8.2c0,0.4,0.1,1-0.1,1.3c-0.3,0.4-0.9,1-1.3,1c-0.4,0-1.1-0.7-1.1-1.1
		c-0.1-4.4-0.5-8.8,0.6-13.2c0.9-3.3,3.1-5.6,6.2-6.9c2.6-1.1,4.1-3,4.4-5.9c0.1-0.9,0.5-1.5,1.5-1.4c0.9,0.1,1.2,0.8,1.1,1.6
		C46.9,24.1,46.8,25.1,46.6,26.2z"/>
	<path d="M16.5,31.6c0,0-0.3,0.2-0.5,0.3c-0.7,0.6-1.4,0.6-1.9-0.1c-0.6-0.7-0.4-1.4,0.3-1.9
		c0.6-0.5,1.3-0.8,2.1-1.3c-0.6-0.3-1.1-0.6-1.6-0.9c-0.8-0.4-1.4-1-0.8-2c0.5-0.9,1.2-0.8,2-0.3c0.5,0.2,0.9,0.4,1.6,0.7
		c-0.2-1-0.4-1.8-0.5-2.7c-0.1-0.9,0-1.9,1.1-1.9c1.2-0.1,1.3,0.8,1.5,1.7c0.3,2.5,1.5,4.4,3.8,5.3c4.8,2,7.1,5.6,7.3,10.7
		c0.1,3.1,0.1,6.1,0.1,9.2c0,0.9-0.3,1.6-1.3,1.6c-1,0-1.3-0.8-1.3-1.7c0-2.9,0-5.9-0.1-8.8c-0.1-3.2-1.2-5.8-4-7.6
		c-1.9-1.2-3.9-1.1-4.9,0.6c-0.4,0.7-0.5,1.6-0.5,2.4c0,0.9-0.2,1.6-1.1,1.6c-0.5,0-1.4-0.6-1.4-1.1C16.3,34.2,16.5,32.9,16.5,31.6z
		"/>
</g>
</svg>
