<?xml version="1.0" encoding="utf-8"?>
<!-- Generator: Adobe Illustrator 18.1.0, SVG Export Plug-In . SVG Version: 6.00 Build 0)  -->
<svg version="1.1" id="Layer_1" xmlns="http://www.w3.org/2000/svg" xmlns:xlink="http://www.w3.org/1999/xlink" x="0px" y="0px"
	 viewBox="0 0 64.2 64.2" enable-background="new 0 0 64.2 64.2" xml:space="preserve">
<g>
	<path d="M49.5,27.4c-1.7-5.4-5.6-9.7-10.4-11.8c0,0.1,0,0.2,0,0.3c0,0.7-0.1,1.3-0.3,1.9c4.2,2.1,7.5,5.9,8.8,10.8
		l0.2,0.7l0.7,0.1c1.8,0.2,3.3,2.4,3.3,4.8c0,2.7-1.6,4.9-3.6,4.9h-0.7l-0.3,0.7c-2.5,6.7-8.4,11-15.1,11c-6.7,0-12.7-4.3-15.1-11
		L16.7,39H16c-2,0-3.6-2.2-3.6-4.9c0-2.5,1.4-4.6,3.3-4.8l0.7-0.1l0.2-0.7c1.4-5,4.8-8.9,9-10.9c-0.2-0.7-0.3-1.5-0.3-2.2
		c-4.9,2.1-8.9,6.4-10.6,11.9c-2.6,0.7-4.4,3.5-4.4,6.8c0,3.5,2.2,6.5,5,6.9c2.9,7.2,9.4,11.7,16.8,11.7c7.4,0,14-4.6,16.8-11.7
		c2.8-0.4,5-3.4,5-6.9C54,30.9,52.1,28.1,49.5,27.4z"/>
	<path d="M33.8,8.3c0,0-6.6,1.7-6.4,6.8c0.2,5,3.2,5.2,4.8,5.2c1.6,0,4.9-0.7,4.9-4.5C37,12.1,32,14,33.8,8.3z"/>
	<g>
		<path d="M25.8,29.7v2.5l-1.9-1.5c-0.3,0.4-0.5,1-0.5,1.5c0,1.4,1.1,2.5,2.5,2.5c1.4,0,2.5-1.1,2.5-2.5
			C28.3,30.8,27.2,29.7,25.8,29.7z"/>
		<path d="M38.4,29.7v2.5l-1.9-1.5c-0.3,0.4-0.6,1-0.6,1.5c0,1.4,1.1,2.5,2.5,2.5c1.4,0,2.5-1.1,2.5-2.5
			C40.9,30.8,39.8,29.7,38.4,29.7z"/>
	</g>
	<path d="M34.6,37.9c-1.3,0.9-2.3,0.7-2.3,0.7h-0.2c0,0-1.1,0.2-2.3-0.7C28.5,37,24,37.2,25.2,42
		c1.2,4.8,2.8,5.3,4.3,5c1.5-0.4,1.6-1.1,2.7-1.1s1.2,0.8,2.7,1.1c1.5,0.4,3.1-0.2,4.3-5C40.3,37.2,35.9,37,34.6,37.9z M32.1,44.1
		c-1.8,0-3.3-0.8-3.3-1.9c0-1,1.5-1.9,3.3-1.9c1.8,0,3.3,0.8,3.3,1.9C35.4,43.3,33.9,44.1,32.1,44.1z"/>
</g>
</svg>
