<?xml version="1.0" encoding="utf-8"?>
<!-- Generator: Adobe Illustrator 18.1.0, SVG Export Plug-In . SVG Version: 6.00 Build 0)  -->
<svg version="1.1" id="Layer_1" xmlns="http://www.w3.org/2000/svg" xmlns:xlink="http://www.w3.org/1999/xlink" x="0px" y="0px"
	 viewBox="0 0 64.2 64.2" enable-background="new 0 0 64.2 64.2" xml:space="preserve">
<g>
	<path d="M40.1,50.6c-2.3,0-4.6,0-6.9,0c-1.8,0-3.3-1.5-3.3-3.4c0-2.1,0-4.3,0-6.4l0-5.6c0-2.4,0-4.7,0-7.1
		c0-2.3,1.2-4.1,3.3-4.9c0.2-0.1,0.6-0.2,0.6-0.9c0-1.4,0-2.8,0-4.3l0-1.6c0-0.4-0.3-0.6-0.5-0.6c-0.1,0-0.2-0.1-0.3-0.1
		c-0.2-0.1-0.4-0.2-0.6-0.3c-0.3-0.3-0.4-0.6-0.3-1.1c0.1-0.4,0.4-0.7,0.9-0.8c0.1,0,0.1,0,0.2,0l13.7,0c0.6,0,1,0.3,1.2,0.8
		c0.1,0.3,0,0.6-0.1,0.9c-0.2,0.3-0.4,0.4-0.8,0.5l-0.7,0.1l0,0.6c0,0.1,0,0.2,0,0.3l0,1.7c0,1.3,0,2.6,0,3.9c0,0.5,0.2,0.8,0.7,1
		c2.1,0.8,3.4,2.6,3.4,4.9c0,5.5,0,10.9,0,16.4c0,0.3,0,0.6,0,0.9c0,0.8,0,1.6,0,2.3c-0.2,1.7-1.6,3-3.3,3
		C44.9,50.6,42.5,50.6,40.1,50.6z M32.9,43.7c-0.1,0-0.2,0-0.3,0l-0.7,0l0,1.4c0,0.7,0,1.3,0,2c0,0.9,0.5,1.4,1.5,1.4l13.6,0
		c1.1,0,1.6-0.5,1.6-1.6c0-6.3,0-12.6,0-18.9c0-1.9-1.3-3.2-3.1-3.2c-0.9,0-1.8,0-2.7,0l-2.5,0l-3,0c-0.7,0-1.5,0-2.2,0
		c-1.7,0-2.9,1.1-3.1,2.8c0,0.3,0,0.6,0,1c0,0.1,0,0.3,0,0.5v0.6l3,0c0.4,0,0.9,0,1.3,0c0.3,0,0.6,0.1,0.8,0.3
		c0.2,0.2,0.3,0.4,0.3,0.7c0,0.6-0.5,1-1.1,1c-0.4,0-0.9,0-1.3,0l-3,0v3.8l1.1,0l1.8,0c0.5,0,0.9,0,1.4,0c0.3,0,0.6,0.1,0.8,0.3
		c0.2,0.2,0.3,0.5,0.3,0.7c0,0.6-0.5,1-1.1,1c-0.4,0-0.8,0-1.3,0l-2,0c-0.1,0-0.2,0-0.3,0l-0.1,0l-0.5,0v3.9H33l1.9,0
		c0.5,0,0.9,0,1.4,0c0.6,0,1.1,0.5,1.1,1c0,0.6-0.5,1-1.1,1c-0.4,0-0.8,0-1.2,0l-1.5,0L32.9,43.7z M36,22.9h8.5v-7.2H36V22.9z"/>
	<path d="M18.3,50.6c-0.5,0-1,0-1.4,0c-0.6,0-1.1-0.5-1.1-1c0-0.6,0.5-1,1.1-1c0.1,0,0.1,0,0.2,0l0.6,0V47l-0.5-0.1
		c-0.1,0-0.2,0-0.3,0c-0.2,0-0.4,0-0.5-0.1c-1.3-0.3-2.2-1.3-2.6-2.8c-0.1-0.4-0.2-0.9-0.2-1.5c0-3.6,0-7.2,0-10.4
		c0-1.7,0.4-3,1.3-4.1c0.6-0.8,1.3-1.3,2.1-1.5c0.8-0.2,0.8-0.8,0.8-1c0-3.5,0-7.1,0-10.6c0-0.6,0.3-1,0.8-1.1c0.1,0,0.2,0,0.3,0
		c0.6,0,1,0.4,1,1c0,1,0,1.9,0,2.9c0,0.4,0,0.8,0,1.1l0,7.5l0.4,0.1c2.5,0.7,3.7,3.2,3.7,5.4c0,3.8,0,7.7,0,11.2
		c0,1-0.3,1.9-0.9,2.6c-0.6,0.8-1.4,1.3-2.4,1.3c-0.1,0-0.1,0-0.2,0L19.8,47v1.6l0.8,0c0,0,0.1,0,0.1,0c0.5,0,1,0.4,1,1
		c0,0.6-0.3,1-0.9,1.1c-0.4,0-0.8,0.1-1.3,0.1l-0.6,0C19.1,50.6,18.5,50.6,18.3,50.6z M18.8,44.7c0.5,0,1.1,0,1.6,0h0
		c0.5,0,0.9-0.2,1.1-0.6c0.3-0.5,0.5-1,0.5-1.7c0-1.3,0-2.6,0-3.8l0-2h0l0-1c0-1.3,0-2.6,0-3.8c0-1-0.3-1.8-0.9-2.6
		c-0.4-0.5-1-0.8-1.6-0.8c0,0-0.1,0-0.1,0l-0.2,0c-0.2,0-0.3,0-0.5,0c-0.2,0-0.3,0-0.4,0c-0.1,0-0.2,0-0.3,0c-0.7,0-1.1,0.4-1.3,0.7
		c-0.6,0.7-1,1.6-1,2.6c0,3.7,0,7.4,0,11c0,0.5,0.2,0.9,0.3,1.3c0.2,0.5,0.7,0.8,1.2,0.8C17.7,44.7,18.3,44.7,18.8,44.7z"/>
</g>
</svg>
