<?xml version="1.0" encoding="utf-8"?>
<!-- Generator: Adobe Illustrator 18.1.0, SVG Export Plug-In . SVG Version: 6.00 Build 0)  -->
<svg version="1.1" id="Layer_1" xmlns="http://www.w3.org/2000/svg" xmlns:xlink="http://www.w3.org/1999/xlink" x="0px" y="0px"
	 viewBox="0 0 64.2 64.2" enable-background="new 0 0 64.2 64.2" xml:space="preserve">
<g>
	<path d="M37.9,12.5c0,0.8,0,1.6,0,2.3c0.6,0.2,1.1,0.3,1.5,0.5c1.8,0.9,2.9,2.3,3,4.4c0.1,4.8,0,9.6,0,14.4
		c0,0.1,0,0.1,0,0.3c-0.7,0-1.3,0-2.1,0c0-0.3,0-0.6,0-0.9c0-4.4,0-8.9,0-13.3c0-1.6-0.8-2.6-2.2-2.9c0,0.8,0,1.5,0,2.3
		c-6.2,0-12.3,0-18.5,0c0-0.8,0-1.6,0-2.4c-1.3,0.1-2.3,1.1-2.4,2.3c0,0.3,0,0.6,0,0.8c0,7.6,0,15.2,0,22.8c0,2.2,1.1,3.3,3.3,3.3
		c3.5,0,7,0,10.5,0c0.3,0,0.6,0,0.9,0c0,0.7,0,1.4,0,2.1c-0.3,0-0.5,0-0.7,0c-3.7,0-7.3,0-11,0c-3.1,0-5.2-2.2-5.2-5.2
		c0-7.5,0.1-15,0-22.5c0-3,1.4-5.3,4.7-5.9c0-0.8,0-1.5,0-2.3C25.7,12.5,31.8,12.5,37.9,12.5z"/>
	<path d="M41.8,51.7c-1.8,0-3.6,0-5.4,0c-1.3,0-2.1-0.8-2.1-2.1c0-3.6,0-7.1,0-10.7c0-1.2,0.8-2.1,2-2.1
		c3.7,0,7.4,0,11.1,0c1.2,0,2,0.8,2,2.1c0,3.6,0,7.2,0,10.7c0,1.3-0.8,2-2.1,2C45.4,51.7,43.6,51.7,41.8,51.7z M41,46.4
		c-0.9-1.2-1.7-2.4-2.6-3.5c-0.7-0.9-1.6-1.1-2.4-0.6c-0.8,0.6-0.9,1.5-0.2,2.4c1.3,1.8,2.6,3.5,3.9,5.3c0.9,1.2,2.2,1.2,2.9-0.2
		c1.8-3.1,3.5-6.2,5.2-9.4c0.5-1,0.3-1.9-0.5-2.3c-0.8-0.5-1.7-0.2-2.3,0.8c-1.3,2.2-2.5,4.5-3.7,6.7C41.3,45.9,41.2,46.1,41,46.4z"
		/>
	<path d="M23.6,21.7c0,1.5,0,2.9,0,4.3c-1.4,0-2.9,0-4.3,0c0-1.4,0-2.8,0-4.3C20.7,21.7,22.1,21.7,23.6,21.7z
		 M20.3,24.9c0.8,0,1.4,0,2.1,0c0-0.7,0-1.4,0-2.1c-0.7,0-1.4,0-2.1,0C20.3,23.5,20.3,24.2,20.3,24.9z"/>
	<path d="M23.5,31.5c-1.4,0-2.8,0-4.3,0c0-1.4,0-2.8,0-4.3c1.4,0,2.8,0,4.3,0C23.5,28.6,23.5,30.1,23.5,31.5z
		 M20.3,30.4c0.7,0,1.4,0,2.1,0c0-0.7,0-1.4,0-2.1c-0.7,0-1.4,0-2.1,0C20.3,29,20.3,29.7,20.3,30.4z"/>
	<path d="M19.2,37.4c0-1.5,0-2.9,0-4.3c1.4,0,2.9,0,4.3,0c0,1.4,0,2.9,0,4.3C22.1,37.4,20.7,37.4,19.2,37.4z
		 M20.3,36.4c0.7,0,1.2,0,1.8,0c0.1,0,0.4-0.2,0.4-0.3c0-0.6,0-1.2,0-1.9c-0.8,0-1.5,0-2.2,0C20.3,34.9,20.3,35.6,20.3,36.4z"/>
	<path d="M19.3,38.7c1.5,0,2.9,0,4.3,0c0,1.4,0,2.9,0,4.3c-1.4,0-2.8,0-4.3,0C19.3,41.6,19.3,40.2,19.3,38.7z
		 M20.3,42c0.6,0,1.2,0,1.8,0c0.1,0,0.4-0.3,0.4-0.4c0-0.6,0-1.2,0-1.8c-0.8,0-1.5,0-2.2,0C20.3,40.5,20.3,41.2,20.3,42z"/>
	<path d="M24.6,24.4c0-0.4,0-0.7,0-1.1c4,0,7.9,0,11.9,0c0,0.4,0,0.7,0,1.1C32.6,24.4,28.6,24.4,24.6,24.4z"/>
	<path d="M24.6,29.9c0-0.4,0-0.7,0-1.1c4,0,7.9,0,11.9,0c0,0.3,0,0.7,0,1.1C32.6,29.9,28.7,29.9,24.6,29.9z"/>
	<path d="M34.7,34.6c-1.1,0.8-2.1,1.3-3.5,1.2c-2.1-0.1-4.3,0-6.5,0c0-0.4,0-0.8,0-1.2C28,34.6,31.3,34.6,34.7,34.6z
		"/>
	<path d="M31.8,41.4c-2.4,0-4.7,0-7.1,0c0-0.4,0-0.7,0-1.1c2.3,0,4.7,0,7.1,0C31.8,40.7,31.8,41,31.8,41.4z"/>
</g>
</svg>
