<?xml version="1.0" encoding="utf-8"?>
<!-- Generator: Adobe Illustrator 18.1.0, SVG Export Plug-In . SVG Version: 6.00 Build 0)  -->
<svg version="1.1" id="Layer_1" xmlns="http://www.w3.org/2000/svg" xmlns:xlink="http://www.w3.org/1999/xlink" x="0px" y="0px"
	 viewBox="0 0 64.2 64.2" enable-background="new 0 0 64.2 64.2" xml:space="preserve">
<g>
	<path d="M49.3,39.5c-11.5,0-22.9,0-34.3,0c0-0.9,0-1.7,0-2.6c0-0.7,0-1.3,0.1-2c0.3-1.6,1.7-2.9,3.3-2.9
		c3.1,0,6.2,0,9.3,0c0.1,0,0.1,0,0.2,0c0,1.4,0,2.8,0,4.2c0.5,0,0.9,0,1.4,0c0-1.4,0-2.8,0-4.2c0.4,0,0.8,0,1.3,0c0,1.4,0,2.8,0,4.2
		c0.2,0,0.3,0,0.4,0c3,0,6,0,9,0c0.3,0,0.5-0.1,0.7-0.3c2.4-2.4,4.9-4.9,7.3-7.3c0.1-0.1,0.2-0.2,0.3-0.3c0.2-0.2,0.5-0.3,0.8-0.2
		c0.3,0.1,0.3,0.4,0.3,0.7c0,2.8,0,5.6,0,8.4C49.3,38.1,49.3,38.8,49.3,39.5z"/>
	<path d="M49.2,41.3c0,2.8,0,5.6,0,8.4c-0.6,0-1.2,0-1.9,0c0-2.2,0-4.3,0-6.5c-10.2,0-20.3,0-30.4,0
		c0,2.2,0,4.3,0,6.5c-0.7,0-1.3,0-1.9,0c0-2.8,0-5.6,0-8.4C26.4,41.3,37.8,41.3,49.2,41.3z"/>
	<path d="M23.7,27.9c-2,0-4,0-5.9,0c-1.7,0.1-2.9-1.2-2.9-2.9c0-2.5,0-5.1,0-7.6c0-1.7,1.1-2.8,2.8-2.8
		c4,0,7.9,0,11.9,0c1.7,0,2.9,1.3,2.9,2.9c0,2.6,0,5.1,0,7.7c0,1.6-1.1,2.8-2.8,2.8C27.8,27.9,25.8,27.9,23.7,27.9z M23.8,15.8
		c-2,0-4,0-6,0c-1,0-1.6,0.6-1.6,1.5c0,2.6,0,5.2,0,7.8c0,1,0.5,1.5,1.5,1.5c4,0,8,0,12,0c1,0,1.6-0.6,1.6-1.6c0-2.6,0-5.1,0-7.7
		c0-1-0.6-1.6-1.6-1.6C27.7,15.8,25.8,15.8,23.8,15.8z"/>
	<path d="M47,27.8c-0.2,0.1-0.3,0.2-0.4,0.4c-2.2,2.2-4.3,4.3-6.5,6.5c-0.2,0.2-0.4,0.3-0.7,0.3c-2.3,0-4.7,0-7,0
		c-0.4,0-0.5-0.1-0.5-0.5c0-0.6,0-1.2,0-1.8c0-0.4,0.1-0.5,0.5-0.5c1.4,0,2.8,0,4.3,0c0.4,0,0.8-0.1,1.1-0.4
		c1.4-1.4,2.7-2.8,4.1-4.1c1.4-1.4,3.6-1.4,5.1-0.1C46.8,27.6,46.8,27.6,47,27.8z"/>
	<path d="M52.9,49.7c-0.7,0-1.3,0-1.9,0c0-0.1,0-0.3,0-0.4c0-7.6,0-15.1,0-22.7c0-0.7,0.3-1.1,0.9-1.1
		c0.5,0,1,0.3,1,0.8c0,0.1,0,0.2,0,0.3c0,7.5,0,15.1,0,22.6C52.9,49.4,52.9,49.5,52.9,49.7z"/>
	<path d="M13.3,49.7c-0.7,0-1.3,0-1.9,0c0-0.1,0-0.2,0-0.4c0-5.2,0-10.4,0-15.7c0-0.8,0.6-1.3,1.3-1
		c0.5,0.2,0.6,0.6,0.6,1.1c0,2.8,0,5.6,0,8.3c0,2.4,0,4.8,0,7.2C13.3,49.3,13.3,49.5,13.3,49.7z"/>
	<path d="M46.1,25.6c-1.5,0-3-1.1-3-3c0-1.9,1.5-3,3-3.1c1.7,0,3.1,1.3,3.1,3C49.2,24.6,47.5,25.7,46.1,25.6z"/>
	<path d="M26.7,20.8c-0.2,0.8-0.4,1.4-0.6,2c-0.2,0.6-0.3,1.2-0.5,1.8c-0.1,0.3-0.2,0.5-0.5,0.5
		c-0.3,0-0.4-0.3-0.4-0.5c-0.4-1.5-0.8-3.1-1.1-4.6c0-0.1-0.1-0.2-0.2-0.4c0,0.1-0.1,0.2-0.1,0.4c-0.4,1.1-0.7,2.3-1,3.4
		c-0.1,0.2-0.1,0.5-0.5,0.6c-0.3,0-0.4-0.2-0.6-0.5C21,23,20.7,22.5,20.4,22c-0.1,0.1-0.2,0.2-0.3,0.3c-0.3,0.4-0.7,0.5-1.1,0.5
		c-0.4,0-0.8,0-1.1,0c-0.3,0-0.3-0.1-0.3-0.4c0-0.2-0.1-0.5,0.3-0.5c0.3,0,0.7,0,1,0c0.4,0,0.6-0.1,0.8-0.4c0.1-0.2,0.3-0.4,0.5-0.5
		c0.3-0.3,0.6-0.3,0.8,0.1c0.2,0.4,0.4,0.8,0.7,1.2c0.1-0.2,0.2-0.4,0.2-0.5c0.4-1.4,0.8-2.7,1.2-4.1c0.1-0.3,0.1-0.5,0.5-0.5
		c0.3,0,0.4,0.3,0.5,0.5c0.3,1.4,0.7,2.8,1,4.2c0.1,0.2,0.1,0.4,0.2,0.6c0,0,0.1,0,0.1,0c0-0.1,0.1-0.3,0.1-0.4
		c0.2-0.9,0.5-1.8,0.7-2.7c0.1-0.2,0.2-0.5,0.4-0.5c0.3-0.1,0.4,0.2,0.6,0.4c0.3,0.7,0.6,1.4,0.9,2c0.1,0.3,0.3,0.4,0.6,0.4
		c0.3,0,0.6,0,0.9,0c0.3,0,0.3,0.2,0.3,0.4c0,0.2,0.1,0.5-0.3,0.5c-0.5,0-1.1,0-1.6,0c-0.2,0-0.4-0.2-0.4-0.3
		c-0.2-0.4-0.4-0.8-0.5-1.1C26.9,21.1,26.9,21,26.7,20.8z"/>
</g>
</svg>
