<?xml version="1.0" encoding="utf-8"?>
<!-- Generator: Adobe Illustrator 18.1.0, SVG Export Plug-In . SVG Version: 6.00 Build 0)  -->
<svg version="1.1" id="Layer_1" xmlns="http://www.w3.org/2000/svg" xmlns:xlink="http://www.w3.org/1999/xlink" x="0px" y="0px"
	 viewBox="0 0 64.2 64.2" enable-background="new 0 0 64.2 64.2" xml:space="preserve">
<g>
	<path d="M48,25.6c-0.1-3.8-3.3-6.8-7.1-6.8s-6.9,3-7.1,6.8H33v2.1h15.8v-2.1H48z M37,24.7c-0.3,0-0.6-0.3-0.6-0.6
		s0.3-0.6,0.6-0.6c0.3,0,0.6,0.3,0.6,0.6S37.3,24.7,37,24.7z M37,22.7c-0.3,0-0.6-0.3-0.6-0.6c0-0.3,0.3-0.6,0.6-0.6
		c0.3,0,0.6,0.3,0.6,0.6C37.6,22.4,37.3,22.7,37,22.7z M39,23.7c-0.3,0-0.6-0.3-0.6-0.6s0.3-0.6,0.6-0.6c0.3,0,0.6,0.3,0.6,0.6
		S39.3,23.7,39,23.7z M39,21.7c-0.3,0-0.6-0.3-0.6-0.6c0-0.3,0.3-0.6,0.6-0.6c0.3,0,0.6,0.3,0.6,0.6C39.6,21.4,39.3,21.7,39,21.7z
		 M41.1,24.7c-0.3,0-0.6-0.3-0.6-0.6s0.3-0.6,0.6-0.6s0.6,0.3,0.6,0.6S41.4,24.7,41.1,24.7z M41.1,22.7c-0.3,0-0.6-0.3-0.6-0.6
		c0-0.3,0.3-0.6,0.6-0.6s0.6,0.3,0.6,0.6C41.7,22.4,41.4,22.7,41.1,22.7z M41.1,20.7c-0.3,0-0.6-0.3-0.6-0.6c0-0.3,0.3-0.6,0.6-0.6
		s0.6,0.3,0.6,0.6C41.7,20.4,41.4,20.7,41.1,20.7z M43.1,23.7c-0.3,0-0.6-0.3-0.6-0.6s0.3-0.6,0.6-0.6c0.3,0,0.6,0.3,0.6,0.6
		S43.4,23.7,43.1,23.7z M43.1,21.7c-0.3,0-0.6-0.3-0.6-0.6c0-0.3,0.3-0.6,0.6-0.6c0.3,0,0.6,0.3,0.6,0.6
		C43.7,21.4,43.4,21.7,43.1,21.7z M45.1,24.7c-0.3,0-0.6-0.3-0.6-0.6s0.3-0.6,0.6-0.6c0.3,0,0.6,0.3,0.6,0.6S45.5,24.7,45.1,24.7z
		 M45.1,22.7c-0.3,0-0.6-0.3-0.6-0.6c0-0.3,0.3-0.6,0.6-0.6c0.3,0,0.6,0.3,0.6,0.6C45.7,22.4,45.5,22.7,45.1,22.7z"/>
	<path d="M45.3,28.5V32c0,2.1-1.7,3.8-3.8,3.8h-1.3c-2.1,0-3.8-1.7-3.8-3.8v-3.5H35V32c0,2.9,2.4,5.3,5.3,5.3h1.3
		c2.9,0,5.3-2.4,5.3-5.3v-3.5H45.3z"/>
	<g>
		<path d="M27.6,32.3h-0.2v-1h0.2c1.3,0,2.4-1.1,2.4-2.4V17.4c0-1.9,1.5-3.4,3.4-3.4h4.8c1.9,0,3.4,1.5,3.4,3.4h-1
			c0-1.3-1.1-2.4-2.4-2.4h-4.8c-1.3,0-2.4,1.1-2.4,2.4v11.5C31,30.8,29.5,32.3,27.6,32.3z"/>
	</g>
	<path d="M23.8,26.2c0.5,0,0.9,0.4,0.9,0.9v9.2c0,0.5-0.4,0.9-0.9,0.9H11.4c-0.5,0-0.9-0.4-0.9-0.9v-9.2
		c0-0.5,0.4-0.9,0.9-0.9H23.8 M23.8,24.7H11.4c-1.4,0-2.4,1.1-2.4,2.4v9.2c0,1.4,1.1,2.4,2.4,2.4h12.4c1.4,0,2.4-1.1,2.4-2.4v-9.2
		C26.3,25.8,25.2,24.7,23.8,24.7L23.8,24.7z"/>
	<path d="M47.4,39.6h-2.8c-0.6,1.4-2,2.5-3.7,2.5c-1.7,0-3.1-1-3.7-2.5h-2.8c-2.8,0-5.1,2.3-5.1,5.1v5.5h4v-4.4h1.3
		v4.4h12.5v-4.4h1.3v4.4h4v-5.5C52.5,41.9,50.2,39.6,47.4,39.6z"/>
</g>
</svg>
