<?xml version="1.0" encoding="utf-8"?>
<!-- Generator: Adobe Illustrator 18.1.0, SVG Export Plug-In . SVG Version: 6.00 Build 0)  -->
<svg version="1.1" id="Layer_1" xmlns="http://www.w3.org/2000/svg" xmlns:xlink="http://www.w3.org/1999/xlink" x="0px" y="0px"
	 viewBox="0 0 64.2 64.2" enable-background="new 0 0 64.2 64.2" xml:space="preserve">
<g>
	<path d="M45.7,35.4c-0.2-1.4-0.5-5.3,0.3-10.2c0.2-1.3,0.6-2.6,1-4c0.2-0.5-0.6-0.8-0.8-0.3c-0.4,0.9-0.7,1.9-1,2.8
		c-1.5,4.7-2,9.9-2.1,11.7c-1.4,0.5-2.4,1.9-2.4,3.5c0,2.1,1.7,3.7,3.7,3.7c2.1,0,3.7-1.7,3.7-3.7C48.1,37.3,47.1,36,45.7,35.4z"/>
	<path d="M27.7,36.4c-0.3-2.4-0.8-8.5,0.6-16.1c0.4-2.1,0.9-4.2,1.5-6.3c0.3-0.9-1-1.3-1.3-0.5
		c-0.6,1.5-1.1,3-1.6,4.4c-2.3,7.4-3.1,15.7-3.3,18.6c-2.3,0.9-3.9,3.1-3.9,5.7c0,3.4,2.7,6.1,6.1,6.1c3.4,0,6.1-2.7,6.1-6.1
		C31.9,39.5,30.1,37.2,27.7,36.4z"/>
	<g>
		<path d="M25.8,52.1c-5.5,0-9.9-4.5-9.9-9.9c0-3.7,2.1-7.1,5.3-8.8v-1.6H8.8c-0.5,0-0.9-0.4-0.9-0.9S8.3,30,8.8,30
			h13.3c0.5,0,0.9,0.4,0.9,0.9v3c0,0.4-0.2,0.7-0.5,0.8c-2.9,1.3-4.8,4.2-4.8,7.4c0,4.5,3.6,8.1,8.1,8.1s8.1-3.6,8.1-8.1
			c0-3.2-1.9-6.1-4.8-7.4c-0.3-0.1-0.5-0.5-0.5-0.8V31c0,0,0-0.1,0-0.1c0-0.5,0.4-0.9,0.9-0.9c0,0,0,0,0,0h12.3
			c0.5,0,0.9,0.4,0.9,0.9l0,2.2c0,0.4-0.2,0.7-0.5,0.8c-2,0.9-3.3,2.9-3.3,5c0,3,2.5,5.5,5.5,5.5s5.5-2.5,5.5-5.5
			c0-2.2-1.3-4.1-3.3-5c-0.3-0.1-0.5-0.5-0.5-0.8v-2.2c0-0.5,0.4-0.9,0.9-0.9h9c0.5,0,0.9,0.4,0.9,0.9s-0.4,0.9-0.9,0.9h-8.1v0.7
			c2.3,1.3,3.8,3.7,3.8,6.4c0,4-3.3,7.3-7.3,7.3s-7.3-3.3-7.3-7.3c0-2.7,1.5-5.1,3.8-6.4l0-0.7H30.4l0,1.6c3.3,1.7,5.3,5.1,5.3,8.8
			C35.7,47.6,31.3,52.1,25.8,52.1z"/>
	</g>
</g>
</svg>
