<?xml version="1.0" encoding="utf-8"?>
<!-- Generator: Adobe Illustrator 18.1.0, SVG Export Plug-In . SVG Version: 6.00 Build 0)  -->
<svg version="1.1" id="Layer_1" xmlns="http://www.w3.org/2000/svg" xmlns:xlink="http://www.w3.org/1999/xlink" x="0px" y="0px"
	 viewBox="0 0 64.2 64.2" enable-background="new 0 0 64.2 64.2" xml:space="preserve">
<g>
	<g>
		<path d="M45.2,35.2H19c-1.6,0-2.9-1.3-2.9-2.9V13.1c0-1.6,1.3-2.9,2.9-2.9h26.2c1.6,0,2.9,1.3,2.9,2.9v19.2
			C48.1,33.9,46.8,35.2,45.2,35.2z M19,12.4c-0.4,0-0.7,0.3-0.7,0.7v19.2c0,0.4,0.3,0.7,0.7,0.7h26.2c0.4,0,0.7-0.3,0.7-0.7V13.1
			c0-0.4-0.3-0.7-0.7-0.7H19z"/>
	</g>
	<path d="M32.3,29.7c4,0,7.7-1.3,10.6-3.6l-8-10.4c-0.7,0.6-1.6,0.9-2.6,0.9c-1,0-1.9-0.3-2.6-0.9l-8,10.4
		C24.6,28.3,28.3,29.7,32.3,29.7z"/>
	<g>
		<path d="M27,50.8h-3.8c-2.3,0-4.2-1.9-4.2-4.2s1.9-4.2,4.2-4.2h13.5c1.8,0,3.2-1.5,3.2-3.2v-2.5h1v2.5
			c0,2.3-1.9,4.2-4.2,4.2H23.2c-1.8,0-3.2,1.5-3.2,3.2s1.5,3.2,3.2,3.2H27V50.8z"/>
	</g>
	<path d="M40.7,46.5h-1.6L37,47.7v0.2h-8.5v4.8H37v0.2l2.1,1.2h1.6c0,0,0.7-0.3,0.7-3.8
		C41.4,46.7,40.7,46.5,40.7,46.5z"/>
	<path d="M42.8,50.2c0,1.3-0.2,2.6-0.6,3.8h1.1c0.4-1.1,0.6-2.4,0.6-3.8s-0.2-2.6-0.6-3.8h-1.1
		C42.6,47.6,42.8,48.9,42.8,50.2z"/>
</g>
</svg>
