<?xml version="1.0" encoding="utf-8"?>
<!-- Generator: Adobe Illustrator 19.0.0, SVG Export Plug-In . SVG Version: 6.00 Build 0)  -->
<svg version="1.1" id="Layer_1" xmlns="http://www.w3.org/2000/svg" xmlns:xlink="http://www.w3.org/1999/xlink" x="0px" y="0px"
	 viewBox="-41 164.9 512 512" style="enable-background:new -41 164.9 512 512;" xml:space="preserve">
<style type="text/css">
	.st0{fill:#FFFFFF;}
</style>
<g>
	<g>
		<path d="M461.8,249.1c-5.1,0-9.2,4.1-9.2,9.2c0,12.2-4.8,23.7-13.4,32.4L220.2,509.6l-11-11l-53.8-53.8L374.3,226
			c17.9-17.9,46.9-17.9,64.8,0c2.2,2.2,4.2,4.6,5.9,7.2c2.8,4.3,8.6,5.4,12.8,2.6c4.3-2.8,5.4-8.5,2.6-12.8c-2.4-3.6-5.2-7-8.2-10.1
			c-12.1-12.1-28.3-18.8-45.5-18.8c-17.2,0-33.3,6.7-45.5,18.8L80.4,493.8c-3.6,3.6-3.6,9.5,0,13.1c3.6,3.6,9.5,3.6,13.1,0
			l48.9-48.9l47.2,47.2l-10,10c-11,11-12.9,27.7-5.6,40.7l-32.3,32.3c-41.7,41.7-105,52.6-157.9,28.4l88.7-88.7
			c3.6-3.6,3.6-9.5,0-13.1c-3.6-3.6-9.5-3.6-13.1,0l-97.7,97.7c-2,2-3,4.9-2.6,7.8s2.1,5.4,4.6,6.8c24.5,13.9,51.5,20.7,78.4,20.7
			c41.2,0,82.1-15.9,112.6-46.5l38-38c3.6-3.6,3.6-9.5,0-13.1c-6.1-6.1-6.1-15.9,0-22l10-10l11,11c1.8,1.8,4.2,2.7,6.5,2.7
			s4.7-0.9,6.5-2.7l225.4-225.4c12.1-12.1,18.8-28.3,18.8-45.5C471,253.2,466.9,249.1,461.8,249.1z"/>
	</g>
</g>
<g>
	<g>
		<path d="M101,531.2c-3.6-3.6-9.5-3.6-13.1,0l-30.5,30.5c-3.6,3.6-3.6,9.5,0,13.1c1.8,1.8,4.2,2.7,6.5,2.7c2.4,0,4.7-0.9,6.5-2.7
			l30.5-30.5C104.7,540.7,104.7,534.8,101,531.2z"/>
	</g>
</g>
<g>
	<line class="st0" x1="-33" y1="669.3" x2="107.1" y2="669.3"/>
	<path d="M107.1,676.8H-33c-4.1,0-7.5-3.4-7.5-7.5s3.4-7.5,7.5-7.5h140.1c4.1,0,7.5,3.4,7.5,7.5S111.3,676.8,107.1,676.8z"/>
</g>
<g>
	<line class="st0" x1="146.4" y1="669.3" x2="286.5" y2="669.3"/>
	<path d="M286.5,676.8H146.4c-4.1,0-7.5-3.4-7.5-7.5s3.4-7.5,7.5-7.5h140.1c4.1,0,7.5,3.4,7.5,7.5S290.6,676.8,286.5,676.8z"/>
</g>
<g>
	<line class="st0" x1="323.4" y1="669.3" x2="463.5" y2="669.3"/>
	<path d="M463.5,676.8H323.4c-4.1,0-7.5-3.4-7.5-7.5s3.4-7.5,7.5-7.5h140.1c4.1,0,7.5,3.4,7.5,7.5S467.6,676.8,463.5,676.8z"/>
</g>
</svg>
