<?xml version="1.0" encoding="utf-8"?>
<!-- Generator: Adobe Illustrator 19.0.0, SVG Export Plug-In . SVG Version: 6.00 Build 0)  -->
<svg version="1.1" id="Capa_1" xmlns="http://www.w3.org/2000/svg" xmlns:xlink="http://www.w3.org/1999/xlink" x="0px" y="0px"
	 viewBox="-43.1 1.1 500 500" style="enable-background:new -43.1 1.1 500 500;" xml:space="preserve">
<style type="text/css">
	.st0{display:none;fill:#020202;}
	.st1{fill:#020202;}
</style>
<g>
	<g>
		<path class="st0" d="M437.9,121.3l-0.1-0.6C426.1,73.6,373.5,23,325.2,12.4l-0.5-0.1c-78.2-14.9-157.4-14.9-235.5,0l-0.6,0.1
			C40.2,23-12.4,73.6-24.1,120.8l-0.1,0.6c-14.4,65.9-14.4,132.7,0,198.6l0.1,0.6c11.2,45.2,59.9,93.5,106.4,106.7v52.7
			c0,19.1,23.2,28.4,36.4,14.7l53.4-55.5c11.6,0.6,23.2,1,34.7,1c39.3,0,78.7-3.7,117.8-11.2l0.5-0.1
			c48.3-10.5,100.9-61.2,112.6-108.3l0.1-0.6C452.3,254,452.3,187.2,437.9,121.3z M395.7,310.4c-7.8,30.8-47.7,69-79.5,76.1
			c-41.6,7.9-83.4,11.3-125.3,10.1c-0.8,0-1.6,0.3-2.2,0.9c-5.9,6.1-39,40-39,40L108.3,480c-3,3.2-8.4,1-8.4-3.4v-87.2
			c0-1.4-1-2.7-2.4-2.9c0,0,0,0,0,0c-31.7-7.1-71.7-45.3-79.5-76.1C5,250.8,5,190.4,18,130.9c7.8-30.8,47.7-69,79.5-76.1
			c72.6-13.8,146.2-13.8,218.7,0c31.8,7.1,71.7,45.3,79.5,76.1C408.7,190.5,408.7,250.8,395.7,310.4z"/>
		<path class="st1" d="M294.8,384c-6.2-1.9-12-3.1-17.5-5.4c-56.5-23.4-108.5-53.7-149.7-100c-23.4-26.4-41.7-56.1-57.2-87.6
			C63,176,56.9,160.5,50.5,145.1c-5.8-14.1,2.7-28.6,11.6-39.2C70.6,96,81.3,88.4,93,82.8c9.1-4.4,18.1-1.9,24.7,5.9
			c14.4,16.7,27.6,34.2,38.3,53.6c6.6,11.9,4.8,26.5-7.1,34.6c-2.9,2-5.5,4.3-8.2,6.5c-2.4,1.9-4.6,3.9-6.2,6.6
			c-3,4.8-3.1,10.5-1.2,15.8c14.7,40.4,39.5,71.8,80.2,88.7c6.5,2.7,13,5.9,20.5,5c12.6-1.5,16.6-15.2,25.4-22.4
			c8.6-7,19.6-7.1,28.9-1.3c9.3,5.9,18.2,12.2,27.2,18.5c8.8,6.2,17.5,12.4,25.6,19.5c7.8,6.8,10.4,15.8,6.1,25.1
			c-8,17-19.7,31.2-36.5,40.2C305.8,381.5,300.1,382.3,294.8,384C288.6,382.1,300.1,382.3,294.8,384z"/>
		<path class="st1" d="M207.8,63.3c73.9,2.1,134.6,51.1,147.6,124.2c2.2,12.4,3,25.2,4,37.8c0.4,5.3-2.6,10.4-8.3,10.4
			c-5.9,0.1-8.6-4.9-9-10.2c-0.8-10.5-1.3-21.1-2.7-31.5c-7.6-55-51.5-100.6-106.3-110.3c-8.2-1.5-16.7-1.9-25-2.7
			c-5.3-0.6-12.2-0.9-13.4-7.4c-1-5.5,3.7-9.9,8.9-10.2C204.9,63.2,206.3,63.3,207.8,63.3C281.7,65.4,206.3,63.3,207.8,63.3z"/>
		<path class="st1" d="M320.1,208.9c-0.1,0.9-0.2,3.1-0.7,5.1c-2,7.4-13.2,8.3-15.8,0.9c-0.8-2.2-0.9-4.7-0.9-7.1
			c0-15.6-3.4-31.3-11.3-44.9c-8.1-14-20.5-25.8-35-32.9c-8.8-4.3-18.3-7-27.9-8.6c-4.2-0.7-8.5-1.1-12.7-1.7c-5.1-0.7-7.9-4-7.6-9
			c0.2-4.7,3.7-8.1,8.8-7.8c17,1,33.3,4.6,48.4,12.6c30.7,16.2,48.2,41.9,53.3,76.1c0.2,1.5,0.6,3.1,0.7,4.6
			C319.6,199.9,319.8,203.8,320.1,208.9C319.9,209.8,319.8,203.8,320.1,208.9z"/>
		<path class="st1" d="M274.1,207.1c-6.2,0.1-9.5-3.3-10.1-9c-0.4-4-0.8-8-1.7-11.8c-1.9-7.6-5.9-14.6-12.3-19.2
			c-3-2.2-6.4-3.8-10-4.8c-4.5-1.3-9.2-0.9-13.8-2.1c-4.9-1.2-7.6-5.2-6.9-9.8c0.7-4.2,4.8-7.5,9.4-7.1c28.6,2.1,49.1,16.9,52,50.6
			c0.2,2.4,0.4,4.9-0.1,7.2C279.8,204.9,276.9,206.9,274.1,207.1C267.9,207.2,276.9,206.9,274.1,207.1z"/>
	</g>
</g>
<path d="M81.8,501.1c-3,0-6-0.8-8.7-2.5c-5.5-3.5-8.4-9.9-7.4-16.3l7.8-49.6H56.3c-54.8,0-99.4-44.6-99.4-99.4V100.6
	c0-54.8,44.6-99.4,99.4-99.4h301.2c54.8,0,99.4,44.6,99.4,99.4v232.8c0,54.8-44.6,99.4-99.4,99.4H185.9l-94.9,65.5
	C88.3,500.2,85.1,501.1,81.8,501.1z M56.3,33.7c-36.9,0-66.9,30-66.9,66.9v232.8c0,36.9,30,66.9,66.9,66.9h36.4
	c4.8,0,9.3,2.1,12.4,5.7c3.1,3.6,4.4,8.4,3.7,13.1l-4.9,30.9l67.8-46.8c2.7-1.9,5.9-2.9,9.2-2.9h176.6c36.9,0,66.9-30,66.9-66.9
	V100.6c0-36.9-30-66.9-66.9-66.9H56.3z"/>
</svg>
