<?xml version="1.0" encoding="utf-8"?>
<!-- Generator: Adobe Illustrator 19.0.0, SVG Export Plug-In . SVG Version: 6.00 Build 0)  -->
<svg version="1.1" id="Layer_1" xmlns="http://www.w3.org/2000/svg" xmlns:xlink="http://www.w3.org/1999/xlink" x="0px" y="0px"
	 viewBox="-191 1 500 500" style="enable-background:new -191 1 500 500;" xml:space="preserve">
<g id="XMLID_468_">
	<path id="XMLID_469_" d="M179,288.3c-1-0.5-37.4-18.4-43.9-20.7c-2.6-0.9-5.5-1.9-8.5-1.9c-4.9,0-9.1,2.5-12.3,7.3
		c-3.6,5.4-14.7,18.3-18.1,22.1c-0.4,0.5-1.1,1.1-1.4,1.1c-0.3,0-6-2.3-7.7-3.1c-39.1-17-68.8-57.8-72.9-64.7
		c-0.6-1-0.6-1.4-0.6-1.4c0.1-0.5,1.5-1.8,2.1-2.5c2-2,4.1-4.6,6.2-7.1c1-1.2,2-2.4,2.9-3.5c3-3.5,4.4-6.2,5.9-9.4l0.8-1.6
		c3.8-7.6,0.6-13.9-0.5-16c-0.9-1.7-16.3-38.9-17.9-42.8c-3.9-9.4-9.1-13.8-16.4-13.8c-0.7,0,0,0-2.8,0.1
		c-3.4,0.1-22.1,2.6-30.3,7.8c-8.7,5.5-23.5,23.1-23.5,54c0,27.8,17.6,54.1,25.2,64c0.2,0.3,0.5,0.8,1,1.5
		c29,42.4,65.2,73.8,101.9,88.4c35.3,14.1,52,15.7,61.5,15.7c0,0,0,0,0,0c4,0,7.2-0.3,10-0.6l1.8-0.2c12.2-1.1,39-15,45.1-31.9
		c4.8-13.3,6.1-27.9,2.9-33.2C187.5,292.4,183.7,290.6,179,288.3z"/>
	<path id="XMLID_470_" d="M63.4,1C-72,1-182.1,110.3-182.1,244.7c0,43.5,11.6,86,33.7,123.3l-42.2,124.4c-0.8,2.3-0.2,4.9,1.5,6.6
		c1.2,1.3,2.9,1.9,4.6,1.9c0.7,0,1.3-0.1,2-0.3l129.7-41.2c35.5,19,75.6,29,116.2,29c135.4,0,245.6-109.3,245.6-243.7
		C309,110.3,198.8,1,63.4,1z M63.4,437.7c-38.2,0-75.2-11-107-31.9c-1.1-0.7-2.3-1.1-3.6-1.1c-0.7,0-1.3,0.1-2,0.3l-65,20.7l21-61.9
		c0.7-2,0.3-4.2-0.9-5.9c-24.2-33.1-37-72.2-37-113.1c0-106.4,87.3-193,194.5-193c107.2,0,194.5,86.6,194.5,193
		C257.9,351.1,170.7,437.7,63.4,437.7z"/>
</g>
</svg>
